<svg width="104" height="80" viewBox="0 0 104 80" fill="none" xmlns="http://www.w3.org/2000/svg">
<g clip-path="url(#clip0_1936_3358)">
<path d="M20.742 39.5598C19.4293 41.21 18.7917 43.0666 16.2788 42.804C13.7659 42.5415 15.1912 42.4665 14.7786 42.1289C14.366 41.7914 14.1972 41.2851 13.7847 40.91C12.5282 43.0478 9.99658 44.8669 7.5587 43.2916C6.17098 42.3915 5.90844 40.9663 5.57088 39.466C5.43961 39.3723 4.80201 40.1411 4.61448 40.2724C3.75185 40.8725 2.23286 41.135 1.20144 41.0038C-0.448818 40.8162 0.788877 38.4534 1.46398 37.7595C1.95156 37.2719 4.52072 35.903 4.57698 35.7154C4.68949 35.3591 3.97688 34.5902 3.95813 34.1964C3.93938 33.8026 4.25818 32.94 4.35194 32.79C4.44571 32.6399 4.44571 32.6962 4.53947 32.79C4.95204 33.2963 5.13957 34.1027 5.40211 34.684C5.79592 34.7965 6.43352 33.0713 6.65856 33.3338C6.86484 34.4215 5.98345 35.1341 5.92719 36.1842C6.43352 38.3596 6.0022 41.3226 8.66512 42.1289C11.328 42.9353 11.7219 41.7539 12.8095 40.6099C13.1283 40.2911 13.7847 39.2222 14.216 39.2035C14.6473 39.1847 14.6473 39.7661 14.8161 40.0474C15.885 41.8664 18.1354 41.4538 19.3543 40.0286C20.5733 38.6034 20.742 37.5532 21.3609 37.4219C21.9797 37.2907 21.9235 37.9283 22.1485 38.1346C23.4612 39.3535 26.0491 39.2785 27.4931 38.3221C28.187 37.872 28.412 37.497 27.6431 36.9719C26.1804 35.9592 23.0111 37.6657 23.3862 34.4777C23.7613 31.2897 24.7739 31.4022 26.4429 32.3024C28.637 33.4651 29.706 38.3596 27.5681 39.9348C26.5742 40.6662 25.1677 40.6287 24.0051 40.7412C24.0613 41.9227 23.9488 43.1791 23.2174 44.173C22.8799 44.2668 21.811 43.0291 21.5109 42.8228C21.2109 42.6165 21.4171 42.6915 21.2859 42.729C20.3295 44.2855 18.8667 47.8111 21.1546 48.8613C23.4237 49.8927 24.9427 47.1547 26.2929 45.8983C28.712 43.6292 31.4125 43.1791 34.1692 41.6789C34.863 41.3038 36.2132 40.685 35.9882 39.7473C34.863 34.4215 32.6314 28.8518 31.9751 23.451C31.3187 18.0501 32.1438 22.3821 32.2751 22.082C32.4064 21.782 32.2751 21.857 32.4439 21.8945C32.5564 21.9507 33.0065 22.9259 33.1002 23.1322C33.194 23.3385 33.7941 24.6512 33.8128 24.7637C33.8316 25.0075 33.5691 25.345 33.494 25.5888C34.0754 29.6207 35.9132 33.7839 36.5133 37.7783C37.1134 41.7726 33.7191 43.1416 29.9497 45.1482C28.6933 45.8233 27.3056 46.7047 26.2554 47.6798C24.7552 49.0675 23.1987 52.0118 20.7233 50.324C18.2479 48.6362 19.148 46.986 19.6169 45.2794C20.0857 43.5729 20.8358 42.7478 20.9108 41.8851C20.9858 41.0225 20.742 40.2911 20.742 39.5973V39.5598ZM24.7552 34.9653C25.2803 35.0591 26.2554 34.9653 26.8367 34.9653C27.4181 34.9653 27.1368 35.1903 27.0618 34.9278C26.9868 34.6653 26.4242 34.1589 26.2367 34.0277C25.4115 33.4651 24.5301 33.4276 23.9113 34.2902C23.8925 34.5527 24.5301 34.9278 24.7552 34.9653ZM4.55822 36.5968C3.73309 37.4407 2.5329 38.0033 1.68902 38.7909C0.845136 39.5785 1.10768 39.4848 1.91406 39.466C2.72043 39.4473 4.48321 39.091 4.93328 38.6034C5.38335 38.1158 5.15832 36.4093 4.53947 36.5781L4.55822 36.5968ZM22.9924 42.1852C23.2924 41.8289 22.1485 39.6348 21.4546 39.6535C21.3796 40.4412 21.6609 41.0975 22.2235 41.6414C22.7861 42.1852 22.9361 42.2415 22.9924 42.1852Z" fill="white"/>
<path d="M58.6412 38.4722C58.8287 38.4909 58.7912 38.4722 58.8475 38.3597C58.9975 38.0221 59.0725 37.2345 59.2788 36.9907C59.6726 36.5594 61.3416 35.5655 61.923 35.2092C62.8981 34.6278 63.9296 34.084 64.961 33.5964C65.0922 33.4276 64.1171 32.9776 63.9483 32.8651C61.2854 31.0085 61.1166 27.2579 64.3046 25.8515C67.4926 24.445 68.7491 25.6452 70.4743 27.4267C70.1368 27.4455 69.8367 27.1454 69.4992 27.0516C67.9802 26.5641 64.8672 26.8454 63.4607 27.633C62.0543 28.4206 62.4668 28.4394 62.9357 29.3583C63.7045 30.896 66.2174 32.5838 67.9427 32.0212L73.1748 29.452L72.4809 31.0648L62.2418 36.5406C62.2043 36.7469 62.3356 36.6719 62.4668 36.6719C64.6984 36.8219 68.3365 36.2031 70.6619 35.9405C72.9872 35.678 73.4373 35.4342 73.4186 35.6405L72.7247 37.122C69.7242 38.5285 66.2174 39.4661 63.4045 41.2476C63.0669 41.4727 61.9605 42.2228 61.8105 42.5416C61.4354 43.3667 62.9544 44.3044 63.5733 44.5669C64.1921 44.8295 65.4485 45.1295 65.5048 45.242C65.6736 45.5046 65.336 46.5922 65.186 46.911C63.0294 46.911 60.479 45.6358 59.2413 43.8168C57.1785 40.7788 57.4785 33.7465 57.2347 30.0146C57.0472 27.2579 56.8972 24.2574 56.4846 21.557C56.4284 21.1632 56.1658 20.5256 56.1471 20.1693C56.1283 19.813 56.5596 18.8941 56.7284 18.519C57.0285 18.519 57.4598 22.1946 57.4973 22.6259C57.9849 27.3704 57.9849 32.1524 58.3974 36.8782C58.81 41.6039 58.5475 37.9284 58.585 38.4534L58.6412 38.4722ZM67.3051 37.7596C65.7861 37.9284 64.2671 38.1721 62.7481 38.3034C61.8105 38.3784 60.704 38.3034 59.7664 38.3972C59.1288 38.4534 58.6787 38.5472 58.735 39.2411C58.8475 40.7226 59.8039 42.5978 60.9853 43.498C62.1668 44.3981 61.0979 43.6668 61.2479 43.6293C61.1541 41.6977 62.0543 40.5913 63.6295 39.6349C64.6984 38.9785 66.0299 38.6035 67.0801 38.0221C68.1302 37.4408 67.3426 37.9471 67.3051 37.7408V37.7596Z" fill="white"/>
<path d="M44.2954 28.4581C44.0891 30.0896 41.8388 32.3587 42.9077 33.9527C43.9766 35.5467 44.3517 33.6901 44.6142 32.9588C44.9517 33.1088 44.5017 34.2715 44.3892 34.534C44.1829 35.0591 43.7891 35.9405 43.189 36.053C42.5889 36.1655 42.1201 35.0591 41.9513 35.2091C40.9949 37.6845 39.2884 40.535 41.1824 43.0479C44.0141 46.7797 49.2837 44.2293 52.3404 42.204C52.8843 41.8477 54.0469 41.0601 54.4595 40.61C54.8721 40.1599 54.6283 40.1224 54.5158 39.7286C54.2345 38.6784 53.5781 37.7033 53.2218 36.6906C52.8655 35.678 52.8843 35.0029 52.5092 34.2527L52.9593 32.6775C53.1655 32.6212 53.1093 32.715 53.1655 32.79C53.4281 33.1276 54.2907 34.5153 54.4032 34.8903C54.5158 35.2654 54.422 35.0404 54.3657 35.0216L53.8219 34.6653C53.6719 34.6465 53.6719 34.6653 53.6906 34.7966C53.7844 35.603 54.722 36.9532 55.0033 37.8346C55.5472 39.5786 55.0033 41.5851 53.6531 42.7853C50.6339 45.4295 44.0891 48.8425 40.8824 44.8107C38.857 42.279 39.7197 38.8285 41.1074 36.1843C41.2574 35.903 41.9888 34.8903 42.0075 34.7591C42.0638 34.4965 41.9325 33.7652 41.97 33.3526C42.0825 32.4149 43.3765 29.5457 43.9203 28.7206C44.4642 27.8955 44.0891 28.4018 44.2954 28.4206V28.4581Z" fill="white"/>
<path d="M93.2408 41.1163C93.2783 41.06 93.5033 40.91 93.4846 41.135C93.4471 42.2789 92.4531 43.7792 93.5221 44.7918C94.591 45.8045 96.185 44.9419 97.2727 44.3793C99.448 43.2541 101.68 41.7539 103.536 40.1786C103.574 40.0661 103.424 39.7473 103.349 39.6348C102.749 38.7346 100.442 37.8157 99.448 37.1219C98.154 36.2405 97.6102 35.3966 96.6163 34.2527C95.6224 33.1087 96.26 34.0651 96.2037 33.9339C96.1475 33.8026 95.9787 32.4899 96.2037 32.3024C96.2787 32.2836 97.5539 32.9962 97.6102 33.0525C97.7602 33.2588 97.6477 33.5588 97.7415 33.8214C98.2103 35.2278 102.13 36.578 103.199 37.6657C104.268 38.7534 104.268 40.9287 103.199 41.9976C102.111 43.0666 99.2042 44.8106 97.8165 45.6357C96.3725 46.4796 94.2909 47.9611 93.0532 46.0108C92.5844 45.2607 92.5657 44.323 92.6407 43.4416C92.6782 43.0853 93.0532 41.3038 93.2033 41.0788L93.2408 41.1163Z" fill="white"/>
<path d="M87.5399 37.6845C87.5587 39.2598 87.6337 40.5538 86.5835 41.829C85.4584 43.1979 81.5952 45.6171 79.9075 46.1609C78.2197 46.7047 76.3069 46.5547 74.6191 47.061L74.6566 46.7047C76.1194 46.0859 77.6384 45.5608 79.1011 44.9232C80.5638 44.2856 83.0017 43.1042 84.6707 41.904C85.1958 41.5289 87.0148 40.1599 86.9773 39.5411C86.9398 38.9222 86.6398 38.4722 86.546 38.2471C86.246 37.5908 85.3083 36.4844 85.3646 35.8468C85.4208 35.2092 85.6459 35.0404 85.6271 34.6278H85.9647C86.2647 35.1904 86.321 35.6592 86.9773 35.8468C87.6337 36.0343 88.8714 35.8655 89.284 35.0779L88.3276 33.5964C88.5338 33.0338 88.2901 31.4961 89.1339 32.4337C89.9778 33.3714 90.1466 35.3029 89.5465 36.5406C89.0964 37.4595 88.4588 37.5533 87.5212 37.7221L87.5399 37.6845Z" fill="white"/>
<path d="M83.3768 28.9082C83.4331 31.1023 81.7641 32.6776 80.9389 34.5529C81.4828 35.2655 82.1579 35.528 82.4392 36.4657C82.9455 38.1722 82.1391 39.8037 80.7514 40.7601C79.7575 41.454 78.2198 41.679 78.051 40.1413C77.8635 38.3972 78.6698 36.7095 79.3637 35.1717C78.5948 34.4779 77.9947 33.6715 77.3571 32.8839C77.2446 32.7526 77.0008 32.6776 76.9258 32.5088C76.7195 32.0775 76.7758 31.3461 76.8695 30.8961C77.0196 30.8773 77.1321 30.9336 77.2634 30.9898C77.3946 31.0461 78.4073 31.9087 78.4635 31.965C78.6511 32.2088 78.5948 32.5838 78.8574 32.9214C79.1199 33.2589 79.7575 33.634 80.0763 33.934C80.2451 33.934 81.8391 31.4211 82.0454 31.0461C82.4017 30.446 82.7205 29.6209 83.0768 29.0958C83.4331 28.5707 83.1705 28.852 83.3581 28.8895L83.3768 28.9082ZM80.0951 35.8656C79.6075 36.4844 77.5071 39.9162 79.5137 39.6349C81.5203 39.3536 81.539 38.5473 82.1016 37.8722C82.1579 37.7409 82.1016 37.6471 82.0266 37.5159C81.8953 37.2158 80.3388 35.7906 80.0951 35.8656Z" fill="white"/>
<path d="M93.8407 40.1036C93.7095 40.2349 93.672 40.1036 93.6532 39.9724C93.5407 39.1097 93.7095 38.0033 93.6532 37.0844C93.4094 32.7525 92.1342 27.5204 91.2716 23.2072C91.1403 22.4946 90.7277 21.782 90.9153 21.0694C91.1028 20.3568 91.3841 19.8879 91.4404 19.8879C91.5341 19.963 91.5904 20.038 91.6466 20.1317C91.7591 20.338 92.5655 22.0445 92.5655 22.1946C92.5843 22.5321 92.3592 22.7196 92.3217 23.0197C92.2092 23.7135 93.0906 27.1828 93.2594 28.1767C93.6344 30.2583 94.0658 32.4712 94.272 34.5528C94.4596 36.4281 94.6659 38.3596 93.822 40.1036H93.8407Z" fill="white"/>
<path d="M35.2385 21.8758C35.3885 21.8383 35.426 21.9883 35.4823 22.0821C35.6698 22.3633 36.5699 23.9949 36.6074 24.2199C36.6637 24.5199 36.4012 24.82 36.3074 25.1013C36.7762 29.0957 38.389 33.1463 38.9703 37.1032C39.1203 38.1346 39.2141 39.3535 38.5015 40.1974C38.389 40.1974 38.314 39.7849 38.2952 39.6723C38.0889 38.6034 37.9952 37.4032 37.7889 36.2968C37.0012 32.0211 35.8761 27.8205 34.7509 23.6198C34.7321 23.3385 35.0134 21.932 35.2385 21.8758Z" fill="white"/>
<path d="M25.786 22.0632C25.8048 22.5508 25.486 22.9821 25.0734 23.1884C19.8601 25.1762 15.0218 27.9891 9.97728 30.2957C9.69599 30.427 8.177 31.1584 8.02697 31.0083C7.97071 30.577 8.06448 30.4083 8.40203 30.1645C8.98337 29.7331 10.2211 29.1706 10.9149 28.7955C15.3594 26.4701 20.3664 24.2385 25.0172 22.3257C29.6679 20.4129 25.7298 22.0069 25.8048 22.0632H25.786Z" fill="white"/>
<path d="M76.6058 17L76.362 17.8251C71.3925 19.6629 66.5542 21.857 61.9785 24.5012L62.166 23.6386C66.8543 21.1819 71.5613 18.6878 76.6058 17Z" fill="white"/>
<path d="M88.6078 27.6517C88.4953 27.0329 88.364 26.5078 87.7076 27.0704C87.0513 27.633 87.0138 28.0455 87.9139 28.3268C89.2079 28.7207 89.5642 28.008 90.6894 27.6705C90.7831 27.7643 90.4268 28.6644 90.333 28.7769C90.1268 29.0207 89.0391 29.452 88.6828 29.6771C88.0639 30.0521 87.5576 30.5022 86.995 30.8772C86.4324 31.2523 86.7887 31.046 86.6387 31.0273C86.4512 30.6335 87.5389 29.527 87.4451 29.3958C87.1263 29.3958 86.3949 28.8144 86.3574 28.5331C86.4324 27.8205 87.8577 25.5326 88.6265 25.7389C89.3954 25.9452 89.2641 27.3329 88.6265 27.6892L88.6078 27.6517Z" fill="white"/>
<path d="M47.9517 24.4825C47.4453 24.5388 46.7702 24.7638 46.2827 24.9326C46.1514 24.7451 46.6202 23.5824 46.789 23.3949C47.2953 22.851 50.1083 22.7948 50.8771 22.9448C50.9334 23.0573 50.9709 23.1698 50.9334 23.3011C50.8396 23.6949 49.6769 25.3827 49.3394 25.5889C48.7018 25.964 47.5016 25.9828 46.7702 26.2828C46.8265 26.0953 47.2016 25.9077 47.3891 25.814C47.9704 25.4952 48.608 25.2326 49.1519 24.8763C49.6957 24.52 49.5457 24.6888 49.5269 24.4825C49.0206 24.52 48.458 24.4263 47.9517 24.4825Z" fill="white"/>
<path d="M11.7966 49.9302C11.5716 50.0615 10.3901 49.1238 10.2026 48.88C10.1651 48.73 10.8777 47.6986 11.009 47.6236C11.2903 47.4736 12.1904 48.3924 12.4905 48.4862C12.7155 48.4862 13.1656 47.7173 13.2781 47.5111C13.5406 47.3423 14.8533 48.3737 14.8721 48.4675C14.9846 48.805 14.2907 49.5364 14.0657 49.8177L12.5655 48.88L11.7778 49.9302H11.7966Z" fill="white"/>
<path d="M26.9481 28.1955C27.0606 28.383 26.498 29.677 26.3667 29.7145L24.7727 29.0957L24.1539 30.2583C23.9851 30.3709 22.4098 29.6207 22.3911 29.4144C22.3723 29.2082 22.9349 28.158 23.0474 28.1205L24.6414 28.7393C24.8665 28.6831 24.9977 27.5954 25.3728 27.5767C25.5228 27.5767 26.8918 28.158 26.9293 28.233L26.9481 28.1955Z" fill="white"/>
<path d="M4.12639 30.5209C3.47004 30.5959 2.9637 30.0896 2.38236 29.902L1.651 31.121C1.3697 30.9897 -0.0367696 30.5209 0.000736362 30.2208L0.582078 28.9832C0.825867 28.8144 1.9698 29.4895 2.2886 29.6208C2.47613 29.6208 2.68241 28.3831 3.07622 28.3831L4.63272 29.1707L4.12639 30.5209Z" fill="white"/>
<path d="M79.7753 23.5074L78.6877 22.6073C77.6 24.4076 75.5934 25.5703 73.8119 26.5829C73.7181 26.4892 73.9994 26.2454 74.0744 26.1704C75.4059 24.8764 77.2999 23.9763 78.5001 22.4573C78.5376 22.2885 77.6187 21.8384 77.6187 21.3884C77.6 20.6382 78.8377 18.9692 79.2315 20.2069C79.4565 20.882 79.0627 21.5946 79.269 21.9697C79.6066 22.5323 80.1879 22.5885 79.7566 23.5074H79.7753ZM78.4626 20.6195C78.3876 20.6195 78.1251 20.9008 78.1438 21.0133L78.7252 21.5196C79.0065 21.5196 78.7252 20.5632 78.4626 20.6195Z" fill="white"/>
<path d="M80.4696 26.9392C80.6572 26.8829 81.8948 27.7455 81.9324 27.8956C82.0261 28.2331 81.4073 28.927 81.1635 29.1708C80.8822 29.2458 80.0195 28.4581 79.7383 28.2894C79.4195 28.5707 79.2132 29.3583 78.7443 29.2833C78.2755 29.2083 77.4691 28.4206 77.4316 28.3081L78.2943 27.0329L79.7195 27.9143L80.4696 26.9392Z" fill="white"/>
<path d="M101.885 24.4824C101.773 24.8762 101.866 25.2326 101.529 25.5139C100.985 25.9639 99.2222 26.6578 98.472 27.0703C97.7219 27.4829 97.0093 27.8955 96.2967 28.3268C96.0904 28.4581 95.1715 29.2269 95.0215 29.0769C95.059 28.6831 95.2465 28.1768 95.5466 27.8955C96.503 27.0141 99.766 25.3638 101.041 24.745C102.316 24.1261 101.791 24.3699 101.885 24.4637V24.4824Z" fill="white"/>
<path d="M91.2335 41.454L90.9898 42.3542C89.3958 43.2731 87.7455 44.1357 86.189 45.1109C85.4389 45.5797 84.6888 46.0298 84.1074 46.6861C84.1074 45.9547 84.3512 45.4672 84.9326 45.0171C86.039 44.1357 89.602 42.0729 90.9147 41.5103C92.2275 40.9477 91.121 41.4165 91.2523 41.4353L91.2335 41.454Z" fill="white"/>
<path d="M46.8838 56.1187C49.2654 56.1187 49.0591 60.2256 46.2462 59.7755C44.6334 59.5317 44.6709 56.1187 46.8838 56.1187ZM47.2588 59.3067C47.8402 58.8378 47.6714 56.7187 46.865 56.55C45.421 56.2499 46.0586 60.3006 47.2588 59.3067Z" fill="white"/>
<path d="M49.527 56.85C49.4895 56.625 49.1332 56.5687 49.1707 56.3999C49.8271 56.0811 49.527 55.3123 50.0334 54.8247C50.5397 54.3371 51.8899 54.3371 51.6649 55.2748C51.1961 55.6311 51.1023 55.031 50.8397 54.9935C50.1646 54.8809 50.3147 55.8561 50.3897 56.2687C50.5209 56.4749 51.121 56.3062 51.3461 56.2687V56.5687C51.1398 56.85 50.4647 56.5687 50.3709 56.8688L50.4459 59.7942H49.5458C49.4333 58.9128 49.6958 57.6939 49.5458 56.8688L49.527 56.85Z" fill="white"/>
<path d="M97.9859 19.9068C98.1921 20.1319 98.0984 20.6945 98.0046 20.957C97.8171 21.0883 97.6296 20.4319 97.1982 20.6382C96.7669 20.8445 96.7669 22.4572 96.5981 22.9261C96.4294 23.3949 96.5231 23.2261 96.3356 23.2074C96.1481 23.1698 95.7543 21.8759 95.473 21.6321C94.8354 21.0508 94.029 21.257 94.5541 19.9256C95.1729 19.6255 95.473 20.2631 95.7543 20.7132C96.0356 21.1633 96.1856 21.5946 96.4106 22.0447C96.7107 21.9134 96.5794 19.7568 97.517 19.7193C98.4547 19.6818 97.9109 19.8318 97.9671 19.9068H97.9859Z" fill="white"/>
<path d="M4.74517 48.8426C5.00771 48.6176 5.02646 47.7924 5.49529 47.8675C5.79533 48.1675 4.42637 51.0742 3.56373 49.574C3.18867 48.8989 3.39495 47.8487 3.54498 47.1173C3.695 46.386 4.3326 43.9856 4.6514 43.9856C4.9702 43.9856 4.76392 44.2294 4.74517 44.3419C4.50138 45.6171 3.54498 46.9298 3.92004 48.3925C4.2951 49.8553 4.40761 49.1052 4.74517 48.8051V48.8426Z" fill="white"/>
<path d="M66.2931 41.7351L68.2059 42.6915L67.4558 44.248L65.6367 43.2729L66.2931 41.7351Z" fill="white"/>
<path d="M25.8057 56.8501C25.7494 56.5688 25.3931 56.6063 25.4494 56.3625C25.9369 56.1562 26.7246 55.9499 26.7058 56.7188C27.3434 56.0624 28.2811 55.8374 28.8249 56.7188C29.4625 55.9312 30.7752 55.8374 30.944 57.0376C31.1128 58.2378 30.8502 57.8627 30.8502 58.2941C30.8502 58.7254 31.0377 59.2129 30.944 59.7005H30.0438V57.1314C30.0438 57.0189 29.7813 56.7376 29.6313 56.7188C29.4812 56.7001 28.9562 56.8876 28.8624 57.0376C28.6186 57.3752 28.8436 59.1942 28.8624 59.7005H27.9623V57.2251C27.9623 57.0189 27.6997 56.7376 27.4559 56.7376C27.2121 56.7376 26.7621 56.9626 26.7246 57.0188C26.4058 57.4502 26.8371 59.1192 26.7058 59.7005H25.8057C25.6931 58.8941 25.9744 57.6002 25.8057 56.8501Z" fill="white"/>
<path d="M3.67618 59.7004L3.63867 55.106H5.81402C6.07656 55.106 6.77042 55.5373 6.9767 55.7436C7.82058 56.6437 7.65181 58.5377 6.6579 59.2879C5.66399 60.038 6.0203 59.7004 5.90778 59.7004H3.69493H3.67618ZM4.67008 59.3254C7.27675 59.8317 7.01421 55.2747 4.67008 55.5373V59.3254Z" fill="white"/>
<path d="M13.0709 61.1821C13.0709 61.2196 13.2022 61.3134 13.1647 61.4071H12.1707C11.9832 59.7756 12.7146 57.8628 11.9082 56.4001C12.1332 56.175 12.6021 56.1 12.9021 56.2125C13.2022 56.3251 13.0521 56.4188 13.1459 56.4188C13.2397 56.4188 13.596 56.1188 13.8585 56.1C14.7962 56.0438 15.34 57.0002 15.34 57.8253C15.34 59.1943 14.4211 59.9819 13.0709 59.7569C13.1084 60.2069 13.0146 60.7133 13.0709 61.1633V61.1821ZM13.0709 59.4193C15.0212 59.9631 14.8712 56.1188 13.0709 56.7189V59.4193Z" fill="white"/>
<path d="M36.7193 59.7003H35.8192C35.6692 58.5939 36.1942 57.3937 35.5566 56.4186C35.988 56.0248 36.7193 56.0435 36.7756 56.7374C37.1319 56.1373 38.5196 55.856 38.7634 56.6436C39.0072 57.4312 38.7634 58.1439 38.8009 58.6877C38.8384 59.2315 38.9697 59.3628 38.8947 59.7191H37.9945V57.1499C37.9945 57.0374 37.732 56.7561 37.582 56.7374C37.4319 56.7186 36.7193 56.9999 36.7193 57.1499V59.7191V59.7003Z" fill="white"/>
<path d="M19.2044 59.513C19.2419 59.738 19.2044 59.663 19.0732 59.7005C18.7169 59.8318 17.9855 59.9255 17.9292 59.4192H17.798C17.2729 60.0568 15.8477 59.9255 15.8477 58.9316C15.8477 57.9377 17.0103 57.8064 17.723 57.8815C17.9105 57.7502 17.873 56.1562 17.0103 56.5875C16.1477 57.0188 17.0103 57.3001 16.3352 57.1688C15.6601 57.0376 15.9602 56.7 16.2415 56.4375C16.7103 55.9874 17.9855 56.0249 18.4168 56.5312C19.0732 57.2814 18.0418 59.2317 19.1857 59.513H19.2044ZM17.7605 58.1628C16.279 57.9752 16.3915 59.888 17.7605 59.1192V58.1628Z" fill="white"/>
<path d="M9.00205 57.8815C8.9833 59.2692 10.2398 59.6818 11.1586 58.6879C11.3087 59.7193 9.82719 59.9443 9.07707 59.738C7.61434 59.3067 7.87688 55.7061 10.1835 56.1937C12.4901 56.6813 11.3462 57.3002 10.9336 57.8815H9.00205ZM10.2773 57.5252C10.2773 56.175 9.20834 56.2687 9.02081 57.5252H10.2773Z" fill="white"/>
<path d="M32.6505 57.8813C32.6317 59.269 33.8882 59.6815 34.8071 58.6876C34.9384 59.6628 33.7194 59.8691 32.9693 59.7566C31.0565 59.4753 31.6191 55.4621 33.982 56.231C34.6008 56.4373 34.9759 57.3374 34.6008 57.8813H32.6693H32.6505ZM34.0007 57.525C33.8694 56.231 32.7818 56.1747 32.7443 57.525H34.0007Z" fill="white"/>
<path d="M41.0514 55.6311L40.9576 56.2687L42.0453 56.1749C42.0078 56.8125 41.4264 56.6062 40.9576 56.625C41.1264 57.6376 40.3388 59.8505 42.139 59.0628C42.1765 59.813 41.1264 59.9067 40.6013 59.738C39.4949 59.4004 40.7138 56.9813 39.7949 56.3812L39.8324 56.2499C40.3013 56.0061 40.4325 55.481 41.0514 55.6123V55.6311Z" fill="white"/>
<path d="M23.8912 55.6312V56.2125L24.8851 56.1563C24.9226 56.7751 24.2288 56.5876 23.7974 56.6064C23.8912 57.1502 23.5912 58.838 24.0225 59.138C24.36 59.3818 24.6413 59.1193 24.9789 59.0442C25.0539 59.8131 24.06 59.8694 23.5162 59.7381C22.316 59.4756 23.6662 56.8501 22.6348 56.3626V56.2313C23.2161 56.1188 23.2349 55.4249 23.8912 55.5937V55.6312Z" fill="white"/>
<path d="M22.166 56.9623C21.8285 57.1686 21.6972 56.6998 21.4159 56.7186C20.4595 56.7373 20.8533 59.1002 20.8346 59.6815H19.9344C19.9719 58.6126 20.3095 57.2999 19.6719 56.381C20.1782 56.0059 20.9471 55.9872 20.7971 56.7936C21.1346 56.456 21.6409 55.7997 22.1473 56.2497C22.6536 56.6998 22.2973 56.8873 22.166 56.9623Z" fill="white"/>
<path d="M50.0702 39.1097L48.1387 38.2096L48.7388 36.6719C48.8325 36.5968 50.6141 37.4595 50.6703 37.572C50.8391 37.8345 50.1077 38.7534 50.0702 39.1097Z" fill="white"/>
<path d="M88.6079 57.2064C88.4766 56.4751 87.614 56.7001 87.2014 57.0752C87.1451 58.0503 87.0701 59.1005 87.2389 60.0569H86.1512C86.1887 59.9444 86.2262 59.8694 86.245 59.7381C86.2825 59.213 86.32 57.1502 86.1325 56.7751C85.9449 56.4001 85.8699 56.5126 85.7949 56.3438C86.17 56.2313 86.7701 55.875 87.0701 56.2875C87.3702 56.7001 87.0889 56.7751 87.2952 56.7001C87.8577 55.95 89.0017 55.7625 89.4705 56.7001C89.9581 56.4563 90.2206 56.0625 90.8207 56.0625C92.5835 56.0625 91.5521 58.9692 91.9459 60.0381H90.952V57.1877C90.952 57.1689 90.7645 56.8126 90.7457 56.8126C90.5019 56.5688 89.6955 56.8126 89.5455 57.0564C89.3205 57.469 89.6018 59.4568 89.583 60.0381H88.5891C88.4953 59.1755 88.7204 58.0128 88.5891 57.1877L88.6079 57.2064Z" fill="white"/>
<path d="M83.114 60.0568H82.0451C81.9701 60.0005 81.67 58.7441 81.4825 58.4816C81.295 58.219 80.076 58.3503 79.6822 58.3878L79.0446 60.0381H78.4258L80.2073 55.3873C80.3011 55.0685 81.1637 54.6372 81.3512 54.8997L83.114 60.0381V60.0568ZM81.3137 57.8815C81.1825 57.7502 80.6574 55.7811 80.5074 55.8936L79.8698 57.8815H81.3137Z" fill="white"/>
<path d="M98.192 60.0568H97.1981C97.0481 58.8379 97.7232 57.3564 96.8418 56.3625C97.4419 56.1187 98.0795 55.8562 98.2483 56.7188C99.0171 55.8937 100.424 55.7249 100.555 57.1126C100.686 58.5003 100.424 59.1004 100.649 60.0568H99.6547V57.3002C99.6547 57.2814 99.4672 56.8501 99.4485 56.8313C99.1672 56.55 98.2108 56.9251 98.2108 57.1314V60.0568H98.192Z" fill="white"/>
<path d="M96.4651 59.7756C96.7089 59.9632 95.8088 60.1507 95.6963 60.1507C95.2837 60.1507 95.1899 60.0007 94.9649 59.7006C94.4586 60.1694 93.6147 60.3945 93.0709 59.8882C91.9832 58.8942 93.7272 57.619 94.7774 58.0691C95.1149 57.9941 94.9462 56.1188 94.1023 56.4939C93.2584 56.8689 93.896 57.319 93.3334 57.2627C92.7708 57.2065 92.9771 56.9252 93.0146 56.6814C93.1459 55.9313 95.6025 55.725 95.8088 57.0377C96.0151 58.3504 95.3775 59.7756 96.4464 59.7944L96.4651 59.7756ZM94.9087 59.4006L94.8336 58.2754C93.1646 58.1629 93.2771 60.1882 94.9087 59.4006Z" fill="white"/>
<path d="M83.1133 61.9509C83.5446 61.6133 83.8634 61.107 83.9197 60.5444C84.0134 59.7943 84.0134 57.8627 83.9197 57.1126C83.8259 56.3625 83.8446 56.7938 83.7696 56.6438C83.6946 56.4937 83.5259 56.5875 83.5634 56.4C84.1447 55.9312 84.8761 55.9874 84.9136 56.8501C84.9511 57.7127 84.8198 57.3189 84.8198 57.5627C84.8198 58.5566 85.0261 60.5819 84.5385 61.3508C84.2385 61.8196 83.6571 62.1571 83.1133 61.9509Z" fill="white"/>
<path d="M84.7082 55.4249C84.3706 55.7625 83.583 55.4249 83.8643 54.8061C84.2018 54.131 85.1957 54.9186 84.7082 55.4249Z" fill="white"/>
<path d="M53.6898 60.0568V55.6873C53.6898 55.6311 53.4648 55.406 53.5023 55.3685C55.5651 55.031 58.0592 55.331 57.7404 58.0127C57.6467 58.8191 56.784 60.0568 55.9026 60.0568H53.6898ZM54.6837 55.8561V59.5504C54.8525 59.7567 55.2838 59.7192 55.5276 59.6817C57.3091 59.4192 56.9528 56.0249 55.3401 55.7436C53.7273 55.4623 54.8337 55.6498 54.6837 55.8561Z" fill="white"/>
<path d="M64.3417 56.4375C64.3229 56.9814 63.8353 56.9251 63.4415 56.7938C64.5667 58.1441 63.2352 59.588 61.6975 59.138C61.0974 59.9256 62.6914 59.7193 63.1227 59.7756C64.4167 59.9256 64.4917 61.107 63.3853 61.6509C62.2788 62.1947 61.4537 62.0072 60.8724 61.5571C60.291 61.107 60.4973 60.7695 60.9661 60.6757C61.435 60.5819 61.3599 60.9758 61.5287 61.257C61.8475 61.8196 63.179 61.6509 63.3478 60.9758C63.4228 60.1319 61.3037 60.7882 60.9474 60.0381C60.5911 59.288 60.9849 59.1567 61.435 59.138C61.51 58.8942 61.2849 58.9692 61.1537 58.8379C60.1598 57.7315 61.1537 56.1375 62.5414 56.3625C63.9291 56.5876 63.0102 56.5876 63.1227 56.5876C63.2352 56.5876 63.3478 56.4375 63.479 56.4188C63.7603 56.4 64.0416 56.4188 64.3229 56.4188L64.3417 56.4375ZM62.0538 56.7188C61.3224 57.0939 61.6412 59.0067 62.3913 58.9692C63.1415 58.9317 63.104 56.4188 62.0538 56.7188Z" fill="white"/>
<path d="M73.2686 59.8693C72.9498 60.2632 72.0309 60.3194 71.9184 59.6818H71.7871C71.2621 60.4132 69.7806 60.3007 69.7431 59.2692C69.7056 58.2378 70.8682 58.1066 71.6746 58.1253L71.7871 58.0503C72.1247 57.1314 70.9808 55.8937 70.7182 57.3002C69.9306 57.694 69.5931 56.9439 70.3432 56.5313C71.0933 56.1188 72.1622 56.2313 72.5185 56.9251C72.9311 57.7315 72.0684 59.5693 73.2499 59.8506L73.2686 59.8693ZM71.7309 58.4254C70.0994 58.2566 70.2306 60.3382 71.7871 59.4193L71.7309 58.4254Z" fill="white"/>
<path d="M74.9928 60.0567H73.9989C73.9239 58.669 74.2427 57.15 74.0927 55.7623C73.9426 54.3746 73.8864 55.106 73.6426 54.8247C75.4241 54.1871 74.9178 55.3873 74.899 56.4937C74.8803 57.6751 74.8615 58.8941 74.9928 60.0567Z" fill="white"/>
<path d="M68.1295 59.1942C68.2045 59.513 68.5796 59.6255 68.8796 59.588C69.1797 59.5505 69.461 59.2692 69.4047 59.5692C69.2922 60.1693 68.242 60.2631 67.7732 60.113C66.5918 59.7567 67.9795 57.0751 66.873 56.5875C67.3606 56.3625 67.6232 55.7811 68.2233 55.9124L68.1295 56.4562C68.4483 56.4562 68.7671 56.4375 69.0859 56.4562C69.4047 56.475 69.3484 56.3812 69.3109 56.5875C69.2172 57.0376 68.467 56.8875 68.1482 56.9063C68.242 57.5626 68.017 58.5941 68.1482 59.2129L68.1295 59.1942Z" fill="white"/>
<path d="M58.8277 57.2062C58.7902 57.0375 58.6401 56.8875 58.5651 56.7562C58.4901 56.6249 58.4151 56.6999 58.5651 56.5874C58.8277 56.4749 59.409 56.3436 59.6153 56.5499C59.9716 56.9062 59.559 59.4566 59.8403 60.0755H58.8464C58.7339 59.2316 58.9965 58.0314 58.8464 57.225L58.8277 57.2062Z" fill="white"/>
<path d="M65.9543 59.8317C65.9543 59.8692 66.0855 59.963 66.048 60.0568H65.0541V57.1313C65.0541 57.0188 64.6603 56.6812 64.6978 56.6437C64.9416 56.4562 65.9543 56.3437 65.9543 56.6812C65.9543 57.6376 65.8418 58.9316 65.9543 59.8317Z" fill="white"/>
<path d="M58.8476 55.7812C58.3788 55.2936 59.1851 54.6373 59.5602 55.1248C59.9353 55.6124 59.2227 56.1562 58.8476 55.7812Z" fill="white"/>
<path d="M65.0727 55.106C65.4477 54.7309 66.2166 55.256 65.8228 55.7061C65.429 56.1562 64.6976 55.4998 65.0727 55.106Z" fill="white"/>
</g>
<defs>
<clipPath id="clip0_1936_3358">
<rect width="104" height="80" fill="white"/>
</clipPath>
</defs>
</svg>
