<svg width="104" height="80" viewBox="0 0 104 80" fill="none" xmlns="http://www.w3.org/2000/svg">
<g clip-path="url(#clip0_1936_3290)">
<path d="M49.9249 11.8946H54.5503C55.0759 11.8946 55.4964 11.4736 55.4964 10.9472C55.4964 10.4209 55.0759 9.99987 54.5503 9.99987H49.9249V11.8946ZM49.9249 16.3157H54.6554C55.2862 16.3157 55.7067 15.8946 55.7067 15.263C55.7067 14.6315 55.2862 14.2104 54.6554 14.2104H49.9249V16.3157ZM57.3887 12.9472C58.0194 13.5788 58.4399 14.4209 58.4399 15.3683C58.4399 17.263 56.9682 18.7367 55.0759 18.7367H47.4019V7.68408H54.9708C56.7579 7.68408 58.2297 9.15777 58.2297 10.9472C58.1245 11.6841 57.8092 12.4209 57.3887 12.9472ZM59.1758 31.8946H56.3374L55.4964 29.9999H49.2941L48.4531 31.8946H45.6148L51.0812 20.842H53.6042L59.1758 31.8946ZM52.3427 23.6841L50.4505 27.6841H54.235L52.3427 23.6841ZM56.1272 34.3157H59.2809L53.7093 41.4736V45.3683H51.0812V41.4736L45.5097 34.3157H48.6634L52.4478 39.3683L56.1272 34.3157ZM70.7394 34.3157V36.7367H63.3807V38.6315H70.5291V41.0525H63.3807V43.1578H70.7394V45.5788H60.7526V34.3157H70.7394ZM78.8339 41.1578H76.8366V45.3683H74.2085V34.3157H80.9364C82.8286 34.3157 84.3003 35.8946 84.3003 37.7893C84.3003 39.3683 83.2491 40.6315 81.8825 41.0525L85.1413 45.3683H81.9876L78.8339 41.1578ZM80.7261 36.6315H76.9417V38.7367H80.7261C81.3569 38.7367 81.7774 38.2104 81.7774 37.6841C81.7774 37.1578 81.2517 36.6315 80.7261 36.6315ZM46.666 45.3683H43.8277L42.9867 43.4736H36.7844L35.9434 45.3683H33.1051L38.6766 34.3157H41.1996L46.666 45.3683ZM39.833 37.1578L37.9408 41.1578H41.8304L39.833 37.1578ZM23.1183 38.5262H27.7438C28.2694 38.5262 28.6899 38.1051 28.6899 37.5788C28.6899 37.0525 28.2694 36.6315 27.7438 36.6315H23.1183V38.5262ZM23.1183 42.9472H27.8489C28.4796 42.9472 28.9001 42.5262 28.9001 41.8946C28.9001 41.263 28.4796 40.842 27.8489 40.842H23.1183V42.9472ZM30.5821 39.5788C31.2129 40.2104 31.6334 41.0525 31.6334 41.9999C31.6334 43.8946 30.1616 45.3683 28.2694 45.3683H20.4902V34.3157H28.0591C29.8462 34.3157 31.318 35.7893 31.318 37.5788C31.318 38.3157 31.0026 39.0525 30.5821 39.5788ZM57.3887 47.6841V50.1051H50.03V51.9999H57.1784V54.4209H50.03V56.5262H57.3887V58.9472H47.4019V47.6841H57.3887ZM55.4964 64.842C55.4964 64.2104 55.0759 63.7893 54.4452 63.7893H49.9249V65.8946H54.4452C55.0759 65.8946 55.4964 65.4736 55.4964 64.842ZM47.2968 72.5262V61.4736H54.6554C56.5477 61.4736 58.0194 63.0525 58.0194 64.9472C58.0194 66.4209 57.1784 67.5788 55.9169 68.1051L59.2809 72.5262H56.1272L52.9735 68.3157H49.9249V72.5262H47.2968Z" fill="white"/>
<path d="M92.1857 37.4737C90.9243 16.6316 73.5788 0 52.3439 0C31.1089 0 13.7634 16.6316 12.502 37.4737C12.502 38.3158 12.6071 39.1579 12.7122 40C13.5532 46.9474 16.1813 53.3684 20.176 58.7368C27.4295 68.6316 39.0983 75.0526 52.3439 75.0526C33.8421 75.0526 18.7043 60.6316 17.4428 42.5263C17.3376 41.6842 17.3376 40.8421 17.3376 40C17.3376 39.1579 17.3376 38.3158 17.4428 37.4737C18.7043 19.3684 33.8421 4.94737 52.3439 4.94737C65.5894 4.94737 77.2582 11.3684 84.5117 21.2632C88.5064 26.6316 91.1345 33.0526 91.9755 40C92.0806 40.8421 92.1857 41.6842 92.1857 42.4211C92.1857 41.5789 92.2909 40.7368 92.2909 39.8947C92.2909 39.1579 92.2909 38.3158 92.1857 37.4737Z" fill="white"/>
<path d="M12.5016 42.5265C13.7631 63.3686 31.1085 80.0001 52.3435 80.0001C73.5785 80.0001 90.9239 63.3686 92.1854 42.5265C92.1854 41.6844 92.0803 40.8422 91.9752 40.0001C91.1342 33.0528 88.5061 26.6317 84.5114 21.2633C77.2578 11.3686 65.5891 4.94751 52.3435 4.94751C70.8453 4.94751 85.9831 19.3686 87.2446 37.4738C87.3497 38.3159 87.3497 39.158 87.3497 40.0001C87.3497 40.8422 87.3497 41.6844 87.2446 42.5265C85.9831 60.737 70.8453 75.0528 52.3435 75.0528C39.0979 75.0528 27.4292 68.6317 20.1756 58.737C16.1809 53.3686 13.5528 46.9475 12.7119 40.0001C12.6067 39.158 12.5016 38.3159 12.5016 37.5791C12.5016 38.4212 12.3965 39.2633 12.3965 40.1054C12.3965 40.8422 12.3965 41.6844 12.5016 42.5265Z" fill="white"/>
</g>
<defs>
<clipPath id="clip0_1936_3290">
<rect width="104" height="80" fill="white"/>
</clipPath>
</defs>
</svg>
