<svg width="104" height="80" viewBox="0 0 104 80" fill="none" xmlns="http://www.w3.org/2000/svg">
<g clip-path="url(#clip0_1936_3245)">
<path d="M9.40522 30.051C9.71569 30.2845 9.60897 31.8589 9.61147 32.3313L9.63475 36.6331C9.64061 37.6497 9.60108 38.8693 9.77233 39.8482C10.7944 38.9118 11.2852 38.4158 12.8083 38.2686C14.2605 38.1258 15.7098 38.5668 16.8364 39.4942C19.0538 41.3381 20.0499 44.9333 18.087 47.3962C16.683 49.158 15.6002 49.8326 13.3076 50.0297C12.1569 49.9981 10.883 49.7475 9.99241 48.9778L9.45741 49.7014C8.73272 49.8038 5.3989 49.8763 4.90321 49.5709C4.80242 49.2882 4.78089 49.3577 4.84497 49.1031C5.20931 48.7892 6.35389 48.9073 6.87773 48.9216C6.78658 46.8255 6.86046 44.1919 6.86058 42.0622C6.84496 38.6088 6.84984 35.1553 6.87521 31.702C6.52979 31.7287 5.20891 31.7559 4.92198 31.6539C4.72946 31.4069 4.77151 31.5222 4.75195 31.2213C4.86766 30.9937 4.91459 30.8934 5.20449 30.8715C6.99504 30.7363 7.79972 31.0688 9.40522 30.051ZM12.9287 49.2579C14.5955 49.7502 16.0018 48.3376 16.0273 46.789C16.0609 44.7492 16.3986 41.5109 15.3812 39.7166C15.3664 39.6905 15.3512 39.6647 15.3353 39.6392C14.6358 39.2323 13.8549 38.8067 13.0258 38.9239C12.0177 39.1581 10.9492 39.4287 10.387 40.3895C9.49311 41.9171 9.60592 43.7557 9.59264 45.4632C9.58202 46.8352 10.2219 48.0918 11.4147 48.8052C11.8494 49.0611 12.4164 49.184 12.9287 49.2579Z" fill="white"/>
<path d="M74.2379 38.1544C76.3822 38.0758 78.4025 39.1587 79.5244 40.9878C80.6462 42.817 80.6955 45.1087 79.6533 46.9844C78.6111 48.86 76.6388 50.0286 74.4931 50.0421C71.2445 50.0626 68.5809 47.4719 68.5112 44.2239C68.4414 40.976 70.9914 38.2734 74.2379 38.1544ZM71.2767 47.3075C72.005 49.1356 72.6484 48.9544 74.2964 49.42C75.0537 49.367 76.2416 49.0706 76.9412 48.7622C77.1521 48.4385 77.556 47.8204 77.5569 47.4367C77.5628 45.0453 77.6473 42.586 77.5144 40.2026C77.468 39.3709 75.3743 38.8581 74.6319 38.864C73.3055 39.0146 71.5347 39.2962 71.4222 40.8957C71.2716 43.0359 71.5708 45.1414 71.2767 47.3075Z" fill="white"/>
<path d="M49.1776 38.1531C50.4503 37.9111 53.7577 38.8047 54.3764 40.1244C55.0077 41.4712 54.0261 48.2757 55.1554 48.926C55.7518 48.8441 56.2457 47.9791 56.9201 48.1105C56.9954 48.2823 57.0057 48.3512 56.9582 48.5389C56.6121 49.9093 54.1878 50.1894 53.1324 49.6139C52.7311 49.395 52.5919 49.2034 52.3547 48.8297C52.3256 48.8427 52.2964 48.8555 52.2671 48.8682C50.5753 49.5967 49.6181 49.97 47.7247 49.8864C46.013 49.8109 44.8747 49.6453 44.1311 47.8861C43.8302 46.9069 44.1876 45.8759 44.8932 45.1787C46.5554 43.5359 49.6659 43.2225 51.8646 43.1616C51.9266 42.3672 52.178 39.7538 51.6735 39.2629C50.6641 38.7622 48.3852 39.0031 47.2718 39.2796C47.1793 39.5073 47.0739 39.8605 46.9932 40.103C47.4483 40.7229 47.5507 41.0022 47.8414 41.7035C47.7846 41.8466 47.6875 42.0791 47.6115 42.1994C47.0114 43.1469 45.1726 42.9474 44.96 41.756C44.6707 40.1349 45.938 39.0369 47.3401 38.5594C47.9803 38.3414 48.5216 38.287 49.1776 38.1531ZM47.6714 48.7581C49.3064 49.2641 51.2579 48.8929 51.9044 47.1494C52.0166 46.8468 52.0185 44.4751 51.9513 44.108L51.8361 43.9969L51.6536 44.0244C50.5554 44.0411 49.5269 44.0259 48.4529 44.355C47.4486 44.6626 47.1617 44.8398 47.0446 45.9124C46.9218 47.0383 46.9437 47.7994 47.6714 48.7581Z" fill="white"/>
<path d="M86.5197 30.4282C88.4846 30.1761 90.1228 30.8767 89.8642 33.3175C89.84 33.5503 89.5338 33.9991 89.3947 34.2153C87.4299 34.4574 87.0611 34.0842 87.3596 32.1946C87.5814 31.9855 88.3088 31.3778 88.351 31.1664L88.2361 31.0374C87.14 30.7071 86.0978 31.2722 86.0478 32.4842C85.9682 34.423 85.8268 36.7312 86.001 38.6663C85.8721 39.0789 85.9057 39.0601 86.0119 39.4782C85.7807 40.1946 86.0002 47.4935 85.9424 48.8845C86.4072 48.8837 88.3307 48.7403 88.3346 49.3253C87.5057 49.9988 82.865 49.4668 81.6213 49.6396C81.2377 49.6928 81.1892 49.7138 80.9924 49.3984C80.9885 49.0843 80.9525 49.1962 81.1017 48.9524C81.4392 48.8115 82.6971 48.9099 83.1463 48.9286C83.0174 45.9641 83.2838 42.1587 83.0682 39.3879C82.8018 39.4041 81.2572 39.5651 81.1635 39.4424C80.3057 38.3192 82.6111 38.6615 83.1244 38.6794C83.1166 36.9172 83.0697 35.0373 83.6721 33.3531C84.1142 32.1147 85.4939 31.194 86.5197 30.4282Z" fill="white"/>
<path d="M40.8729 30.1365C41.1132 30.1766 41.0482 30.1316 41.2053 30.279C41.2872 30.7205 41.2728 31.9579 41.2746 32.4522L41.277 36.4483C41.2767 40.5211 41.3636 44.8644 41.2661 48.9148C41.7535 48.9048 42.9944 48.7966 43.3191 49.1523C43.3524 49.3862 43.3599 49.291 43.2235 49.5448C42.6801 49.9626 37.3804 49.7251 36.5284 49.6148C36.3958 49.4023 36.3838 49.3593 36.461 49.1441C36.8341 48.8512 38.0364 48.9058 38.56 48.899C38.4243 43.2534 38.6345 37.4126 38.5239 31.7248C38.0364 31.7223 36.9592 31.7449 36.5234 31.558C36.3329 31.3579 36.3779 31.4567 36.3486 31.1883C36.8853 30.5345 39.0309 31.0216 39.9348 30.6409C40.3936 30.4477 40.4492 30.4079 40.8729 30.1365Z" fill="white"/>
<path d="M31.2605 38.1953L31.4434 38.1921C31.7865 38.4871 31.7584 39.3859 31.9747 40.0732C33.0748 38.3669 34.5692 38.0762 36.4474 38.6108C37.4276 40.0682 37.0788 41.7928 34.9252 41.185C34.2134 40.9842 34.6089 39.4986 34.1409 39.2344C34.0927 39.2402 33.9392 39.2661 33.9083 39.2928C31.5201 41.3517 31.6941 44.8303 31.7916 47.7007C31.8046 48.083 31.765 48.5286 31.8666 48.7818L32.0506 48.8476C32.4495 48.8667 34.2346 48.9751 34.5013 49.1935C34.403 49.4526 33.6865 49.7142 33.4407 49.7197C31.5395 49.7621 29.6368 49.8158 27.7371 49.6658C27.5677 49.6524 27.5138 49.5289 27.4341 49.4089C27.4102 49.1289 27.3845 49.2305 27.5061 49.0066C27.7898 48.9092 28.7684 48.8754 29.2008 48.8155C28.9448 46.6275 29.364 42.2386 29.0602 39.9142C28.9927 39.3984 28.1048 39.7258 27.7174 39.586C27.5213 39.4035 27.509 39.3698 27.4198 39.1208C27.6558 38.3258 29.9819 39.0767 31.2605 38.1953Z" fill="white"/>
<path d="M65.102 38.9836C65.2349 38.6426 65.3354 38.1897 65.7044 38.0871C66.0216 38.3531 66.1778 41.3491 65.5962 41.5398C65.3582 41.3422 65.3191 40.9485 65.1986 40.6702C64.4752 38.9889 62.2952 38.4903 60.687 39.0597C59.8068 39.3714 59.4613 40.0103 59.1181 40.7996C59.3551 41.1881 59.6258 41.5727 59.8827 41.9496C61.5742 42.8195 63.1225 42.4628 65.0332 42.5717C66.5973 43.5471 67.0841 44.8374 66.8547 46.6442C66.6939 47.9107 66.0743 48.3011 65.3743 49.2307C64.0281 49.7404 63.2491 50.1009 61.7919 49.902C60.6442 49.7614 60.3238 49.3844 59.2806 49.2206C58.9224 49.1642 58.5192 49.4529 58.1396 49.4556L58.0517 49.3327C58.0258 49.1214 58.2224 45.9879 58.2681 45.7891L58.4228 45.7466C58.8895 46.1285 59.1766 46.9426 59.5251 47.4361C60.2837 48.5106 60.8827 49.2825 62.3102 49.2883C63.7312 49.2941 64.2627 49.0217 65.2463 48.0888C65.5195 47.113 65.504 46.8606 65.2266 45.9273C63.121 43.8867 58.15 46.4191 58.2842 41.9373C58.2977 41.4882 58.4875 39.96 58.7027 39.6508C59.3066 38.7833 61.2252 38.2057 62.1996 37.9871C63.1086 38.0596 64.193 38.644 65.102 38.9836Z" fill="white"/>
<path d="M94.0155 35.2458C94.2983 35.7446 94.0835 37.6866 94.5468 38.6113C95.1991 38.6808 97.3007 38.5997 97.6351 39.0244L97.5569 39.2147C97.2804 39.4939 95.3421 39.4638 94.6647 39.592C94.3069 41.4659 94.8632 43.34 94.7694 45.2668C94.7257 46.1673 94.1335 48.5172 95.0647 49.1226C96.1218 49.8099 96.7491 47.8405 97.4015 47.6807L97.5233 47.8256C97.671 48.4658 96.9882 49.1986 96.5093 49.5378L96.4608 49.5719C96.1022 49.8259 95.7194 49.8251 95.303 49.8599C92.8726 49.9407 92.1038 49.5334 91.9069 47.154C91.7647 45.4369 92.1968 41.2077 91.8116 39.7922C91.4702 39.3208 90.8288 39.4957 90.1811 39.2732C90.003 39.0891 90.0476 39.185 90.0327 38.8993C90.2335 38.5737 91.2304 38.6135 91.6882 38.4963C93.3179 38.0794 93.0608 35.8312 94.0155 35.2458Z" fill="white"/>
<path d="M23.8638 37.9473L24.0097 38.0007C24.2734 38.3708 24.2165 47.5207 24.2139 48.8794C24.7349 48.8885 25.474 48.8812 25.9739 48.9441C26.1395 49.1081 26.09 49.0259 26.1319 49.2987C26.0841 49.4202 26.0741 49.496 25.9625 49.5723C25.4502 49.922 21.4956 49.7547 20.6479 49.6826C20.1945 49.644 19.7513 49.5494 19.3013 49.4836C19.2325 49.3209 19.2429 49.4064 19.2959 49.2172C19.7225 48.947 21.2456 48.8802 21.8657 48.7929C21.7502 47.6378 21.8035 46.0641 21.806 44.8778L21.7861 39.821C21.1198 39.5702 19.7582 39.5338 19.4341 39.0845L19.5078 38.9528C20.2809 38.5756 22.0329 38.8565 23.2534 38.5393L23.8638 37.9473Z" fill="white"/>
<path d="M23.0262 30.5388C23.2294 30.5903 23.8381 30.9085 24.0578 31.0169C24.3454 31.6072 24.5824 31.9944 24.261 32.6388C24.0352 33.0919 23.4374 33.5685 23.0186 33.8247C21.3318 32.6265 20.8242 31.5534 23.0262 30.5388Z" fill="white"/>
<path d="M86.001 38.6663C86.6705 38.631 88.2158 38.5414 88.726 38.9062L88.7885 39.0696C88.4611 39.56 86.5291 39.5861 86.0119 39.4782C85.9057 39.0601 85.8721 39.0789 86.001 38.6663Z" fill="white"/>
<path d="M94.0156 35.2458C94.1727 35.0837 94.0914 35.125 94.325 35.0974C94.5195 35.1878 94.6172 35.1894 94.6914 35.4204C94.8563 35.9299 94.9586 38.1442 94.7633 38.5225L94.5469 38.6112C94.0836 37.6866 94.2984 35.7445 94.0156 35.2458Z" fill="white"/>
</g>
<defs>
<clipPath id="clip0_1936_3245">
<rect width="104" height="80" fill="white"/>
</clipPath>
</defs>
</svg>
