<svg width="104" height="80" viewBox="0 0 104 80" fill="none" xmlns="http://www.w3.org/2000/svg">
<path d="M2.30422 41.4138C3.60168 42.9824 5.20714 43.2661 6.18929 43.2661C10.146 43.2661 11.8274 40.0402 12.1283 39.2488C12.4289 38.4572 12.5797 37.6297 12.5797 36.7661C12.5797 35.9027 12.4378 35.0719 12.1283 34.2837C10.9076 31.1742 8.09889 30.2204 6.18929 30.2665C5.22341 30.2897 3.9613 30.4834 2.61302 31.7538V25.5176H0V43.0261H2.30422V41.4138ZM2.78026 35.1232C2.97845 34.6039 3.24364 34.152 3.57618 33.7683C3.90881 33.3843 4.30079 33.0807 4.75194 32.8569C5.20345 32.633 5.68239 32.5209 6.18937 32.5209C6.71201 32.5209 7.19922 32.6288 7.65029 32.8447C8.10188 33.0605 8.49386 33.3605 8.8264 33.7441C9.15876 34.1277 9.42026 34.5799 9.61036 35.0993C9.80028 35.619 9.89542 36.1748 9.89542 36.7661C9.89542 37.3739 9.80019 37.9336 9.61036 38.4451C9.42035 38.957 9.15885 39.4046 8.8264 39.7882C8.49386 40.1718 8.10188 40.4719 7.65029 40.6876C7.19931 40.9036 6.7121 41.0114 6.18937 41.0114C5.66656 41.0114 5.17962 40.9035 4.72846 40.6876C4.27696 40.4719 3.88498 40.1761 3.55244 39.8002C3.21981 39.4246 2.95858 38.9809 2.76848 38.4691C2.57838 37.9576 2.48342 37.398 2.48342 36.79C2.48342 36.1987 2.58198 35.6433 2.78026 35.1232Z" fill="white"/>
<path d="M20.4479 40.7952C20.2181 40.8596 20.0164 40.8912 19.8421 40.8912C19.4147 40.8912 19.0821 40.7593 18.8443 40.4956C18.6068 40.2317 18.488 39.8682 18.488 39.4042V25.5171H15.875V40.3635C15.875 41.2749 16.1244 41.9788 16.6233 42.4743C17.1219 42.9701 17.8229 43.2177 18.7256 43.2177C19.1372 43.2177 19.6046 43.1656 20.1272 43.0619C20.65 42.9578 21.1013 42.8183 21.4812 42.6421L21.1012 40.5793C20.8952 40.6598 20.6773 40.7316 20.4479 40.7952Z" fill="white"/>
<path d="M48.5546 43.2657C50.0905 43.2657 51.3061 42.9179 52.2012 42.2225C53.096 41.5269 53.5435 40.5794 53.5435 39.3801C53.5435 38.8525 53.4484 38.4008 53.2585 38.025C53.0684 37.6496 52.7753 37.3215 52.3793 37.0417C51.9836 36.7622 51.4802 36.5183 50.8709 36.3102C50.261 36.1027 49.5365 35.8945 48.6973 35.6864C48.1902 35.5588 47.7666 35.4429 47.4264 35.3389C47.0855 35.2348 46.8086 35.119 46.5948 34.991C46.381 34.8633 46.2266 34.7114 46.1315 34.5352C46.0366 34.3595 45.989 34.1437 45.989 33.8877C45.989 33.2803 46.2145 32.8365 46.6661 32.5565C47.1174 32.2772 47.6758 32.1367 48.3409 32.1367C49.6395 32.1367 50.8668 32.6009 52.0231 33.5279L53.1395 31.9451C52.5058 31.4016 51.7857 30.9856 50.9777 30.6979C50.1699 30.41 49.2989 30.2661 48.3645 30.2661C47.6834 30.2661 47.0498 30.3541 46.464 30.53C45.878 30.7061 45.3673 30.9659 44.9319 31.3094C44.496 31.6534 44.1557 32.0732 43.9105 32.5685C43.6646 33.0645 43.5423 33.632 43.5423 34.2717C43.5423 34.7514 43.6211 35.1591 43.7798 35.4948C43.9378 35.8307 44.1914 36.1265 44.54 36.3822C44.8882 36.6383 45.3394 36.8619 45.894 37.0538C46.4482 37.2457 47.1134 37.4458 47.8896 37.6534C48.9663 37.941 49.758 38.205 50.2652 38.4448C50.7717 38.6847 51.0254 39.0685 51.0254 39.5961C51.0254 40.1562 50.7999 40.5876 50.3483 40.8912C49.897 41.1953 49.283 41.3469 48.5073 41.3469C47.7471 41.3469 47.0024 41.2072 46.2742 40.9272C45.5456 40.6477 44.8091 40.2357 44.065 39.6919L43.0195 41.3709C43.7323 41.979 44.5835 42.4465 45.5733 42.7739C46.5628 43.1014 47.5569 43.2657 48.5546 43.2657Z" fill="white"/>
<path d="M65.2292 37.0419C64.8334 36.7625 64.3302 36.5185 63.7209 36.3105C63.1109 36.1031 62.3865 35.8947 61.547 35.6868C61.04 35.5591 60.6166 35.4432 60.2764 35.3392C59.9354 35.2353 59.6584 35.1195 59.4447 34.9914C59.2309 34.8636 59.0765 34.7117 58.9815 34.5356C58.8866 34.3599 58.8389 34.1442 58.8389 33.8881C58.8389 33.2807 59.0644 32.8369 59.516 32.5569C59.9672 32.2775 60.5257 32.1371 61.1909 32.1371C62.4893 32.1371 63.7167 32.6013 64.873 33.5282L65.9894 31.9455C65.3557 31.4018 64.6355 30.9859 63.8275 30.6983C63.0198 30.4103 62.1486 30.2666 61.2144 30.2666C60.5333 30.2666 59.8996 30.3544 59.314 30.5304C58.7278 30.7065 58.2171 30.9662 57.7816 31.3098C57.3459 31.6538 57.0056 32.0735 56.7603 32.569C56.5144 33.0649 56.392 33.6325 56.392 34.272C56.392 34.7518 56.4708 35.1594 56.6296 35.4951C56.7876 35.8311 57.0414 36.127 57.3897 36.3825C57.7381 36.6386 58.1894 36.8622 58.7438 37.0542C59.298 37.2461 59.9631 37.446 60.7395 37.6537C61.816 37.9414 62.6081 38.2053 63.115 38.4451C63.6216 38.685 63.8753 39.0689 63.8753 39.5964C63.8753 40.1565 63.6496 40.5879 63.198 40.8916C62.7469 41.1957 62.1329 41.3473 61.3571 41.3473C60.5969 41.3473 59.8521 41.2075 59.1239 40.9276C58.3953 40.6481 57.659 40.2361 56.9148 39.6922L55.8691 41.3713C56.5821 41.9793 57.4334 42.4468 58.4232 42.7743C59.4126 43.1019 60.4069 43.266 61.4046 43.266C62.9404 43.266 64.1561 42.9183 65.0512 42.2229C65.946 41.5272 66.3934 40.5797 66.3934 39.3806C66.3934 38.8528 66.2982 38.4013 66.1084 38.0253C65.9183 37.65 65.6253 37.3219 65.2292 37.0419Z" fill="white"/>
<path d="M81.2651 39.2487C81.5657 38.4572 81.7165 37.6296 81.7165 36.7661C81.7165 35.9027 81.5657 35.0754 81.2651 34.2837C80.964 33.4923 80.5326 32.801 79.9702 32.2091C79.4079 31.6178 78.7349 31.1459 77.9511 30.794C77.1673 30.4426 76.2918 30.2666 75.3261 30.2666C74.3598 30.2666 73.485 30.4426 72.701 30.794C71.9171 31.146 71.244 31.6179 70.6818 32.2091C70.1194 32.801 69.6879 33.4923 69.3871 34.2837C69.0859 35.0754 68.9355 35.9028 68.9355 36.7661C68.9355 37.6296 69.0859 38.4572 69.3871 39.2487C69.6879 40.0401 70.1153 40.7319 70.6699 41.3235C71.224 41.9153 71.8935 42.387 72.6772 42.7384C73.4613 43.0899 74.3439 43.266 75.3261 43.266C76.2918 43.266 77.1673 43.0899 77.9511 42.7384C78.7349 42.3871 79.4079 41.9154 79.9702 41.3235C80.5326 40.732 80.964 40.0401 81.2651 39.2487ZM78.7469 38.4451C78.5569 38.9572 78.2957 39.4047 77.9631 39.7884C77.6305 40.1719 77.2385 40.472 76.7869 40.6877C76.3357 40.9037 75.8487 41.0116 75.3261 41.0116C74.8035 41.0116 74.3164 40.9036 73.8652 40.6877C73.4138 40.4719 73.0218 40.1763 72.6891 39.8003C72.3566 39.4247 72.0951 38.9812 71.9053 38.4692C71.7152 37.9578 71.6202 37.3982 71.6202 36.7902C71.6202 36.1987 71.7188 35.6433 71.9171 35.1233C72.1151 34.6041 72.3805 34.152 72.7132 33.7684C73.0457 33.3845 73.4376 33.0809 73.8888 32.8571C74.3403 32.6333 74.819 32.5213 75.3262 32.5213C75.8488 32.5213 76.3358 32.6289 76.787 32.845C77.2386 33.0607 77.6306 33.3607 77.9632 33.7443C78.2958 34.128 78.557 34.5801 78.747 35.0995C78.937 35.6192 79.0321 36.1751 79.0321 36.7663C79.0321 37.3742 78.9369 37.9337 78.7469 38.4451Z" fill="white"/>
<path d="M103.239 31.8011C102.954 31.3374 102.57 30.9657 102.087 30.6859C101.604 30.4062 100.998 30.2661 100.27 30.2661C99.2558 30.2661 98.3531 30.51 97.5614 30.9976C96.7693 31.4855 96.1123 32.1932 95.5895 33.1202C95.4468 32.3047 95.0785 31.6253 94.4847 31.0816C93.8911 30.5383 93.0791 30.2661 92.0499 30.2661C91.0205 30.2661 90.1058 30.5022 89.3058 30.9735C88.5062 31.4454 87.8605 32.1213 87.3698 33.0003V30.4818H84.9941V43.0257H87.6074V35.5666C87.8765 34.6876 88.3201 33.9759 88.9377 33.4321C89.5554 32.8885 90.2364 32.6165 90.9806 32.6165C91.6932 32.6165 92.2399 32.8845 92.6199 33.4201C93 33.9559 93.1899 34.8154 93.1899 35.9984V43.0258H95.8032V35.5908C96.0726 34.7114 96.512 33.9958 97.1219 33.4442C97.7313 32.8924 98.4083 32.6165 99.1531 32.6165C99.8813 32.6165 100.436 32.8886 100.816 33.4322C101.196 33.976 101.386 34.8316 101.386 35.9985V43.0259H103.999V35.3748C103.999 34.6878 103.943 34.0359 103.833 33.4202C103.722 32.8047 103.524 32.2652 103.239 31.8011Z" fill="white"/>
<path d="M40.6692 34.7611L41.0129 34.4026L40.5443 34.2447C38.6117 33.595 36.5176 33.7729 34.7407 34.6775C34.5135 34.318 34.274 33.9601 34.0358 33.6054C33.1753 32.3232 32.3622 31.1121 32.3622 30.1137L32.3449 29.7998H31.7231V30.1137C31.7231 31.1128 30.9135 32.324 30.0567 33.6063C29.819 33.9619 29.58 34.3206 29.3532 34.6811C27.5745 33.7733 25.4776 33.594 23.543 34.2447L23.0742 34.4025L23.418 34.761C24.1843 35.5601 24.3086 36.7029 24.4398 37.9129C24.5832 39.2323 24.7313 40.5964 25.7072 41.6868C26.8238 42.9346 28.6432 43.6383 30.596 43.6383C31.0732 43.6383 31.5585 43.5921 32.0436 43.5054C32.5287 43.5921 33.0138 43.6383 33.491 43.6383C35.4436 43.6383 37.2634 42.9345 38.38 41.6868C39.3558 40.5963 39.5038 39.2323 39.6473 37.9129C39.7786 36.7029 39.903 35.5602 40.6692 34.7611Z" fill="white"/>
<path d="M32.1425 43.3441H31.9576L31.8862 43.303C29.8439 42.1328 28.0801 41.1227 28.0548 38.1299C28.042 36.6197 29.0659 35.0876 30.0561 33.6063C30.913 32.324 31.7224 31.1128 31.7224 30.1137V29.7998H32.3442L32.3616 30.1137C32.3616 31.112 33.1745 32.3232 34.0353 33.6053C35.0298 35.0872 36.0585 36.6193 36.0455 38.13C36.0203 41.1228 34.2564 42.1335 32.2139 43.3031L32.1425 43.3441ZM32.0427 31.448C31.7123 32.25 31.1523 33.0884 30.5715 33.9574C29.6343 35.3595 28.6653 36.8092 28.6765 38.1246C28.6973 40.5729 29.9683 41.476 32.0501 42.6748C34.1319 41.476 35.4029 40.5728 35.4237 38.1246C35.4347 36.8096 34.4617 35.3597 33.5205 33.9577C32.9371 33.0884 32.3743 32.25 32.0427 31.448Z" fill="black"/>
<path d="M30.596 43.6384C28.6432 43.6384 26.824 42.9346 25.7073 41.687C24.7314 40.5965 24.5835 39.2326 24.44 37.9131C24.3087 36.7031 24.1844 35.5602 23.4181 34.7612L23.0742 34.4027L23.543 34.2448C26.0945 33.3865 28.93 33.9692 30.9427 35.7676C31.4711 36.2401 31.9301 36.7815 32.3067 37.377L31.7825 37.7146C31.4371 37.1685 31.0157 36.6713 30.5307 36.2378C28.7988 34.6907 26.4025 34.1237 24.1807 34.7085C24.8158 35.6127 24.939 36.7451 25.0581 37.8445C25.1906 39.0646 25.3277 40.3263 26.1688 41.2662C27.4161 42.6597 29.7718 43.3064 32.0314 42.8739L32.1472 43.4907C31.6277 43.5903 31.1073 43.6384 30.596 43.6384Z" fill="black"/>
<path d="M33.4917 43.6383C32.9804 43.6383 32.4602 43.5902 31.9408 43.4906L32.0566 42.8738C34.3167 43.3078 36.672 42.6596 37.9191 41.2661C38.7602 40.3262 38.8973 39.0645 39.0298 37.8444C39.1491 36.745 39.2721 35.6125 39.9072 34.7084C37.6853 34.1236 35.2888 34.69 33.5574 36.2377C33.0715 36.6718 32.6503 37.1687 32.3053 37.7145L31.7812 37.3768C32.1573 36.7819 32.616 36.2405 33.1453 35.7675C35.1574 33.9697 37.9927 33.3864 40.545 34.2447L41.0136 34.4026L40.6698 34.7611C39.9035 35.5601 39.7794 36.703 39.648 37.9129C39.5046 39.2325 39.3565 40.5965 38.3807 41.6869C37.264 42.9345 35.4443 43.6383 33.4917 43.6383Z" fill="black"/>
<path d="M32.3621 37.3958H31.7402V42.8638H32.3621V37.3958Z" fill="white"/>
<path d="M6.77734 51.4838C6.77734 51.1955 6.82896 50.9107 6.93218 50.6291C7.03532 50.3476 7.18594 50.0959 7.38351 49.8741C7.58117 49.6524 7.82271 49.4728 8.1083 49.3354C8.39371 49.1979 8.71869 49.1292 9.08324 49.1292C9.51373 49.1292 9.88592 49.2247 10.2001 49.4152C10.514 49.6059 10.7479 49.8542 10.9017 50.1602L10.2033 50.6458C10.1418 50.5128 10.0671 50.4008 9.97939 50.3099C9.89146 50.2191 9.79703 50.1469 9.69609 50.0937C9.59497 50.0404 9.48955 50.0017 9.37981 49.9773C9.26991 49.953 9.16237 49.9407 9.05703 49.9407C8.8286 49.9407 8.62979 49.9873 8.46071 50.0803C8.29163 50.1736 8.15103 50.2943 8.0391 50.4429C7.92708 50.5915 7.84249 50.7599 7.78543 50.9483C7.72828 51.1368 7.69979 51.3241 7.69979 51.5104C7.69979 51.7189 7.73276 51.9195 7.79862 52.1123C7.86456 52.3053 7.95786 52.4748 8.07867 52.6212C8.19948 52.7674 8.3443 52.8851 8.51347 52.9738C8.68246 53.0626 8.86817 53.1067 9.07022 53.1067C9.17556 53.1067 9.28538 53.0934 9.39969 53.0669C9.51382 53.0402 9.62258 52.9982 9.72581 52.9406C9.82895 52.883 9.92444 52.8085 10.0124 52.7177C10.1002 52.6269 10.1705 52.5171 10.2232 52.3883L10.9677 52.8207C10.893 52.9981 10.7865 53.1545 10.6482 53.2897C10.5098 53.425 10.3539 53.5391 10.1804 53.6321C10.0068 53.7253 9.82139 53.7964 9.62372 53.845C9.42606 53.8938 9.23271 53.9181 9.04402 53.9181C8.71007 53.9181 8.40488 53.8472 8.12817 53.7053C7.85155 53.5633 7.61318 53.3784 7.41341 53.1499C7.21355 52.9217 7.05766 52.6622 6.94564 52.3717C6.83335 52.0814 6.77734 51.7853 6.77734 51.4838Z" fill="white"/>
<path d="M17.0231 49.1558V53.8785H16.1205V51.8631H13.999V53.8785H13.0898V49.1558H13.999V51.0649H16.1204V49.1558H17.0231Z" fill="white"/>
<path d="M19.5 53.8787V49.156H20.4092V53.8787H19.5Z" fill="white"/>
<path d="M22.8926 53.8787V49.156H23.8017V53.074H26.1867V53.8787H22.8926Z" fill="white"/>
<path d="M28.2422 53.8787V49.156H29.942C30.3241 49.156 30.659 49.2182 30.9467 49.3423C31.2343 49.4665 31.4748 49.6351 31.6681 49.8478C31.8614 50.0607 32.0064 50.3101 32.103 50.5962C32.1995 50.8822 32.2479 51.1871 32.2479 51.5108C32.2479 51.8701 32.1941 52.1949 32.0865 52.4853C31.9788 52.7758 31.824 53.0241 31.622 53.2303C31.42 53.4365 31.1773 53.5962 30.894 53.7093C30.6107 53.8223 30.2933 53.8788 29.942 53.8788H28.2422V53.8787ZM31.3321 51.5107C31.3321 51.2845 31.3014 51.0762 31.24 50.8855C31.1783 50.6949 31.0884 50.5307 30.9698 50.3932C30.8512 50.2557 30.7051 50.1494 30.5317 50.0738C30.3581 49.9985 30.1616 49.9608 29.942 49.9608H29.1514V53.0739H29.942C30.166 53.0739 30.3647 53.034 30.5382 52.9541C30.7117 52.8744 30.8566 52.7644 30.973 52.6248C31.0894 52.4852 31.1783 52.32 31.24 52.1294C31.3014 51.9387 31.3321 51.7325 31.3321 51.5107Z" fill="white"/>
<path d="M34.4688 53.8787V49.156H36.5374C36.7527 49.156 36.9515 49.2016 37.1337 49.2925C37.3158 49.3834 37.473 49.5031 37.6047 49.6517C37.7365 49.8002 37.8396 49.9687 37.9144 50.1571C37.9891 50.3456 38.0264 50.5352 38.0264 50.7258C38.0264 51.0318 37.9506 51.3101 37.7992 51.5605C37.6475 51.8111 37.4421 51.9918 37.1832 52.1027L38.2504 53.8786H37.2292L36.274 52.2956H35.3779V53.8786H34.4688V53.8787ZM35.3779 51.4907H36.5177C36.6011 51.4907 36.6791 51.4708 36.7516 51.4309C36.8241 51.3909 36.8866 51.3367 36.9393 51.2679C36.9921 51.1992 37.0338 51.1181 37.0645 51.0251C37.0952 50.932 37.1106 50.8322 37.1106 50.7258C37.1106 50.615 37.093 50.513 37.0579 50.4199C37.0227 50.3268 36.9756 50.246 36.9163 50.1771C36.857 50.1084 36.7888 50.0553 36.7121 50.0175C36.6352 49.9798 36.5572 49.9608 36.4782 49.9608H35.3779V51.4907Z" fill="white"/>
<path d="M43.5996 53.0737V53.8785H40.3516V49.1558H43.5403V49.9606H41.2608V51.098H43.2307V51.843H41.2608V53.0737L43.5996 53.0737Z" fill="white"/>
<path d="M46.7218 50.8523V53.8787H45.8125V49.156H46.5175L48.9553 52.2559V49.1627H49.8645V53.8787H49.1265L46.7218 50.8523Z" fill="white"/>
<path d="M52.3218 50.6924L52.4667 49.8808H52.2031V48.9829H53.0926V49.8942L52.8554 50.6924H52.3218Z" fill="white"/>
<path d="M58.1979 50.3931C58.1672 50.3621 58.1113 50.3199 58.03 50.2668C57.9486 50.2135 57.8498 50.1614 57.7335 50.1102C57.6171 50.0595 57.4908 50.0161 57.3546 49.9805C57.2184 49.9452 57.08 49.9274 56.9396 49.9274C56.6891 49.9274 56.5024 49.9739 56.3796 50.067C56.2566 50.1601 56.1951 50.291 56.1951 50.4594C56.1951 50.5571 56.2182 50.6382 56.2642 50.7022C56.3103 50.7666 56.3772 50.8231 56.4652 50.872C56.5529 50.9206 56.6639 50.9651 56.7978 51.0048C56.9317 51.0448 57.0866 51.0871 57.2622 51.1312C57.4908 51.1934 57.6981 51.2599 57.8849 51.331C58.0715 51.4018 58.2297 51.4905 58.3593 51.5969C58.4889 51.7033 58.5887 51.8309 58.659 51.9794C58.7294 52.128 58.7644 52.311 58.7644 52.5282C58.7644 52.7811 58.7171 52.9971 58.6229 53.1767C58.5284 53.3563 58.4009 53.5016 58.2406 53.6124C58.0802 53.7232 57.8958 53.8043 57.6872 53.8552C57.4785 53.9062 57.26 53.9316 57.0318 53.9316C56.6803 53.9316 56.3335 53.8784 55.9906 53.7719C55.6481 53.6657 55.3406 53.5149 55.0684 53.3196L55.4703 52.5281C55.5098 52.5679 55.5811 52.6201 55.6844 52.6844C55.7876 52.7488 55.9094 52.8131 56.0501 52.8774C56.1906 52.9417 56.3466 52.9961 56.5178 53.0403C56.689 53.0847 56.8647 53.1068 57.0448 53.1068C57.5455 53.1068 57.7959 52.9449 57.7959 52.6213C57.7959 52.5194 57.7673 52.4329 57.7102 52.3618C57.6532 52.291 57.572 52.2288 57.4664 52.1755C57.3611 52.1224 57.2337 52.0736 57.0844 52.0293C56.935 51.9849 56.7681 51.9361 56.5836 51.8829C56.3597 51.821 56.1652 51.7532 56.0006 51.6801C55.836 51.607 55.6984 51.5204 55.5889 51.4206C55.4789 51.3209 55.3966 51.2056 55.3417 51.0747C55.2868 50.9441 55.2592 50.7877 55.2592 50.606C55.2592 50.3664 55.3031 50.1536 55.3911 49.9673C55.4788 49.7811 55.6008 49.6259 55.7567 49.5018C55.9125 49.3776 56.0937 49.2834 56.3002 49.2191C56.5067 49.1548 56.7284 49.1226 56.9657 49.1226C57.295 49.1226 57.5981 49.1747 57.8748 49.2789C58.1516 49.3832 58.3931 49.5063 58.5995 49.6481L58.1979 50.3931Z" fill="white"/>
<path d="M63.7656 51.4838C63.7656 51.1955 63.8172 50.9107 63.9205 50.6291C64.0236 50.3476 64.1741 50.0959 64.3718 49.8741C64.5695 49.6524 64.8108 49.4728 65.0963 49.3354C65.3819 49.1979 65.7069 49.1292 66.0716 49.1292C66.5019 49.1292 66.8742 49.2247 67.1882 49.4152C67.5022 49.6059 67.736 49.8542 67.8899 50.1602L67.1914 50.6458C67.13 50.5128 67.0553 50.4008 66.9674 50.3099C66.8795 50.2191 66.7851 50.1469 66.6842 50.0937C66.5832 50.0404 66.4776 50.0017 66.3679 49.9773C66.2581 49.953 66.1506 49.9407 66.045 49.9407C65.8166 49.9407 65.6179 49.9873 65.4488 50.0803C65.2797 50.1736 65.1392 50.2943 65.0272 50.4429C64.9152 50.5915 64.8307 50.7599 64.7735 50.9483C64.7164 51.1368 64.6878 51.3241 64.6878 51.5104C64.6878 51.7189 64.7209 51.9195 64.7866 52.1123C64.8525 52.3053 64.9458 52.4748 65.0668 52.6212C65.1874 52.7674 65.3323 52.8851 65.5014 52.9738C65.6705 53.0626 65.8561 53.1067 66.0582 53.1067C66.1637 53.1067 66.2733 53.0934 66.3877 53.0669C66.5017 53.0402 66.6104 52.9982 66.7137 52.9406C66.8169 52.883 66.9124 52.8085 67.0004 52.7177C67.0882 52.6269 67.1584 52.5171 67.2111 52.3883L67.9555 52.8207C67.8809 52.9981 67.7744 53.1545 67.6361 53.2897C67.4977 53.425 67.3418 53.5391 67.1683 53.6321C66.9948 53.7252 66.8091 53.7964 66.6117 53.845C66.4141 53.8938 66.2206 53.9181 66.0318 53.9181C65.6981 53.9181 65.3927 53.8472 65.116 53.7053C64.8394 53.5633 64.6011 53.3784 64.4013 53.1499C64.2014 52.9217 64.0456 52.6622 63.9336 52.3717C63.8216 52.0814 63.7656 51.7853 63.7656 51.4838Z" fill="white"/>
<path d="M73.3261 53.0737V53.8785H70.0781V49.1558H73.2669V49.9606H70.9872V51.098H72.9572V51.843H70.9872V53.0737L73.3261 53.0737Z" fill="white"/>
<path d="M76.4542 50.8523V53.8787H75.5449V49.156H76.2499L78.6876 52.2559V49.1627H79.5969V53.8787H78.8589L76.4542 50.8523Z" fill="white"/>
<path d="M85.5792 49.9608H84.0839V53.8787H83.1813V49.9608H81.6855V49.156H85.5791L85.5792 49.9608Z" fill="white"/>
<path d="M90.9159 53.0737V53.8785H87.668V49.1558H90.8567V49.9606H88.5772V51.098H90.5471V51.843H88.5772V53.0737L90.9159 53.0737Z" fill="white"/>
<path d="M93.1289 53.8787V49.156H95.1977C95.4127 49.156 95.6116 49.2016 95.7939 49.2925C95.9762 49.3834 96.133 49.5031 96.2648 49.6517C96.3967 49.8002 96.4999 49.9687 96.5745 50.1571C96.6491 50.3456 96.6864 50.5352 96.6864 50.7258C96.6864 51.0318 96.6106 51.3101 96.4592 51.5605C96.3076 51.8111 96.1023 51.9918 95.8431 52.1027L96.9105 53.8786H95.8892L94.934 52.2956H94.0381V53.8786H93.1289V53.8787ZM94.0382 51.4907H95.178C95.2612 51.4907 95.3394 51.4708 95.4117 51.4309C95.4841 51.3909 95.5467 51.3367 95.5996 51.2679C95.6523 51.1992 95.6938 51.1181 95.7248 51.0251C95.7556 50.932 95.7708 50.8322 95.7708 50.7258C95.7708 50.615 95.7533 50.513 95.7182 50.4199C95.683 50.3268 95.6357 50.246 95.5765 50.1771C95.5172 50.1084 95.4491 50.0553 95.3722 50.0175C95.2955 49.9798 95.2174 49.9608 95.1385 49.9608H94.0382V51.4907Z" fill="white"/>
</svg>
