<svg width="104" height="80" viewBox="0 0 104 80" fill="none" xmlns="http://www.w3.org/2000/svg">
<g clip-path="url(#clip0_1936_3280)">
<g clip-path="url(#clip1_1936_3280)">
<path d="M69.0861 35.039C70.3002 35.0362 76.5444 34.8871 77.3785 35.3499C77.8379 36.0304 77.665 42.1746 77.6492 43.3542C76.1781 43.7751 75.135 43.6833 73.6069 43.6764C71.179 43.6523 67.7123 43.8279 65.3814 43.4372C65.2158 42.159 65.0033 36.4196 65.5387 35.4415C66.1168 34.9307 68.2265 35.0489 69.0861 35.039ZM67.5828 41.9525C69.5595 41.9734 72.6931 42.0794 74.6254 41.9395C74.7919 41.8783 74.9893 41.845 75.0257 41.6865C75.3222 40.3946 75.0643 37.9932 74.959 36.7661C72.6786 36.6962 70.3969 36.6851 68.1159 36.7328C67.9319 36.7989 67.7551 36.8179 67.7148 36.9906C67.402 38.3312 67.72 40.6575 67.5828 41.9525Z" fill="white" fill-opacity="0.670588"/>
<path d="M11.6191 27.5334C12.142 27.5071 12.5518 27.5318 13.0745 27.5605C14.0506 28.7654 17.4023 32.68 17.2745 34.2186C16.3874 34.8801 12.911 35.7859 11.6892 36.2715C10.5201 36.736 9.24523 37.2848 8.06992 37.7406C6.96503 38.1536 6.23081 38.6722 4.99045 39.0668C4.24357 36.8921 3.3677 33.3553 3.57346 31.0881C3.63808 30.9795 3.74773 30.7963 3.83541 30.713C5.86993 28.7788 8.92883 27.6804 11.6191 27.5334Z" fill="white" fill-opacity="0.670588"/>
<path d="M27.7018 34.8668C28.6886 34.8286 29.7776 34.9282 30.7761 34.943C32.5598 34.9695 34.2418 34.9474 36.002 35.2519C39.6341 35.8803 40.5042 40.9303 37.3817 42.7714C37.3054 42.8156 37.2262 42.8592 37.1443 42.8924C36.3894 43.1993 35.4572 43.4082 34.6518 43.5159C33.7025 43.6428 27.7657 43.8594 27.1931 43.6037C27.104 43.5639 27.0853 43.5568 27.0566 43.4591C26.9097 42.958 26.9355 35.4164 27.0492 35.1786C27.2172 34.9782 27.4476 34.9415 27.7018 34.8668ZM29.4677 42.1152C31.0975 42.1139 34.4179 42.3057 35.7534 41.5865C36.2647 41.1623 36.5783 40.808 36.5999 40.1185C36.6919 37.1884 35.9106 36.7058 33.1224 36.45C31.9923 36.3464 30.5572 36.4705 29.5145 36.3348C29.3984 38.1921 29.6069 40.2825 29.4677 42.1152Z" fill="white" fill-opacity="0.670588"/>
<path d="M88.504 35.1053C88.9204 35.0359 90.4454 34.8227 90.5063 35.2385C90.6774 36.3991 90.8751 42.819 90.5759 43.6172C90.3634 43.8047 90.3743 43.7441 90.0196 43.7614C87.8274 43.7719 87.5681 43.1077 85.9243 42.0165C84.4329 41.0265 82.5712 39.3486 81.061 38.5468C80.9227 40.0662 81.1376 42.0786 81.0923 43.7095C80.5384 43.7636 79.0337 43.8757 78.5524 43.6757C78.2985 43.1468 78.372 36.4083 78.2837 35.1693C78.5673 35.1127 78.9556 35.0701 79.2509 35.0285C81.1173 34.87 82.3517 36.1743 83.7735 37.1186L87.0087 39.2955C87.547 39.6618 87.9032 39.8191 88.4267 40.25C88.5696 39.3094 88.4642 36.3197 88.504 35.1053Z" fill="white" fill-opacity="0.670588"/>
<path d="M40.5402 35.0253C41.2698 34.9944 41.8542 34.9944 42.5847 35.0164C42.8126 36.0947 42.742 40.5828 42.7286 41.9572C43.482 41.9688 48.6343 42.1299 49.047 41.7663C49.7089 41.1832 49.0362 35.6847 49.5072 35.1692C50.0266 34.8599 51.4101 35.0331 52.0179 35.0912L52.0361 37.4024C52.0233 38.5369 52.2107 42.729 51.8107 43.449C50.9661 43.8826 42.6737 43.6218 41.2371 43.6495C40.9123 43.6557 40.2151 43.5016 39.869 43.416C39.7556 42.2158 39.9175 40.248 39.8855 38.9471C39.8691 38.2821 39.784 35.7116 39.8706 35.2007C40.0569 35.0409 40.2833 35.0524 40.5402 35.0253Z" fill="white" fill-opacity="0.670588"/>
<path d="M55.1038 35.0355L60.3494 35.0337C61.5201 35.0354 62.8278 34.9904 63.9684 35.202C64.375 36.1272 64.3748 36.6743 64.3635 37.6551C63.1423 38.132 62.1819 38.0344 61.4745 36.9063C59.917 36.6085 57.1162 36.7082 55.4471 36.7249C55.3669 37.8033 55.3337 40.9003 55.4266 41.945C56.7231 41.9722 58.0199 41.9805 59.3166 41.97C60.036 41.9776 60.5763 42.0015 61.2769 41.8222C61.9023 41.238 61.8202 40.6558 62.8637 40.702C63.3054 40.7215 63.6568 40.5987 64.1235 40.7808C64.5721 41.1702 64.3414 42.0356 64.2922 42.5601C64.2542 42.9654 64.0801 43.1976 63.8461 43.5269C62.6725 43.778 54.7502 43.8058 53.6574 43.5457C53.4637 43.4996 53.2159 43.4519 53.1137 43.2655C52.7566 42.614 52.9255 36.2688 53.1766 35.2439C53.8437 35.0969 54.4215 35.0716 55.1038 35.0355Z" fill="white" fill-opacity="0.670588"/>
<path d="M14.6055 27.8179C16.4427 28.0958 18.5413 28.8555 19.9879 30.0831C20.4611 30.4847 21.8408 32.0859 21.8836 32.7333C21.9028 33.0248 21.5644 33.3457 21.3627 33.5551C20.1507 33.8794 19.1704 34.1284 17.9148 34.053C17.3764 32.3488 16.5111 30.415 15.3879 29.0165C15.1894 28.7694 14.6653 28.1042 14.6055 27.8179Z" fill="white" fill-opacity="0.670588"/>
<path d="M14.4481 41.0075L14.7239 40.9958C15.419 41.2783 15.5697 43.3412 16.0262 43.9055C16.213 44.1363 16.2698 44.2402 16.2662 44.5058C15.9482 45.0082 13.8414 45.7544 13.1688 45.9322C12.9407 45.9548 12.7275 46.002 12.5291 45.8901C12.1959 45.0069 11.3861 43.2316 11.3301 42.4041C11.5241 42.1073 13.9158 41.2321 14.4481 41.0075Z" fill="white" fill-opacity="0.670588"/>
<path d="M22.0049 34.3907C22.2004 34.3828 22.6211 34.3895 22.7881 34.4681C23.5017 34.8039 23.9983 36.4917 23.733 37.1644C23.4017 37.512 21.2362 38.0034 20.5911 38.1763C18.9943 38.4026 19.1824 36.6326 18.6587 35.3424C19.7935 35.0157 20.8583 34.7005 22.0049 34.3907Z" fill="white" fill-opacity="0.670588"/>
<path d="M4.27683 40.8638C4.43569 40.867 4.62175 40.9127 4.68336 41.0688C4.92645 41.6849 5.74511 43.2793 5.64336 43.8749C4.36486 44.4586 3.42247 44.967 2.20088 45.5573C1.44533 45.09 0.507728 43.6754 0.77298 42.8673C0.90056 42.4786 3.84108 41.0144 4.27683 40.8638Z" fill="white" fill-opacity="0.670588"/>
<path d="M12.8551 36.9587C13.5597 36.893 13.7599 37.9732 14.0018 38.5066C14.1723 38.8827 14.3441 39.6273 14.1591 40.0078C13.5916 40.6249 12.1347 40.9869 11.3094 41.2324L10.5156 41.4661C9.67624 37.8302 8.69913 38.1464 12.8551 36.9587Z" fill="white" fill-opacity="0.670588"/>
<path d="M23.7428 38.1228L23.8481 38.1288C24.1129 38.4912 24.1819 40.5897 23.9084 41.0181C23.5643 41.5571 21.1176 42.837 20.6236 42.5615C20.4257 41.9105 19.6168 39.4757 20.4562 39.1602C21.4558 38.7845 22.7976 38.692 23.7428 38.1228Z" fill="white" fill-opacity="0.670588"/>
<path d="M17.0033 35.6435C17.2484 35.6079 17.3352 35.5828 17.5812 35.6516C17.8399 35.9288 18.3534 37.2872 18.5008 37.6742C19.0306 39.0651 16.7135 39.4245 15.7726 39.5808C15.6695 39.5956 15.4239 39.6362 15.3649 39.5853C14.8619 39.1524 14.3476 37.1293 14.1235 36.509C15.1435 36.0777 15.9356 35.8933 17.0033 35.6435Z" fill="white" fill-opacity="0.670588"/>
<path d="M5.7323 44.6928C5.84332 44.686 6.00418 44.7105 6.12007 44.7239C6.55665 44.9831 7.88655 46.9994 7.75206 47.5633C7.42337 47.9489 5.40379 48.3753 4.78166 48.5152C4.64719 48.5387 4.36273 48.5982 4.24982 48.5319C3.38727 48.0262 3.05012 47.0927 2.7373 46.2353C3.74356 45.7367 4.74202 45.2225 5.7323 44.6928Z" fill="white" fill-opacity="0.670588"/>
<path d="M8.61055 38.6794C8.9275 38.8131 9.87398 41.4396 9.68688 41.8848C9.27117 42.2576 7.40165 43.0864 6.88254 43.1345C6.28126 42.5301 5.72965 40.9676 5.41797 40.1554C6.47921 39.4498 7.4267 39.0879 8.61055 38.6794Z" fill="white" fill-opacity="0.670588"/>
<path d="M9.99416 42.8147C10.5166 43.126 11.6381 45.7117 11.8113 46.392C11.1058 46.7175 10.1565 46.9615 9.28517 47.3705C8.43642 46.5481 7.72506 45.2473 7.20996 44.1963C8.16759 43.4759 8.92611 43.2447 9.99416 42.8147Z" fill="white" fill-opacity="0.670588"/>
<path d="M18.2326 39.7961C18.4394 39.7699 18.5945 39.7622 18.7997 39.7544C18.8444 39.7785 18.8976 39.807 18.9592 39.8401C19.2894 40.8873 19.3229 41.9202 19.7127 42.9678C19.1637 43.6336 17.9403 44.0725 17.1186 44.2841C17.0056 44.3244 16.8189 44.3521 16.6958 44.3753L16.6277 44.2342C16.7708 43.7139 16.6768 43.4842 16.4831 42.9992C16.1894 42.2633 15.9698 41.5707 15.814 40.7918C16.3556 40.4607 17.6226 39.8896 18.2326 39.7961Z" fill="white" fill-opacity="0.670588"/>
<path d="M13.2661 47.045C14.1247 46.4453 15.328 46.0791 16.3218 45.7712C16.6516 46.4923 16.9271 47.598 17.2816 48.4444C17.3801 48.9782 17.3647 49.2575 17.3546 49.7976C16.6039 50.4339 16.0991 50.471 15.1634 50.4809C14.9373 49.7716 13.7116 47.7129 13.2661 47.045Z" fill="white" fill-opacity="0.670588"/>
<path d="M17.4188 47.7173C16.8508 44.7679 17.5334 45.3088 19.7494 44.1267C19.7902 44.3191 19.8348 44.5158 19.8627 44.7101C20.1769 46.9047 20.6331 48.7475 18.0504 49.6729C17.7218 49.4409 17.5277 48.183 17.4188 47.7173Z" fill="white" fill-opacity="0.670588"/>
<path d="M11.3793 47.5177C11.553 47.5074 12.0267 47.4768 12.17 47.5212C13.1334 47.8198 14.0531 49.9351 14.5351 50.8329C13.9487 51.0437 13.6131 51.0879 13.0046 51.1674C12.8309 51.1703 12.3777 51.1779 12.2345 51.1345C11.2284 50.8288 10.2377 49.1817 9.71289 48.3066C10.3706 47.9354 10.6562 47.7356 11.3793 47.5177Z" fill="white" fill-opacity="0.670588"/>
<path d="M23.1111 42.6514C23.235 42.6661 23.2693 42.7229 23.3581 42.8129C23.4521 43.0942 23.2941 43.7346 23.1778 43.9941C22.6377 45.1986 22.2577 46.0996 21.0404 46.6652C20.9581 46.7072 20.9903 46.6875 20.866 46.6684C20.8609 46.658 20.8558 46.6476 20.8508 46.6372C20.4155 43.2892 21.0229 43.5175 23.1111 42.6514Z" fill="white" fill-opacity="0.670588"/>
<path d="M8.2549 48.6204C8.51099 48.6129 8.6295 48.5834 8.82482 48.7966C9.26825 49.2807 9.95349 49.8479 10.1062 50.4973C9.98005 51.1786 8.94693 50.8484 8.4181 50.7693C7.87693 50.6408 6.06838 49.7914 6.0542 49.2123C6.36304 48.9173 7.76699 48.7139 8.2549 48.6204Z" fill="white" fill-opacity="0.670588"/>
<path d="M17.419 47.7173C17.5278 48.1831 17.722 49.441 18.0506 49.6729C17.8093 49.7274 17.5778 49.7466 17.3547 49.7978C17.3649 49.2576 17.3803 48.9783 17.2817 48.4445C17.4299 48.233 17.4084 47.9813 17.419 47.7173Z" fill="white" fill-opacity="0.670588"/>
<path d="M103.75 35.0278V36.7562C102.345 36.7215 100.328 36.5808 99.0157 36.9522C98.793 38.9491 99.1493 41.858 98.8719 43.7334C98.3321 43.7585 97.1821 43.8629 96.7469 43.6574C96.4375 43.1628 96.5516 37.8305 96.4688 36.7549C95.0969 36.7709 92.7899 36.7534 91.4665 36.5951C91.4461 36.1735 91.3969 35.6658 91.5657 35.2818C91.9477 34.9177 95.6633 35.0332 96.443 35.0336L103.75 35.0278Z" fill="white" fill-opacity="0.670588"/>
<path d="M0 36.8301C0.552731 36.0565 0.633376 35.2388 0.996922 34.5502C1.3768 33.8306 2.01198 32.8685 2.44859 32.1528C2.85445 33.2836 2.94362 34.8185 3.17702 36.0238C3.29926 36.6551 3.98169 39.0968 3.85734 39.5242C3.56901 39.9253 3.01223 40.2767 2.57092 40.4956C1.74365 40.9056 0.869414 41.7724 0 41.0115V36.8301Z" fill="white" fill-opacity="0.670588"/>
</g>
</g>
<defs>
<clipPath id="clip0_1936_3280">
<rect width="104" height="80" fill="white"/>
</clipPath>
<clipPath id="clip1_1936_3280">
<rect width="103.75" height="80" fill="white"/>
</clipPath>
</defs>
</svg>
