<svg width="104" height="80" viewBox="0 0 104 80" fill="none" xmlns="http://www.w3.org/2000/svg">
<g clip-path="url(#clip0_1936_3325)">
<path d="M46.7046 6.56865C47.7071 6.31649 49.0766 6.30036 50.1212 6.14485C54.04 5.55302 57.9451 5.81483 61.8352 6.4674C62.7658 6.62349 63.7248 6.97734 64.6284 7.16032C67.3837 7.71825 69.8356 8.7234 72.3072 10.0514C72.8245 10.3518 74.1869 10.8294 74.6067 11.1325C75.2785 11.6211 78.3483 13.287 78.4172 14.021C78.5533 15.4675 76.281 18.4195 74.9306 18.8512C73.7217 19.2377 74.0103 16.9582 73.7511 16.5952C72.4042 16.1922 70.6082 18.1117 70.7425 19.1404C71.047 19.655 71.4123 19.5439 71.9697 19.5414C74.1561 20.8648 70.7676 22.9057 69.5623 23.468C68.8883 23.7825 67.495 24.6736 66.5858 24.5413C65.1187 23.9397 63.5715 22.9253 61.977 22.5146L61.8788 22.2606L62.1364 22.1362L62.1394 22.0648C62.6061 21.239 63.7312 17.0278 62.9318 16.4001C62.5364 16.3546 61.7487 17 61.2235 17.2468C60.733 17.0047 60.5173 16.8858 60.203 16.4418C59.6012 15.9266 59.7219 13.8477 60.0232 13.1323C60.7272 11.46 61.9608 12.7241 62.8711 13.0915C63.8207 12.5486 62.6095 8.16761 62.0747 7.20826C59.3537 6.06543 50.7576 6.24672 47.8225 6.94752L47.4651 7.42962L47.3365 7.40315C47.7605 6.34176 48.8926 6.87474 49.4396 6.49632C49.1109 6.33339 47.1247 6.83534 46.7046 6.56865Z" fill="white"/>
<path d="M62.075 7.20825C62.375 7.22007 62.6302 7.21763 62.9215 7.29403C63.1549 8.97893 64.4031 11.7042 63.5443 13.3267C62.9796 14.3938 61.185 12.3154 60.6458 13.1552C60.0878 14.0243 60.2995 15.4066 60.6306 16.3174C60.6564 16.7278 61.0123 16.5918 60.8121 16.8373L60.2971 16.4096L60.2033 16.4417C59.6015 15.9266 59.7223 13.8477 60.0235 13.1323C60.7276 11.46 61.9611 12.7241 62.8714 13.0915C63.821 12.5486 62.6099 8.1676 62.075 7.20825Z" fill="white"/>
<path d="M60.6304 16.3172C61.6016 16.9106 61.9502 15.9942 62.877 15.6704C63.4005 16.0975 63.7545 16.2803 63.877 16.9867C64.0175 17.7966 63.0575 21.6154 62.7629 22.2149L62.7253 22.1703C62.5274 22.1996 62.3369 22.1615 62.1366 22.136L62.1395 22.0646C62.6062 21.2388 63.7314 17.0276 62.9319 16.3999C62.5366 16.3545 61.7489 16.9999 61.2237 17.2466C60.7332 17.0046 60.5175 16.8856 60.2031 16.4416L60.297 16.4095L60.812 16.8371C61.0121 16.5917 60.6562 16.7276 60.6304 16.3172Z" fill="white"/>
<path d="M51.1859 21.0285C51.6459 20.9772 53.0586 20.7087 53.1427 21.3994C52.7248 22.2305 51.5803 23.4648 53.0518 24.1567C54.2579 24.7238 55.783 24.7985 56.8809 23.9236L57.0606 24.0535C57.0442 24.1668 57.0141 24.2746 57.0513 24.3787C55.9071 25.7378 52.2908 25.153 51.6807 23.3491C51.3832 22.4694 52.4518 21.9283 52.2859 21.3045C51.1359 21.6113 50.2863 21.6638 48.9983 22.0392C48.6815 21.5803 48.2781 21.9372 47.7177 21.8973L47.6426 21.8914C48.3977 21.6144 50.401 21.1459 51.1859 21.0285Z" fill="white"/>
<path d="M59.3677 21.2151C59.9699 21.3787 61.6864 22.0224 62.1396 22.0646L62.1367 22.136L61.8791 22.2604L61.9773 22.5145C60.9123 22.2405 60.1562 21.8726 59.1763 21.6068L59.3889 21.4267L59.3677 21.2151Z" fill="white"/>
<path d="M57.1905 22.5586C56.9142 22.1897 56.6084 21.8604 56.5664 21.4058C56.6763 21.0854 56.6232 21.1898 56.8938 20.9583L57.2828 21.0605L57.1266 21.3568C57.2605 21.8267 57.3991 22.0157 57.6542 22.426C57.257 22.6518 57.4258 22.4299 57.1905 22.5586Z" fill="white"/>
<path d="M46.7048 6.56852C47.1249 6.83522 49.1111 6.33326 49.4398 6.4962C48.8928 6.87461 47.7607 6.34164 47.3367 7.40302L47.4653 7.4295C47.0744 8.41233 45.6967 12.3849 46.7007 13.1188C46.8714 13.1416 47.0968 13.1463 47.2193 13.0026C48.9291 10.9951 50.3395 13.7392 49.8856 15.434C49.6478 16.3221 49.2826 16.8433 48.2722 17.2671C47.8378 16.9416 47.281 16.3266 46.8002 16.3423C45.7021 16.877 46.9868 20.8507 47.3623 21.8016C47.5301 21.9291 47.4533 21.9094 47.6428 21.8913L47.7179 21.8972C48.2784 21.9371 48.6817 21.5802 48.9985 22.0391C48.4513 22.2146 47.8984 22.3713 47.3406 22.5092C47.2745 22.3328 47.118 22.1633 46.9224 22.1807C46.8952 22.1339 46.8696 22.0862 46.8457 22.0376C46.3758 21.0884 45.4407 17.7248 45.8609 16.6427C45.9934 16.2646 46.247 15.9385 46.6184 15.7693C47.2899 15.3648 47.9654 16.827 48.5193 16.5145C49.5236 15.948 49.6494 13.4526 48.4886 12.9411C48.0824 12.8587 47.5754 13.428 47.2297 13.5655C46.7271 13.7654 46.0052 13.4735 45.8774 12.9351C45.4809 11.2659 46.2408 8.67632 46.9189 7.18797C46.3402 7.34162 45.2006 7.50665 44.5519 7.62497C44.4953 7.34337 44.5057 7.43558 44.6055 7.14443C45.2009 7.01634 45.862 6.74232 46.7048 6.56852Z" fill="white"/>
<path d="M31.488 13.0673C31.5249 13.0125 31.9544 12.7233 32.0365 12.6643C33.2427 11.799 34.3032 11.0356 35.7193 10.5342C35.9939 10.5789 36.1519 10.5973 36.4135 10.6979C34.7387 11.5194 33.7272 12.3087 32.2419 13.2867C33.3212 13.6313 37.0892 15.5238 37.0155 17.1489C36.979 17.9555 35.2293 17.8475 34.9939 18.3647C34.7732 19.2444 36.073 20.5958 36.8653 20.8364C37.2242 20.9549 37.4377 20.9563 37.7447 20.8121C38.2739 20.2459 37.404 19.4139 39.0148 18.8138L39.0534 18.7999C41.2504 19.7534 41.5828 21.3412 42.7487 23.2841C42.6794 23.5788 42.6946 23.6164 42.4074 23.76C42.2862 23.5854 42.1905 23.3848 42.1002 23.1946C41.4915 21.912 40.7776 20.6949 39.7341 19.7139C39.5254 19.5176 39.304 19.343 39.0082 19.3257C38.2539 19.7314 38.9028 21.6075 37.4351 21.5261C36.4075 21.4827 35.7049 20.8338 35.0775 20.0718C33.0694 17.6326 35.5444 17.7219 36.3839 17.0441C36.4699 15.9117 32.6255 13.7461 31.5855 13.5691L31.2847 13.4811C31.4069 13.3345 31.4072 13.3079 31.4704 13.1208L31.488 13.0673Z" fill="white"/>
<path d="M23.7115 19.9867C23.9564 19.9304 24.0162 19.9199 24.2465 19.7932L24.3212 19.8037C24.0474 20.0636 23.6427 20.4691 23.6711 20.8714C23.0007 21.9988 22.079 22.801 21.3487 24.0099C21.9401 25.1131 23.6312 28.2152 24.8252 28.7938C24.996 28.8767 25.1228 28.8106 25.2836 28.7559C25.5712 28.489 25.5527 27.82 25.5846 27.4073C25.7547 27.4269 25.7672 27.427 25.9216 27.4972C26.1334 27.8282 25.9769 28.2116 26.0359 28.6845C24.4225 31.1489 21.8005 25.8152 21.1921 24.6705C20.1682 25.8484 18.5908 28.7494 18.084 30.2276C17.9953 29.8737 18.0218 29.8691 17.7026 29.7544C18.0531 28.9646 18.4066 27.8787 18.8596 27.1488C20.2155 24.9639 21.9158 21.7746 23.7115 19.9867Z" fill="white"/>
<path d="M32.1832 34.4111C32.4818 34.1469 32.7661 33.5703 32.9459 33.2059C33.6996 31.6781 34.3311 30.5659 35.7941 29.6348C35.9132 30.1464 35.9508 30.6559 36.0023 31.1782L35.9462 31.4081C35.7463 31.3731 35.7877 31.2463 35.5596 31.1305L35.4849 30.7093L35.3852 30.652C34.4538 31.0053 32.2299 35.4729 31.7143 36.5239C30.9493 38.0833 31.0732 37.9953 31.03 39.433C30.8189 39.5567 30.8254 39.7019 30.7175 39.9819C30.602 39.526 30.5019 39.1143 30.4104 38.6523C28.4836 39.3005 26.3286 40.4019 24.2139 40.098C24.379 40.0752 24.5439 40.051 24.7086 40.0253L24.287 39.9591L24.3293 39.8637L24.6244 39.8736L24.7048 39.7346C24.9746 39.6175 25.948 39.467 26.3084 39.3738C27.6895 39.0169 29.2985 38.6288 30.5106 37.8723C30.7814 37.1782 31.6861 35.3311 31.7993 34.8455C31.9282 34.7015 32.0562 34.5567 32.1832 34.4111Z" fill="white"/>
<path d="M25.5845 27.4074C25.7655 26.993 25.8541 26.9544 26.2674 26.7893L26.8384 27.1977C26.03 27.3237 26.1351 27.975 26.0358 28.6845C25.9767 28.2116 26.1333 27.8283 25.9215 27.4973C25.7671 27.427 25.7546 27.427 25.5845 27.4074Z" fill="white"/>
<path d="M31.599 34.238L32.1833 34.4112C32.0563 34.5569 31.9283 34.7016 31.7994 34.8456C31.7007 34.8119 31.1821 34.5431 31.0576 34.4816C31.3425 34.4366 31.3751 34.4083 31.599 34.238Z" fill="white"/>
<path d="M46.9222 22.1807C47.1178 22.1633 47.2743 22.3328 47.3404 22.5092C45.7618 22.9011 39.7133 25.5663 38.9536 26.7759C38.934 27.5363 40.5523 26.9783 40.6979 28.789C40.8965 31.2597 36.3518 34.1415 35.5596 31.1305C35.7876 31.2463 35.7462 31.3732 35.9461 31.4082L36.0022 31.1783C36.1022 31.506 36.3785 31.6649 36.6484 31.8565C38.5768 31.7607 40.4632 30.6775 39.9833 28.224C39.8543 27.5644 38.3625 28.0176 38.035 27.3851C38.0626 25.792 41.4833 24.8371 42.4071 23.7599C42.6943 23.6162 42.6791 23.5786 42.7483 23.284C42.8128 23.4519 42.8071 23.4437 42.9553 23.5463C43.3185 23.5297 44.8485 22.7858 45.3526 22.6199C45.9221 22.4325 46.3043 22.3222 46.9222 22.1807Z" fill="white"/>
<path d="M26.2676 26.7894C27.0725 26.6761 27.6967 26.9615 28.3363 27.4465C29.1573 28.0691 30.226 29.3677 29.4862 30.4011C29.0833 30.9613 28.2029 30.6093 27.6909 30.9088C27.597 31.0336 27.4863 31.1402 27.5423 31.3201C27.798 32.1414 29.8848 33.4025 30.538 33.7614C30.8774 33.9504 31.2325 34.1099 31.5993 34.2381C31.3754 34.4083 31.3427 34.4366 31.0579 34.4816C30.08 34.1597 25.5934 31.8552 27.5151 30.4476C27.7918 30.2449 28.7798 30.3631 29.0741 29.9592C29.5009 28.6436 27.7683 27.696 26.8386 27.1979L26.2676 26.7894Z" fill="white"/>
<path d="M32.3071 57.6785C32.777 58.0408 33.2328 58.2833 33.7486 58.5744C34.0626 58.7892 35.3096 59.6975 35.5538 59.8238C37.9067 62.4623 34.3433 61.4372 34.153 62.9728C33.9882 64.3022 36.4897 67.0767 37.9389 66.0645C38.7501 65.498 37.9742 64.1164 38.9588 64.1324C40.0578 64.1877 42.7202 67.2628 42.8067 68.173C42.3677 69.1379 37.5493 70.3043 37.9088 71.8378C38.4438 72.2814 39.4178 71.8314 39.5178 73.0416C39.5735 73.7142 39.1773 75.0711 38.7428 75.5707C37.9377 76.4963 36.3459 76.6693 35.3178 76.1511C35.2806 75.6996 35.2495 74.775 35.0424 74.4157C34.1525 74.4252 32.0862 77.8155 31.6656 78.6071C30.8971 78.1258 30.1441 77.792 29.3835 77.323C28.9499 77.0557 29.0767 76.7616 28.7772 76.511C27.726 75.631 26.809 74.6559 25.8642 73.6667C25.5021 73.2877 24.9015 72.8401 24.6038 72.4243C24.4105 72.0217 23.4977 70.8817 23.1947 70.5109L22.9737 70.2994C22.3285 69.564 21.9763 69.1297 21.5083 68.2758C22.4292 67.8496 25.6453 66.415 26.0585 65.1289C26.0392 64.3925 24.2878 64.8296 24.091 64.2932C23.3611 62.3035 25.3331 60.5921 27.2013 60.6409C27.9788 60.6612 27.9775 62.1149 28.2966 62.5914C29.3279 63.1615 31.7888 58.5546 32.3071 57.6785Z" fill="white"/>
<path d="M31.0066 54.0159C31.0344 52.7433 31.2637 51.436 31.331 50.1622C31.354 49.7289 31.3564 49.3207 31.3955 48.8855C31.4919 50.2361 31.6676 53.2941 31.4126 54.4815C31.9498 55.8259 32.4368 56.9548 33.4472 58.0011C33.5384 58.1436 33.7522 58.4276 33.7488 58.5744C33.233 58.2833 32.7772 58.0408 32.3073 57.6785C31.789 58.5546 29.3281 63.1615 28.2968 62.5914C27.9777 62.1149 27.979 60.6612 27.2015 60.6409C25.3333 60.5921 23.3613 62.3035 24.0912 64.2932C24.288 64.8296 26.0394 64.3925 26.0587 65.1289C25.6455 66.415 22.4294 67.8496 21.5085 68.2758C21.9765 69.1297 22.3287 69.564 22.9739 70.2994C22.7433 70.3249 22.4568 70.2313 22.2214 70.1724C19.2426 66.7355 15.5417 58.5494 15.0838 53.9797L15.0767 53.905L14.9408 53.8645C14.8925 53.3726 14.8267 52.9805 14.7402 52.4947C14.7214 52.0266 14.6504 51.4826 14.5996 51.0099L14.825 51.2205L14.9474 51.2014L15.0572 50.9321C15.1926 51.4808 15.171 52.5281 15.3775 53.3818C16.2476 53.0861 19.8867 52.0432 20.5228 52.8652C20.6122 53.5922 17.9915 55.0768 21.548 56.0346C22.195 56.2089 23.5035 55.9229 24.0737 55.5586C25.234 54.8171 23.7613 53.241 23.8178 52.8272C24.1187 52.4605 24.8457 52.5813 25.2725 52.5975C27.3807 52.6772 29.0614 53.3142 31.0066 54.0159Z" fill="white"/>
<path d="M14.6893 40.1372C14.7906 40.8535 14.8665 41.3777 14.7544 42.0963C14.831 41.6964 14.8187 41.4196 15.0769 41.1331C14.8675 43.1721 14.7311 44.8066 14.7785 46.8655C14.79 47.3646 14.947 49.3024 14.9169 49.5879L15.0572 50.932L14.9475 51.2013L14.825 51.2204L14.5996 51.0098L14.6085 50.9001C14.1136 46.9211 14.3035 44.0746 14.6893 40.1372Z" fill="white"/>
<path d="M14.6085 50.9001C14.7226 50.2666 14.7519 50.0689 14.7273 49.4292L14.7854 49.5472L14.9168 49.588L15.0572 50.932L14.9474 51.2013L14.825 51.2205L14.5996 51.0098L14.6085 50.9001Z" fill="white"/>
<path d="M30.7176 39.982C30.8254 39.702 30.819 39.5569 31.0301 39.4331C31.5914 41.5964 32.9222 47.0029 29.1169 44.2309C28.735 43.9527 28.084 45.6556 28.0143 45.9234C27.872 45.9074 27.8306 45.8638 27.7139 45.7833C27.5972 45.408 28.142 44.2637 28.4462 43.9907C29.3486 43.181 30.1295 44.6688 30.8546 44.6886C31.7758 44.202 30.9036 40.849 30.7176 39.982Z" fill="white"/>
<path d="M29.8389 47.9641C30.1075 47.8944 30.3771 47.8281 30.6475 47.7651C30.8818 47.9625 30.9593 47.9594 31.0337 48.2051L30.9551 48.3047C30.6937 48.3088 30.6047 48.3138 30.3447 48.2625L30.2475 48.3054L30.236 48.2384L30.2831 48.0423C30.1319 47.9677 30.0073 47.9748 29.8389 47.9641Z" fill="white"/>
<path d="M55.7283 35.6655C56.7911 35.5465 57.7461 35.5849 58.8049 35.6422C58.8466 35.9451 58.9349 36.3077 59.0292 36.6019C59.7092 38.7211 60.0169 40.9091 60.5264 43.0644C60.9429 41.7537 61.2747 40.368 61.5881 39.0291C61.8494 37.9126 62.1807 36.7991 62.3317 35.6629C62.9467 35.6001 63.5657 35.5864 64.1829 35.6222C64.2959 35.6537 64.4417 35.6943 64.6201 35.744C64.7466 35.8861 64.7999 36.2201 64.9839 36.2213L65.0658 36.3867C64.5506 38.6277 63.8749 40.898 63.3043 43.1296C63.0861 43.983 62.3563 47.998 61.9365 48.4817C61.3112 48.7149 59.5229 48.5526 58.7489 48.5321C58.2706 46.2728 57.436 43.6844 57.0392 41.5299C56.8131 42.4786 55.6581 48.1988 55.2615 48.478C54.7913 48.809 52.6727 48.5119 51.9789 48.5644C51.197 45.3705 50.4978 42.1713 49.6253 39.0178C49.3763 38.1183 49.0217 36.4297 48.647 35.64C49.8117 35.5996 51.2468 35.5394 52.4032 35.6544C52.4262 36.0803 53.6703 41.3429 53.8803 41.856C53.9217 42.1035 53.941 42.3228 54.0646 42.5409L54.1717 42.5683C54.3339 42.3251 54.3203 42.0629 54.3389 41.7682C54.4542 41.4531 54.6641 40.4918 54.749 40.1219C55.0828 38.6681 55.4755 37.1301 55.7283 35.6655Z" fill="white"/>
<path d="M37.8973 35.5879C39.3844 35.5741 40.9567 35.5029 42.3927 35.6193C46.5611 35.9575 48.4386 39.2318 47.9296 43.1535C47.6471 45.3305 47.3509 45.8982 45.6774 47.3099C43.9483 48.7119 42.3059 48.5806 40.2049 48.5714L36.94 48.5571C37.0423 46.3956 36.963 43.8029 36.9743 41.6089C36.9835 39.8144 37.0505 37.3491 36.9307 35.6364L37.8973 35.5879ZM40.8141 45.6996C41.6857 45.7068 42.3608 45.777 43.0196 45.1287C43.0658 45.083 43.1109 45.0361 43.1547 44.9879C44.4114 43.4128 44.5114 40.3182 42.9048 38.8789C42.49 38.5072 41.4564 38.4864 40.8965 38.4386C40.7418 40.8536 40.88 43.2897 40.8141 45.6996Z" fill="white"/>
<path d="M92.6615 35.6074C93.7334 35.5885 94.66 35.5897 95.7295 35.6335C95.5787 38.5142 95.7936 41.7616 95.6975 44.6731C95.667 45.6067 95.7951 47.7093 95.5436 48.4899C95.21 48.7095 93.2358 48.5872 92.7373 48.567C91.3584 46.2858 89.6569 43.8096 88.5139 41.3961L88.3311 40.9434L88.1983 40.6419L88.1139 40.6184C88.0772 40.9449 88.135 41.5101 88.2123 41.8328C88.2006 43.7933 88.299 46.7338 88.185 48.5731C87.1129 48.5818 86.0736 48.5255 85.0399 48.5288C85.1883 46.3126 85.0501 43.4047 85.0849 41.1279C85.1051 39.8044 85.1576 36.766 85.0171 35.632C86.2344 35.5933 87.5733 35.5267 88.7764 35.6759C89.3639 36.4578 90.1256 37.9581 90.6795 38.8526C91.2201 39.727 92.0451 40.8354 92.4701 41.6864L92.6404 42.1002C92.6709 42.2196 92.6897 42.2238 92.7631 42.3266L92.8405 42.267C92.8701 41.7649 92.8326 41.5676 92.7553 41.0792C92.6748 39.3132 92.7694 37.2467 92.6615 35.6074Z" fill="white"/>
<path d="M79.0932 35.6331C79.9563 35.597 80.9805 35.5548 81.8351 35.6122L82.4457 35.8503C82.6474 38.2707 82.5535 40.8507 82.5485 43.2916C82.5459 44.4882 82.6863 47.3933 82.3225 48.3593C81.7078 48.3721 79.5935 48.3636 79.138 48.4702C79.1922 46.8652 79.1563 45.0443 79.172 43.4214C78.2909 43.4328 77.1142 43.4818 76.2572 43.4047C76.2256 45.0378 76.3146 46.9485 76.1902 48.5546C75.2171 48.647 73.3782 48.5663 72.381 48.5118C72.4842 46.1875 72.3728 43.475 72.4151 41.1111C72.4339 40.0586 72.4755 36.3948 72.2935 35.6355C73.6318 35.5804 74.9719 35.5782 76.3104 35.629C76.1314 36.8468 76.3065 38.8927 76.1843 40.3088C77.2024 40.3474 78.2214 40.3539 79.2399 40.3284C78.9849 38.8966 79.257 37.1325 79.0932 35.6331Z" fill="white"/>
<path d="M66.3881 35.634C67.7041 35.5773 69.0219 35.5771 70.3379 35.6334C70.23 36.7394 70.2716 38.2087 70.2735 39.3472L70.2831 45.272C70.284 46.0684 70.3258 47.8677 70.2106 48.5732C68.9355 48.6094 67.6456 48.5543 66.3696 48.5108C66.4642 47.5162 66.4435 46.3737 66.4292 45.3681C66.3835 42.1394 66.5094 38.8562 66.3881 35.634Z" fill="white"/>
<path d="M17.8773 66.0925C18.4055 66.2746 18.9737 66.5535 19.1953 67.1063C19.5667 68.0325 18.6776 68.5764 18.4641 69.3557C18.4295 69.4816 18.5487 69.5748 18.6208 69.6528C19.4438 69.8803 20.1961 68.445 20.7475 69.4026C20.9723 69.793 20.9371 70.0435 21.3789 70.2965C21.4829 70.9571 21.0833 71.2275 21.1426 71.8185C20.6695 72.3039 20.5247 72.3065 20.6231 73.0161C20.0709 73.0725 18.8801 73.2556 18.453 72.8497C18.3377 72.3489 18.7887 72.4671 18.9837 72.0581C18.9505 71.6039 18.8446 71.4075 19.2494 71.1872C19.9159 71.4707 20.6323 71.2046 20.7704 70.4675C20.6816 70.2432 20.7475 70.3123 20.5212 70.2122C19.8645 70.2339 19.5419 70.5443 18.9939 70.9183C18.6803 71.0255 18.618 71.0621 18.3101 70.9508C18.196 70.4334 18.1062 70.382 17.7255 70.0042C17.891 69.756 18.0819 69.3671 18.2262 69.0944C17.2609 69.04 17.3203 69.0767 16.5702 68.3971L16.5402 68.3079C16.1078 67.0025 16.6751 66.466 17.8773 66.0925ZM17.6105 68.2241C17.8543 68.018 18.3242 67.6432 18.4254 67.3458C18.3875 67.3071 18.3357 67.243 18.2888 67.2221C17.8078 67.2912 17.3487 67.3017 17.3571 67.88C17.4445 68.0154 17.4966 68.1107 17.6105 68.2241Z" fill="white"/>
<path d="M47.9081 3.51354C47.9457 3.16413 47.9554 2.6234 48.1618 2.37002C48.444 2.23646 48.3183 2.26267 48.6571 2.30077C49.0721 2.57487 49.0958 2.99321 49.3873 3.10194C49.716 2.82211 49.4378 2.20601 50.008 1.9314L50.2564 2.00082C50.3967 3.09677 50.2523 6.32452 48.5296 4.28585C48.4671 4.57655 48.4277 4.94599 48.2188 5.13912C47.3993 5.46115 46.84 3.55302 46.3418 2.95869C46.0777 3.49994 45.7283 3.94999 45.9113 4.4996C46.1004 4.71293 47.276 4.74385 46.5885 5.59551C44.146 5.74311 45.4862 5.24501 44.6205 3.98027C44.2994 3.94058 44.2808 3.83736 44.1714 3.59335L44.2045 3.52406C44.3985 3.10807 44.4704 2.43721 44.5758 2.27211C44.7959 2.19949 45.0026 2.10275 45.222 2.16931C45.4913 2.48055 45.1317 2.81035 45.8694 2.83717C46.3627 2.85511 46.8533 2.60957 47.3623 2.54975L47.9081 3.51354Z" fill="white"/>
<path d="M25.1168 74.2803C25.8941 74.8137 26.2246 75.1811 26.8236 75.9138C26.0049 76.9662 24.9855 77.7161 24.1136 78.6992C23.2156 77.8132 21.8118 76.8529 22.8436 75.4762C22.9773 75.3632 23.3116 74.9831 23.4471 74.8364C24.0182 74.6481 24.5704 74.5376 25.1168 74.2803ZM24.0554 77.0301C24.3506 76.6733 24.9658 76.1867 25.0867 75.9561C25.0114 75.6512 24.7732 75.7132 24.4979 75.7177C23.9673 75.9486 23.5497 76.4282 23.7581 77.0343L23.8908 77.1341L24.0554 77.0301Z" fill="white"/>
<path d="M15.3861 25.9967C15.6604 25.977 15.9345 25.9549 16.2083 25.9302C16.6532 26.1257 17.4788 26.4542 17.8331 26.7323C18.3545 27.4959 16.9124 29.9292 15.7093 28.7067C15.6356 28.1899 15.6437 27.9081 15.7701 27.4049C15.8593 27.1381 15.8629 27.2377 15.8012 27.0009L15.689 27.0174L15.5895 27.2614C15.554 27.3958 15.4411 27.7871 15.4408 27.9011L15.2948 28.2613C14.2767 29.7742 16.0768 29.7452 16.4202 30.2943C16.4535 30.6481 16.354 30.7874 16.1246 31.0557L15.8032 30.9872C15.202 30.7474 14.1354 30.526 13.7374 30.1309C13.3684 29.7645 14.0726 29.3106 14.0121 28.9799C14.0046 28.9392 14.0446 28.6683 14.0522 28.6079C14.4039 28.406 14.6089 28.6822 14.8776 28.5053C14.6129 27.2194 14.7869 27.181 15.3861 25.9967ZM16.688 28.1651C16.8003 27.9443 16.8577 27.8665 16.8439 27.6123C16.7192 27.3927 16.7954 27.4609 16.5501 27.3625C16.4788 27.599 16.3988 27.7716 16.4922 28.0016C16.5459 28.0485 16.6317 28.1292 16.688 28.1651Z" fill="white"/>
<path d="M16.5505 27.3625C16.7958 27.4609 16.7196 27.3927 16.8443 27.6123C16.8581 27.8665 16.8007 27.9443 16.6884 28.1651C16.6321 28.1293 16.5463 28.0485 16.4926 28.0016C16.3991 27.7716 16.4792 27.599 16.5505 27.3625Z" fill="white"/>
<path d="M12.4529 58.5434C11.888 58.6245 11.3353 58.818 11.0376 58.2003C11.2785 57.7638 14.6761 57.3679 15.1529 58.2187C15.0008 58.8321 14.0629 59.1852 13.5169 59.4432C14.5642 59.5474 17.1564 59.2963 14.885 61.0378C14.4634 61.3611 13.7754 61.5862 13.3202 61.8956C13.0984 61.8463 12.8771 61.8116 12.6819 61.6957C12.6585 61.4192 12.7677 61.3678 12.9387 61.0727C13.0401 60.9553 13.6681 60.4839 13.8284 60.3591C13.1636 60.4427 12.4747 60.6073 11.8753 60.3191C11.4063 59.7618 12.3278 59.1359 12.752 58.8017C12.9598 58.7366 12.9139 58.7834 13.0301 58.636C12.8323 58.5047 12.6872 58.5341 12.4529 58.5434Z" fill="white"/>
<path d="M15.8699 34.2866C15.6789 34.3323 15.615 34.33 15.4177 34.3305C14.75 33.9773 13.9162 33.5824 13.2442 33.3425C12.0379 32.9118 12.8441 32.3535 12.7892 31.4875C12.7693 31.1737 12.2533 30.5783 12.7386 30.3416C13.6168 30.388 13.303 30.8044 13.6345 30.9408C13.8812 31.0423 14.2222 31.049 14.6727 31.3106C14.6496 31.6808 14.5559 32.2457 14.602 32.5694L14.6594 32.5799C14.777 32.3742 14.835 32.2675 14.9267 32.0453L15.1778 31.4147L15.3682 31.3096L16.2104 31.3763C16.355 31.5121 16.5243 31.6804 16.6733 31.8058C16.5785 32.2676 16.4673 32.6148 16.3368 33.058C16.2478 33.3599 15.9145 34.042 15.8699 34.2866ZM15.5239 33.3763C15.7375 33.0955 15.8606 32.8123 15.8277 32.4543L15.6885 32.3094C15.502 32.6408 15.1901 33.0589 15.5239 33.3763ZM13.7211 32.3194C13.8113 32.2852 13.8624 32.1896 13.8406 32.0956C13.8189 32.0016 13.731 31.9381 13.6349 31.9469C13.5601 31.9539 13.496 32.0037 13.4709 32.0745C13.4457 32.1454 13.464 32.2244 13.5177 32.2769C13.5714 32.3296 13.6508 32.3462 13.7211 32.3194Z" fill="white"/>
<path d="M15.6885 32.3093L15.8277 32.4542C15.8605 32.8122 15.7375 33.0953 15.5238 33.3762C15.19 33.0588 15.5019 32.6407 15.6885 32.3093Z" fill="white"/>
<path d="M13.6347 31.9469C13.7308 31.938 13.8186 32.0015 13.8404 32.0955C13.8621 32.1895 13.8111 32.2851 13.7209 32.3194C13.6506 32.3461 13.5712 32.3295 13.5175 32.2769C13.4637 32.2243 13.4454 32.1453 13.4706 32.0744C13.4958 32.0036 13.5598 31.9538 13.6347 31.9469Z" fill="white"/>
<path d="M23.4243 13.8975C23.5969 13.9845 23.8751 14.2737 23.9966 14.4336C24.4658 15.0511 26.0071 15.9636 25.8503 16.829C25.1652 17.4981 24.6952 16.4544 24.0174 16.5327L23.9375 16.6746C23.9285 17.2364 24.7672 17.7165 24.3734 18.4043C24.1886 18.5286 24.0945 18.6168 23.8681 18.6177C23.2609 17.9596 22.1645 17.1961 21.5155 16.5361C21.3036 16.3207 21.301 16.3264 21.3064 16.0892C21.4318 15.787 21.7101 15.5812 21.9578 15.3612C22.2474 15.607 22.666 16.07 22.9855 16.165C23.2832 16.1183 23.2098 16.169 23.4296 15.9932C23.4428 15.4634 22.9723 15.272 22.6456 14.7728C22.7548 14.3396 23.0667 14.1484 23.4243 13.8975Z" fill="white"/>
<path d="M39.5004 4.66517C39.6336 4.36003 39.6526 4.13847 39.8743 3.96924C40.2218 4.18693 40.0236 4.32904 40.5824 4.63512C40.8846 5.28412 41.5667 6.47899 41.4021 7.103C40.7225 7.94766 39.5775 6.53246 38.7989 6.06359C38.9812 6.63569 39.337 7.41291 39.0893 7.92625L38.9596 8.03086C38.1977 7.84532 37.5982 5.56662 37.0088 4.77939C38.7354 4.12017 39.1273 5.22798 39.7088 5.11054C39.6982 4.86467 39.6674 4.89871 39.5004 4.66517Z" fill="white"/>
<path d="M18.915 18.7682C19.1279 18.5007 19.3819 18.102 19.7542 18.1004C20.4413 18.0971 20.9228 18.8371 21.4609 19.1887C21.6459 19.3096 22.5747 19.7929 22.5629 20.0148C22.5375 20.4878 21.6918 21.0293 21.6468 21.5078C20.8464 22.2237 20.3783 21.8101 19.5875 21.3336C18.7802 20.378 18.9121 19.8596 19.9563 19.2568C19.6618 19.1267 19.1759 18.929 18.915 18.7682ZM21.1907 20.8535C21.3063 20.1308 20.9891 19.9115 20.3288 19.7636C20.1404 20.3638 20.6657 20.6521 21.1907 20.8535Z" fill="white"/>
<path d="M51.9916 1.81763C52.2629 1.81874 52.6927 1.81037 52.9406 1.89578C53.2306 1.9966 53.4677 2.20969 53.5989 2.48713C53.8993 3.13142 53.6266 3.83003 53.4038 4.43371C53.167 4.53548 52.9136 4.5961 52.6645 4.66412C51.8793 4.70492 51.6775 4.69085 50.9573 4.46339C50.5496 3.20314 50.4308 2.09503 51.9916 1.81763ZM52.302 3.98624C52.6723 3.65438 52.5948 3.12603 52.3805 2.72983C52.2166 2.61253 52.1891 2.59697 51.9976 2.53485C51.7403 2.99919 51.7103 3.42203 52.0281 3.86276C52.1029 3.89745 52.2294 3.96148 52.302 3.98624Z" fill="white"/>
<path d="M32.6978 7.19433C32.9203 6.95569 33.1256 6.68323 33.4369 6.60278L33.5946 6.64711C33.769 7.00981 33.7487 7.0882 34.0712 7.25514C34.6154 7.27665 35.1879 6.40167 35.756 7.07026C36.1587 7.54403 36.8637 8.61899 36.5092 9.22805C36.2761 9.40352 36.2288 9.43 35.8845 9.40531C35.7834 9.15789 35.6975 8.97813 35.5758 8.73977C35.3407 8.35571 35.1786 7.88102 34.6799 7.8143C34.5088 8.19422 34.9942 8.89477 35.2163 9.20328L35.3792 9.62586C35.1006 10.047 34.996 10.158 34.4642 10.1367C34.3721 10.0277 34.309 10.0046 34.1858 9.93735C34.1819 9.91 33.2886 8.14516 33.2086 7.97086C33.0304 7.6026 32.9595 7.51403 32.6978 7.19433Z" fill="white"/>
<path d="M17.7027 29.7544C18.0218 29.8691 17.9953 29.8737 18.0841 30.2276C17.2567 32.4045 15.643 36.344 15.4326 38.6731C15.8496 38.8005 16.1571 38.9063 16.5651 39.0659C16.4572 39.1853 16.2183 39.4801 16.0957 39.5379C15.8016 39.4305 15.5766 39.3549 15.3019 39.2046C15.2282 39.831 15.1342 40.5097 15.0771 41.1331C14.8189 41.4196 14.8311 41.6964 14.7546 42.0963C14.8667 41.3777 14.7908 40.8535 14.6895 40.1372C14.7634 38.8299 15.5482 35.6897 15.87 34.2865C15.9146 34.0419 16.2479 33.3598 16.3368 33.0579C16.4674 32.6147 16.5785 32.2674 16.6734 31.8056C17.0718 31.2776 17.4354 30.3796 17.7027 29.7544Z" fill="white"/>
<path d="M81.8353 35.6123C82.2405 35.6123 82.6749 35.6033 83.0769 35.6298C82.9964 36.8086 83.0318 38.1987 83.0325 39.393L83.0391 45.5475C83.0401 46.3796 83.0837 47.7751 83.0276 48.5478C82.2136 48.6173 79.8969 48.6315 79.1382 48.4703C79.5937 48.3637 81.708 48.3722 82.3227 48.3594C82.6865 47.3934 82.5461 44.4883 82.5487 43.2917C82.5537 40.8508 82.6476 38.2708 82.4459 35.8504L81.8353 35.6123Z" fill="white"/>
<path d="M28.0973 14.1687C27.8767 14.8656 27.4521 15.8379 26.5785 15.776C25.7652 15.7579 24.9056 14.8476 25.0344 14.0083C25.2459 12.6307 26.8473 12.2988 27.7295 13.3618C27.8969 13.7686 28.0657 13.7608 28.0973 14.1687ZM26.9838 14.0612C26.8059 14.3608 26.8194 14.2522 26.8136 14.5816L26.9095 14.6489C27.0663 14.5624 27.0811 14.5454 27.1843 14.3986C27.2291 14.1272 27.4002 14.0401 27.3877 13.6725C27.1809 13.7018 27.1533 13.8386 26.9838 14.0612ZM26.3088 13.9168C26.4136 13.9052 26.4916 13.8146 26.4874 13.7093C26.4832 13.604 26.3984 13.5198 26.2931 13.5166C26.218 13.5143 26.1479 13.554 26.1114 13.6197C26.0749 13.6853 26.0781 13.7658 26.1196 13.8284C26.1612 13.8909 26.2342 13.925 26.3088 13.9168Z" fill="white"/>
<path d="M26.9839 14.0613C27.1533 13.8386 27.1809 13.7019 27.3877 13.6726C27.4003 14.0402 27.2291 14.1273 27.1844 14.3986L26.9839 14.0613Z" fill="white"/>
<path d="M26.9842 14.0613L27.1847 14.3986C27.0815 14.5454 27.0667 14.5625 26.9099 14.6489L26.814 14.5817C26.8197 14.2522 26.8062 14.3609 26.9842 14.0613Z" fill="white"/>
<path d="M26.2934 13.5167C26.3987 13.5199 26.4835 13.6041 26.4878 13.7094C26.4919 13.8147 26.4139 13.9053 26.3092 13.9169C26.2346 13.9251 26.1615 13.891 26.1199 13.8285C26.0784 13.7659 26.0753 13.6854 26.1117 13.6197C26.1482 13.5541 26.2183 13.5144 26.2934 13.5167Z" fill="white"/>
<path d="M42.0942 6.54294C40.7736 4.81801 41.7697 3.02315 43.9115 3.95543L44.2366 4.26833C44.3161 4.46009 44.4261 4.74913 44.522 4.92146C44.148 5.14818 44.1579 4.88328 43.7813 5.08268C44.2175 5.32593 44.1847 5.0818 44.5225 5.23015C44.2191 6.75272 43.3596 6.62751 42.0942 6.54294ZM42.9653 5.70061C43.1568 5.59717 43.3482 5.5309 43.43 5.34482C43.3193 5.21888 43.3843 5.25738 43.2407 5.20727C42.9696 5.32371 42.828 5.32378 42.7051 5.53588C42.8173 5.63499 42.8197 5.64889 42.9653 5.70061ZM42.9669 4.71535L43.0366 4.57882C42.8163 4.4276 42.7721 4.47733 42.4579 4.46297L42.3561 4.657L42.4294 4.76681C42.6493 4.75912 42.7485 4.75198 42.9669 4.71535Z" fill="white"/>
<path d="M43.2407 5.20728C43.3842 5.25738 43.3192 5.21889 43.4299 5.34482C43.3482 5.5309 43.1567 5.59717 42.9652 5.70062C42.8196 5.64889 42.8173 5.63499 42.7051 5.53588C42.828 5.32378 42.9695 5.32371 43.2407 5.20728Z" fill="white"/>
<path d="M42.4582 4.46289C42.7724 4.47725 42.8166 4.42752 43.0369 4.57874L42.9672 4.71527C42.7488 4.75191 42.6496 4.75905 42.4297 4.76673L42.3564 4.65693L42.4582 4.46289Z" fill="white"/>
<path d="M56.7934 0.762939C56.9934 0.784546 57.0117 0.796874 57.1989 0.877843C57.5255 1.26439 57.3226 2.13046 57.2789 2.70194C57.6237 2.3011 58.2792 1.59166 58.8349 1.6023L58.919 1.7063C58.9671 2.06462 58.6571 2.4562 58.4574 2.77573C58.6571 3.54411 58.921 3.85788 59.2149 4.55501C58.917 4.60202 58.31 4.55475 57.9864 4.53982C57.8894 4.24691 57.7757 3.73482 57.4386 3.68287C57.1044 4.05176 57.1446 4.6359 56.6512 4.62608C55.9006 4.18938 56.4385 2.13114 56.4051 1.34608C56.3913 1.02173 56.5444 0.910999 56.7934 0.762939Z" fill="white"/>
<path d="M12.5402 34.0198C13.1927 33.9146 14.1444 34.0001 14.5849 34.5623C15.1024 35.2228 14.5441 36.2843 13.954 36.693C11.7323 37.3498 11.1289 34.8616 12.5402 34.0198ZM13.6359 35.7986C13.9596 35.5041 14.0713 35.227 13.8021 34.822C13.65 35.0727 13.4788 35.286 13.4936 35.5723L13.6359 35.7986ZM12.7815 35.353C12.8885 35.2874 12.9247 35.1491 12.8638 35.0394C12.8029 34.9298 12.6663 34.8876 12.5541 34.9437C12.4771 34.9823 12.4274 35.06 12.4248 35.1461C12.4221 35.2322 12.4669 35.3128 12.5414 35.356C12.6159 35.3992 12.7081 35.398 12.7815 35.353Z" fill="white"/>
<path d="M13.8021 34.822C14.0713 35.227 13.9596 35.5041 13.6359 35.7986L13.4936 35.5723C13.4788 35.286 13.6499 35.0727 13.8021 34.822Z" fill="white"/>
<path d="M12.5543 34.9438C12.6665 34.8876 12.803 34.9298 12.8639 35.0395C12.9249 35.1492 12.8886 35.2874 12.7817 35.3531C12.7083 35.3981 12.6161 35.3992 12.5416 35.356C12.467 35.3128 12.4223 35.2322 12.4249 35.1461C12.4276 35.06 12.4772 34.9823 12.5543 34.9438Z" fill="white"/>
<path d="M19.5633 24.352C19.4452 24.3628 19.327 24.372 19.2086 24.3795C16.7961 24.5302 16.9945 21.4461 18.9939 21.488C19.9243 21.6678 20.614 22.2411 20.3147 23.2384C20.1279 23.6653 19.8493 23.9854 19.5633 24.352ZM19.2515 23.4385C19.4428 23.2237 19.5516 23.1339 19.6024 22.8513C19.569 22.7285 19.5633 22.645 19.4658 22.5669C19.2093 22.8439 19.1028 22.8671 19.0421 23.1941C19.1124 23.2881 19.1604 23.3628 19.2515 23.4385ZM18.4161 22.822C18.4881 22.8048 18.5443 22.7484 18.5609 22.6762C18.5775 22.6041 18.5518 22.5287 18.4945 22.4817C18.4372 22.4348 18.3583 22.4244 18.2908 22.4549C18.1993 22.4963 18.1543 22.6003 18.1867 22.6953C18.2191 22.7904 18.3184 22.8452 18.4161 22.822Z" fill="white"/>
<path d="M19.4657 22.5669C19.5632 22.645 19.5689 22.7285 19.6023 22.8513C19.5515 23.1339 19.4427 23.2237 19.2514 23.4385C19.1604 23.3628 19.1123 23.2881 19.042 23.1941C19.1027 22.8671 19.2092 22.8439 19.4657 22.5669Z" fill="white"/>
<path d="M18.2904 22.4548C18.3579 22.4243 18.4368 22.4347 18.4941 22.4816C18.5514 22.5286 18.5771 22.6039 18.5605 22.6761C18.5438 22.7482 18.4877 22.8047 18.4156 22.8218C18.318 22.845 18.2187 22.7903 18.1863 22.6952C18.1538 22.6002 18.1989 22.4961 18.2904 22.4548Z" fill="white"/>
<path d="M27.3735 12.4201C27.3688 11.206 28.7539 9.93446 29.8535 10.8895C30.1181 11.1194 30.8167 12.0457 30.8506 12.3729C30.4911 13.0569 29.5025 13.4448 29.2093 13.7692C28.941 13.7248 28.7003 13.6043 28.45 13.4957C28.2048 13.1767 28.2846 13.004 28.2986 12.5431C28.3805 12.3323 28.5114 12.1744 28.6439 11.9901C28.8493 11.8153 28.8694 11.8576 28.9174 11.6292L28.7891 11.5742C28.4716 11.7062 28.5533 11.6895 28.3234 12.0065C28.0349 12.4416 27.9025 12.5013 27.3735 12.4201ZM29.4311 12.7952C29.536 12.7802 29.6227 12.7058 29.6534 12.6044C29.6842 12.5031 29.6533 12.3931 29.5744 12.3224C29.4955 12.2517 29.3828 12.2333 29.2854 12.2749C29.1598 12.3288 29.0935 12.4674 29.1303 12.5989C29.1672 12.7305 29.2959 12.8145 29.4311 12.7952Z" fill="white"/>
<path d="M29.2853 12.2749C29.3827 12.2333 29.4954 12.2517 29.5743 12.3224C29.6532 12.393 29.6841 12.503 29.6533 12.6044C29.6226 12.7058 29.536 12.7801 29.431 12.7951C29.2958 12.8144 29.1671 12.7305 29.1303 12.5989C29.0934 12.4673 29.1597 12.3287 29.2853 12.2749Z" fill="white"/>
<path d="M13.516 54.2417C14.0733 54.1098 14.0543 54.379 14.2012 54.81C14.3894 55.3621 14.6938 56.177 14.2685 56.7003C13.6917 57.41 13.1267 56.5618 12.6572 56.6029L12.6616 56.7708C12.6504 57.0436 12.6101 57.1149 12.3967 57.2384C12.0571 57.0765 11.5941 56.352 11.5164 55.9786C11.2376 54.6389 12.6 54.4334 13.516 54.2417ZM13.629 55.9232C13.6526 55.6335 13.693 55.6836 13.5656 55.4721C13.3283 55.3929 13.2727 55.3978 13.0295 55.3978C13.0069 55.7943 13.2709 55.7957 13.629 55.9232ZM12.5868 56.2595C12.5259 55.9464 12.5329 55.7354 12.2358 55.5743C12.2868 55.9365 12.2321 55.9321 12.4263 56.1889L12.5868 56.2595Z" fill="white"/>
<path d="M13.0297 55.3978C13.2728 55.3978 13.3284 55.3928 13.5658 55.4721C13.6931 55.6836 13.6528 55.6334 13.6291 55.9232C13.2711 55.7957 13.007 55.7942 13.0297 55.3978Z" fill="white"/>
<path d="M12.2358 55.5742C12.5329 55.7354 12.5259 55.9463 12.5868 56.2595L12.4263 56.1889C12.2321 55.9321 12.2868 55.9365 12.2358 55.5742Z" fill="white"/>
<path d="M11.8833 48.2161C11.0037 47.9893 10.0949 47.5672 10.3343 46.4507C10.411 46.0808 10.6371 45.7591 10.9591 45.5617C11.3441 45.3245 11.616 45.2576 12.0451 45.3554C11.9577 45.6546 11.8872 45.6828 11.9989 45.8983L12.0974 45.846C12.1379 45.6975 12.1626 45.6048 12.2205 45.4625L12.3867 45.3719C13.8615 46.086 13.3654 47.6807 11.8833 48.2161ZM12.4315 46.9269C12.453 46.5709 12.5035 46.6337 12.3426 46.378C12.2375 46.3428 12.0876 46.2877 11.9846 46.2625C12.0578 46.6533 11.9945 46.6744 12.2292 46.9039L12.4315 46.9269ZM11.4118 47.0304C11.4223 46.695 11.4779 46.677 11.3312 46.4362L11.0568 46.3488C11.0569 46.7204 10.9982 46.6786 11.1801 46.9279L11.4118 47.0304Z" fill="white"/>
<path d="M11.9849 46.2627C12.0878 46.2879 12.2378 46.3429 12.3429 46.3782C12.5038 46.6339 12.4533 46.5711 12.4318 46.9271L12.2294 46.904C11.9948 46.6746 12.0581 46.6535 11.9849 46.2627Z" fill="white"/>
<path d="M11.0568 46.3489L11.3312 46.4363C11.4779 46.6771 11.4223 46.6951 11.4118 47.0304L11.1801 46.9279C10.9982 46.6787 11.0569 46.7204 11.0568 46.3489Z" fill="white"/>
<path d="M21.5654 72.1932C22.0183 71.9459 22.1739 71.9707 22.6879 72.0198C23.339 72.4567 24.1484 72.6702 23.7576 73.7881C23.7455 73.8219 23.7327 73.8555 23.7191 73.8887C23.4119 74.464 23.3977 74.5489 22.7954 74.8145C21.2745 75.3572 20.9066 74.3682 20.832 73.1037L21.1716 72.4798C21.3512 72.588 21.5264 72.7034 21.7197 72.7823C22.0203 72.9668 22.3106 73.1776 22.6564 73.2341L22.711 73.167C22.4861 72.8677 22.198 72.7805 21.8488 72.5701C21.8787 72.4898 21.8791 72.453 21.8934 72.3664L21.5654 72.1932ZM21.967 74.1745C21.9832 73.955 22.0243 73.7766 21.8946 73.5985C21.7895 73.5458 21.7345 73.5106 21.6204 73.4785C21.6207 73.7151 21.5991 73.8359 21.7427 74.0293L21.967 74.1745Z" fill="white"/>
<path d="M21.6206 73.4785C21.7347 73.5106 21.7897 73.5459 21.8948 73.5985C22.0245 73.7766 21.9834 73.955 21.9672 74.1745L21.743 74.0293C21.5993 73.8359 21.6209 73.7151 21.6206 73.4785Z" fill="white"/>
<path d="M11.6839 38.9905C12.3733 39.2871 13.241 39.0683 13.6732 39.5741C13.7779 39.8086 13.745 39.8797 13.687 40.1218C13.284 40.6188 12.2577 39.9696 11.6741 40.3143L11.6789 40.4499C11.8807 40.6262 13.0369 40.7858 13.387 40.853C13.5895 41.1511 13.5818 41.4924 13.3265 41.7488C12.815 41.9561 11.2408 41.6314 10.5869 41.5359C10.8615 40.4288 10.5943 39.4734 11.6839 38.9905Z" fill="white"/>
<path d="M12.005 48.6214C12.5264 48.568 12.7949 48.507 13.2551 48.7768C13.4155 49.025 13.3844 48.9088 13.3593 49.2192C12.9849 49.7677 12.0287 49.3332 11.4952 49.7013C11.4079 49.9025 11.4088 49.8227 11.4585 50.0141C11.8155 50.2029 12.6638 49.8486 13.2949 50.1405C13.4945 50.3778 13.4387 50.3542 13.5025 50.7001C13.3062 51.5037 11.5144 51.2134 10.7054 51.384C10.6548 49.6159 9.85352 48.9008 12.005 48.6214Z" fill="white"/>
<path d="M85.0774 49.6331C85.2888 49.638 85.3288 49.6343 85.5209 49.7191C85.7148 50.0977 85.3854 50.0501 85.5138 50.4688C85.8306 50.6486 86.0919 50.3789 86.4592 50.5389C86.7287 50.9051 86.6402 52.2156 86.3131 52.4698C86.0233 52.5166 86.1099 52.5446 85.9173 52.4277C85.7969 51.9473 86.329 51.4465 86.0195 50.9804C85.8141 50.917 85.7782 50.9447 85.5604 51.0059C85.3566 51.1634 85.3006 51.4426 85.2154 51.6965C85.1125 51.8926 85.0965 52.1324 85.063 52.3566C84.7876 52.6252 83.6605 52.5986 83.3626 52.309C83.312 51.9675 83.3272 51.5588 83.3676 51.2157C83.6535 48.7891 84.1108 50.6106 84.7148 50.7307C85.052 50.5025 85.0394 50.0101 85.0774 49.6331ZM83.9962 52.2624C84.1341 52.2494 84.4594 52.2513 84.5477 52.1654C84.8423 51.8788 84.8186 51.3647 84.8326 50.977L84.7566 50.8845L84.6652 50.9113C84.4116 50.9131 84.134 50.849 83.9419 51.0502C83.6226 51.3846 83.5731 51.9787 83.9962 52.2624Z" fill="white"/>
<path d="M11.0615 53.3352C11.2445 53.2394 12.0349 52.8695 12.0866 52.723C11.7331 52.3894 11.1745 52.6354 10.8517 52.3581C10.7695 52.0613 10.7508 52.1452 10.8216 51.8696C10.9644 51.7916 11.0828 51.7268 11.2536 51.7753C12.4223 52.1071 13.5311 52.3337 14.7404 52.4948C14.8269 52.9806 14.8928 53.3727 14.941 53.8646C14.3163 53.8127 14.3727 53.72 13.9471 53.2443C13.2504 52.9354 12.1421 54.1405 11.1993 54.4246L11.1246 54.4466L11.0615 53.3352Z" fill="white"/>
<path d="M11.6164 36.77C12.1814 36.8717 12.093 37.2882 12.6242 37.4216C13.0882 37.5381 13.9603 36.9554 14.1975 37.5009C14.0976 38.4762 13.6537 38.6394 12.8315 38.5781C12.0198 38.3096 12.2886 38.4127 11.6949 38.7833C11.3085 38.768 10.0603 37.8521 10.3431 37.2585C10.8804 36.8748 10.9454 37.5823 11.6164 36.77Z" fill="white"/>
<path d="M16.3493 62.4402C16.9391 62.566 17.3551 63.2893 17.085 63.8492C16.9094 64.2134 16.0922 64.4308 15.7111 64.5682L15.3391 65.2296C14.7685 65.1566 14.5693 65.1832 14.0207 65.3285C13.8486 65.1189 13.6724 64.8103 13.5273 64.5732C13.7145 64.3178 14.199 64.3489 14.2631 64.151C14.3658 63.8338 14.1894 63.7617 14.5072 63.5144C15.1199 63.3153 14.922 64.0354 15.9385 63.4076C16.0777 63.0093 16.1482 62.8161 16.3493 62.4402Z" fill="white"/>
<path d="M31.9309 7.85205C32.2833 8.15189 32.4548 8.12479 32.9278 8.16689L33.0531 8.31799C32.9064 9.58088 32.77 9.95838 34.1859 9.93728C34.3091 10.0046 34.3722 10.0276 34.4642 10.1367C34.0565 10.3499 33.678 10.6987 33.0735 11.0093C32.3221 10.5147 32.2152 10.0722 31.5798 9.60525C31.1701 9.58705 31.152 9.51182 30.9888 9.19455L31.1924 9.00072C31.5888 8.47408 30.8953 8.31525 31.9309 7.85205Z" fill="white"/>
<path d="M16.7723 23.7139C17.3017 23.8386 17.1656 23.9011 17.3459 24.3748C17.6643 25.2117 18.1589 24.9468 18.7704 24.826C18.9754 24.9331 18.9181 24.8657 18.9907 25.0738C18.9016 25.4734 18.6525 25.7834 18.3272 26.0215C18.0041 26.0868 18.0829 26.0558 17.7253 25.8885C16.6531 25.325 15.5274 25.7987 15.1893 24.3741C15.1405 24.1687 15.1982 24.1317 15.3117 23.9905C15.628 23.8589 15.9742 23.9189 16.2833 24.0425L16.3458 24.0681C16.5516 24.027 16.6023 23.9002 16.7723 23.7139Z" fill="white"/>
<path d="M31.1032 9.79136C31.5128 10.3567 32.3238 10.9777 32.155 11.6764C31.989 11.8691 31.5001 12.0969 31.333 11.9175C30.7781 11.3216 29.6621 9.93964 29.4653 9.18675C29.5435 8.96901 30.0045 8.65042 30.2194 8.46362C30.3577 8.74151 30.5283 9.03034 30.6818 9.30229C30.8267 9.57276 30.8463 9.62558 31.1032 9.79136Z" fill="white"/>
<path d="M9.52498 42.256C10.2914 42.2079 12.9012 42.2132 13.3147 42.7938C13.4018 43.0512 13.3634 43.129 13.2925 43.3829C12.8387 43.4472 9.77292 43.3749 9.53407 43.1474C9.40975 42.8851 9.48734 42.5521 9.52498 42.256Z" fill="white"/>
<path d="M54.1926 1.71772C54.7776 1.71382 55.3378 1.6459 55.8735 1.83111C56.1894 2.21033 55.3901 2.7244 55.262 3.15376C55.2163 3.3072 55.2138 3.78949 55.2111 3.96488C55.2454 4.16983 55.2649 4.20148 55.1928 4.3868C54.9866 4.56608 54.9543 4.60158 54.6824 4.66397C53.7676 4.40435 54.1299 2.49258 54.1926 1.71772Z" fill="white"/>
<path d="M40.2514 50.3786C41.5491 50.3114 41.7554 52.0695 40.5999 52.5551C39.9599 52.5246 39.0803 52.4384 39.3273 51.4012C39.4384 50.9344 39.8259 50.5988 40.2514 50.3786ZM40.4434 52.2591C40.9909 51.8348 41.0982 51.0731 40.2984 50.8383C39.6538 51.3702 39.4416 52.0194 40.4434 52.2591Z" fill="white"/>
<path d="M63.5045 50.3916C64.9684 50.3086 65.2568 51.8587 64.2425 52.4985C63.8298 52.5562 63.3618 52.6202 63.0813 52.2668C62.917 52.0637 62.8444 51.8015 62.8808 51.5427C62.9446 51.1066 63.143 50.6602 63.5045 50.3916ZM64.0291 52.2198C64.357 51.6631 64.5111 50.9865 63.6741 50.8281C63.4386 51.1423 63.246 51.4412 63.2876 51.8492C63.5098 52.2552 63.5659 52.2033 64.0291 52.2198Z" fill="white"/>
<path d="M75.4144 49.5535C75.6494 49.6342 75.5758 49.575 75.705 49.7657C75.7574 50.1035 75.6228 50.5842 75.5487 50.9325C75.933 50.9388 76.2486 50.9789 76.6274 51.0236C76.7494 50.5579 76.8248 49.805 77.2598 49.6174L77.3687 49.6653C77.5271 50.2082 76.9949 51.6105 76.9417 52.3455L76.9369 52.4211C76.6836 52.5673 76.7904 52.5442 76.5231 52.5444C76.3729 52.1707 76.6286 51.9382 76.5051 51.4501C76.2519 51.2882 75.7911 51.3174 75.4441 51.2946C75.4048 51.6812 75.3784 52.2382 75.0997 52.518L75.0037 52.3917C74.8598 51.624 75.0587 50.2395 75.4144 49.5535Z" fill="white"/>
<path d="M57.4273 50.391C58.7835 50.282 59.0002 51.9963 58.0105 52.5104C57.5859 52.5376 57.2346 52.6063 56.9093 52.3366C56.6396 51.9145 56.8204 51.3102 56.9006 50.7992L57.4273 50.391ZM57.7292 52.259C58.2156 51.8521 58.3232 51.0638 57.6155 50.818C57.2187 51.1492 56.957 51.482 57.1732 52.011C57.4246 52.2435 57.3588 52.176 57.7292 52.259Z" fill="white"/>
<path d="M17.6486 64.3733C17.8268 64.5805 18.0132 64.7477 18.0447 65.0138C17.9643 65.6819 16.331 66.29 15.7261 66.6285C15.4699 66.4494 15.4508 66.3101 15.3537 66.0111C15.2687 65.9163 15.2118 65.7463 15.1582 65.6216C15.4004 65.2529 17.0307 64.762 17.6486 64.3733Z" fill="white"/>
<path d="M60.6969 49.5544C60.7982 49.6037 60.864 49.666 60.9506 49.7372C61.0319 50.0915 60.7939 50.5602 60.6556 50.9201C61.0363 50.9517 61.5974 50.951 61.9923 50.9622C62.0485 50.6136 62.0921 49.6351 62.5283 49.6917C62.7112 49.9587 62.272 52.0219 62.1955 52.5278C61.9888 52.5337 61.9226 52.5237 61.7181 52.4883C61.519 52.1079 61.9686 52.0067 61.6694 51.4679C61.4095 51.2899 61.0178 51.3156 60.6922 51.3033C60.6339 51.6946 60.5752 52.283 60.2546 52.5384C59.9471 52.1172 60.3771 49.9989 60.6969 49.5544Z" fill="white"/>
<path d="M46.3682 52.5368C46.6306 51.8911 46.8801 49.8155 47.3622 49.5859L47.5068 49.6836C47.6108 49.9264 47.1555 51.7815 47.0696 52.178C47.4236 52.1772 48.1835 52.3016 48.4317 52.2075C48.9336 52.0171 48.7539 50.469 49.125 49.7021C49.3189 49.5987 49.2346 49.6104 49.4415 49.6507C49.5007 49.8007 49.0208 51.9613 49.0225 52.4234L49.0235 52.4918C48.5634 52.4059 48.3164 52.2962 47.9028 52.5023C47.5886 52.5388 46.7232 52.5305 46.3682 52.5368Z" fill="white"/>
<path d="M93.4172 50.3992C94.1915 50.3673 95.0625 50.8423 94.5375 51.6457C94.0844 51.8432 93.693 51.323 93.2211 51.6865C93.1352 51.9248 93.1305 51.8319 93.2196 52.039C93.4524 52.2139 93.6899 52.2863 93.9547 52.119C94.161 51.9567 94.1344 51.917 94.3422 51.9392L94.4094 52.0987L94.3149 52.3036C93.293 53.1901 91.8118 51.8996 93.4172 50.3992ZM93.8079 51.2936C93.9055 51.2766 93.9836 51.2052 94.0102 51.1104C94.036 51.0155 94.0055 50.9139 93.9313 50.8494C93.8571 50.7848 93.7516 50.769 93.6618 50.8085C93.543 50.8603 93.4821 50.9923 93.5196 51.116C93.5571 51.2397 93.6813 51.3159 93.8079 51.2936Z" fill="white"/>
<path d="M78.4307 50.3943C78.6196 50.413 79.1877 50.4976 79.2763 50.6579C79.4574 50.985 79.7364 51.3215 79.4515 51.6301C78.885 51.8249 78.5236 51.3469 78.0316 51.7931L78.0261 51.9239C78.2522 52.2128 78.4723 52.2025 78.7978 52.1541C79.0886 52.0332 78.9927 52.0249 79.2232 52.0965L79.2413 52.2322C78.9285 52.6241 77.8353 52.691 77.7172 52.263C77.5326 51.5942 77.7708 50.6812 78.4307 50.3943ZM78.9783 51.2718C78.8115 50.8648 78.7555 50.8791 78.3196 50.8492L78.3031 51.0948C78.4989 51.3187 78.6874 51.2701 78.9783 51.2718Z" fill="white"/>
<path d="M78.3198 50.8491C78.7556 50.879 78.8117 50.8647 78.9785 51.2717C78.6876 51.2701 78.4991 51.3186 78.3032 51.0947L78.3198 50.8491Z" fill="white"/>
<path d="M52.5993 49.4768C53.2981 49.9058 52.4094 50.7257 52.5869 51.2328C53.012 51.4595 53.3458 50.5033 53.9244 50.3534C53.9894 51.08 53.1073 50.7306 53.8338 52.3933C53.7009 52.5687 53.5941 52.515 53.4213 52.479C53.1898 52.2941 53.2316 52.0342 53.0559 51.6806C52.8265 51.5356 52.9262 51.557 52.6794 51.5763C52.3609 51.9035 52.6852 52.2535 52.1336 52.5396L52.0287 52.4241C51.935 51.8677 52.3491 49.9701 52.5993 49.4768Z" fill="white"/>
<path d="M39.6173 49.5608C39.7767 49.5892 39.7684 49.5927 39.8939 49.7012C39.821 50.0074 39.2553 50.437 39.0008 50.8334C38.6113 51.44 38.6207 51.7962 38.306 52.4034C38.074 52.5244 38.1775 52.4997 37.9101 52.4905C37.8107 52.3549 37.9426 51.6191 37.933 51.2322C37.784 50.6906 37.6509 50.3306 37.3862 49.8341L37.4397 49.7023C38.3778 49.4765 37.9621 50.6189 38.505 50.8245C38.9461 50.472 39.0751 50.0171 39.6173 49.5608Z" fill="white"/>
<path d="M69.7054 51.7494C69.7037 51.8875 69.7469 51.9731 69.7941 52.1022C69.9781 52.2306 70.0346 52.2246 70.2614 52.2434C71.236 51.8609 70.8089 49.7572 71.4476 49.5222C71.5683 49.7438 71.1844 51.9618 71.1422 52.5274C70.5567 52.5407 69.8682 52.511 69.2749 52.5001C69.2839 51.9966 69.2614 50.7982 69.4108 50.3807C69.9279 50.711 69.65 51.1543 69.7054 51.7494Z" fill="white"/>
<path d="M67.7606 50.4594C68.2066 50.3838 68.5565 50.4077 68.8608 50.7506L68.8354 50.8582C68.5812 50.9798 68.0858 50.9651 67.7852 50.9758L67.7779 51.1234C68.0576 51.2611 68.479 51.369 68.7871 51.4594C68.8023 51.737 68.8442 52.0793 68.759 52.3359C68.4922 52.5534 68.5245 52.4883 68.1253 52.5336C67.7608 52.5076 67.239 52.5147 67.0112 52.1929C67.0408 51.9452 66.9968 52.0274 67.162 51.8719C67.5361 51.8638 67.7098 52.2172 68.1555 52.2372C68.3629 52.0978 68.3122 52.1742 68.3655 51.959C68.2222 51.7318 67.629 51.5233 67.3078 51.3248C67.0333 50.8696 67.3823 50.6746 67.7606 50.4594Z" fill="white"/>
<path d="M80.3053 51.2676L80.3657 51.1166C80.2184 50.8031 80.1842 50.8659 80.2669 50.6115C81.1825 49.8494 81.7813 50.7255 81.6396 51.7219C81.627 51.8097 81.6078 51.8965 81.5822 51.9815C81.5618 51.6834 81.6091 51.4803 81.4321 51.3212L81.4572 51.5051C81.2781 51.2762 81.2836 51.3212 81.0077 51.2347C81.0698 51.1632 81.0839 51.0619 81.0439 50.9761C81.0038 50.8904 80.9171 50.8362 80.8224 50.8379C80.7278 50.8396 80.6431 50.8969 80.6061 50.984C80.56 51.0926 80.5998 51.2185 80.6999 51.2809C80.7999 51.3433 80.9305 51.3237 81.0077 51.2347L81.041 51.6322C80.7495 51.5519 80.6166 51.5257 80.393 51.7827C80.3621 52.0294 80.3392 51.9337 80.4803 52.1405C80.7003 52.2262 80.7495 52.2352 80.9843 52.2642C81.0499 52.3619 81.0799 52.3827 81.1045 52.4937C80.5597 52.5309 80.2057 52.5571 79.7075 52.3296C79.8187 51.6969 79.8261 51.7018 80.3053 51.2676Z" fill="white"/>
<path d="M42.0091 50.3286C42.7317 50.5474 41.9187 51.6345 42.3233 52.1873C43.0132 52.2557 43.0621 50.7123 43.4561 50.413L43.5731 50.4743L43.5817 50.7632C43.5041 51.3861 43.3899 51.8242 43.3458 52.4834C42.7401 52.4872 42.3693 52.4984 41.7706 52.5733C41.7595 51.7331 41.8347 51.1435 42.0091 50.3286Z" fill="white"/>
<path d="M55.8093 49.9421C56.0535 50.0528 56.7904 50.5805 57.0417 50.7533C56.4756 50.8486 56.0479 50.9217 55.8471 51.5317C55.6641 52.088 56.227 52.1985 56.5867 52.2433L56.7109 52.3802L56.6196 52.4771C54.782 52.7449 55.4911 51.7859 55.5068 50.5658C55.5085 50.4318 55.7366 50.0608 55.8093 49.9421Z" fill="white"/>
<path d="M87.5483 50.3928C88.0873 50.3942 88.599 50.4544 88.717 51.0756C88.46 51.2181 87.9615 50.6803 87.4545 51.1437C87.2139 51.7155 87.2818 52.0643 87.8248 52.2698C88.1045 52.1079 88.2522 51.9493 88.5115 52.177L88.4623 52.3219C87.6725 52.9796 86.3785 52.2463 86.9965 51.1413C87.2186 50.7439 87.1311 50.7023 87.5483 50.3928Z" fill="white"/>
<path d="M40.3105 8.3708C41.0866 8.11994 41.9516 7.85166 42.733 7.63369C43.3869 7.45128 43.937 7.39666 44.6056 7.14453C44.5059 7.43569 44.4955 7.34347 44.552 7.62507C43.9091 7.78408 43.2724 7.9672 42.6434 8.174C42.42 8.24806 41.139 8.71189 41.0245 8.72119L41.1502 8.50119L41.0797 8.40173L40.702 8.39728L40.3105 8.3708Z" fill="white"/>
<path d="M26.0437 17.6325L26.1165 17.6269C26.8316 17.5665 26.9406 16.9911 27.1351 17.0998C26.1799 18.131 25.1785 19.135 24.2284 20.171C24.113 20.2968 23.7565 20.8165 23.6708 20.8714C23.6425 20.4691 24.0472 20.0636 24.321 19.8037L24.2462 19.7932C24.0159 19.92 23.9562 19.9304 23.7113 19.9868C23.9343 19.6734 25.7183 17.9053 26.0437 17.6325Z" fill="white"/>
<path d="M35.9501 63.2513C36.1361 63.5029 36.0978 63.5489 36.3377 63.586C36.761 63.3874 36.7157 62.8499 36.9964 62.7896C37.2236 63.0678 36.9879 62.9731 37.2162 63.2788C37.1378 63.8156 36.9332 63.7583 37.0481 64.128C36.812 64.629 36.7499 64.662 36.2292 64.8686C36.2067 64.6067 36.306 64.6699 36.3153 64.4787C35.7905 64.301 35.7081 64.2108 35.3384 63.81C35.6598 63.316 35.4726 63.7931 35.8867 63.5689L35.9501 63.2513Z" fill="white"/>
<path d="M35.7192 10.5341C36.242 10.2875 38.2695 9.25142 38.5843 9.15845L39.182 9.16517L39.2599 9.26157L39.0621 9.55493C38.2367 9.98189 37.28 10.3455 36.4135 10.6978C36.1519 10.5972 35.9938 10.5788 35.7192 10.5341Z" fill="white"/>
<path d="M72.1398 50.4949C72.5466 50.4335 73.5062 50.4369 73.5376 50.9995C73.2079 51.1695 72.8078 50.9299 72.3201 51.0692C72.0523 51.3307 72.0951 51.3797 72.1367 51.7546C72.186 52.1991 72.2284 52.1423 72.6177 52.193C72.8965 52.1059 72.9706 52.0664 73.258 52.1289L73.2781 52.241C72.7455 52.5882 72.5002 52.519 71.8605 52.5062C71.7655 51.9075 71.6662 50.9527 72.1398 50.4949Z" fill="white"/>
<path d="M30.2362 48.2383C29.908 48.3354 29.7561 48.7326 29.5132 48.8133C28.4465 49.1676 27.3502 47.2465 27.6505 46.3873L27.8034 46.386C27.7953 46.5013 27.7905 46.6168 27.789 46.7322C27.7875 47.1554 27.9666 47.2703 28.2717 47.5737C28.8619 48.3313 28.9738 48.6026 29.8391 47.964C30.0076 47.9747 30.1322 47.9676 30.2834 48.0422L30.2362 48.2383Z" fill="white"/>
<path d="M90.2352 52.555C89.9969 52.4928 89.55 52.5368 89.1703 52.4748C88.9414 52.1793 89.3195 50.6624 89.5758 50.4569C89.8734 50.3705 90.2695 50.4484 90.5867 50.4866L90.1906 50.6043C90.1805 50.7496 90.175 50.7493 90.2188 50.896C89.8977 50.8072 90.0078 50.7893 89.7258 50.9029C89.6547 51.0996 89.6524 51.0143 89.7469 51.2235C89.8555 51.274 89.982 51.3366 90.0922 51.3772L90.0594 51.6628C89.9336 51.5343 89.7289 51.5272 89.5945 51.6468C89.4602 51.7664 89.443 51.9704 89.5563 52.1104C89.6688 52.2504 89.8719 52.2772 90.0172 52.1712C90.1625 52.0652 90.1992 51.8638 90.1008 51.7135C90.2844 52.1122 90.1586 52.3018 90.2352 52.555Z" fill="white"/>
<path d="M92.5088 50.4163C92.5932 50.4772 92.5729 50.4956 92.608 50.6238C92.5143 50.8466 92.2135 51.0732 92.0205 51.2399C91.8401 51.7374 91.9166 51.9236 91.7463 52.3707C91.5112 52.5656 91.5424 52.5038 91.1698 52.5204C91.1479 52.4496 91.5674 50.2308 91.9448 50.5226C91.9627 50.5367 92.4323 50.4334 92.5088 50.4163Z" fill="white"/>
<path d="M82.9058 49.4917L83.0164 49.5956C83.1769 50.1208 82.7603 51.7617 82.6116 52.3491C82.5798 52.4749 82.4022 52.6167 82.2946 52.6946L82.1802 52.4122C82.2782 51.6001 82.4413 50.179 82.9058 49.4917Z" fill="white"/>
<path d="M19.5876 21.3335C20.3784 21.8101 20.8465 22.2237 21.6469 21.5077C21.6151 21.7863 21.6568 21.908 21.4664 22.0562C21.3344 22.1589 20.8729 22.4092 20.8048 22.5138C20.6596 22.737 20.7753 23.118 20.5273 23.3395L20.3145 23.2383C20.6137 22.241 19.9241 21.6677 18.9937 21.4879C19.3432 21.462 19.3858 21.5221 19.5876 21.3335Z" fill="white"/>
<path d="M33.2087 7.97095C33.2887 8.14524 34.182 9.91009 34.1859 9.93743C32.77 9.95853 32.9064 9.58103 33.053 8.31813L32.9277 8.16704C33.0102 8.12563 33.1296 8.02978 33.2087 7.97095Z" fill="white"/>
<path d="M65.8034 49.4971C66.141 49.9211 65.8143 52.2579 65.3452 52.6907C65.2927 52.6187 65.1906 52.5068 65.1992 52.4356C65.2733 51.8295 65.4992 49.9095 65.8034 49.4971Z" fill="white"/>
<path d="M90.5869 50.4866C90.99 50.9487 90.933 52.132 90.5299 52.514L90.2354 52.5549C90.1588 52.3018 90.2846 52.1121 90.101 51.7134C90.0885 51.6952 90.0752 51.6783 90.0596 51.6627L90.0924 51.3771L90.2189 50.8959C90.1752 50.7493 90.1807 50.7495 90.1908 50.6042L90.5869 50.4866Z" fill="white"/>
<path d="M50.4595 50.5028C50.7705 50.4544 51.5238 50.3229 51.5349 50.8691C51.5428 51.2693 51.4154 52.0922 51.2838 52.4675L51.138 52.601C50.9301 52.5426 51.0042 52.5916 50.8717 52.3627C50.8558 51.7461 51.3699 51.2378 50.7355 50.8346L50.4595 50.5028Z" fill="white"/>
<path d="M29.5228 14.5312C30.2604 13.7475 30.573 13.6123 31.4881 13.0671L31.4704 13.1207C31.4072 13.3077 31.407 13.3343 31.2847 13.4809L31.5856 13.5689C30.541 13.9206 29.8054 15.0844 29.3902 15.106C29.3886 14.87 29.4454 14.7492 29.5228 14.5312Z" fill="white"/>
<path d="M66.6594 49.561C66.8933 49.667 66.8301 49.5981 66.9154 49.8075C66.8646 50.3583 66.6651 52.2434 66.3871 52.6483C66.1945 52.5612 66.1702 52.5613 66.0483 52.3978C66.2511 51.5253 66.4559 50.3684 66.6594 49.561Z" fill="white"/>
<path d="M44.5398 50.4693C44.774 50.4584 44.8919 50.4399 45.1201 50.5143C45.0855 50.8265 44.7257 51.168 44.614 51.4861C44.4961 51.8218 44.4649 52.1994 44.3981 52.5565C44.2841 52.5507 44.1872 52.5322 44.0748 52.5148C43.8599 52.2074 44.229 50.7 44.5398 50.4693Z" fill="white"/>
<path d="M21.59 71.3428L21.6241 71.6418C22.0188 71.9274 22.1939 71.5765 22.6881 72.0199C22.1741 71.9707 22.0185 71.946 21.5656 72.1932C21.3481 72.2848 21.3231 72.2993 21.1719 72.4799L20.8323 73.1038L20.6234 73.0162C20.525 72.3066 20.6698 72.3039 21.143 71.8186L21.59 71.3428Z" fill="white"/>
<path d="M56.8936 20.9584C57.828 20.9112 58.4495 21.0094 59.3675 21.2152L59.3888 21.4269L59.1761 21.607C58.4064 21.4924 57.9122 21.3862 57.1264 21.357L57.2826 21.0607L56.8936 20.9584Z" fill="white"/>
<path d="M38.584 9.15834C39.0606 8.90904 39.7605 8.64475 40.3102 8.37061L40.7016 8.39709L40.3941 8.65607L40.3921 8.76514C40.647 8.76498 40.7751 8.7524 41.0241 8.721C40.3883 9.03936 39.7131 9.26686 39.0617 9.55482L39.2595 9.26146L39.1816 9.16506L38.584 9.15834Z" fill="white"/>
<path d="M33.4473 58.001C33.6493 58.1416 34.0232 58.3686 34.2613 58.424C35.1593 58.6332 35.0722 59.2456 35.5541 59.8236C35.3098 59.6974 34.0628 58.7891 33.7488 58.5743C33.7522 58.4275 33.5384 58.1435 33.4473 58.001Z" fill="white"/>
<path d="M57.6542 22.426C57.8865 23.1134 57.6651 23.9694 57.0517 24.3785C57.0145 24.2745 57.0446 24.1667 57.061 24.0534L56.8813 23.9234C57.2945 23.4392 57.3423 23.1557 57.1906 22.5587C57.4258 22.4299 57.257 22.6518 57.6542 22.426Z" fill="white"/>
<path d="M15.37 66.673C15.2479 66.964 15.1779 66.997 14.8978 67.0757C14.4764 66.9687 14.3313 66.536 14.2832 66.1483L14.4441 66.0073C14.8664 66.0411 14.8954 66.0214 15.2253 66.283L15.37 66.673Z" fill="white"/>
<path d="M49.9519 51.0878C49.9745 50.8145 49.9959 50.6297 50.208 50.4617L50.4596 50.5028L50.7356 50.8346C50.447 51.2587 50.3717 51.6261 50.2305 52.1158C49.8484 51.8078 49.9538 51.5511 49.9519 51.0878Z" fill="white"/>
<path d="M22.7954 74.8145C23.3977 74.5488 23.4119 74.4639 23.7192 73.8887C23.6629 74.2146 23.5973 74.2645 23.7065 74.5195C24.2209 74.6114 24.379 73.9216 25.1167 74.2802C24.5702 74.5376 24.018 74.648 23.4469 74.8363C23.3114 74.983 22.9771 75.3631 22.8435 75.4762C22.9546 75.1898 23.1147 75.1056 23.0611 74.8683L22.7954 74.8145Z" fill="white"/>
<path d="M12.9386 61.0728C12.7676 61.3679 12.6584 61.4193 12.6819 61.6958C12.877 61.8117 13.0983 61.8464 13.3202 61.8957C12.9007 62.2007 12.6696 62.4765 12.2282 62.0746C12.0414 61.4712 12.5104 61.261 12.9386 61.0728Z" fill="white"/>
<path d="M81.0078 51.2349C81.2837 51.3214 81.2782 51.2764 81.4573 51.5053L81.4322 51.3213C81.6091 51.4805 81.5619 51.6836 81.5823 51.9817C81.553 52.2993 81.6048 52.3132 81.4354 52.5167C81.3025 52.5216 81.2342 52.5328 81.1046 52.4939C81.08 52.3829 81.05 52.362 80.9844 52.2644C80.9843 52.0962 81.023 51.809 81.041 51.6324L81.0078 51.2349Z" fill="white"/>
<path d="M37.0478 64.1279C37.3354 64.3729 37.4231 64.8886 37.2567 65.2339C37.0303 65.3053 36.8846 65.2278 36.6434 65.1069L36.7838 64.9707L36.7081 64.933L36.4979 65.0128L36.229 64.8686C36.7497 64.6619 36.8117 64.6289 37.0478 64.1279Z" fill="white"/>
<path d="M23.1949 70.5107C23.4979 70.8815 24.4107 72.0215 24.604 72.4241C24.1124 71.9951 23.3501 71.442 23.0078 70.9636L23.1949 70.5107Z" fill="white"/>
<path d="M28.2986 12.543C28.2846 13.0038 28.2047 13.1765 28.4499 13.4955C28.7002 13.6041 28.9409 13.7246 29.2092 13.7691C28.631 14.0323 28.2213 13.3413 28.0973 14.1687C28.0657 13.7608 27.8969 13.7686 27.7295 13.3618C27.8757 13.356 27.9581 13.3039 28.0902 13.2425C28.1493 12.9911 28.2177 12.7873 28.2986 12.543Z" fill="white"/>
<path d="M39.5 4.66532C39.351 4.46653 39.2778 4.39857 39.2627 4.14411C39.3674 3.85549 39.2946 3.95743 39.5496 3.76478C40.2051 3.6239 40.3782 4.16197 40.5821 4.63528C40.0233 4.3292 40.2215 4.18709 39.874 3.96939C39.6523 4.13863 39.6333 4.36019 39.5 4.66532Z" fill="white"/>
<path d="M69.4106 50.3807C69.5463 50.0832 69.478 50.1253 69.7206 49.9558C69.9924 50.0507 69.9532 50.0856 70.1659 50.3453C70.0748 50.5092 69.8821 50.8046 69.8442 50.9552L69.7052 51.7494C69.6498 51.1543 69.9277 50.711 69.4106 50.3807Z" fill="white"/>
<path d="M21.379 70.2966C21.595 70.4791 21.7482 70.5679 21.7886 70.8438C21.7321 71.0596 21.7218 71.1598 21.5898 71.3428L21.1428 71.8187C21.0834 71.2276 21.483 70.9572 21.379 70.2966Z" fill="white"/>
<path d="M31.1926 9.00071C31.0764 8.50587 30.7889 8.01454 31.3914 7.72363C31.6235 7.73441 31.732 7.72214 31.931 7.85204C30.8955 8.31524 31.5889 8.47407 31.1926 9.00071Z" fill="white"/>
<path d="M49.9518 51.0879C49.9537 51.5513 49.8483 51.8079 50.2304 52.1159C50.238 52.2101 50.2221 52.2734 50.2089 52.3672C50.0127 52.5486 50.1061 52.51 49.861 52.5316L49.7485 52.4253C49.6527 51.9845 49.8202 51.5212 49.9518 51.0879Z" fill="white"/>
<path d="M64.1831 35.6222C64.5946 35.6159 64.9517 35.6056 65.3643 35.6432L65.066 36.3867L64.984 36.2213C64.8001 36.2201 64.7468 35.8861 64.6203 35.7441C64.4419 35.6943 64.2961 35.6537 64.1831 35.6222Z" fill="white"/>
<path d="M41.1161 70.441C41.3866 70.3662 41.4492 70.2952 41.666 70.3811C41.4834 70.6819 41.1102 70.9023 40.8128 71.1105C40.6895 71.0962 40.6013 71.0905 40.481 71.0531L40.6556 70.8429C40.8988 70.7909 40.9946 70.6336 41.1161 70.441Z" fill="white"/>
<path d="M18.3105 70.951C18.6184 71.0622 18.6807 71.0256 18.9943 70.9185C19.0802 71.0141 19.1547 71.0997 19.2498 71.1874C18.845 71.4077 18.9509 71.604 18.9841 72.0582C18.8882 71.7869 18.7564 71.4963 18.7916 71.2074C18.6276 71.1279 18.5613 71.1225 18.3806 71.0862L18.3105 70.951Z" fill="white"/>
<path d="M22.2212 70.1724C22.4566 70.2313 22.7431 70.3249 22.9737 70.2994L23.1947 70.5109L23.0076 70.9637C22.739 70.7112 22.4788 70.4369 22.2212 70.1724Z" fill="white"/>
<path d="M28.3234 12.0064L28.6439 11.99C28.5113 12.1743 28.3805 12.3322 28.2986 12.543C28.2178 12.7873 28.1494 12.9912 28.0903 13.2426L28.0729 12.7041C27.9171 12.5 27.6658 12.5491 27.3735 12.42C27.9024 12.5012 28.0349 12.4415 28.3234 12.0064Z" fill="white"/>
<path d="M70.166 50.3452C70.4517 50.4714 70.4474 50.4155 70.5806 50.6408C70.3886 50.9269 70.1685 50.9215 69.8442 50.9551C69.8822 50.8045 70.0749 50.509 70.166 50.3452Z" fill="white"/>
<path d="M21.8489 72.5701C22.1981 72.7805 22.4861 72.8677 22.7111 73.167L22.6564 73.2341C22.3107 73.1776 22.0204 72.9668 21.7197 72.7823L21.8489 72.5701Z" fill="white"/>
<path d="M21.1719 72.4798C21.3231 72.2992 21.348 72.2847 21.5656 72.1931L21.8936 72.3663C21.8793 72.4529 21.8789 72.4898 21.8491 72.57L21.7199 72.7823C21.5266 72.7034 21.3514 72.588 21.1719 72.4798Z" fill="white"/>
<path d="M40.3672 71.6799L40.4522 71.7124C40.2353 72.2316 40.6393 72.6216 40.4401 72.9838C40.321 72.6599 39.9104 72.1276 40.1582 72.0207C40.343 71.941 40.3301 71.8667 40.3672 71.6799Z" fill="white"/>
<path d="M35.5758 8.73975C35.6975 8.97811 35.7833 9.15787 35.8845 9.40529C35.6248 9.45412 35.5929 9.46295 35.3792 9.62584L35.2163 9.20326C35.4599 9.19639 35.4101 9.23514 35.5648 9.11131L35.5758 8.73975Z" fill="white"/>
<path d="M40.4813 71.0532C40.2107 71.242 40.1118 71.2766 39.8311 71.1118L39.8634 70.9684L40.1464 70.8154L40.6559 70.8429L40.4813 71.0532Z" fill="white"/>
<path d="M30.6816 9.30224L30.9886 9.19458C31.1518 9.51185 31.1699 9.58708 31.5796 9.60528C31.4414 9.6563 31.2273 9.727 31.103 9.7913C30.8462 9.62552 30.8265 9.5727 30.6816 9.30224Z" fill="white"/>
<path d="M14.4443 66.0073C14.72 65.9288 15.0053 65.8649 15.1584 65.6216C15.212 65.7463 15.2688 65.9163 15.3539 66.0111L15.2255 66.283C14.8956 66.0213 14.8666 66.041 14.4443 66.0073Z" fill="white"/>
<path d="M15.5895 27.2615C15.6795 27.3182 15.7074 27.3223 15.7702 27.4049C15.6438 27.9082 15.6357 28.1899 15.7094 28.7067C15.6268 28.5684 15.6272 28.5195 15.5955 28.3584C15.5564 28.1533 15.5228 28.0896 15.4409 27.9012C15.4412 27.7872 15.5541 27.3958 15.5895 27.2615Z" fill="white"/>
<path d="M14.6727 31.3105L14.8078 31.4516C14.7425 31.7542 14.6902 31.7569 14.7837 31.9996L14.9266 32.0452C14.8349 32.2674 14.7769 32.3741 14.6593 32.5798L14.6019 32.5694C14.5559 32.2456 14.6496 31.6807 14.6727 31.3105Z" fill="white"/>
<path d="M43.9116 3.95535C44.2082 3.75306 43.8953 3.80514 44.1714 3.59326C44.2808 3.83727 44.2994 3.9405 44.6204 3.98018C44.4481 4.06746 44.3257 4.10252 44.2368 4.26825L43.9116 3.95535Z" fill="white"/>
<path d="M40.702 8.39722L41.0798 8.40167L41.1503 8.50112L41.0246 8.72112C40.7755 8.75253 40.6475 8.76511 40.3926 8.76526L40.3946 8.6562L40.702 8.39722Z" fill="white"/>
<path d="M35.3382 63.8099C35.3012 63.6322 35.3021 63.5905 35.3023 63.4076C35.5041 63.2306 35.62 63.2815 35.95 63.2512L35.8865 63.5688C35.4725 63.7929 35.6596 63.3158 35.3382 63.8099Z" fill="white"/>
<path d="M79.7073 52.3296C79.6823 51.9887 79.5669 51.7112 79.6761 51.4763C79.9629 51.4272 80.0426 51.3845 80.3051 51.2676C79.8259 51.7018 79.8185 51.697 79.7073 52.3296Z" fill="white"/>
<path d="M15.8035 30.9873L16.1249 31.0558L16.2104 31.3763L15.3682 31.3096C15.7024 31.1808 15.6129 31.2663 15.8035 30.9873Z" fill="white"/>
<path d="M53.8804 41.8559C53.9812 42.0017 54.0125 42.0488 54.1375 42.1728L54.339 41.7681C54.3204 42.0628 54.334 42.3249 54.1719 42.5682L54.0647 42.5408C53.9411 42.3227 53.9219 42.1034 53.8804 41.8559Z" fill="white"/>
<path d="M40.1465 70.8155C40.555 70.5913 40.65 70.4909 41.1165 70.4412C40.9949 70.6337 40.8992 70.7911 40.6559 70.843L40.1465 70.8155Z" fill="white"/>
<path d="M14.8078 31.4516L15.1777 31.4146L14.9266 32.0452L14.7836 31.9996C14.6902 31.7568 14.7425 31.7542 14.8078 31.4516Z" fill="white"/>
<path d="M28.3237 12.0063C28.5537 11.6893 28.4719 11.706 28.7894 11.574L28.9177 11.629C28.8697 11.8574 28.8497 11.8151 28.6443 11.9899L28.3237 12.0063Z" fill="white"/>
<path d="M88.2123 41.8326C88.135 41.5099 88.0771 40.9447 88.1139 40.6182L88.1982 40.6417L88.3311 40.9432C88.2186 41.1714 88.217 41.0946 88.242 41.3162L88.2123 41.8326Z" fill="white"/>
<path d="M44.522 4.92139L44.5225 5.23008C44.1846 5.08173 44.2175 5.32586 43.7812 5.08261C44.1578 4.88321 44.148 5.14811 44.522 4.92139Z" fill="white"/>
<path d="M92.7555 41.0791C92.8328 41.5675 92.8703 41.7648 92.8406 42.2669L92.7633 42.3265C92.6898 42.2238 92.6711 42.2196 92.6406 42.1001C92.7406 41.9512 92.732 41.9161 92.7523 41.7308L92.7555 41.0791Z" fill="white"/>
<path d="M15.2256 66.2829L15.354 66.011C15.4511 66.31 15.4702 66.4493 15.7263 66.6284C15.663 66.6355 15.4167 66.6595 15.3703 66.6729L15.2256 66.2829Z" fill="white"/>
<path d="M12.0452 45.3555C12.1593 45.3736 12.2832 45.4089 12.3867 45.372L12.2206 45.4625C12.1627 45.6048 12.1379 45.6975 12.0975 45.846L11.9989 45.8984C11.8873 45.6828 11.9577 45.6546 12.0452 45.3555Z" fill="white"/>
<path d="M12.4526 58.5433C12.6869 58.5341 12.832 58.5046 13.0298 58.636C12.9136 58.7834 12.9595 58.7365 12.7517 58.8017C12.6706 58.7147 12.5476 58.6211 12.4526 58.5433Z" fill="white"/>
<path d="M37.5317 77.3147C37.6787 77.2376 38.2343 77.3593 38.4305 77.3924C38.1624 77.4181 37.7136 77.5054 37.5317 77.3147Z" fill="white"/>
<path d="M47.9028 52.5023C48.3165 52.2961 48.5635 52.4058 49.0235 52.4918C48.618 52.5193 48.3051 52.5125 47.9028 52.5023Z" fill="white"/>
<path d="M15.5898 27.2615L15.6894 27.0175L15.8016 27.001C15.8633 27.2378 15.8597 27.1382 15.7705 27.405C15.7077 27.3224 15.6798 27.3182 15.5898 27.2615Z" fill="white"/>
<path d="M88.2421 41.3164C88.2171 41.0948 88.2186 41.1716 88.3311 40.9434L88.514 41.3961L88.2421 41.3164Z" fill="white"/>
<path d="M92.7522 41.7307C92.7319 41.916 92.7405 41.9511 92.6405 42.1L92.4702 41.6863L92.7522 41.7307Z" fill="white"/>
<path d="M15.441 27.9011C15.5229 28.0896 15.5565 28.1532 15.5955 28.3584L15.2949 28.2613L15.441 27.9011Z" fill="white"/>
<path d="M36.498 65.0126L36.7083 64.9329L36.7839 64.9706L36.6435 65.1068L36.498 65.0126Z" fill="white"/>
</g>
<defs>
<clipPath id="clip0_1936_3325">
<rect width="86.875" height="80" fill="white" transform="translate(9)"/>
</clipPath>
</defs>
</svg>
