<svg width="104" height="80" viewBox="0 0 104 80" fill="none" xmlns="http://www.w3.org/2000/svg">
<g clip-path="url(#clip0_1936_3414)">
<path d="M34.8617 30H7.41021L4.13944 33.815H6.0629L0 51H27.4515L30.1195 43.44H21.6456L20.3249 47.185H9.81232L11.133 43.44L7.59635 41.4537H20.3426L21.6899 37.6388H13.1717L13.8188 35.8012L10.2821 33.815H25.0228L24.3225 35.8012H32.7964L34.8617 30Z" fill="white"/>
<path d="M101.952 35.8012L104 30H76.5485L73.2778 33.815H75.2012L69.1383 51H96.5898L99.2578 43.44H90.7839L89.4632 47.185H78.9507L82.966 35.8012L79.4293 33.815H94.17L93.4697 35.8012H101.952Z" fill="white"/>
<path d="M64.7773 30L59.4058 45.2162L62.9159 47.1938H53.9988L60.0706 30H51.5967L46.1897 45.2075L49.7087 47.185H40.7916L46.8811 30H38.4072L35.1365 33.815H37.0599L30.997 51H40.4548L49.7619 47.185L57.3582 51H65.575L73.003 30H64.7773Z" fill="white"/>
</g>
<defs>
<clipPath id="clip0_1936_3414">
<rect width="104" height="80" fill="white"/>
</clipPath>
</defs>
</svg>
