<svg width="104" height="80" viewBox="0 0 104 80" fill="none" xmlns="http://www.w3.org/2000/svg">
<g clip-path="url(#clip0_1936_3282)">
<path d="M25.4079 37.6987C24.3 37.4446 21.4225 35.1027 20.8089 34.0135C20.1305 32.9231 19.7745 31.3741 20.1485 30.0948C21.36 26.0305 26.976 24.0526 30.5727 22.8435C35.3925 21.2235 41.0361 20.3928 46.1029 20.1101C53.5197 19.6962 61.681 20.1626 68.9142 21.9117C73.2686 22.9646 79.5054 25.196 82.0429 29.0592C83.8475 31.7644 81.4804 35.1545 79.071 36.5332C79.2546 35.8505 81.0358 35.1012 80.8835 34.2477L80.56 34.0364C79.9757 34.6435 78.6085 36.2842 77.7366 36.2895C80.2507 34.6131 82.8038 31.8446 80.5389 28.8907C77.2175 24.5592 70.3475 23.4053 65.3161 22.1863C59.8877 21.0682 53.5066 21.014 47.9748 21.1171C46.4822 21.1449 44.5042 21.186 43.042 21.3375C39.6167 21.6975 36.2241 22.3208 32.8945 23.2018C29.6931 24.026 27.0639 24.8596 24.3168 26.6636C19.0589 30.1163 20.6189 33.9794 25.4836 36.6558C25.7872 36.8228 26.6241 37.2095 26.8918 37.3906C27.0975 37.7342 28.0907 37.9893 28.346 38.4521C28.101 38.453 28.032 38.4924 27.8261 38.6082C27.2849 38.6149 25.877 37.5398 25.4079 37.6987Z" fill="white"/>
<path d="M80.5603 34.0364L80.8838 34.2476C81.0361 35.1011 79.2548 35.8504 79.0712 36.5332C78.5384 37.0728 77.4502 37.472 76.7834 37.8378C72.8746 39.9824 68.7807 40.7044 64.4643 41.5129C57.5808 42.8024 50.6122 43.0541 43.6444 42.3486C43.3879 42.3226 42.2686 42.2191 42.1317 42.1326C40.2204 42.0125 36.3063 41.2301 34.4627 40.8542C31.9932 40.4166 27.5855 38.9647 25.4082 37.6986C25.8773 37.5397 27.2852 38.6148 27.8264 38.6081C28.0323 38.4923 28.1012 38.4529 28.3462 38.4521C28.091 37.9893 27.0978 37.7341 26.8921 37.3905C32.2611 39.5516 37.4616 40.7204 43.2435 41.1608C43.5906 41.1872 43.9674 41.2257 44.3131 41.2315C55.1083 41.4101 66.1705 41.7824 76.2085 37.1039C76.7213 36.8649 77.1605 36.5243 77.6716 36.3155L77.7369 36.2894C78.6088 36.2842 79.9759 34.6434 80.5603 34.0364Z" fill="white"/>
<path d="M34.4624 40.8542L34.5077 40.7449C35.7001 40.9347 37.7026 41.4199 38.7744 41.5275L38.8187 41.249C39.0226 41.122 39.0684 41.1323 39.3118 41.1444C39.561 41.2699 39.5887 41.3656 39.7203 41.6117C40.1444 41.8935 41.7552 41.8001 42.2083 42.0743L42.1315 42.1326C40.2201 42.0125 36.306 41.2301 34.4624 40.8542Z" fill="white"/>
<path d="M56.5783 32.5059C57.7761 33.5236 57.995 34.3276 59.1786 32.6552L59.1675 32.7298C59.1186 33.043 58.982 33.336 58.7736 33.575L58.8383 33.6277L58.8365 33.5732C59.0875 33.4429 59.2662 33.2959 59.5227 33.3283C59.121 33.7601 58.0069 34.5889 57.4094 34.5695C56.379 34.536 56.5508 33.1562 56.5783 32.5059Z" fill="white"/>
<path d="M69.0078 27.5107C69.6978 27.4746 70.0578 27.5264 70.75 27.6152C69.919 28.4601 64.9396 36.0417 65.3721 36.8857C66.2949 37.2216 68.5263 34.4178 69.21 34.3125L69.3232 34.4189C69.4666 36.0693 66.0482 37.9469 64.8438 38.6279C64.3951 38.403 63.4634 37.6598 63.0234 37.3223C62.2231 37.7513 61.6831 38.0704 60.8076 38.3164C59.1052 37.8393 58.8062 37.1242 58.8213 35.4824C58.6089 35.5673 58.3925 35.6431 58.1738 35.71C56.4646 36.2159 55.817 35.9005 55.3447 34.251C54.9432 35.1932 53.5923 37.2364 52.8193 37.9014C52.1679 38.0496 51.7997 38.0395 51.1348 38.042C51.8869 36.565 52.7126 35.2442 53.5879 33.8438C53.8057 33.4952 54.404 32.5175 53.9248 32.2822C52.3527 32.4333 50.3771 36.0747 49.0742 37.1123C47.0465 38.7267 45.4138 38.6579 43.9141 36.4756C43.2658 37.3361 43.0377 37.2396 42.0342 37.0742C44.6288 34.4616 44.3862 31.1469 48.8418 30.8867C48.8347 31.1509 48.8615 31.6497 48.6064 31.8096C47.3574 32.5928 46.0438 33.5933 45.7842 35.1494C45.6581 35.9064 46.4579 36.4077 47.0654 36.6035C49.5005 35.8872 49.7405 33.2889 49.4775 31.1406C49.8681 31.0518 50.3354 31.15 50.7402 31.2061C50.8604 31.7895 51.0383 32.3704 51.1504 32.9209C51.9986 31.9737 53.9632 29.7563 55.3418 30.9844C55.6096 31.223 55.8313 31.7594 55.9863 32.0947C57.1027 30.1393 59.9148 30.5806 59.1787 32.6553L59.168 32.7295C59.1191 33.0427 58.9818 33.3362 58.7734 33.5752L58.8389 33.6279L58.8369 33.5732C59.0876 33.443 59.2662 33.2959 59.5225 33.3281C61.3045 31.8098 63.9085 29.3926 65.6895 32.373C66.034 31.2487 67.969 28.1954 69.0078 27.5107ZM63.2568 32.2744C62.3053 32.6638 61.4754 33.9745 61.0303 34.877C60.7248 35.4962 60.576 36.8933 61.6631 36.6865C63.7172 35.8521 64.3212 34.4446 64.3145 32.3408C63.9791 32.3094 63.5888 32.2611 63.2568 32.2744ZM48.8438 30.8867C48.9045 30.9244 48.9564 30.9586 49.0049 30.9883C48.9563 30.9585 48.9037 30.9246 48.8428 30.8867H48.8438Z" fill="white"/>
<path d="M42.35 25.941C41.9441 27.9043 41.013 29.3751 38.9773 29.9482C37.7337 30.2983 36.4038 29.511 36.1572 28.2283C35.6628 25.6572 38.3483 23.8715 40.5654 23.523C46.2242 22.5289 51.7847 24.9536 57.4328 24.4644C58.0964 24.4069 60.4274 23.9176 60.7893 24.1684C60.9401 24.8031 60.2684 25.5846 59.7585 25.8622C56.3257 27.7308 52.3051 25.9049 48.8469 25.2093C47.5712 26.0842 45.819 27.4813 45.1646 28.8821C45.6096 29.1176 46.8223 28.9035 47.3198 28.8033L47.3338 27.6322C47.7358 27.2369 48.0014 27.1004 48.5343 26.9119C48.8763 27.0098 49.1641 27.0397 49.3956 27.3562C49.7085 27.784 49.5015 28.9794 48.9979 29.1409L48.6362 29.2085C48.7569 29.6598 48.7431 29.942 48.7479 30.4019C48.2079 30.2149 47.6757 30.0318 47.2203 29.6775C45.7769 29.7732 44.5611 29.5793 43.7057 30.9281C41.9941 33.6271 40.0906 37.3821 36.6014 37.9083C34.5041 38.2247 32.4184 37.5294 32.2086 35.1168C32.0238 33.2769 32.8687 31.7815 34.5564 31.0355C34.9587 30.8577 35.7944 30.7733 36.1317 31.0625C36.1018 31.5557 33.8106 32.9012 34.0523 34.0283C34.1443 34.458 34.4229 35.3247 34.8116 35.5485C36.5982 36.5772 38.7671 34.5279 39.9167 33.3214C40.4579 32.73 42.0178 30.9135 42.0048 30.4465C41.2998 30.1301 40.3637 31.2279 39.7223 30.713L39.7327 30.5683C40.409 29.6648 41.8944 29.4452 42.9453 29.2526C43.3985 28.9043 43.8856 28.3282 44.2478 27.8814C45.3247 26.5531 46.0485 25.8043 47.5728 25.025C44.8492 24.144 40.676 23.4177 38.457 25.9888C37.7436 26.8154 38.1206 27.6483 38.9474 28.2374C40.689 27.5255 40.9051 27.1484 42.35 25.941Z" fill="white"/>
<path d="M48.5342 26.9119C48.8762 27.0098 49.1639 27.0396 49.3954 27.3562C49.7083 27.784 49.5013 28.9793 48.9978 29.1409L48.636 29.2084C48.4275 28.5012 48.2953 28.0738 48.2757 27.321L48.2039 27.2447C47.9386 27.3655 47.6555 27.4522 47.5264 27.7023C47.436 28.22 47.6935 28.6559 47.2625 28.9177C46.7765 29.2131 45.7763 29.0823 45.1494 29.1503L45.0591 29.0678L45.1644 28.882C45.6094 29.1175 46.8221 28.9034 47.3196 28.8033L47.3336 27.6321C47.7356 27.2369 48.0013 27.1003 48.5342 26.9119Z" fill="white"/>
<path d="M48.2759 27.321C48.9357 27.8385 48.4265 28.4017 48.9979 29.1409L48.6362 29.2085C48.4277 28.5012 48.2954 28.0739 48.2759 27.321Z" fill="white"/>
<path d="M70.9152 51.7611C72.4543 51.6701 76.5561 51.665 77.6784 52.6655C79.3072 54.1175 79.0306 57.7861 77.6783 59.4321C75.9542 60.4692 72.8536 60.1683 70.7785 60.1612C70.7852 59.0371 70.6744 52.1998 70.9152 51.7611ZM73.478 57.9741C74.2792 57.9852 75.258 58.1118 75.8648 57.5813C76.1795 57.1383 76.2155 57.0118 76.2859 56.4718C76.5865 54.1635 75.5702 53.9614 73.4877 53.9707C73.4675 55.1751 73.5634 56.8817 73.478 57.9741Z" fill="white"/>
<path d="M21.3203 51.7446C23.7071 51.4705 25.9698 52.2674 26.103 55.0984C26.2162 57.5024 25.8516 59.9481 22.8319 60.0798C20.2213 60.1847 18.3809 59.9381 17.8306 56.9148C17.353 54.2902 18.5663 52.108 21.3203 51.7446ZM20.8101 53.0256C20.6481 53.1172 20.4815 53.2142 20.3273 53.3155C18.3207 54.6347 18.7377 58.4879 21.1827 59.0794C21.4988 59.1559 21.9041 59.154 22.2302 59.146C25.3073 58.9741 25.4573 55.5485 24.1768 53.449C23.3857 53.0973 22.903 52.9254 21.995 53.0034C21.5382 53.0348 21.2721 53.0443 20.8101 53.0256Z" fill="white"/>
<path d="M54.449 51.8128C56.0658 51.727 58.3139 51.7706 59.9334 51.9404C60.6041 52.0532 61.4526 52.4209 61.7978 53.0407C62.7926 54.8264 62.1738 56.3745 60.597 57.3928C61.1588 58.3928 61.5367 59.0642 62.0328 60.1024C61.5662 60.0873 61.0805 60.1403 60.6137 60.1787C59.9635 60.194 59.6753 60.1264 59.0802 59.9376C58.7205 59.2492 58.3886 57.099 57.0902 57.7436C56.7341 58.2031 56.8794 59.5161 56.8942 60.176C56.3991 60.1773 54.6539 60.2691 54.3877 59.9556C54.2428 59.1763 54.2755 52.4717 54.449 51.8128ZM56.9534 55.5908C57.9118 55.6451 58.476 55.7285 59.3674 55.3241C60.708 53.8133 57.6505 53.8575 56.8897 53.8233C56.8552 54.4707 56.8543 54.9445 56.9534 55.5908Z" fill="white"/>
<path d="M35.3501 51.8341C35.508 51.8166 35.6663 51.8039 35.8249 51.7961C36.8228 51.7411 37.7911 51.7956 38.7532 51.8596C41.3186 52.0304 42.2571 53.148 42.2672 55.6704C42.2734 57.2406 42.3066 58.1575 41.1382 59.3946C39.7251 60.4198 36.8334 59.9816 35.14 60.0812C35.2241 57.7835 34.9681 54.382 35.2084 52.0105C35.2643 51.941 35.3116 51.8823 35.3501 51.8341ZM36.5126 59.0997C38.1385 59.0592 38.874 59.2515 40.219 58.3135C40.4268 58.118 40.6916 57.8835 40.8861 57.6838C41.606 53.1747 40.3735 53.0086 36.4025 52.9679C36.5252 54.7255 36.5189 57.2834 36.5126 59.0997Z" fill="white"/>
<path d="M68.888 51.7561C69.2383 51.732 69.4637 51.6792 69.6701 52.0215C69.8651 52.3447 69.9754 52.8855 69.8719 53.2553C69.4348 54.8185 66.8578 53.3196 65.834 54.0433C65.6111 54.208 65.5847 54.5524 65.5322 54.8305C66.5245 54.8717 68.7125 54.666 69.5672 55.0408C69.7929 55.1397 69.7891 56.4411 69.8389 56.8718C68.8252 57.0317 66.0444 56.8471 65.5816 57.1335C65.4939 57.3578 65.5402 57.7348 65.6904 57.9248C66.0431 58.0114 68.7376 57.955 69.2383 57.9516C70.1562 58.0767 69.987 59.4067 69.9969 60.1261C69.2761 60.1954 63.6383 60.2489 63.3651 59.9973C63.0468 59.2073 63.2254 53.1746 63.1975 51.7642C65.0941 51.8113 66.9916 51.8085 68.888 51.7561Z" fill="white"/>
<path d="M49.0896 51.7482C50.775 51.6282 55.5043 52.1629 52.0003 54.4521C51.7024 54.6467 50.7247 54.0631 50.3523 53.9711C49.3767 53.7303 48.3596 54.2453 48.1036 55.2537C47.8209 56.2952 48.249 57.0545 48.7112 57.926C50.048 58.1374 50.8969 58.1412 51.9051 57.1296C52.1003 57.4266 52.1426 57.4976 52.4184 57.7154C52.7649 57.9614 53.3226 58.4643 53.6642 58.7557C53.0598 59.428 52.1108 60.0621 51.1709 60.1328C48.4733 60.336 45.9801 60.4339 45.5766 56.9982C45.2565 54.2714 45.963 52.0831 49.0896 51.7482Z" fill="white"/>
<path d="M27.2779 51.817C28.9516 51.6747 31.4148 51.7347 32.9992 52.2632C33.3428 52.5962 33.5579 52.8715 33.6364 53.4118C33.7782 54.3868 33.7779 55.9055 32.8338 56.4943C32.7209 56.5646 32.229 56.65 32.0759 56.6775C32.2129 57.258 32.2465 57.3702 32.5609 57.8904C32.8822 58.4168 33.8252 59.729 33.2089 60.2523C32.7934 60.3154 32.2531 59.7919 32.043 59.4668C31.7947 59.1094 31.032 57.6175 30.7279 57.1018C29.8361 57.0155 29.4604 56.983 28.5453 57.0039C28.5139 57.6645 29.0048 60.9354 27.4824 60.0219C27.1635 59.5531 27.3962 55.6309 27.3437 54.7662C27.3027 54.09 27.1977 52.4578 27.2779 51.817ZM28.4606 55.7757C29.5736 55.8048 31.286 55.9653 32.2552 55.5129L32.6795 54.7455C32.6471 54.1949 32.694 53.7779 32.2619 53.3764C31.5909 52.7531 29.5143 52.9794 28.5197 53.0091C28.3667 53.2379 28.4826 55.3271 28.4606 55.7757Z" fill="white"/>
<path d="M32.5608 57.8904C32.8821 58.4168 33.8251 59.729 33.2088 60.2523C32.7934 60.3153 32.253 59.7919 32.043 59.4667L32.1873 59.4154C32.4202 58.8903 32.3358 58.5258 32.5608 57.8904Z" fill="white"/>
<path d="M83.0986 51.8126C85.6275 51.7984 88.0221 51.7974 90.5517 51.7068C90.6135 52.4445 90.7002 53.2723 90.64 54.0037C89.8127 53.9866 88.9846 53.9863 88.1572 54.0029C88.0549 56.0153 88.2892 58.3244 88.1861 60.0914C87.6463 60.1597 86.2752 60.2719 85.7642 60.1734C85.8307 59.4634 85.765 54.318 85.5369 53.9823C84.8244 53.9799 83.8541 54.0036 83.1588 53.9729C83.0283 53.1643 83.0158 52.63 83.0986 51.8126Z" fill="white"/>
<path d="M79.865 51.7441C80.3963 51.7089 81.7869 51.6746 82.2142 51.9449C82.4049 52.8375 82.2307 54.8818 82.2283 55.9089C82.2244 57.2345 82.3361 58.7656 82.2822 60.0584C81.9385 60.2492 80.2861 60.1726 79.7955 60.1617C79.7471 58.0652 79.6619 53.6833 79.865 51.7441Z" fill="white"/>
<path d="M11.7428 51.7253C12.9293 51.7635 15.8703 51.7005 16.8458 51.9309C16.9958 52.0778 17.1229 52.3632 17.0965 52.5682C17.0166 53.1899 15.8505 53.067 15.3731 53.0617C14.6162 53.0534 13.8198 53.0246 13.0514 52.9842C12.455 57.0885 14.7833 54.7589 16.8788 55.593C17.1007 55.6814 17.145 56.0474 17.1812 56.2933C16.7371 56.5954 13.7054 56.4962 13.0901 56.406C12.9882 57.2735 13.198 59.3887 12.9834 59.944C12.5508 60.0516 12.1914 60.2364 11.8245 60.0331C11.5547 59.5811 11.6752 52.6242 11.7428 51.7253Z" fill="white"/>
</g>
<defs>
<clipPath id="clip0_1936_3282">
<rect width="104" height="80" fill="white"/>
</clipPath>
</defs>
</svg>
