<svg width="104" height="80" viewBox="0 0 104 80" fill="none" xmlns="http://www.w3.org/2000/svg">
<g clip-path="url(#clip0_1936_3284)">
<path d="M52.2002 20.5515C54.9763 20.6868 57.7758 20.7974 60.2949 21.5173C67.2823 23.5142 73.6366 27.7821 77.4863 33.4011C81.3257 39.0053 82.6808 45.9577 79.6963 53.4089C79.0507 55.0216 78.596 56.3254 77.6875 57.7693C77.3714 58.2714 76.9389 58.7979 76.4912 59.3748C76.1197 59.8535 75.7367 60.3678 75.4678 60.8835C74.3967 61.0422 73.1865 60.9997 72.0244 60.9978H72.0254C70.4401 60.9894 68.8548 60.99 67.2695 61.0017C67.1394 61.0024 66.9703 61.0009 66.7725 60.9978C66.5774 60.9948 66.3588 60.9915 66.1426 60.9929C65.7654 60.9954 65.3188 61.0113 65.0098 61.0896L64.9307 61.0964C64.5424 61.0371 63.9754 61.0124 63.4385 61.0027C62.8539 60.9921 62.2493 60.9961 61.8779 60.9939H55.999L51.4502 60.9812C46.8519 60.9596 42.1425 60.9305 37.6611 61.0691L37.584 61.071L37.5381 61.0867C36.9704 60.968 36.25 60.9276 35.4873 60.9226C34.6461 60.9171 33.7105 60.9541 32.8018 60.99C31.8867 61.0262 30.9999 61.0617 30.2354 61.0554C29.4561 61.049 28.8647 60.9981 28.5127 60.8894C28.0858 60.7575 27.5307 60.2703 26.9053 59.4314C26.299 58.6182 25.6895 57.5631 25.127 56.4431C23.9998 54.199 23.0994 51.7675 22.8154 50.6482C22.2875 48.5678 22.2715 45.1957 22.374 42.8855C22.5953 40.1072 24.2442 36.6059 25.6064 34.0632C26.6632 32.6427 27.9551 30.956 29.1641 29.7449C29.705 29.203 30.7707 28.2446 31.8809 27.3259C33.0016 26.3986 34.1199 25.5526 34.7764 25.2048C37.1194 23.9634 40.0353 22.4177 42.4053 21.6414C44.5276 20.9462 47.8011 20.6675 50.3496 20.5906L51.3926 20.5691H51.3994C51.6778 20.5624 51.9648 20.5467 52.2002 20.5515ZM51.6914 34.4001C51.5417 34.4122 51.3683 34.4356 51.2715 34.446L50.0742 34.575L51.0107 35.3318L51.0557 35.3679C51.0714 35.4568 51.0898 35.5738 51.1045 35.7205C51.1277 35.952 51.1449 36.2007 51.168 36.4695C51.1901 36.727 51.2174 36.9974 51.2598 37.2263C51.281 37.3407 51.3083 37.458 51.3457 37.5652C51.3801 37.6637 51.4386 37.8 51.5449 37.9128L52.085 38.4861L52.374 37.7527C52.4081 37.666 52.4287 37.5613 52.4424 37.4832C52.4582 37.3927 52.4733 37.2853 52.4873 37.1707C52.5154 36.9407 52.5421 36.66 52.5664 36.3796C52.6165 35.8013 52.6541 35.2519 52.6758 35.0281L52.6924 34.8513L52.5947 34.7039L52.5459 34.6296L52.4287 34.4529L52.2207 34.4138L52.083 34.3953C51.9441 34.3838 51.8048 34.391 51.6914 34.4001ZM55.0713 29.9832C55.0282 29.9861 54.9887 29.989 54.9355 29.99L54.6348 29.9949L54.498 30.2634L54.4639 30.3328L54.4619 30.3357C54.3953 30.4693 54.341 30.5844 54.3008 30.7097L54.0322 30.6521L53.9121 31.1179L53.873 31.2703L53.8486 31.366L53.8613 31.4636L53.8779 31.5789L53.9131 31.8396L54.1475 31.9578C54.1826 31.9755 54.2995 32.0368 54.3867 32.0789C54.4651 32.1167 54.6161 32.1886 54.7598 32.2107L55.5459 32.3308L55.3135 31.5701L55.3037 31.5193C55.3054 31.5149 55.3172 31.4891 55.3799 31.4265C55.4113 31.3952 55.4435 31.3655 55.4893 31.323C55.5309 31.2843 55.5833 31.2351 55.6338 31.1804C55.7344 31.0714 55.8624 30.9056 55.9102 30.6736L55.9775 30.3464L55.7002 30.1589C55.5812 30.0783 55.4414 29.9964 55.249 29.9812C55.1762 29.9755 55.1067 29.9808 55.0713 29.9832Z" stroke="white"/>
<path d="M64.0137 38.9446C64.2329 38.9576 64.2837 38.9415 64.4464 39.0701C64.6889 39.7865 65.1779 40.6003 65.4398 41.3396C65.6993 42.0524 65.8628 42.7978 66.1196 43.5112C67.1261 46.3083 68.1327 49.1168 68.9824 51.9654C69.0278 52.1177 68.9012 52.7477 68.8661 52.9355C67.569 53.0784 65.7391 52.9834 64.3344 53.0254C63.3183 53.017 62.3001 53.0147 61.2843 53.0007C60.7819 52.9938 59.7426 53.0718 59.4781 52.5993C59.3683 51.2604 61.1133 47.3583 61.5264 45.975C62.1551 43.87 62.9452 41.7162 63.8311 39.7046C63.9066 39.5333 63.9443 39.1701 64.0137 38.9446Z" fill="white"/>
<path d="M42.4385 37.9239C42.5335 37.8784 43.1763 37.8552 43.3592 37.8359C43.3552 38.2826 43.4109 38.6194 43.5782 39.0391C43.9647 39.6311 44.4956 40.2464 44.9492 40.7992C44.7179 41.1005 44.6884 41.144 44.5818 41.507C44.598 42.5252 44.8938 47.1441 44.2614 47.7921C44.2069 47.848 44.1481 47.8989 44.089 47.9498C43.1796 48.7303 39.2062 48.4313 38.0739 48.0957C37.5301 46.6774 37.6313 42.8596 37.8537 41.3077C37.6013 41.1309 37.6692 41.3701 37.272 41.0341C37.9217 40.2079 38.631 39.6404 38.5946 38.5844L38.7765 38.5292C38.6461 38.3851 38.6301 38.3793 38.6095 38.1947C38.7356 38.1381 38.6648 38.1504 38.8321 38.2072L38.9279 38.5178L39.0094 38.0415C39.683 37.9134 41.5349 38.0371 42.4385 37.9239Z" fill="white"/>
<path d="M44.317 41.1904L44.5818 41.5071C44.598 42.5253 44.8938 47.1441 44.2614 47.7921C44.2069 47.848 44.1481 47.8989 44.089 47.9498C44.1281 47.7479 43.9595 46.053 43.9809 45.5366C44.0324 44.2923 43.925 42.6966 44.101 41.4412C44.109 41.3843 44.2644 41.244 44.317 41.1904Z" fill="white"/>
<path d="M43.0029 39.2016L43.5783 39.0391C43.9648 39.6311 44.4957 40.2464 44.9493 40.7992C44.718 41.1005 44.6885 41.144 44.5819 41.507L44.3171 41.1904C43.7439 40.7735 43.2367 39.8737 43.0029 39.2016Z" fill="white"/>
<path d="M38.5946 38.5844L38.7765 38.5292C38.6461 38.3851 38.6301 38.3793 38.6095 38.1947C38.7356 38.1381 38.6648 38.1504 38.8321 38.2072L38.9279 38.5178L39.0094 38.0415C39.2055 39.9866 38.4309 39.8752 37.8537 41.3078C37.6013 41.1309 37.6692 41.3701 37.272 41.0342C37.9217 40.2079 38.631 39.6404 38.5946 38.5844Z" fill="white"/>
<path d="M42.4385 37.9239C42.5334 37.8784 43.1763 37.8552 43.3591 37.8359C43.3551 38.2826 43.4108 38.6194 43.5782 39.0391L43.0028 39.2016C42.7769 38.5911 43.0923 38.0349 42.4385 37.9239Z" fill="white"/>
<path d="M49.9062 55.24C50.2005 54.2009 50.8636 53.0913 51.3291 52.0977C52.0258 50.6105 52.662 48.7526 53.914 47.6409C54.5889 49.2702 55.4554 50.8474 56.0627 52.5377C56.3905 53.45 56.9016 54.2544 57.1897 55.2326C56.6238 55.2993 55.929 55.3504 55.3615 55.2864L55.393 55.5609C55.3737 56.4623 55.5527 58.3691 54.9914 58.9349C54.6568 59.0545 54.7791 59.0302 54.4178 58.9694C54.2484 58.7527 54.2609 58.5816 54.2309 58.2697C53.6616 58.0506 53.5925 58.3305 53.0915 58.6568C52.8543 58.9282 52.5116 59.1572 52.1914 58.9167C52.0077 58.6384 52.0342 58.2652 52.0228 57.9249C51.9404 57.472 51.9495 55.9331 51.934 55.3907C51.4346 55.3962 51.1591 55.4063 50.6609 55.321L49.9062 55.24Z" fill="white"/>
<path d="M50.6611 55.3209C51.3575 55.2994 55.0206 55.1096 55.3617 55.2863L55.3932 55.5607C55.3739 56.4621 55.5529 58.369 54.9916 58.9347C54.657 59.0543 54.7793 59.03 54.418 58.9692C54.2486 58.7525 54.2611 58.5814 54.2311 58.2696C53.6618 58.0505 53.5927 58.3303 53.0917 58.6567C52.8545 58.9281 52.5118 59.1571 52.1916 58.9165C52.0079 58.6383 52.0344 58.2651 52.023 57.9248C51.9406 57.4719 51.9497 55.933 51.9342 55.3906C51.4348 55.396 51.1593 55.4062 50.6611 55.3209Z" fill="white"/>
<path d="M54.2148 55.7712L54.3201 55.6041C54.6252 55.5152 55.0645 55.5518 55.393 55.5607C55.3737 56.4621 55.5527 58.3689 54.9914 58.9346C54.6568 59.0543 54.7791 59.03 54.4178 58.9692C54.2484 58.7525 54.2609 58.5814 54.2309 58.2695C54.2359 57.4546 54.2577 56.5803 54.2148 55.7712Z" fill="white"/>
<path d="M52.0339 55.5256L53.0269 55.5763C53.0455 56.1817 53.067 56.742 53.1155 57.3454C53.1124 57.7826 53.1044 58.2197 53.0916 58.6567C52.8544 58.9281 52.5117 59.157 52.1915 58.9165C52.0078 58.6383 52.0344 58.2651 52.0229 57.9248C52.068 57.2428 52.0351 56.2314 52.0339 55.5256Z" fill="white"/>
<path d="M48.0947 29.0964L48.3798 28.8372C48.5848 28.9716 49.0087 29.2261 49.1536 29.3955L49.6546 29.5518C49.8723 29.4469 50.0661 29.4614 50.3104 29.4513L50.3216 29.5071C51.1302 29.4672 51.94 29.4536 52.7495 29.4666C53.255 29.6994 53.2403 30.092 53.7013 30.5332L54.3571 31.3954L54.3729 31.511L54.4312 31.6954C54.7001 31.8338 54.9132 31.8947 55.0343 32.1433L55.0264 32.2436C55.2916 32.2512 55.5567 32.2623 55.8216 32.2771C55.5193 32.2992 55.1666 32.2855 54.9435 32.4754C54.7293 32.9472 55.4074 33.2561 55.7635 33.4744C55.2139 33.5982 54.392 33.7183 53.976 34.0466C52.9125 34.8433 52.9994 34.5254 52.1286 34.9052C51.9031 34.8629 51.564 34.9172 51.3249 34.943C51.1993 34.8483 49.9009 34.173 49.6135 34.0039L48.9752 33.565C48.825 33.1986 48.8802 32.8225 48.9027 32.426C48.9233 31.9426 48.9803 31.4036 49.0846 30.9325C49.0905 30.71 49.0835 30.6818 49.0058 30.473L48.7543 29.9362C48.6791 29.6892 48.2857 29.3058 48.0947 29.0964Z" fill="white"/>
<path d="M55.0265 32.2437C55.2917 32.2512 55.5568 32.2623 55.8217 32.2771C55.5194 32.2992 55.1667 32.2855 54.9436 32.4755C54.7294 32.9472 55.4075 33.2561 55.7636 33.4744C55.214 33.5982 54.3921 33.7183 53.9761 34.0466C54.614 33.3414 53.5863 32.4226 55.0265 32.2437Z" fill="white"/>
<path d="M48.0947 29.0964L48.3798 28.8372C48.5848 28.9716 49.0087 29.2261 49.1536 29.3955L49.6546 29.5518C49.7701 30.0826 49.4276 30.2083 49.0058 30.473L48.7543 29.9362C48.6791 29.6892 48.2857 29.3058 48.0947 29.0964Z" fill="white"/>
<path d="M48.0947 29.0964L48.3798 28.8372C48.5848 28.9716 49.0087 29.2261 49.1536 29.3955L48.7543 29.9362C48.6791 29.6892 48.2857 29.3058 48.0947 29.0964Z" fill="white"/>
<path d="M49.6546 29.5517C49.8723 29.4468 50.0661 29.4612 50.3105 29.4512L50.3216 29.507C50.1199 29.9681 49.4838 30.6384 49.0847 30.9323C49.0905 30.7099 49.0835 30.6817 49.0059 30.4729C49.4277 30.2081 49.7702 30.0825 49.6546 29.5517Z" fill="white"/>
<path d="M40.4744 30.8075C43.3072 30.5068 44.2875 33.2072 43.3365 35.5453C43.0366 36.2825 42.3283 36.7395 41.586 36.9804C40.9973 37.055 40.5122 37.0988 39.9727 36.8138C37.5876 35.554 37.8626 31.6336 40.4744 30.8075Z" fill="white"/>
<path d="M63.7766 32.8238C63.8718 32.8179 63.9671 32.8133 64.0625 32.8101C64.6143 32.7924 64.958 32.8733 65.3635 33.2939C66.683 34.6625 66.6979 37.0606 65.3701 38.4276C65.0805 38.7258 64.964 38.8331 64.5507 38.8378C63.5738 38.9078 63.5332 38.9174 62.6189 38.5735C61.6791 37.1521 61.3668 35.4044 62.2436 33.7835C62.5701 33.1799 63.1249 32.9565 63.7766 32.8238Z" fill="white"/>
<path d="M43.0023 49.0009C43.6474 48.954 43.9801 49.0225 44.6114 49.1264C44.821 50.409 44.872 56.7139 44.6575 57.9081C44.4566 58.1637 44.4457 58.1087 44.1018 58.249C43.5754 58.4076 43.1256 58.5113 42.7006 58.0988C42.356 57.364 42.4569 50.5147 42.6234 49.2232C42.6399 49.0953 42.8606 49.0513 43.0023 49.0009Z" fill="white"/>
<path d="M38.2988 48.915C38.9128 48.8579 39.561 48.9334 40.1665 49.0327C40.5006 50.7823 40.2341 53.0657 40.3213 54.8731C40.36 55.6751 40.4563 57.7141 39.9281 58.2675C39.4672 58.4157 38.7781 58.5876 38.3745 58.2401C38.0104 57.4397 38.0816 49.848 38.2988 48.915Z" fill="white"/>
<path d="M43.3591 37.8358C43.8367 37.606 44.2754 37.3974 44.7649 37.1943C45.6745 38.035 49.8738 42.3432 49.9143 43.3268C49.9245 43.5751 49.8609 43.9271 49.6874 44.1121C49.6792 44.1208 49.6703 44.1289 49.6617 44.1372C49.2837 44.3639 48.8694 44.6384 48.4563 44.7778C47.2653 43.6804 45.9935 42.068 44.9492 40.7991C44.4955 40.2463 43.9646 39.631 43.5781 39.0389C43.4108 38.6193 43.3551 38.2825 43.3591 37.8358Z" fill="white"/>
<path d="M37.4399 37.356C38.1266 37.8065 38.3913 37.8381 38.5944 38.5843C38.6307 39.6403 37.9214 40.2078 37.2717 41.0341C36.4374 42.1403 35.5531 43.2538 34.6463 44.3013C34.3932 44.5937 34.079 44.9975 33.663 45.0117C33.2917 45.0245 32.9095 44.81 32.657 44.5496C32.4565 44.3428 32.3577 44.0614 32.3679 43.7746C32.4083 42.64 36.46 38.2654 37.4399 37.356Z" fill="white"/>
<path d="M66.3058 39.0374C66.3656 39.0392 66.4235 39.0473 66.4816 39.0622C67.1521 39.2353 70.3213 43.5704 70.8364 44.3767L70.7951 45.4092C70.4813 45.4971 70.1003 45.6607 69.7911 45.783C69.7826 45.7826 69.7738 45.7834 69.7654 45.7818C69.292 45.6944 65.7232 40.8097 65.1958 40.0267C65.6183 39.5736 65.8012 39.3895 66.3058 39.0374Z" fill="white"/>
<path d="M57.4282 44.4818C57.9644 43.6401 61.2398 39.3782 61.9685 39.1377C62.5429 39.1657 62.8347 39.7069 63.3174 40.0672C62.7413 40.6497 62.1224 41.5392 61.6136 42.2138C60.9963 43.034 60.3602 43.84 59.7059 44.6311C59.555 44.8157 58.9414 45.5836 58.8129 45.683L58.6075 45.6587L57.6268 45.4677C57.5644 45.1827 57.4582 44.7604 57.4282 44.4818Z" fill="white"/>
<path d="M61.5758 53.4431L63.1649 53.6348C63.3272 54.6796 63.4265 57.5699 63.2038 58.7076C63.1729 58.8658 63.0127 58.8952 62.8694 58.9515C61.8742 59.3519 61.3737 59.3653 61.3329 58.0741C61.286 56.5911 61.2617 54.8922 61.5758 53.4431Z" fill="white"/>
<path d="M65.5625 53.4575C66.0333 53.4751 66.6008 53.5343 67.0782 53.5717C67.2382 54.8585 67.5786 57.9717 66.9095 59.0386C66.3672 59.2247 66.0436 59.2015 65.4901 59.1754C65.3657 57.9074 65.2708 54.6653 65.5625 53.4575Z" fill="white"/>
<path d="M53.7265 44.0679C55.0071 44.1807 55.6043 44.8364 55.2237 46.1703C55.0022 46.9462 54.5119 47.1654 53.8473 47.5036C51.8364 46.655 51.4126 44.8781 53.7265 44.0679Z" fill="white"/>
<path d="M48.6519 45.1697C48.9566 45.218 49.4051 45.2605 49.6598 45.4084L49.7413 45.5275C49.96 46.7272 52.0635 47.5207 52.3356 48.6269C52.3428 48.7522 52.3398 48.8562 52.2584 48.9505C51.6706 49.6312 50.5338 48.9166 50.034 48.5242C49.2039 47.87 48.6727 46.9087 48.5602 45.8579C48.5229 45.5272 48.4781 45.3826 48.6519 45.1697Z" fill="white"/>
<path d="M58.6076 45.6587L58.813 45.683C58.5017 46.3864 58.3975 47.0199 58.0783 47.8727C57.7308 48.8013 55.4964 49.7955 54.8896 48.7131C54.6836 48.3457 55.258 47.9983 55.6104 47.8324C56.5639 47.3835 56.9368 46.9978 57.4598 46.0885C57.9534 45.9878 58.2295 45.9811 58.6076 45.6587Z" fill="white"/>
<path d="M50.3105 29.4514C51.1693 28.4504 50.7784 27.549 51.2164 26.2002C51.663 27.0211 51.9649 28.1455 52.2679 29.0546C52.8059 29.0666 53.1455 28.3594 53.5006 28.5853C53.5915 28.7913 53.5902 28.8312 53.6013 29.0575L53.7377 29.2005C53.5417 29.2986 53.4604 29.3493 53.2378 29.386L52.7496 29.4667C51.9401 29.4537 51.1303 29.4672 50.3217 29.5071L50.3105 29.4514Z" fill="white"/>
<path d="M52.2681 29.0544C52.8061 29.0664 53.1457 28.3592 53.5008 28.5851C53.5917 28.7911 53.5904 28.831 53.6014 29.0573L53.7378 29.2003C53.5419 29.2984 53.4606 29.3491 53.238 29.3858C52.7133 29.3548 52.5249 29.5498 52.2681 29.0544Z" fill="white"/>
<path d="M49.6134 34.0039C49.9009 34.173 51.1993 34.8483 51.3248 34.943L51.5076 35.0908C50.8851 35.2922 51.0766 35.4103 50.573 35.7283C50.2397 35.6588 50.0566 35.2945 49.8366 34.9883C49.5261 35.335 48.0364 36.6662 47.627 36.574C47.6331 36.1341 48.554 35.2299 48.8993 34.7077C49.0484 34.4657 49.3402 34.3587 49.6134 34.0039Z" fill="white"/>
<path d="M52.1289 34.9052C52.9997 34.5254 52.9128 34.8433 53.9762 34.0466C54.2071 34.264 54.5148 34.3414 54.8166 34.4442C55.3688 35.2825 55.937 35.8058 56.5106 36.5708C55.5505 36.1135 55.0141 35.4255 54.0273 35.2185C53.6951 35.1487 53.3099 35.1627 52.9718 35.1374C52.6866 35.116 52.4587 34.9868 52.178 34.9796L52.1289 34.9052Z" fill="white"/>
<path d="M55.2964 28.1382C55.4428 28.2757 55.4839 28.3135 55.5942 28.4805C55.079 29.04 54.7554 29.3307 54.0862 29.7147L54.0004 29.8712C54.0179 30.2505 54.049 30.2844 53.7013 30.5332C53.2404 30.092 53.2551 29.6994 52.7495 29.4666L53.2377 29.3859C53.4603 29.3493 53.5416 29.2986 53.7376 29.2005C54.474 28.8559 54.6919 28.6568 55.2964 28.1382Z" fill="white"/>
<path d="M48.5403 32.9478C47.4786 32.7868 45.6914 32.9604 44.8877 32.6552L44.8998 32.5786C45.8272 32.3259 46.9749 32.4666 47.9342 32.4386C48.2699 32.4288 48.5624 32.503 48.9028 32.4259C48.8803 32.8225 48.8251 33.1985 48.9753 33.565C48.7858 33.4334 48.7706 33.2625 48.7041 33.0302L48.5403 32.9478Z" fill="white"/>
<path d="M54.373 31.511C54.4901 31.57 54.718 31.6981 54.8356 31.7161C55.5443 31.7621 58.4047 31.796 58.8097 31.9951C58.4946 32.2778 56.3456 32.2861 55.8217 32.2771C55.5568 32.2623 55.2917 32.2512 55.0265 32.2436L55.0345 32.1433C54.9134 31.8947 54.7002 31.8338 54.4313 31.6954L54.373 31.511Z" fill="white"/>
<path d="M51.3252 34.943C51.5643 34.9173 51.9034 34.863 52.1289 34.9052L52.1781 34.9796C52.1352 35.4226 52.0179 37.2926 51.9087 37.5696C51.6286 37.2722 51.6762 35.6462 51.5079 35.0908L51.3252 34.943Z" fill="white"/>
<path d="M48.5404 32.9478L48.7042 33.0301C48.7707 33.2624 48.786 33.4334 48.9754 33.5649L49.6137 34.0038C49.3404 34.3586 49.0486 34.4656 48.8996 34.7076C48.8221 34.5612 48.6884 34.4836 48.5682 34.3674C47.9554 33.7747 48.5536 33.5875 48.5404 32.9478Z" fill="white"/>
<path d="M54.0003 29.8711C54.2783 30.2214 54.5177 30.3572 54.9445 30.4894L54.9095 30.5586C54.7655 30.8473 54.7486 30.9086 54.709 31.2252C54.53 31.3012 54.6052 31.2875 54.3964 31.2424L54.357 31.3953L53.7012 30.533C54.0489 30.2842 54.0177 30.2504 54.0003 29.8711Z" fill="white"/>
<path d="M48.4565 44.7778C48.8696 44.6384 49.2839 44.3638 49.6619 44.1372C49.7971 44.5946 49.808 45.0557 49.7414 45.5274L49.6598 45.4083C49.4051 45.2603 48.9567 45.2179 48.6519 45.1696C48.9002 45.149 49.071 45.1642 49.2596 45.0121L49.2113 44.9161C48.8916 44.7657 48.8147 44.7727 48.4565 44.7778Z" fill="white"/>
<path d="M54.945 30.4895C55.2142 30.4846 55.224 30.4396 55.4203 30.5726C55.3348 30.9879 54.6513 31.11 54.8359 31.7161C54.7183 31.6981 54.4903 31.57 54.3733 31.5109L54.3574 31.3954L54.3969 31.2425C54.6057 31.2876 54.5305 31.3013 54.7095 31.2252C54.7491 30.9087 54.7659 30.8474 54.91 30.5587L54.945 30.4895Z" fill="white"/>
<path d="M48.0947 29.0963C47.8484 28.9169 47.4433 28.6985 47.4652 28.3737C47.794 28.3456 48.1397 28.6425 48.3797 28.8371L48.0947 29.0963Z" fill="white"/>
<path d="M55.2964 28.1382C55.5212 27.9034 55.6903 27.6941 56.0096 27.6602C56.1087 27.9928 55.8096 28.2352 55.5942 28.4805C55.4839 28.3135 55.4428 28.2757 55.2964 28.1382Z" fill="white"/>
<path d="M86.0056 46.6748C87.0478 46.429 87.7009 47.153 88.3744 47.8033C88.5634 48.352 88.5166 48.4519 88.5603 48.9767C88.7369 51.105 88.0306 51.8342 86.3611 52.9565C85.9244 53.006 84.9174 52.558 84.5369 52.2771C83.6963 50.4901 83.3283 48.6448 84.9892 47.119C85.4236 46.7204 85.3736 46.7223 86.0056 46.6748ZM84.5267 48.3586C84.4127 49.2413 84.2892 50.3899 84.8619 51.1322C85.3033 51.7051 85.7931 51.7879 86.2181 52.259L86.3525 52.2295C86.4775 52.024 86.4994 51.9783 86.5705 51.7489C88.1963 50.8038 88.3416 50.2857 87.9064 48.4522C87.6056 48.1393 87.2783 47.7673 86.9236 47.5254C86.365 47.4277 86.1072 47.415 85.5392 47.4048C85.1635 47.8547 85.0361 48.0626 84.5267 48.3586Z" fill="white"/>
<path d="M19.1448 32.4388C22.9989 32.0991 21.584 37.2746 18.9055 38.7212C18.0482 38.4419 16.8289 37.655 16.6485 36.7676C16.279 34.95 17.4596 32.9948 19.1448 32.4388ZM19.0921 37.928L19.1333 37.8627C19.3746 37.4894 19.5547 37.4573 19.8539 37.1577C21.1241 35.8862 21.3846 34.3968 19.9308 33.1399C19.6885 32.9304 19.2262 32.9758 18.9047 32.9831C18.5696 33.1491 18.4681 33.3787 18.2421 33.5782C16.7634 34.8841 16.4634 36.7155 18.5225 37.6311C18.6761 37.6994 18.9284 37.8435 19.0921 37.928Z" fill="white"/>
<path d="M18.9881 47.0176C19.1052 47.0694 19.2445 47.281 19.293 47.392C19.5852 48.0599 18.1688 48.5403 17.9049 49.2018C18.0694 49.7083 18.3764 50.9807 18.5492 51.3231C19.0099 51.5566 20.0823 52.3331 20.0744 52.8835C19.7516 53.0284 18.634 52.5607 18.1708 52.4316C17.6086 52.1994 17.4757 52.1559 17.1031 51.6781C16.4381 51.5305 15.2515 51.4053 15.0449 50.6595C15.0723 49.6519 18.3156 48.122 18.9881 47.0176ZM17.0157 50.9593C17.27 51.1383 17.5532 51.3483 17.8192 51.5026C17.9568 50.6011 18.1349 50.0225 17.4031 49.3704L17.3003 49.3671C16.9205 49.6278 16.0777 50.1768 15.9482 50.5892C16.0952 51.0522 16.5841 50.9524 17.0157 50.9593Z" fill="white"/>
<path d="M83.6664 36.0921C83.7351 35.6428 83.8539 34.6908 83.7382 34.2237C83.5382 33.4128 82.425 30.9099 84.0968 30.934C84.7929 30.9512 84.9062 31.5882 85.2609 31.9515C85.975 32.6836 86.5523 33.4276 86.4398 34.5428C86.0437 34.7451 86.1101 34.4695 86.0187 34.7028C85.7164 34.8545 85.4601 35.0452 85.1304 34.916L85.1867 34.7395C85.3984 34.4772 85.7414 34.3859 86.0609 34.264C85.8898 33.7526 84.6679 31.396 84.0328 31.8994C83.8015 32.6618 84.9484 35.533 84.4601 36.1784C83.9586 36.2669 83.832 36.2857 83.4883 36.6873C82.5758 35.9921 81.514 34.5091 81.1062 33.431C80.839 32.7249 81.0156 32.3403 81.7211 32.0796C81.9359 32.0003 81.9922 31.9159 82.2453 31.9471L82.3429 32.0743C82.3617 32.3931 82.4047 32.8002 82.35 33.1067C82.1422 33.1424 82.1554 32.9593 81.8758 32.7746C81.2172 33.4119 83.2343 35.5695 83.6664 36.0921Z" fill="white"/>
<path d="M86.7258 37.321C87.0188 37.335 87.2227 37.5378 87.507 37.6921C88.4125 38.1836 88.7274 40.219 88.2024 41.0514C88 41.3716 87.9344 41.8902 87.6977 42.05C87.4352 42.0791 87.5281 42.1021 87.3219 41.9925C86.9891 41.3441 88.7289 39.292 87.457 38.5078C87.2477 38.3786 86.9922 38.2052 86.7391 38.2391C85.9531 39.075 87.4797 41.8344 85.5711 42.7462C83.9617 42.4591 83.1133 38.7084 83.975 37.7836C84.3805 37.6646 84.6531 37.7621 84.8149 38.1618C84.7961 38.4703 84.457 38.9662 84.2867 39.2557C84.5524 40.9225 84.8508 40.7079 85.6656 42.0475C86.3031 40.3885 85.8445 39.5882 86.0016 37.9334C86.1508 37.7817 86.5461 37.4711 86.7258 37.321Z" fill="white"/>
<path d="M26.2665 22.1594C26.6564 22.2422 26.7366 22.5571 26.9195 22.5661C27.6419 22.602 31.5387 23.5144 30.8287 24.6917C30.5589 24.697 29.6769 24.2587 29.1308 24.142C28.807 24.2946 28.4846 24.45 28.1637 24.6083C27.3825 24.9019 27.6456 25.3061 26.8302 25.5109C26.7854 26.0758 26.8876 26.8192 26.5983 27.3038L26.4929 27.2808C26.1431 26.6448 25.9711 24.0044 25.6831 22.8818C25.8789 22.6472 26.074 22.3981 26.2665 22.1594ZM27.1658 24.8426C27.4807 24.5415 28.0829 24.0779 28.2437 23.7756C28.2091 23.311 27.5604 23.3362 27.1684 23.2914C26.8956 23.3619 26.41 23.454 26.2087 23.6202C26.2769 23.9738 26.6352 24.0865 26.7175 24.2926C26.7836 24.458 26.619 24.8136 26.8741 25.0115C27.0137 24.9629 27.071 24.9573 27.1658 24.8426Z" fill="white"/>
<path d="M82.7132 53.4454C83.4749 53.4214 84.1937 54.1123 84.9249 54.3882C85.2827 54.523 86.6694 55.0454 86.8444 55.2853C86.8233 55.6073 86.5835 55.9229 86.4077 56.2046C85.4507 56.7219 84.6686 56.8448 83.628 57.0868C83.5226 57.1113 83.4413 57.4976 83.4069 57.6115L83.2812 57.6768C83.1093 57.5334 83.1538 57.4328 83.1187 57.1475C82.9788 56.9605 83.0507 57.0229 82.8038 56.9272C82.5741 57.0025 82.6538 56.9407 82.5187 57.185C82.5062 57.5519 82.7819 57.965 82.9483 58.3968C83.6593 58.5555 84.2757 58.5385 84.9483 58.6942C84.796 58.7813 84.7569 58.7862 84.6897 58.938L84.7632 59.0597C85.0062 59.175 85.0788 59.2209 85.2952 59.3769C85.1601 59.6438 85.1522 59.7054 84.8819 59.7906C84.6241 59.7006 84.453 59.4271 84.2796 59.2046C83.0624 59.2125 82.3132 58.6811 81.0218 58.2523L80.9858 58.1213C81.3499 57.5746 81.1249 57.7789 81.2647 57.2317C82.0718 56.6962 85.146 56.5257 85.7421 55.3982C85.6921 54.8521 83.564 55.1657 82.8796 54.2307C82.6999 53.9854 82.6647 53.7389 82.7132 53.4454Z" fill="white"/>
<path d="M24.1512 27.9631C23.8283 27.237 22.2938 26.9166 22.0995 26.3064C22.3745 26.0103 22.8405 26.1726 23.1982 26.2445C23.9983 27.0443 25.4944 28.1191 26.5105 28.653C24.9028 29.354 23.9144 29.3189 22.1913 29.4632C21.8036 29.4956 21.1047 29.5273 20.752 29.6208C20.7346 30.5385 23.8487 31.3889 23.4322 32.3846C23.2694 32.4703 23.0855 32.4968 22.9225 32.4032C21.6969 31.6999 20.7194 30.6083 19.4448 29.954L20.1489 29.0869C21.1994 28.9003 22.6929 28.8081 23.7747 28.8986C24.1378 28.7967 24.2879 28.7181 24.3105 28.3464C24.1962 28.209 24.18 28.138 24.1512 27.9631Z" fill="white"/>
<path d="M48.3418 16.8183C48.6812 16.8663 48.9438 16.9015 49.2854 16.9176L49.3139 16.9823C48.7362 17.3018 45.6513 18.1827 44.976 18.1698C44.5637 17.9332 44.4658 16.8089 44.2678 16.3797C43.9446 15.6795 43.6966 15.2434 43.623 14.4679C43.5167 13.3491 43.9799 13.7807 44.7634 13.6472C45.5276 13.4876 47.1073 12.9313 47.871 13.1214L47.9655 13.221C47.6771 14.0195 45.16 13.3965 44.8914 14.2886C44.7878 14.633 44.6933 14.8406 44.8319 15.1915C44.8461 15.1995 44.9858 15.278 44.9858 15.278C45.9298 15.0832 46.7871 15.3057 47.7425 15.1134L47.8496 14.9825L47.8079 14.8285L47.6052 14.4523C47.8903 14.5133 47.9384 14.4702 48.0958 14.6552C48.0046 14.9386 48.0061 14.9986 48.0943 15.2829C47.6908 15.7649 45.7166 15.8278 45.0956 15.7589C45.2495 16.3168 45.2717 17.0482 45.6624 17.2942C45.8726 17.3448 47.2798 17.2427 47.7042 17.2481C47.8918 17.119 48.1525 16.9284 48.3418 16.8183Z" fill="white"/>
<path d="M68.3472 16.4392C68.4559 16.4848 68.4784 16.5233 68.5674 16.6052C68.8532 17.5301 68.3203 17.7161 67.9047 18.7391C69.494 18.7251 69.9214 19.2339 71.1575 20.2041C71.504 19.0518 71.4318 19.1719 72.5391 18.81C72.6896 19.354 70.7931 22.5166 70.3845 22.8094C69.9552 22.4622 70.5404 21.0941 70.7279 20.6469C69.6656 19.7766 69.1988 19.1563 67.8825 19.1351C67.7421 19.543 67.5246 20.0162 67.304 20.386C67.1617 20.6248 66.8496 20.4248 66.6365 20.4462C66.4526 20.4648 66.3555 20.5241 66.1586 20.5216L66.1201 20.3687C66.4737 19.7269 68.0037 16.8606 68.3472 16.4392Z" fill="white"/>
<path d="M52.3796 12.6011C52.4192 12.6066 52.4366 12.6073 52.4729 12.6178C53.3435 12.8685 55.4954 16.5701 56.0027 17.4398C54.8805 16.9366 54.4013 16.5992 53.5716 15.6978C53.4648 14.9661 53.4096 14.6402 53.0398 13.9877C52.9062 13.7911 52.8873 13.7683 52.6784 13.6562C51.8441 13.7708 51.808 17.6761 50.2448 17.2822C50.0782 17.1125 50.1234 17.1994 50.0918 16.939C50.1754 16.6271 50.277 16.5645 50.5234 16.3477C50.849 14.9475 51.6861 13.9219 52.3796 12.6011Z" fill="white"/>
<path d="M16.4922 55.1858C17.3771 54.9468 18.9491 54.2329 19.7929 54.4121C19.985 54.2982 19.9241 54.3374 20.0343 54.0955L19.9456 54.0135C19.7227 54.0489 19.5405 54.0754 19.3144 54.0954L19.3077 53.8805L19.4497 53.7624C20.1471 53.8897 19.9025 53.5303 20.4163 53.5668C21.3658 54.4093 19.8727 56.9279 19.3566 57.73C19.2253 57.9342 19.2723 58.3901 19.395 58.6111L19.3968 58.7716C19.3568 59.0428 19.3494 59.1006 19.4278 59.3653L19.4458 59.4243C19.3284 59.8511 19.0954 59.9923 18.6612 59.9387C18.2319 59.5157 18.483 59.2274 18.4621 58.7322C18.4094 57.4757 18.9457 57.0136 19.6261 56.0664C19.8108 55.8095 20.0786 55.3882 20.0121 55.0471C19.547 54.6478 17.2537 55.8581 16.8259 56.2598C16.7095 55.9194 16.5996 55.5331 16.4922 55.1858Z" fill="white"/>
<path d="M77.0522 22.0212C77.2865 21.9767 77.6139 22.0463 77.7354 22.2852C78.385 23.5628 76.214 25.817 77.2476 27.0181L77.2354 27.1655C77.0904 27.38 77.0572 27.4585 76.8064 27.5496C75.8653 27.3429 76.3569 25.7175 76.4256 24.9714C76.6968 24.7561 76.8074 24.6414 77.0428 24.3846L76.9019 24.1881C76.8961 23.8781 76.9099 23.6589 76.7133 23.4417C76.1543 23.6278 75.0171 25.8835 74.0675 25.502L74.0459 25.3277C74.2729 24.7028 76.4021 22.4067 77.0522 22.0212Z" fill="white"/>
<path d="M14.671 42.1262L14.9149 42.2728C15.2556 42.8647 15.1973 43.8608 15.1997 44.555C15.4912 44.9141 18.9061 44.389 19.2141 44.9289C19.0038 45.6476 17.4923 45.4657 16.8553 45.4544C16.2737 45.424 15.7651 45.4297 15.1823 45.4392C15.1856 45.8436 15.1097 47.0889 14.7794 47.3276C14.3766 46.8648 14.5166 42.9158 14.671 42.1262Z" fill="white"/>
<path d="M80.1205 25.3235C80.4627 25.3079 80.8034 25.2729 81.0784 25.4841C81.2979 25.8073 81.2713 26.2953 81.2987 26.7095C80.5979 26.9302 80.433 27.1589 79.9791 27.7308C79.6924 28.0913 78.608 29.7511 78.1393 28.9422C78.1627 28.4687 78.7721 27.8642 79.0869 27.4995C79.3049 27.244 80.1034 26.6204 80.1096 26.3668C79.8565 26.3102 79.7205 26.1603 79.4127 26.0512C79.2002 26.1657 79.0807 26.4827 78.9463 26.7251C78.426 26.9972 78.2205 27.1876 77.6661 26.861C77.5219 26.6314 77.5411 26.734 77.5861 26.4779C77.7233 26.3762 79.7784 25.4693 80.1205 25.3235Z" fill="white"/>
<path d="M36.8905 15.6348C38.0255 15.5507 37.6139 16.0937 37.9725 16.8215C38.4102 17.7101 40.1121 16.2441 40.8066 16.5384C40.7171 16.7812 38.8188 17.5851 38.4028 17.7987C38.446 18.4905 39.3072 19.6203 39.001 19.9762C38.7495 20.0309 38.5406 19.9078 38.2982 19.8055C37.5696 18.8265 37.1205 17.1897 36.7814 16.0022C36.764 15.9414 36.8609 15.7031 36.8905 15.6348Z" fill="white"/>
<path d="M58.0186 13.3452C58.193 13.5224 57.8435 14.03 57.7934 14.2865C57.6041 15.2575 57.7766 16.232 57.5121 17.1963C58.1466 17.5635 58.691 17.7594 59.4074 17.8669C59.6478 17.9029 60.3128 17.9587 60.4851 18.0693C60.5346 18.299 60.5442 18.2025 60.4257 18.4356C60.2088 18.5553 60.0039 18.5047 59.7463 18.483C58.6703 18.4095 57.2335 17.9453 56.2407 17.5504L56.8532 17.1337C56.8809 15.9782 56.9853 15.1533 57.2453 14.0347C57.4904 13.7822 57.75 13.5712 58.0186 13.3452Z" fill="white"/>
<path d="M63.8955 15.039C63.3781 14.9988 62.44 14.9785 62.022 14.6797L62.0933 14.5831C62.3884 14.5207 62.6658 14.4924 62.9677 14.5141C63.5232 14.5538 65.7931 15.2304 66.1117 15.5962C66.0547 15.6738 65.9339 15.8492 65.8704 15.9095L65.0135 15.5802C64.5717 15.7209 64.0947 15.7948 63.8883 16.1775C63.9022 16.204 64.0322 16.4607 64.0319 16.4665C63.9892 17.2767 63.7514 18.2142 63.3999 18.9497C63.0678 19.1834 62.9192 19.3856 62.5381 19.2114C62.4859 19.063 63.7189 15.4459 63.8955 15.039Z" fill="white"/>
<path d="M40.8633 14.5277C41.1673 14.5038 41.2254 14.502 41.5237 14.5589C41.7323 14.7556 42.7546 17.1729 42.8663 17.6065C42.939 17.8888 42.869 18.2584 42.684 18.5373C42.4612 18.669 42.2855 18.7998 42.0283 18.8168C41.9017 18.6283 41.9748 18.2723 41.9513 17.9967C41.9019 17.4191 41.4266 17.0173 41.285 16.5391C41.0318 15.6841 41.2814 15.3911 40.8633 14.5277Z" fill="white"/>
<path d="M29.509 19.2388C30.2572 19.3303 31.8165 22.287 32.5305 22.8329C32.6581 22.9305 32.6478 22.9847 32.6378 23.1268L32.4693 23.2599C31.8649 23.5867 31.7194 23.7154 31.3559 23.0235C31.1774 22.6837 30.9361 21.8857 30.7457 21.6231C30.0098 20.6085 29.2722 20.6669 29.509 19.2388Z" fill="white"/>
<path d="M15.2914 39.6685C16.1157 39.7984 16.9331 39.6978 17.8325 40.0322C18.2686 40.1943 19.7253 40.6523 19.9181 41.0142L19.8206 41.1384C18.7094 41.2578 18.5225 40.9844 17.4723 40.6956C16.9501 40.552 15.3257 40.9486 15.0654 40.3541C15.0843 40.0574 15.1621 39.9349 15.2914 39.6685Z" fill="white"/>
<path d="M87.0951 44.0943C88.0881 43.9639 88.4857 44.082 89.4006 44.3956C88.1811 44.8643 87.8146 44.8915 86.4904 44.9133C86.1037 44.8715 84.3787 44.9553 84.335 44.4008C84.6162 44.06 86.3951 44.1881 87.0951 44.0943Z" fill="white"/>
<path d="M82.8016 28.3441C82.9187 28.3317 82.9453 28.3609 83.0516 28.4154L83.0805 28.599C82.6195 29.7201 80.8203 30.5156 80.032 31.2254C79.7523 31.0581 79.6883 30.9886 79.6836 30.6816C80.2109 29.6132 81.8961 29.0498 82.8016 28.3441Z" fill="white"/>
<path d="M21.4867 57.8076C21.8317 57.8233 22.2452 57.8068 22.5399 57.9687L22.6191 58.0966C22.4336 58.5022 21.2794 58.7849 20.8696 59.0012C20.5553 59.1671 20.0073 59.6363 19.6743 59.5456C19.7751 59.3019 19.9353 59.0227 19.9063 58.7865L19.823 58.5431C20.4238 58.3173 20.9343 58.1385 21.4867 57.8076Z" fill="white"/>
<path d="M34.9095 21.1721C35.5312 22.0685 33.0578 22.9206 32.5942 22.7288C32.9396 21.7827 33.4767 22.2545 34.0138 21.9509L34.0123 21.8117L33.8587 21.6988C33.8992 21.6462 34.7371 21.2694 34.9095 21.1721Z" fill="white"/>
<path d="M52.597 15.116C52.8687 15.2331 53.0916 15.3011 53.1038 15.6172L52.9649 15.7396C52.6679 15.727 52.4877 15.7445 52.293 15.5491C52.3667 15.2807 52.3749 15.3353 52.597 15.116Z" fill="white"/>
<path d="M47.8077 14.8284C47.3423 14.7541 46.893 14.7997 46.5254 14.7101C46.5955 14.5684 46.7004 14.525 46.8392 14.4373C47.1831 14.5379 47.2491 14.5233 47.605 14.4523L47.8077 14.8284Z" fill="white"/>
<path d="M24.1508 27.9629C24.1796 28.1378 24.1959 28.2088 24.3102 28.3462C24.2875 28.7179 24.1375 28.7966 23.7744 28.8984C23.8599 28.6073 24.0351 28.3517 24.1508 27.9629Z" fill="white"/>
<path d="M66.1119 15.5962C66.0862 15.9841 66.3672 15.9765 66.3542 16.3715L66.2152 16.4251C65.9885 16.2145 66.0038 16.0233 65.8706 15.9095C65.9341 15.8492 66.0549 15.6738 66.1119 15.5962Z" fill="white"/>
<path d="M86.0186 34.7029C86.11 34.4696 86.0436 34.7452 86.4396 34.543C86.4217 34.7623 86.4381 34.9274 86.2975 35.0834C86.1232 34.9709 86.1068 34.8903 86.0186 34.7029Z" fill="white"/>
<path d="M19.823 58.543L19.9063 58.7864L19.3968 58.7716L19.395 58.6111L19.823 58.543Z" fill="white"/>
</g>
<defs>
<clipPath id="clip0_1936_3284">
<rect width="104" height="80" fill="white"/>
</clipPath>
</defs>
</svg>
