<svg width="104" height="80" viewBox="0 0 104 80" fill="none" xmlns="http://www.w3.org/2000/svg">
<g clip-path="url(#clip0_1936_3286)">
<path d="M17.7362 32.7148C19.5819 31.9848 21.5513 31.5104 23.4936 31.0514C24.8037 30.7419 25.0841 28.7269 26.6523 29.4134C27.2013 29.6586 27.6691 30.4381 28.0836 30.8126C28.749 31.4139 31.3603 32.3422 30.5559 33.623C29.6868 35.0069 27.2947 36.2626 25.7792 36.8858C25.09 37.1873 24.013 37.625 23.4437 38.0851C22.7506 38.6451 21.3739 40.4619 21.7047 41.379C22.0452 42.323 24.0791 41.3108 24.5137 40.7045C25.0534 39.9516 26.1433 37.6871 26.8591 39.4285C27.1787 40.1912 25.2262 40.8945 25.1546 41.7675C25.8455 43.0393 29.394 39.4582 29.1422 42.1352C29.0056 43.587 26.2846 42.0234 25.4455 42.768C25.3741 43.0158 25.3761 42.9098 25.4618 43.177C25.796 43.4559 26.8837 43.7719 27.4677 44.1748C27.448 44.5309 27.4685 45.1192 27.2316 45.3618C26.5185 45.5796 24.9657 44.1165 24.2758 43.7056C22.8035 42.8289 21.1941 43.1848 19.5616 42.9565C19.4989 42.448 19.488 42.2479 19.5006 41.7483C19.5118 41.3051 19.9746 39.7356 19.7555 39.5024C19.5773 39.6061 19.5141 39.6881 19.3843 39.8426C18.4874 40.9102 17.6587 41.9077 16.3675 42.5038C15.7972 42.2662 15.2983 42.09 14.6824 41.9955C13.2321 41.452 12.622 41.3273 11.0701 41.5998L11.0566 41.6485C12.7638 42.0574 12.4015 41.559 14.3732 42.4373C14.5573 42.4843 14.7404 42.5352 14.9223 42.59C15.9708 42.9101 18.3481 44.0897 17.9572 45.5596C17.3465 46.7044 15.2607 47.046 14.1487 47.3962C13.6138 47.5646 12.541 47.5263 12.3942 47.964L12.4838 48.1306C13.6879 48.938 15.5766 48.0605 16.7725 47.7444C17.6712 47.5069 18.3939 48.3907 17.8031 49.1451C17.3341 49.744 15.4169 49.08 14.9398 49.6503L14.9628 49.8256C15.422 50.3888 17.4356 51.3072 18.2476 51.8428C18.2229 51.9236 18.1976 52.0042 18.1718 52.0847C17.1732 55.1869 15.3484 49.8461 13.8661 50.6137C13.5084 51.4776 15.8316 53.3417 14.5765 54.1597C14.2626 54.3644 13.5138 54.2985 13.3913 53.8314C13.1325 52.9128 13.358 51.4352 12.7059 50.6432C12.0001 49.7859 10.117 49.111 9.05226 48.7528C8.65624 48.6195 7.2249 48.676 7.07354 48.2673C6.1215 45.6966 11.7154 46.4918 11.9081 45.6089C11.6493 45.4168 7.93983 45.3704 7.20046 45.0196C6.79132 44.8255 5.90437 44.7385 5.51582 44.0658C5.2383 43.5853 5.45351 41.9119 5.68187 41.4692C7.18099 38.563 11.4963 36.0587 14.2445 34.3943C14.7052 34.1154 16.3339 33.4383 16.8063 33.221L17.7362 32.7148ZM24.7391 32.2005C25.1323 32.0148 25.4529 32.2099 25.6337 32.5926C26.1195 33.2172 26.0583 33.061 26.0254 33.7821L26.128 33.8456L26.2969 33.7649C26.6104 33.2557 26.3229 32.8407 26.0182 32.4287C25.6417 32.0576 24.9926 31.8119 24.4853 31.8033C24.0842 32.2296 23.7196 32.8693 23.5567 33.4283C23.7451 33.8644 24.2054 34.7458 24.6186 34.9415L24.7597 34.8637C24.9505 33.9164 24.1957 33.1721 24.7391 32.2005ZM13.6529 45.2983C13.7879 45.307 13.9278 45.3305 14.0515 45.294L14.1157 45.1733L14.113 45.2613L14.1292 45.1371C13.7952 44.8947 13.5292 44.9357 13.1255 44.9478C12.9113 44.9898 12.7273 45.0007 12.5634 45.1354C12.753 45.2512 13.3838 45.2714 13.6529 45.2983Z" fill="white"/>
<path d="M25.6333 32.5926C25.6599 32.4854 25.6886 32.4589 25.7508 32.3679L26.0178 32.4288C26.3224 32.8407 26.6099 33.2557 26.2965 33.765L26.1275 33.8457L26.0249 33.7821C26.0578 33.061 26.1191 33.2172 25.6333 32.5926Z" fill="white"/>
<path d="M13.125 44.9478C13.5288 44.9357 13.7948 44.8947 14.1288 45.1371L14.1126 45.2613L14.1153 45.1733L14.051 45.294C13.9274 45.3304 13.7874 45.307 13.6524 45.2983C13.3834 45.2714 12.7525 45.2512 12.563 45.1354C12.7268 45.0007 12.9109 44.9897 13.125 44.9478Z" fill="white"/>
<path d="M24.4849 31.8035C24.9921 31.8121 25.6413 32.0578 26.0178 32.4289L25.7508 32.3681C25.6886 32.459 25.6599 32.4856 25.6333 32.5928C25.4524 32.2101 25.1319 32.0149 24.7387 32.2007C24.697 31.9792 24.6563 31.9554 24.4849 31.8035Z" fill="white"/>
<path d="M36.1857 39.3289C36.887 39.3281 37.5546 39.343 38.2455 39.4644C38.8064 41.0649 42.5298 50.5646 42.4956 51.1669C42.0742 51.3866 39.9241 51.1902 39.3954 51.1169C38.558 49.8761 39.1066 49.3557 37.4067 49.3735C36.6379 49.3821 35.8691 49.3747 35.1005 49.3515L34.256 51.0791C33.7184 51.2052 31.368 51.4914 31.1055 51C31.3536 49.6397 32.0823 48.2826 32.5661 46.9516C33.4323 44.569 34.2928 42.0984 35.3282 39.7826C35.4534 39.5028 35.9102 39.3845 36.1857 39.3289ZM35.7738 46.709C36.4183 46.7847 36.7114 46.822 37.3536 46.7793C37.7267 46.7048 37.7178 46.7737 37.8877 46.5386C37.9396 45.9406 37.0885 44.4381 36.5434 44.3244C36.2898 45.0464 36.0391 46.0543 35.7738 46.709Z" fill="white"/>
<path d="M90.1484 39.4154C90.8719 39.321 92.1524 39.3583 92.9164 39.3559C94.7149 39.3446 96.5133 39.3492 98.3117 39.3695C98.2656 40.2798 98.2805 41.3582 98.2586 42.2896C96.507 42.5393 94.5617 42.1173 92.868 42.6115C92.4945 42.7947 92.8219 43.541 92.9914 43.7211C93.5945 44.361 94.682 44.1559 95.4938 44.1529C96.0898 44.1506 96.6703 44.1064 97.3016 44.1513C97.375 44.9105 97.3555 45.7728 97.3555 46.543C96.5055 46.4054 93.5578 46.475 92.7281 46.65C92.7485 47.0735 92.8688 47.8243 92.9266 48.2686C93.0164 48.2565 93.107 48.2465 93.1969 48.2386C93.8555 48.1812 97.6906 48.2237 98.057 48.5316C98.3508 49.0775 98.282 50.5793 98.3024 51.2614C96.5094 51.1928 94.6531 51.2832 92.8539 51.2507C91.9703 51.2348 90.9672 51.2359 90.0945 51.3097C90.0633 50.3558 90.0227 39.6636 90.1484 39.4154Z" fill="white"/>
<path d="M86.9663 46.8167C87.5616 47.1455 88.7186 47.694 89.0631 48.2258C89.2139 49.1799 87.0366 50.5692 86.2428 50.9041C83.2897 52.1503 79.8147 51.1322 78.4788 48.0843C77.8148 46.5691 77.7448 44.4632 78.2959 42.9028C79.535 39.622 82.8991 38.483 86.0936 39.5429C87.2209 39.9171 88.5061 41.151 89.0741 42.1566C89.4069 42.7465 87.335 43.5973 86.8983 43.6946L86.8584 43.7032C85.2311 42.6738 83.6413 41.5392 81.7913 43.1917C81.0702 43.836 80.8584 44.5305 80.8123 45.4708C80.8905 45.9207 81.0678 46.5003 81.303 46.8942C81.3444 46.9848 81.3905 47.0731 81.4412 47.1588C81.7702 47.7191 82.7334 48.1704 83.3412 48.3361C84.5975 48.6783 85.9077 47.4628 86.9663 46.8167Z" fill="white"/>
<path d="M70.2286 39.3126C70.7776 39.3097 71.5134 39.3814 72.075 39.4211C72.5264 40.449 73.3896 42.9166 74.1103 43.613L74.2403 43.6072C74.3787 43.2274 74.0766 40.1648 74.0978 39.3896C75.0648 39.3488 76.0489 39.3964 77.0277 39.366C77.041 43.1676 76.8942 47.3358 77.0382 51.1159C76.7772 51.2838 74.853 51.3813 74.6566 51.1231C74.1119 50.4073 73.5754 47.5324 72.8825 47.1451L72.7602 47.1854C72.5758 47.5397 72.5685 50.6243 72.5778 51.2531C71.7792 51.2859 70.8566 51.2649 70.0489 51.2657C70.0169 47.48 69.9353 43.6341 69.9595 39.8411C69.9612 39.5685 70.0496 39.4905 70.2286 39.3126Z" fill="white"/>
<path d="M63.911 39.3905C64.4901 39.3408 65.3081 39.3707 65.9073 39.3764C66.548 40.6493 66.9169 42.5053 67.2503 43.9264C67.7755 46.1641 68.6271 48.9817 68.9191 51.2293C68.044 51.2658 67.1679 51.2712 66.2924 51.2454C66.0205 50.7765 65.724 49.9707 65.4325 49.4046C64.9675 49.3269 64.4871 49.3404 64.0189 49.3589C63.0027 51.8432 63.0861 51.1403 60.4839 51.3042C60.5612 49.7179 61.301 47.5473 61.6789 45.9841C62.1962 43.8444 62.7165 41.7432 63.3017 39.6207C63.5016 39.4386 63.6103 39.4636 63.911 39.3905ZM65.0848 47.0292C65.294 46.8493 65.3268 46.8329 65.3466 46.5343C65.3738 46.1254 65.0929 44.7593 64.6412 44.6269C64.4466 45.08 63.7745 46.5048 64.453 46.8863C64.5849 46.9605 64.9241 47.0061 65.0848 47.0292Z" fill="white"/>
<path d="M67.7303 28.5307C70.0081 28.4596 71.8399 28.5294 72.8188 31.0498C73.8317 33.6572 72.794 36.3748 70.0945 37.3677C62.9724 38.492 63.0539 29.4954 67.7303 28.5307ZM69.2099 35.3165C69.8252 34.9523 70.6059 34.4013 70.9646 33.7763C71.037 32.0259 70.5053 30.4959 68.4425 30.65C65.6047 31.3759 66.5181 35.5796 69.2099 35.3165Z" fill="white"/>
<path d="M50.5869 37.376C50.5053 36.59 50.4886 28.9112 50.5819 28.6959C50.63 28.5849 50.6877 28.5491 50.7999 28.5099C52.5698 27.8912 54.2619 31.4297 55.2937 32.3961C55.5541 32.6399 55.9243 32.7974 56.2422 32.9553C56.0989 32.1147 55.7406 29.3845 56.1407 28.7156C56.5641 28.4036 57.3747 28.4967 57.9173 28.502C57.9749 28.8713 58.0042 29.3035 58.0391 29.6801C57.6997 30.6684 57.9212 34.1931 58.1184 35.2764C58.1246 36.4253 58.2769 38.3818 56.5021 37.1759C54.9646 36.1313 54.0653 33.9664 52.5282 32.9919C52.6328 34.2842 52.7499 36.1282 52.5841 37.4011C51.9397 37.5009 51.2328 37.4368 50.5869 37.376Z" fill="white"/>
<path d="M33.835 28.5515C35.8163 28.5028 38.7294 28.0889 39.0757 30.771C39.3061 32.5548 38.6231 32.6257 38.1164 33.9255C38.4189 34.6616 38.8851 35.4928 39.3327 36.157C39.5912 36.5405 40.0927 36.6424 39.989 37.1635C39.3309 37.4804 37.6919 37.5439 37.0842 36.9916C36.6363 36.4113 35.9225 34.1537 35.247 34.1033C35.0034 34.4502 35.2829 36.4755 35.2357 37.2646C34.2984 37.4696 34.0841 37.4365 33.1339 37.3085C33.1469 36.3695 33.0594 28.8721 33.1416 28.7045C33.3427 28.5551 33.5739 28.5714 33.835 28.5515ZM36.2802 32.0866C37.3983 31.585 37.1122 30.482 35.7966 30.6545C34.3254 30.7595 34.9267 32.115 36.2802 32.0866Z" fill="white"/>
<path d="M50.0144 39.3977C50.9319 39.3086 52.0019 39.3911 52.9621 39.3545C52.871 42.1275 52.9918 44.9909 52.8967 47.7918C53.6947 47.8516 54.5129 47.8727 55.3139 47.9025C55.3809 48.8617 55.3643 50.2234 55.3923 51.2266C55.2216 51.3081 50.633 51.239 49.9894 51.2622C50.0222 48.4314 50.0321 45.6004 50.0193 42.7695C50.0175 42.1637 49.9427 39.8005 50.0144 39.3977Z" fill="white"/>
<path d="M43.8195 39.3931C44.6531 39.3396 45.5676 39.3632 46.4084 39.3675C46.3668 39.873 46.387 40.3739 46.3785 40.88C46.3408 43.1418 46.4194 45.4314 46.3123 47.6903C47.0829 47.8484 47.8993 47.9394 48.6758 47.7953C48.6395 48.3775 48.7266 50.9658 48.6119 51.2605L48.4882 51.278C47.1395 51.2045 44.7514 51.2311 43.4027 51.3015C43.3291 50.2448 43.428 48.7353 43.4351 47.6248C43.4523 44.919 43.4966 42.3724 43.334 39.6674C43.5177 39.4281 43.4783 39.4969 43.8195 39.3931Z" fill="white"/>
<path d="M80.3725 28.5388C82.196 28.5834 84.0335 28.4556 85.8506 28.5608C86.6147 28.605 86.3178 30.1198 86.2225 30.6159C85.4686 30.6934 84.7116 30.7424 83.9538 30.763C83.4577 30.7747 82.8796 30.6941 82.421 30.7955C82.303 30.9347 82.3085 30.9612 82.3053 31.1544C82.2874 32.7457 84.696 31.4738 85.41 32.2191C85.778 32.603 85.6389 33.404 85.596 33.888C84.5936 34.0246 83.4639 33.8671 82.4264 34.1141C82.2725 34.334 82.3225 34.3532 82.3077 34.6691C82.5108 35.8634 85.0671 34.783 86.2217 35.3391C86.2405 35.4231 86.2553 35.508 86.2655 35.5935C86.3069 35.9462 86.3241 37.0771 86.1069 37.3529C85.81 37.4691 81.0741 37.381 80.3272 37.3951C80.3303 35.8701 80.16 34.354 80.2382 32.8291C80.303 31.5535 80.1983 30.2897 80.1827 29.0171C80.1803 28.7866 80.2475 28.7143 80.3725 28.5388Z" fill="white"/>
<path d="M74.0398 28.5384C76.2083 28.4824 78.9338 28.1409 79.0736 31.035C79.1228 32.0474 78.6853 32.5621 78.5768 33.5054C78.5408 34.1646 79.5603 36.7667 79.2518 37.2856C78.901 37.3884 78.6705 37.3764 78.3268 37.4047C77.0568 37.5092 77.2743 36.5959 77.1 35.7802C77.0564 35.4459 76.936 34.4545 76.7168 34.2462C76.3803 34.1538 76.4687 34.1219 76.216 34.2501C75.705 35.084 76.5081 37.2475 75.6365 37.4466C75.3574 37.5104 74.453 37.3928 74.1072 37.3516C73.9078 36.1898 74.1431 33.8978 74.1278 32.6572C74.1116 31.3538 73.9789 29.8028 74.0398 28.5384ZM76.895 31.9571C76.9944 31.637 77.1073 31.3684 77.046 31.0376C76.7744 30.6012 76.4057 30.668 75.9346 30.719C75.9228 31.3391 75.9686 32.3298 76.895 31.9571Z" fill="white"/>
<path d="M88.8235 28.5283C90.0211 28.4313 91.4375 28.3553 92.0032 29.5185C92.2469 30.0192 92.6368 30.6435 92.4946 31.2229C92.2368 31.5167 91.336 31.5446 90.8969 31.5969C90.5157 31.2324 89.7149 30.3309 89.2008 30.95C89.1336 31.2271 89.1352 31.2615 89.2133 31.5356C89.5485 31.9221 90.6586 32.0655 91.2141 32.2498C92.6024 32.7108 92.818 34.7027 92.4305 35.9066C92.1961 36.6328 91.6907 36.993 91.0039 37.2968C89.6742 37.6371 88.1867 37.6057 87.4274 36.2449C86.7344 35.0031 87.386 33.7023 88.8227 34.5113C89.1555 34.6986 89.4258 35.1125 89.7782 35.2676C89.886 35.3153 89.9313 35.2608 90.0336 35.2128C90.2188 34.988 90.261 34.6413 90.3227 34.3491C89.8149 34.1171 89.2742 33.9177 88.7563 33.7031C86.8961 32.9317 86.75 31.0206 87.5266 29.3698C87.9391 29.0628 88.35 28.721 88.8235 28.5283Z" fill="white"/>
<path d="M59.4457 39.3472L59.5343 39.4129C59.7091 43.4019 59.4738 47.4657 59.6146 51.3405C58.7289 51.1965 57.7117 51.2459 56.8156 51.295L56.7116 51.2514C56.4841 50.9542 56.5797 46.81 56.5809 46.1082L56.5932 42.0259C56.5906 41.6018 56.4682 39.7664 56.6799 39.5135C57.2324 39.2441 58.6774 39.4129 59.4457 39.3472Z" fill="white"/>
<path d="M42.7659 28.5212C43.6035 28.4473 43.7933 28.5208 44.4403 28.9817C44.8691 30.0426 44.9796 31.5159 45.2475 32.7122C45.4063 33.4215 46.6986 36.7375 46.1411 37.2996C45.4141 38.0327 44.1915 36.8038 43.6395 36.2577C43.5167 36.1131 43.5011 36.1145 43.3177 36.0458C42.8322 36.0976 42.2268 36.8897 41.8053 37.2991C41.1752 37.3991 40.8645 37.3894 40.2397 37.3482C40.4813 35.3924 40.7713 33.8638 41.3425 31.9695C41.6469 30.9602 41.6832 29.9902 42.0988 28.9334L42.7659 28.5212ZM43.0701 34.0235C43.3076 33.9659 43.3886 33.9901 43.5203 33.7475C43.6719 33.4684 43.7744 32.9067 43.5241 32.6676C42.9568 33.0524 42.3971 33.3573 43.0701 34.0235Z" fill="white"/>
<path d="M59.6012 28.552C60.7146 28.4856 62.9152 28.4872 63.9749 28.5947C63.9755 28.997 63.9875 29.9497 63.9194 30.2908C63.7399 31.1897 62.2894 30.5774 61.5608 31.0345C61.3944 31.301 61.4345 31.1933 61.4402 31.5202C61.8948 32.2456 63.1476 31.7395 63.4783 32.2047C64.2486 33.2876 63.7349 34.0147 62.5976 34.0506L61.3615 34.1143C61.3823 35.2372 61.437 36.2459 61.429 37.3852C60.6579 37.4138 60.353 37.4436 59.5862 37.3352C59.1229 35.9898 59.4183 32.9687 59.2999 31.4952C59.2342 30.6779 59.237 29.739 59.23 28.9126C59.2287 28.759 59.4795 28.6311 59.6012 28.552Z" fill="white"/>
<path d="M93.3633 28.539C94.4156 28.5295 97.2273 28.4507 98.1016 28.6105C98.4414 30.4661 98.4664 30.6069 96.5945 30.9197C96.4594 32.4475 96.5273 34.5264 96.5109 36.1133C96.5133 36.4528 96.4391 37.1342 96.4094 37.4976C95.8766 37.4827 95.0945 37.5504 94.6156 37.3176C94.1805 37.106 94.4906 32.3006 94.1766 31.3683L94.1649 31.3354C93.6766 31.0129 93.3461 30.5932 92.9602 30.1541C92.975 29.5237 92.6555 28.7142 93.3633 28.539Z" fill="white"/>
<path d="M17.2067 25.0726C19.7431 24.334 18.9759 26.3708 17.9916 27.4039C17.8814 27.5196 17.9081 27.8409 17.9625 28.0017L18.095 28.0583C19.6222 27.711 20.0741 26.0841 20.9447 25.2154C21.062 25.2223 21.5792 25.6351 21.6637 25.7422C22.6122 26.9445 19.3712 27.7877 19.3482 28.7888C19.5048 29.0792 19.4745 29.1617 19.5377 29.4828C19.7237 29.5559 19.6319 29.5533 19.8223 29.4893C19.9333 28.93 20.3891 28.8978 20.8996 28.6213C21.2423 28.6674 21.7972 28.7128 22.0898 28.8581C22.1219 29.1057 22.0733 29.8712 21.994 30.1112C21.968 30.1899 21.2072 30.3588 21.0388 30.4074C19.7608 29.9578 18.6966 30.1439 17.5029 30.7628C16.7992 31.1277 17.3171 31.6437 17.6079 32.0535C17.2874 32.6039 16.8232 32.5276 16.2957 32.856C15.8591 32.9846 15.2905 33.1172 14.8818 32.8776C14.7814 32.7196 14.6682 32.523 14.7409 32.3233C15.3714 30.5892 17.3616 29.3488 17.2759 27.3128C17.2441 26.5568 17.1847 25.841 17.2067 25.0726Z" fill="white"/>
<path d="M48.8963 28.5429L49.0662 28.4319C49.2193 28.5103 49.3334 28.6184 49.3357 28.804C49.3686 31.5098 49.4411 34.4977 49.3568 37.1792C49.1568 37.4958 48.9067 37.4077 48.5484 37.385L47.2633 37.4474C47.0992 34.4706 47.1016 31.638 47.0244 28.6665C47.6714 28.5666 48.3361 28.6804 48.8963 28.5429Z" fill="white"/>
<path d="M48.8962 28.5429L49.0662 28.4319C49.2193 28.5103 49.3333 28.6184 49.3356 28.804C49.3685 31.5098 49.4411 34.4977 49.3567 37.1792C49.1568 37.4958 48.9066 37.4077 48.5483 37.385L48.9336 37.2922C49.1505 36.9296 48.9151 29.6663 48.8962 28.5429Z" fill="white"/>
<path d="M11.5184 31.9604C13.6097 31.9617 12.4575 34.1219 11.5415 34.8627C11.0076 35.2946 10.4279 36.0802 9.82809 36.5065C9.79168 36.5325 9.5809 37.0654 9.4945 37.2013L9.31457 37.2192C8.67137 36.9578 8.28418 35.8025 7.57812 35.0183C6.88975 33.5978 6.85093 32.4837 8.80426 32.9471C9.40051 34.3397 8.70989 35.4012 8.98122 35.8569C11.1181 36.1832 10.202 33.3666 10.8684 32.2862C11.02 32.0403 11.2504 32.0181 11.5184 31.9604Z" fill="white"/>
<path d="M58.1182 35.2765C57.921 34.1931 57.6994 30.6685 58.0388 29.6802C58.0225 29.9503 58.0037 30.1546 58.0315 30.4251L58.1098 30.4739L58.1654 30.2713C58.5787 30.7885 58.1845 34.4542 58.1182 35.2765Z" fill="white"/>
<path d="M14.3728 42.4373C12.4011 41.559 12.7634 42.0574 11.0562 41.6485L11.0697 41.5998C12.6216 41.3273 13.2317 41.452 14.682 41.9955L14.3058 42.1303C14.2591 42.3005 14.2645 42.2349 14.3728 42.4373Z" fill="white"/>
<path d="M17.6081 32.0535C17.6422 32.2591 17.6406 32.3673 17.6122 32.5738L17.7361 32.715L16.8063 33.2212C16.5429 32.8879 16.6732 32.9669 16.2959 32.856C16.8234 32.5276 17.2876 32.6039 17.6081 32.0535Z" fill="white"/>
</g>
<defs>
<clipPath id="clip0_1936_3286">
<rect width="104" height="80" fill="white"/>
</clipPath>
</defs>
</svg>
