<svg width="104" height="80" viewBox="0 0 104 80" fill="none" xmlns="http://www.w3.org/2000/svg">
<g clip-path="url(#clip0_1936_3319)">
<path d="M55.4367 42.8584C57.5355 42.9036 59.6348 42.9158 61.7339 42.8948C63.1303 42.8939 64.5742 42.8714 65.9674 42.9411C66.5714 42.9797 67.2325 43.1378 67.8257 43.2011C74.3718 43.9005 78.7524 48.565 78.5911 55.2498C78.4971 59.1494 77.7159 61.4222 74.8921 64.2541C74.8677 64.282 74.8427 64.3093 74.8171 64.3359C74.4042 64.7682 73.5323 65.2856 73.0156 65.6036C69.4728 67.7846 65.8629 67.725 61.8731 67.725C59.7142 67.7142 57.5551 67.7199 55.3962 67.7421C55.4545 67.0134 55.4291 65.9679 55.4294 65.2221L55.4296 61.0031L55.4312 47.8963C55.4313 47.0517 55.2978 43.4208 55.4367 42.8584ZM61.335 62.555C64.959 62.3335 67.1251 63.0749 70.2939 60.4859C72.8837 57.9502 73.0001 52.7904 70.4889 50.1865C67.9862 47.5913 64.4441 48.2606 61.321 48.0411C61.4813 50.5836 61.3758 54.2087 61.375 56.8048L61.3748 60.4355C61.3748 61.0304 61.4003 61.9898 61.335 62.555Z" fill="white"/>
<path d="M32.2449 42.8577C35.8218 42.9091 39.3992 42.9227 42.9765 42.8987C44.5804 42.8995 47.4117 42.9729 48.909 42.7944C48.8536 44.5046 48.8801 46.3504 48.9116 48.0615C45.4148 47.9819 41.4909 47.9906 37.9921 48.0497C38.0717 48.8062 38.0784 51.8647 38.0173 52.6268C41.353 52.507 44.9158 52.6887 48.308 52.579C48.2903 54.2268 48.2887 55.8747 48.3034 57.5225C46.7774 57.3921 45.166 57.4303 43.6273 57.429C41.7536 57.4152 39.8798 57.4233 38.0062 57.4534C38.0262 57.7318 38.0299 58.0392 38.0392 58.3204C38.0333 59.413 38.1204 61.6262 38.0213 62.6065C38.6192 62.5827 39.2335 62.617 39.8333 62.6076C43.0554 62.5567 46.3459 62.708 49.5613 62.5504C49.5821 63.6238 49.3777 66.7938 49.6122 67.7485C47.8131 67.6616 45.4957 67.7219 43.6686 67.7219L32.0962 67.725C32.135 65.4475 32.1461 63.1692 32.1295 60.8913L32.1283 49.9212C32.1282 49.0999 32.0504 43.2112 32.2449 42.8577Z" fill="white"/>
<path d="M72.3375 12.599C72.5902 12.5809 72.5401 12.545 72.711 12.6652C72.7748 13.03 72.7428 17.3476 72.6886 17.7681C69.0101 17.7295 65.485 17.6751 61.784 17.7204C61.8786 19.0837 61.8439 20.9739 61.8235 22.3569C64.1004 22.2626 66.6347 22.4158 68.939 22.3569C69.7717 22.3356 71.3164 22.4237 72.0601 22.2433C72.0361 23.9061 72.0607 25.6223 72.065 27.2888C71.2457 27.1435 69.1186 27.1993 68.2193 27.2012L61.8148 27.1891C61.8485 27.9953 61.8789 31.6727 61.7847 32.2887C62.9809 32.2261 64.46 32.2666 65.673 32.2676C68.0221 32.2764 70.3712 32.2701 72.7203 32.2487C72.7609 32.5471 72.7346 33.5655 72.7339 33.9082C72.7251 35.0937 72.734 36.2794 72.7607 37.4647C69.3329 37.2842 65.7603 37.4725 62.3188 37.4088C60.2187 37.3701 58.0235 37.3951 55.9241 37.4535C56.0067 32.347 55.9424 27.0507 55.9434 21.9327L55.9436 16.3309C55.9435 15.1561 55.9766 13.7998 55.8794 12.6461C57.0057 12.6091 58.2856 12.6401 59.4271 12.6409L67.1757 12.6447C68.8657 12.6451 70.6563 12.671 72.3375 12.599Z" fill="white"/>
<path d="M41.3729 11.9616C44.556 11.7641 47.7269 12.9781 50.1808 14.9718C49.7824 15.7043 47.4523 17.8982 46.7879 18.6634C46.7297 18.7304 46.422 18.9905 46.3687 18.9639C45.811 18.6773 45.3575 18.0619 44.8109 17.7622C43.2196 16.8899 40.7467 16.5262 39.2621 17.795C38.8902 18.1129 38.4842 18.9103 38.4982 19.3993C38.5483 21.1444 40.4262 21.6498 41.7798 22.1014C43.9517 22.9088 46.4057 23.4517 48.0764 25.1195C49.5589 26.5994 50.0776 28.0644 50.0085 30.1214C50.021 32.0207 49.2615 34.1137 47.8718 35.4228C45.465 37.69 42.821 38.0618 39.6932 38.0203C36.3547 37.8542 33.6231 36.7243 31.145 34.4859C32.2562 33.4716 33.969 31.3448 35.0999 30.4736C35.5462 30.759 35.8912 31.1592 36.3784 31.5402C38.2237 32.983 41.3968 33.8282 43.3263 32.097C43.7692 31.6996 43.9149 30.8267 43.8751 30.217C43.7541 28.3609 41.2177 27.6991 39.7769 27.2165C35.9763 26.0122 32.738 24.75 32.4719 20.2507C32.1546 14.8836 36.4144 12.2204 41.3729 11.9616Z" fill="white"/>
<path d="M20 0H85V37.44C83.3355 37.4021 81.7245 37.4664 80.1018 37.4445C80.1873 32.8925 80.1323 28.2034 80.1324 23.6431L80.1176 5.18642C79.0086 5.2468 77.5482 5.19641 76.4126 5.1957L69.3611 5.19476L47.4371 5.19431L32.0001 5.19454L27.3727 5.20006C26.741 5.20186 25.5724 5.24795 24.9969 5.18958C25.1169 6.37203 25.0656 8.13376 25.0658 9.36552L25.066 16.3912L25.0652 39.0488L25.0656 63.2947L25.0656 70.8951C25.0655 72.0332 25.1205 73.9426 25.0255 75.0033C26.8166 74.8833 29.6578 74.9804 31.5478 74.9804L44.389 74.9811L85 74.9785V79.9805H20V0Z" fill="white"/>
</g>
<defs>
<clipPath id="clip0_1936_3319">
<rect width="65" height="79.9805" fill="white" transform="translate(20)"/>
</clipPath>
</defs>
</svg>
