<svg width="104" height="80" viewBox="0 0 104 80" fill="none" xmlns="http://www.w3.org/2000/svg">
<g clip-path="url(#clip0_1936_3288)">
<path d="M11.709 27.1888C18.8362 26.2466 25.3693 31.2833 26.2712 38.4156C27.1732 45.5481 22.0997 52.0526 14.9624 52.9143C7.88168 53.7692 1.44006 48.7448 0.545226 41.6691C-0.349604 34.5934 4.63843 28.1235 11.709 27.1888ZM17.1618 35.7055C17.8365 35.6136 18.0718 35.5255 18.6732 35.1617L18.9782 34.0324C18.8203 33.7229 18.6447 33.3946 18.4986 33.0817C16.8684 32.6201 12.9617 32.6685 11.1682 32.7683C10.6739 32.8036 10.2036 32.8251 9.71723 32.9258C9.36848 33.5138 9.14801 33.9587 9.33356 34.6693C9.42582 35.0224 9.64074 35.3264 9.95645 35.5131C10.6195 35.9053 16.0177 35.7228 17.1618 35.7055ZM12.1359 40.5137C12.5944 41.0904 12.9689 41.3403 13.7526 41.3723C15.6033 41.4477 17.6744 41.4349 19.5225 41.3967C19.856 41.403 20.2946 41.4246 20.6193 41.4123C21.3239 40.9515 22.131 40.4908 21.5659 39.4259C21.3813 39.078 20.7359 38.8906 20.3798 38.8386C18.6744 38.7366 16.2516 38.6923 14.5704 38.7808C12.8043 38.9304 12.2057 38.5209 12.1359 40.5137ZM7.18325 38.8469C6.92862 38.8983 6.72332 38.8788 6.57555 39.1152C5.95931 40.1013 6.76445 42.146 8.10707 41.2818C8.59684 40.879 8.82871 40.7407 9.09434 40.1601L8.82598 39.1576C8.27606 38.8457 7.83574 38.711 7.18325 38.8469ZM10.5087 44.8749C9.7152 45.0379 9.44715 45.6024 9.15168 46.3053C9.30715 46.6951 9.49082 47.1265 9.62738 47.5189C11.5035 47.9973 15.6382 47.7904 17.7159 47.7071C19.3075 47.3179 19.1807 46.1364 18.2684 45.0917C16.9179 44.696 12.0783 44.7758 10.5087 44.8749Z" fill="white"/>
<path d="M56.5616 36.7453L56.6078 36.7396C57.7037 36.6152 59.0919 36.6212 59.9731 37.3611C62.8295 39.7594 62.7184 47.3372 58.1798 47.7252C56.8143 47.7496 55.5243 47.8484 54.3442 47.0191C52.4077 45.6595 52.8958 43.2048 52.8871 41.1985C52.875 38.3874 53.7191 37.1383 56.5616 36.7453ZM57.5191 45.7645C60.0418 45.5398 59.2792 42.2796 59.2834 40.5225C59.2867 39.1852 58.1627 38.7925 57.0545 38.8485C56.5763 38.9412 55.8536 39.0416 55.4797 39.3354C54.9963 40.0802 55.1666 43.4677 55.2974 44.4355C55.4659 45.6819 56.4127 45.772 57.5191 45.7645Z" fill="white"/>
<path d="M31.2079 35.5465L31.2074 35.4831C31.2082 34.9144 31.6399 34.391 32.0007 33.9955C33.5408 32.3075 37.94 32.1208 39.6222 33.575C40.1699 34.0486 40.3205 35.646 38.8741 35.401C37.37 35.1462 35.4082 34.2844 34.043 35.3194C33.4926 35.7831 33.1802 36.8992 33.7965 37.5133C35.7913 39.5008 39.2307 39.1212 40.2279 42.165C40.3787 42.5929 40.6993 43.362 40.6282 43.8372C40.47 44.8955 39.7839 46.2118 38.9734 46.9117C37.7824 47.8817 35.8732 47.7633 34.4389 47.7169C33.3561 47.6636 32.108 47.3478 31.2944 46.6042C30.8316 46.1812 31.0597 45.3287 31.4715 44.9867C32.1797 44.4269 33.2936 45.1738 33.9747 45.4041C34.9116 45.7209 36.5618 45.9871 37.3504 45.2566C39.0868 43.6479 37.7289 42.2813 36.1862 41.5408C33.2142 40.1141 30.8414 39.6017 31.1273 35.7658L31.2079 35.5465Z" fill="white"/>
<path d="M43.2577 32.6581C43.5938 32.6205 44.4523 32.5848 44.6306 32.9314C45.2089 34.0559 45.1094 35.9174 44.9287 37.1082C45.0043 37.0909 45.0799 37.0742 45.1558 37.0581C45.4325 36.9994 45.8373 36.9454 46.0875 36.8807C50.8196 35.6558 51.599 39.8705 51.4262 43.4562C51.3693 44.6365 51.6144 46.5404 50.9188 47.5716C50.4999 47.7077 49.6356 47.954 49.3872 47.5339C48.5415 46.1039 48.8516 42.708 48.8258 41.1523C48.8993 38.2905 46.9817 38.518 45.223 39.2923C44.3312 39.6848 46.3241 48.0163 43.9145 47.7903C42.4755 47.6554 42.6555 46.5716 42.6676 45.3542C42.706 41.4609 42.5355 37.4956 42.7687 33.6083C42.7958 33.1645 42.9093 32.922 43.2577 32.6581Z" fill="white"/>
<path d="M90.8259 36.7407C91.9563 36.5961 92.9438 36.8731 94.0329 37.1272C94.1665 37.2854 94.6173 37.7611 94.6735 37.913C95.4962 40.1615 91.5274 38.4 90.611 38.9141C90.422 39.02 90.3306 39.074 90.2243 39.19C90.0618 39.3658 89.9782 39.6011 89.9938 39.8403C90.0704 40.9043 91.6806 40.9625 92.4524 41.3298C93.7509 41.9196 95.0977 42.7843 95.1227 44.3913C95.1485 46.1044 93.8657 47.6311 92.129 47.7247C91.1845 47.7654 90.1837 47.7426 89.3641 47.5993C88.554 47.4575 87.2626 46.477 87.804 45.6985C88.4329 44.7925 92.1079 46.5248 92.5829 45.3393C93.6821 42.5951 87.9079 43.319 87.7509 40.6368C87.4188 38.0502 88.4759 37.1307 90.8259 36.7407Z" fill="white"/>
<path d="M98.546 32.5859C98.7468 32.6224 99.307 32.9386 99.5187 33.0493C99.6156 33.9359 99.6335 36.2684 99.7554 36.7766C99.7945 36.8081 99.8335 36.8398 99.8726 36.8713C100.686 36.8209 101.763 36.9416 102.444 37.2655C103.185 39.4331 101.065 39.1398 99.6273 38.9945C99.6468 40.175 99.5109 44.7159 99.9117 45.4902C100.256 45.8209 101.634 45.6218 102.466 45.7908C102.559 46.5497 102.458 46.9 102.309 47.6318C99.8859 48.052 97.1593 47.6102 97.2007 44.5463C97.2507 40.7771 97.014 36.91 97.389 33.1684C97.4187 32.876 98.2828 32.6988 98.546 32.5859Z" fill="white"/>
<path d="M71.6325 32.575C71.8912 32.5412 72.471 32.7487 72.8129 32.8181C73.0235 34.1464 72.8878 35.536 73.111 36.6098C74.2212 37.1422 75.6039 36.588 76.0124 37.5387C76.8933 39.5887 74.0817 38.8196 73.1195 39.2377C72.8642 39.558 72.976 42.8798 72.9931 43.5607C73.0506 45.8494 73.7178 45.7494 75.5243 45.6373C76.4424 45.9961 76.0629 46.8621 75.8993 47.6375C73.2524 47.8707 70.9321 47.9937 70.871 44.5453C70.8045 40.7976 70.6891 36.9884 70.9356 33.2494C70.9552 32.9523 71.4089 32.713 71.6325 32.575Z" fill="white"/>
<path d="M79.2431 32.5684C79.4595 32.595 80.1095 32.8277 80.3493 32.9076C80.7486 34.0445 80.347 39.29 80.49 40.8595C80.5814 41.8736 80.6212 46.902 80.2806 47.525C80.054 47.723 79.854 47.7356 79.5572 47.7941C79.2962 47.772 78.7486 47.7085 78.6212 47.465C78.2931 46.7698 78.3009 45.743 78.2993 44.991C78.2923 41.9009 78.2993 38.8161 78.2993 35.7265C78.2993 34.8351 78.2696 33.9064 78.3736 33.024L79.2431 32.5684Z" fill="white"/>
<path d="M66.8391 36.7435C67.7291 36.6106 68.4432 36.8315 69.2798 37.0823C69.6992 40.0976 68.0986 38.4198 66.5197 39.0508C66.0409 39.2422 66.1373 40.7444 66.0998 41.2885C65.9673 43.213 66.2759 45.4363 66.0037 47.3367C65.9637 47.4896 65.9323 47.4986 65.8035 47.6049C65.0526 47.8314 64.7593 47.7574 64.0092 47.6241C63.6869 45.3868 63.7474 40.1031 64.274 37.9624C65.0591 37.0728 65.7261 36.9068 66.8391 36.7435Z" fill="white"/>
<path d="M84.228 36.4604C84.664 36.5412 85.0116 36.9155 85.4163 37.2058C85.6124 38.2033 85.6898 46.814 85.4148 47.3236C85.246 47.6349 84.8601 47.675 84.5468 47.7484C84.1929 47.7878 83.6499 47.7637 83.3804 47.5068C82.9194 46.3318 83.1468 39.2665 83.2343 37.5305C83.2546 37.1273 83.8991 36.7104 84.228 36.4604Z" fill="white"/>
<path d="M83.8639 32.6549C84.4545 32.5983 85.1124 32.7324 85.4952 33.2244C85.6874 33.4663 85.7678 33.7779 85.717 34.0824C85.6366 34.5718 85.3241 34.7792 84.9506 35.06C82.7881 35.8727 82.5108 33.3763 83.8639 32.6549Z" fill="white"/>
</g>
<defs>
<clipPath id="clip0_1936_3288">
<rect width="104" height="80" fill="white"/>
</clipPath>
</defs>
</svg>
