<svg width="104" height="80" viewBox="0 0 104 80" fill="none" xmlns="http://www.w3.org/2000/svg">
<g clip-path="url(#clip0_1936_3295)">
<path d="M24.4714 50.5187L24.8606 50.0574C25.1306 50.2781 25.4128 50.4169 25.7543 50.4169C26.0244 50.4169 26.1864 50.311 26.1864 50.1386V50.1303C26.1864 49.9659 26.0845 49.8814 25.5836 49.7542C24.98 49.6031 24.5912 49.4381 24.5912 48.8513V48.8436C24.5912 48.3078 25.028 47.9534 25.6392 47.9534C26.0757 47.9534 26.4476 48.0878 26.7518 48.3281L26.4085 48.8174C26.1435 48.6363 25.8826 48.5271 25.6298 48.5271C25.378 48.5271 25.245 48.641 25.245 48.7841V48.7924C25.245 48.9871 25.3733 49.05 25.8904 49.1808C26.4989 49.3372 26.8405 49.5519 26.8405 50.0671V50.0747C26.8405 50.6618 26.3872 50.99 25.7408 50.99C25.2732 50.9916 24.8213 50.8239 24.4707 50.5187" fill="white"/>
<path d="M29.4903 47.9736H30.0979L31.3826 50.949H30.694L30.4192 50.2867H29.1528L28.8794 50.949H28.207L29.4903 47.9736ZM30.184 49.7123L29.7857 48.7551L29.3874 49.7123H30.184Z" fill="white"/>
<path d="M34.839 47.9954V48.5944H33.9276V50.9488H33.2688V48.5944H32.3574V47.9954H34.839Z" fill="white"/>
<path d="M37.1108 48.5734V49.1725H38.5238V49.7506H37.1108V50.3706H38.7371V50.9484H36.457V47.9946H38.7151V48.5727L37.1108 48.5734Z" fill="white"/>
<path d="M42.5893 50.3581V50.9488H40.4375V47.9951H41.0957V50.3581H42.5893Z" fill="white"/>
<path d="M47.9883 47.9954H48.6471V50.9488H47.9883V47.9954Z" fill="white"/>
<path d="M77.9415 47.9443C77.0167 47.9443 76.3456 48.6333 76.3456 49.4733V49.4806C76.3456 50.3203 77.0092 50.9989 77.9337 50.9989C78.8579 50.9989 79.5303 50.3113 79.5303 49.4726V49.4636C79.5303 48.6243 78.8653 47.9447 77.9418 47.9447L77.9415 47.9443ZM77.9348 48.5434C78.4657 48.5434 78.841 48.9661 78.841 49.4763C78.841 49.9868 78.4724 50.4008 77.9422 50.4008C77.4109 50.4008 77.0362 49.9788 77.0362 49.4676C77.0362 48.9564 77.4035 48.5434 77.9341 48.5434H77.9348ZM60.7715 47.9943V50.948H61.4314V50.0028H61.9471L62.5901 50.948H63.3597L62.6289 49.893C63.0093 49.7532 63.2696 49.455 63.2696 49.0732C63.2696 48.6912 63.1805 48.4592 63.0131 48.2945C62.8173 48.1004 62.5209 47.9943 62.1398 47.9943H60.7715ZM61.4297 48.5827H62.0845C62.4058 48.5827 62.6023 48.7248 62.6023 48.993C62.6023 49.2609 62.4166 49.4304 62.097 49.4304H61.4287L61.4297 48.5827ZM69.4687 47.9949V50.9486H70.6366C71.5783 50.9486 72.2291 50.3023 72.2291 49.467C72.2291 48.6316 71.5776 47.9946 70.6369 47.9946L69.4687 47.9949ZM70.1289 48.5827H70.6369C71.1763 48.5827 71.5395 48.9488 71.5395 49.4759C71.5395 50.0035 71.1763 50.3612 70.6369 50.3612H70.1289V48.5827Z" fill="white"/>
<path d="M9.53763 43.2845C9.69547 43.478 9.92471 43.6018 10.175 43.6288C10.4254 43.6558 10.6764 43.5838 10.8729 43.4286C10.9701 43.3514 11.0509 43.256 11.1107 43.148C11.1705 43.0399 11.2082 42.9213 11.2215 42.7989C11.2348 42.6765 11.2236 42.5528 11.1884 42.4347C11.1532 42.3166 11.0947 42.2065 11.0164 42.1107C10.2232 41.1434 9.79278 39.9359 9.79787 38.692C9.79787 37.4596 10.2029 36.2967 10.9725 35.3289C11.1269 35.1331 11.1964 34.8849 11.1658 34.6387C11.1351 34.3925 11.0069 34.1682 10.8091 34.015C10.711 33.9389 10.5986 33.8827 10.4784 33.8496C10.3582 33.8165 10.2325 33.8072 10.1086 33.8221C9.98472 33.8371 9.86504 33.876 9.75645 33.9367C9.64787 33.9973 9.55251 34.0786 9.47586 34.1757C8.44301 35.475 7.8989 37.0369 7.8989 38.692C7.8989 40.3584 8.48115 41.9895 9.53797 43.2848L9.53763 43.2845ZM7.53133 31.7335C7.33047 31.584 7.07766 31.5191 6.82835 31.5531C6.57904 31.5871 6.35359 31.7172 6.20144 31.9149C4.67714 33.8925 3.87043 36.2548 3.87043 38.7469C3.87043 41.217 4.66364 43.5634 6.16431 45.5323C6.31569 45.7305 6.54058 45.8614 6.78968 45.8963C7.03878 45.9313 7.29177 45.8674 7.49319 45.7187C7.69423 45.5694 7.82696 45.3476 7.86221 45.1019C7.89747 44.8562 7.83236 44.6068 7.68119 44.4084C6.43096 42.7663 5.76906 40.8087 5.76906 38.7472C5.76906 36.6678 6.44075 34.6969 7.71157 33.0461C7.8638 32.8483 7.93025 32.599 7.89633 32.3529C7.86241 32.1069 7.73091 31.8841 7.53065 31.7335H7.53133ZM1.90328 38.715C1.90328 35.7522 2.79572 32.8994 4.48677 30.4652C4.6291 30.2602 4.68306 30.008 4.63675 29.7638C4.59045 29.5197 4.44768 29.3037 4.23986 29.1634C4.03204 29.023 3.77619 28.9698 3.52859 29.0155C3.281 29.0611 3.06193 29.2019 2.9196 29.4068C1.01118 32.1545 0.00195312 35.3725 0.00195312 38.7156C0.00195312 42.0664 1.01557 45.2914 2.93445 48.0431C3.005 48.1444 3.09514 48.231 3.19969 48.298C3.30425 48.3649 3.42117 48.4109 3.54377 48.4332C3.66636 48.4555 3.79222 48.4538 3.91413 48.4281C4.03604 48.4023 4.1516 48.3532 4.25421 48.2834C4.35705 48.2139 4.44499 48.1251 4.513 48.022C4.581 47.919 4.62774 47.8037 4.65053 47.6829C4.67332 47.562 4.67172 47.4379 4.64582 47.3176C4.61992 47.1974 4.57023 47.0834 4.49959 46.9821C2.79944 44.5449 1.90396 41.6857 1.90396 38.715H1.90328ZM93.134 43.4286C93.3307 43.584 93.5818 43.656 93.8322 43.629C94.0827 43.602 94.3121 43.4781 94.47 43.2845C95.5289 41.9813 96.1066 40.3616 96.108 38.6917C96.108 37.0366 95.5633 35.4747 94.5324 34.1754C94.4557 34.0783 94.3602 33.9971 94.2516 33.9365C94.143 33.8758 94.0233 33.8369 93.8994 33.822C93.7755 33.807 93.6498 33.8163 93.5295 33.8493C93.4092 33.8823 93.2968 33.9384 93.1985 34.0143C93.1002 34.09 93.018 34.1841 92.9566 34.2912C92.8952 34.3983 92.8559 34.5163 92.8409 34.6385C92.8258 34.7606 92.8353 34.8844 92.8689 35.0029C92.9025 35.1214 92.9594 35.2322 93.0365 35.3289C93.8015 36.2871 94.2155 37.4722 94.2111 38.6917C94.2111 39.9497 93.7882 41.1335 92.9909 42.111C92.9125 42.2068 92.854 42.3169 92.8188 42.435C92.7836 42.5531 92.7723 42.6769 92.7856 42.7993C92.799 42.9217 92.8366 43.0403 92.8965 43.1483C92.9563 43.2564 93.0371 43.3517 93.1344 43.4289M96.5131 45.7187C96.7147 45.8673 96.9678 45.9312 97.2171 45.8963C97.4663 45.8613 97.6913 45.7305 97.843 45.5323C99.3436 43.5637 100.136 41.2157 100.136 38.7462C100.136 36.2545 99.3312 33.8915 97.8072 31.9146C97.655 31.7169 97.4296 31.5868 97.1803 31.5528C96.931 31.5188 96.6782 31.5836 96.4773 31.7332C96.3779 31.8075 96.2943 31.9004 96.2313 32.0066C96.1683 32.1128 96.1271 32.2302 96.1101 32.3521C96.0931 32.474 96.1007 32.598 96.1323 32.717C96.1639 32.8361 96.219 32.9478 96.2944 33.0458C97.5662 34.6966 98.2379 36.6675 98.2379 38.7469C98.2379 40.807 97.5783 42.7656 96.3257 44.4081C96.2507 44.5062 96.196 44.618 96.1648 44.7371C96.1336 44.8561 96.1266 44.98 96.144 45.1017C96.1614 45.2235 96.203 45.3406 96.2664 45.4465C96.3298 45.5523 96.4134 45.6448 96.5131 45.7187ZM99.5208 30.4658C101.211 32.8997 102.104 35.7529 102.104 38.7146C102.104 41.6853 101.205 44.5455 99.5084 46.9817C99.4377 47.083 99.3879 47.197 99.362 47.3172C99.336 47.4374 99.3344 47.5615 99.3571 47.6824C99.3798 47.8033 99.4265 47.9185 99.4945 48.0216C99.5624 48.1246 99.6503 48.2135 99.7531 48.283C99.8556 48.3529 99.9712 48.4022 100.093 48.428C100.215 48.4537 100.341 48.4556 100.463 48.4333C100.586 48.411 100.703 48.3651 100.808 48.2982C100.912 48.2313 101.002 48.1447 101.073 48.0434C102.988 45.291 104.001 42.0661 104.001 38.7146C104.001 35.3732 102.993 32.1539 101.086 29.4065C100.942 29.2043 100.724 29.0661 100.477 29.022C100.231 28.9779 99.9772 29.0315 99.7708 29.1712C99.5644 29.3108 99.4224 29.5251 99.3755 29.7675C99.3286 30.0099 99.3807 30.2608 99.5205 30.4655" fill="white"/>
<path d="M18.4425 33.0054C16.1607 33.0054 13.2505 33.8108 13.2505 36.5778C13.2505 40.7679 19.9715 39.3854 19.9715 41.1201C19.9715 41.8845 19.2593 42.0899 18.5896 42.0899C18.1711 42.0899 17.7937 41.9667 17.521 41.7597C17.2284 41.5334 17.0609 41.2023 17.0609 40.7679H12.916C13.1455 43.6791 15.9089 44.4429 18.4212 44.4429C22.4422 44.4429 24.3264 42.9163 24.3264 40.6654C24.3264 36.6178 17.3968 37.6302 17.3968 36.1232C17.3968 35.5864 17.8774 35.3594 18.6311 35.3594C18.9653 35.3594 19.2792 35.4413 19.5104 35.627C19.7406 35.8127 19.8871 36.0606 19.9296 36.4124H23.8872C23.6354 33.5419 20.8302 33.0044 18.4428 33.0044L18.4425 33.0054ZM80.1707 33.0071C78.6005 33.0071 77.6102 34.1 77.0654 34.9257V33.3156H73.0656V44.134H77.4208V38.7857C77.4208 37.4861 77.4512 36.3628 78.6477 36.3928C79.8082 36.4227 79.9034 37.0318 79.9034 38.6216V44.134H84.2576V38.7867C84.2576 37.4864 84.2474 36.3988 85.4727 36.3948C86.6243 36.3914 86.73 37.0311 86.73 38.6213V44.1337H91.0842V37.7337C91.0842 34.7816 89.7256 33.0077 86.9646 33.0077C85.3765 33.0077 84.5512 33.6867 83.6085 34.987C83.0846 33.8308 81.9866 33.0067 80.1707 33.0067V33.0071Z" fill="white"/>
<path d="M25.0605 33.0229V34.689H28.5979V33.0229H25.0605ZM25.0605 35.4052V44.1922H28.5979V35.4052H25.0605Z" fill="white"/>
<path d="M35.5207 35.1523C34.1429 35.1523 33.2754 35.808 32.7833 37.1818H32.7479V35.4046H29.5332V44.1916H33.0722V41.1563C33.0716 39.2616 33.8037 38.591 35.2487 38.591C35.4863 38.591 35.7421 38.6575 35.9798 38.6908V35.2036C35.8272 35.1883 35.6733 35.153 35.5207 35.153V35.1523ZM55.6972 35.1537C53.8434 35.1537 51.4787 35.8077 51.4787 38.0548C51.4787 41.4595 56.9389 40.3363 56.9389 41.7444C56.9389 42.3648 56.3597 42.5322 55.816 42.5322C55.4757 42.5322 55.1699 42.4317 54.9485 42.2636C54.7109 42.0792 54.5749 41.8103 54.5749 41.4595H51.2073C51.3936 43.8245 53.6395 44.4438 55.6796 44.4438C58.9459 44.4438 60.476 43.2034 60.476 41.3753C60.476 38.0881 54.8466 38.9101 54.8466 37.6864C54.8466 37.2504 55.2371 37.066 55.8507 37.066C56.1214 37.066 56.3766 37.1336 56.5629 37.2834C56.7513 37.4344 56.8701 37.6355 56.9049 37.92H60.1192C59.914 35.5897 57.6363 35.1533 55.6965 35.1533L55.6972 35.1537ZM41.1393 35.4046V40.7543C41.1393 43.2703 42.3966 44.4432 44.3358 44.4432C45.7986 44.4432 46.6654 44.1077 47.5501 42.9003V44.1916H50.8319V35.4046H47.2946V39.63C47.2946 40.9879 46.9712 41.7434 45.9512 41.7434C45.1006 41.7434 44.6753 41.358 44.6753 40.1512V35.4046H41.1393Z" fill="white"/>
<path d="M65.1296 33.3154L66.5122 36.0205L67.9781 33.3154H72.7518L69.0035 38.4564L72.794 44.1342H67.9359L66.3859 41.0367L64.7951 44.1342H59.9785L63.9155 38.4764L60.2928 33.3154H65.1296Z" fill="white"/>
<path d="M90.4753 32.135V32.3274H90.0959V33.3158H89.884V32.3274H89.5039V32.135H90.4753ZM91.6513 32.135H91.8751V33.3158H91.6651V32.4688L91.2871 33.0253H91.2803L90.9057 32.4722V33.3158H90.6984V32.135H90.9222L91.2868 32.6928L91.6513 32.135Z" fill="white"/>
<path d="M36.7324 33.0229V34.689H40.2698V33.0229H36.7324ZM36.7324 35.4052V44.1922H40.2698V35.4052H36.7324Z" fill="white"/>
<path d="M46.349 50.3581V50.9488H44.1973V47.9951H44.8555V50.3581H46.349Z" fill="white"/>
<path d="M52.7765 47.9954V48.5944H51.8651V50.9488H51.2063V48.5944H50.2949V47.9954H52.7765Z" fill="white"/>
<path d="M55.0483 48.5734V49.1725H56.4613V49.7506H55.0483V50.3706H56.6746V50.9484H54.3945V47.9946H56.6526V48.5727L55.0483 48.5734Z" fill="white"/>
<path d="M66.0021 47.9736H66.6096L67.8943 50.949H67.2057L66.9309 50.2867H65.6645L65.3911 50.949H64.7188L66.0021 47.9736ZM66.6957 49.7123L66.2974 48.7551L65.8991 49.7123H66.6957Z" fill="white"/>
<path d="M73.957 47.9954H74.6159V50.9488H73.957V47.9954Z" fill="white"/>
</g>
<defs>
<clipPath id="clip0_1936_3295">
<rect width="104" height="22" fill="white" transform="translate(0 29)"/>
</clipPath>
</defs>
</svg>
