<svg width="104" height="80" viewBox="0 0 104 80" fill="none" xmlns="http://www.w3.org/2000/svg">
<g clip-path="url(#clip0_1936_3316)">
<path d="M71.1015 22.0908C71.1456 22.1804 71.1243 46.2302 71.104 48.3615C71.9729 48.2946 73.5229 48.3426 74.442 48.343L74.441 41.8862C74.4415 40.929 74.4923 39.4558 74.4202 38.5475C77.7191 38.4518 81.0987 38.602 84.4073 38.541C85.8238 38.5148 87.3378 38.5029 88.7492 38.5501C88.9999 39.0411 89.2212 39.549 89.444 40.0537C90.4788 42.4008 91.7309 44.6525 92.7328 47.0143C92.9317 47.4824 93.0967 47.9375 93.3616 48.3746C94.5944 48.3772 95.8271 48.3724 97.0599 48.3603C96.221 46.9944 95.9997 46.1823 95.3724 44.8272C94.5934 43.1431 93.7585 41.4328 92.9662 39.7529C92.6688 39.1224 91.9684 37.3772 91.5974 36.8839C91.8806 36.5346 92.6612 34.7373 92.8957 34.2584C93.7143 32.5305 94.5827 30.8226 95.4176 29.1033C95.8693 28.1726 96.1824 27.115 96.7392 26.2053C96.9072 25.9308 96.9965 25.6291 97.1924 25.3349C95.9606 25.2713 94.6847 25.3488 93.4337 25.2889C93.3758 25.5965 93.0104 26.3139 92.8667 26.6524C91.9131 28.9035 90.6778 31.0853 89.6866 33.3263C89.3262 34.141 89.0304 34.4575 88.8167 35.3621C88.4426 35.3938 87.7626 35.3724 87.3641 35.3714L84.6951 35.3694C81.3601 35.3677 77.7521 35.2996 74.4364 35.3859C74.4491 31.0184 74.4912 26.4626 74.4369 22.1048C75.5565 22.1056 76.7299 22.1225 77.845 22.0837C77.8942 25.3406 77.8495 28.728 77.8485 31.997C79.8233 31.9711 81.7981 31.9644 83.7724 31.9768C84.3362 31.9781 86.0735 32.0211 86.4922 31.9513C86.8048 31.749 89.0755 26.8673 89.409 26.1379C89.9652 24.9197 90.4042 23.6468 91.1066 22.4953C91.1665 22.3978 91.2594 22.2403 91.3761 22.2139C91.3838 22.2123 91.3909 22.2109 91.3985 22.2093C92.0471 22.0696 93.0794 22.1684 93.7712 22.1688L99.3717 22.1722C100.128 22.1727 101.704 22.2185 102.385 22.1239C101.812 22.859 101.413 24.14 100.958 25.0344C100.266 26.4186 99.5828 27.8065 98.9307 29.2098C98.6688 29.7658 98.4972 30.3603 98.2242 30.9115C97.4594 32.4562 96.6646 33.9869 95.9363 35.5492C95.7282 35.9954 95.5642 36.463 95.312 36.8866C95.5231 37.2949 95.6688 37.7214 95.8683 38.1346C96.6377 39.8582 97.6218 41.5544 98.3658 43.2816C99.3636 45.5981 100.474 47.8284 101.535 50.1148C101.771 50.6212 102.07 51.0819 102.195 51.6278L91.132 51.6354C90.962 51.044 90.3667 50.0561 90.1063 49.4271C89.6775 48.3916 89.2476 47.343 88.7756 46.327C88.1072 44.8886 87.2078 43.3144 86.6607 41.8391C85.801 41.888 84.5408 41.8511 83.6572 41.8513L77.8267 41.8434C77.8896 42.8486 77.8495 44.2908 77.8495 45.325L77.8475 51.6452C76.0113 51.625 74.1751 51.6188 72.3388 51.6267C70.8152 51.6266 69.2262 51.6069 67.7066 51.65L67.7061 33.8417L67.7031 28.346C67.7026 27.5515 67.6605 26.1031 67.7386 25.356C66.586 25.3469 65.3847 25.3868 64.2377 25.3362L64.2275 31.553C64.227 32.7358 64.188 34.2353 64.2656 35.3914C63.2673 35.3425 62.1167 35.3671 61.1073 35.3668H55.7635C51.9977 35.3674 47.9487 35.295 44.2087 35.3869C44.1704 32.8678 44.2288 30.3348 44.2047 27.8144C44.1969 27.0023 44.1992 26.1762 44.221 25.3646C43.2078 25.3263 42.0316 25.3559 41.0043 25.3559L34.9819 25.3562L16.6723 25.3567L9.6247 25.3582C8.31711 25.3582 6.87898 25.3897 5.58921 25.3381C5.6194 26.3969 5.59768 27.5715 5.59174 28.6375C7.02733 28.533 9.33952 28.6049 10.86 28.608C13.5364 28.6133 16.2993 28.5656 18.9621 28.6121L18.9627 41.784L18.9644 45.9655C18.9645 46.6414 18.9936 47.7462 18.9219 48.3873C19.9777 48.3521 21.3429 48.365 22.3934 48.3855C22.299 46.3887 22.369 43.8976 22.3694 41.8541L22.3655 28.6083L40.6854 28.6042C40.7641 30.4919 40.6913 32.9366 40.6914 34.8598L40.7008 48.4548C41.8662 48.4288 43.0875 48.4413 44.2568 48.4342C44.1926 47.3208 44.2191 46.0363 44.2189 44.9103L44.208 38.5911L56.703 38.5959C59.1903 38.5958 61.7731 38.6311 64.2544 38.5833C64.1585 39.9613 64.226 42.2954 64.2275 43.7243C64.2311 46.3154 64.1829 49.061 64.2519 51.6411C63.3257 51.6299 61.9279 51.5832 61.0428 51.672C61.0347 48.5211 60.9621 44.9744 61.0611 41.8538L47.4106 41.8405C47.4946 42.5305 47.4506 44.603 47.4468 45.3647C47.4365 47.4309 47.4807 49.586 47.4312 51.6452C45.4392 51.6256 43.447 51.6191 41.4548 51.6258C40.1459 51.6256 38.644 51.592 37.3524 51.6576L37.3589 32.0323C33.5719 32.0787 29.4747 32.0997 25.694 32.0311C25.7395 32.6575 25.7206 33.4551 25.7212 34.0918L25.7211 37.5375L25.7193 46.5329C25.719 48.1993 25.6873 49.9859 25.7369 51.6438C23.7329 51.6267 21.7289 51.6205 19.7249 51.6253C18.3925 51.6248 16.8926 51.5959 15.5741 51.6549L15.5815 32.0301C14.0851 32.0801 12.4141 32.0458 10.9104 32.0458L2.12899 32.0497C2.01689 29.1666 2.21689 26.171 2.11937 23.2769C2.1064 22.892 2.09423 22.4889 2.10904 22.1044L32.2436 22.1086L41.6936 22.108C43.592 22.1079 45.5457 22.131 47.4397 22.0864C47.4937 24.5299 47.4092 27.0108 47.4457 29.4574C47.4573 30.2405 47.4833 31.2222 47.4203 31.9954C49.8845 31.9727 52.3489 31.9662 54.8129 31.9761C56.8689 31.9762 59.0239 31.9451 61.0682 31.9955C61.0154 31.0654 61.056 30.033 61.0423 29.0947C61.0078 26.7854 61.0931 24.4039 61.0276 22.1006C64.2849 22.1127 67.8614 22.1805 71.1015 22.0908Z" fill="white"/>
<path d="M-5.2793 65.9017H-4.34083V62.5069H-3.15314L-0.855118 65.9017H0.191316L-2.17148 62.4432C-1.11425 62.2357 -0.262169 61.6032 -0.262169 60.3154V60.2717C-0.262169 58.7108 -1.48136 58.0992 -2.95968 58.0992H-5.2793V65.9017ZM-4.34083 61.7543V58.8628H-2.8949C-1.84847 58.8628 -1.20063 59.2114 -1.20063 60.2708V60.3144C-1.20063 61.2746 -1.79448 61.7543 -2.8949 61.7543H-4.34083ZM1.49599 65.9017H2.43355V62.4314H6.49062V65.9017H7.42908V58.0983H6.49152V61.635H2.43355V58.0983H1.49599V65.9017ZM11.2333 65.9017H12.1718V62.5069L14.6102 58.0983H13.6717L11.7291 61.7224L9.7118 58.0983H8.65457L11.2333 62.4978V65.9017ZM17.5173 65.9017H18.4558V58.8737H20.6998V58.0983H15.2724V58.8737H17.5173V65.9017ZM21.9784 65.9017H22.9178V62.4314H26.9748V65.9017H27.9133V58.0983H26.9739V61.635H22.9178V58.0983H21.9793L21.9784 65.9017ZM29.8604 65.9017H30.7242V59.3315L33.3668 65.9026H33.6583L36.2155 59.3315V65.9026H37.1539V58.0983H35.8592L33.5504 64.1779L31.166 58.0983H29.8604V65.9017ZM41.3739 65.9017H42.2584L43.0025 63.6537H46.1859L46.9417 65.9017H47.8684L45.2582 58.0983H44.0282L41.3739 65.9017ZM44.5996 58.8846L45.9375 62.9001H43.2616L44.5996 58.8846ZM51.6601 66C53.6459 66 54.5843 64.8323 54.5843 62.9329V58.0983H53.6459V62.8027C53.6459 64.7122 52.9126 65.2146 51.6826 65.2146C50.3986 65.2146 49.8263 64.5811 49.8263 62.9438V58.0983H48.8888V63.053C48.8888 64.9524 49.892 66 51.6619 66H51.6601ZM58.0511 65.9017H58.9896V58.8737H61.2336V58.0983H55.808V58.8737H58.052L58.0511 65.9017ZM65.5759 65.2146C63.968 65.2146 62.7273 63.9267 62.7273 62.0382V61.9518C62.7273 60.0969 63.7629 58.7654 65.5543 58.7654C67.3341 58.7654 68.3481 60.1843 68.3481 61.9299V62.0173C68.3481 63.9058 67.2909 65.2146 65.5759 65.2146ZM65.5759 66C67.82 66 69.319 64.2316 69.319 62.0273V61.9399C69.319 59.7465 67.82 58 65.5543 58C63.2878 58 61.7564 59.7474 61.7564 61.9618V62.0491C61.7564 64.2316 63.2986 66 65.5759 66ZM70.8792 65.9017H71.743V59.3315L74.3856 65.9026H74.6771L77.2343 59.3315V65.9026H78.1727V58.0983H76.878L74.5692 64.1779L72.1848 58.0983H70.8792V65.9017ZM83.5615 65.2146C81.9536 65.2146 80.7128 63.9267 80.7128 62.0382V61.9518C80.7128 60.0969 81.7484 58.7654 83.5399 58.7654C85.3205 58.7654 86.3346 60.1843 86.3346 61.9299V62.0173C86.3346 63.9058 85.2773 65.2146 83.5615 65.2146ZM83.5615 66C85.8055 66 87.3054 64.2316 87.3054 62.0273V61.9399C87.3054 59.7465 85.8055 58 83.5399 58C81.2743 58 79.7419 59.7474 79.7419 61.9618V62.0491C79.7419 64.2316 81.2851 66 83.5615 66ZM90.0713 65.9017H91.0107V58.8737H93.2547V58.0983H87.8273V58.8737H90.0713V65.9017ZM94.5873 65.9017H95.5266V58.0983H94.5873V65.9017ZM99.5 65.9017H100.623L103.287 58.0983H102.403L100.105 64.9852L97.8067 58.0983H96.879L99.5 65.9017ZM104.586 65.9017H109.279V65.1272H105.524V62.3003H108.394V61.5258H105.524V58.8737H109.084V58.0983H104.586V65.9017Z" fill="white"/>
</g>
<defs>
<clipPath id="clip0_1936_3316">
<rect width="104" height="80" fill="white"/>
</clipPath>
</defs>
</svg>
