<svg width="104" height="80" viewBox="0 0 104 80" fill="none" xmlns="http://www.w3.org/2000/svg">
<g clip-path="url(#clip0_1936_3323)">
<g clip-path="url(#clip1_1936_3323)">
<path d="M41.4337 34.4093C42.3739 34.3844 43.2424 34.3385 44.1722 34.4897C45.4944 35.5285 45.9739 36.1422 46.0242 37.8939C46.079 39.8001 45.853 40.5447 44.5339 41.9484C43.8253 42.1994 40.8484 42.5197 40.3271 42.0122C40.0162 41.0536 40.2053 35.7777 40.3199 34.5203C40.6561 34.4661 41.0875 34.44 41.4337 34.4093ZM43.7681 40.8912C44.894 39.6606 44.7332 37.9442 44.4586 36.4161C44.2828 36.2484 44.066 36.0519 43.9086 35.8726C43.1663 35.7341 42.705 35.6959 41.9468 35.6484C41.1736 36.0773 41.4329 38.0915 41.3985 38.9192C41.3097 41.0586 41.5325 41.7946 43.7681 40.8912Z" fill="white"/>
<path d="M82.7975 34.3888C84.4037 34.3477 85.7217 35.4167 85.9334 37.0207C86.192 38.9777 86.185 41.8908 83.6232 42.21C80.6654 42.2294 80.2896 40.4238 80.3342 37.9859C80.3498 37.149 80.2584 36.8762 80.506 36.037C81.41 35.2367 81.699 34.9229 82.7975 34.3888ZM81.8326 40.4756C82.5217 41.0567 82.7842 41.3643 83.6928 41.0107L84.4506 40.6649C84.6514 39.8342 84.7662 36.8857 84.4521 36.2153C84.0646 35.8375 83.6295 35.7542 83.0959 35.7622C82.931 35.7652 82.7662 35.7714 82.6006 35.7809C82.3186 35.9046 81.8717 36.0527 81.8029 36.3382C81.5881 37.2359 81.6631 39.6519 81.8326 40.4756Z" fill="white"/>
<path d="M27.2681 27.0867C27.3679 27.1079 27.3194 27.0914 27.4059 27.1844C27.4033 27.1964 27.401 27.2083 27.3979 27.2201C27.1916 27.9906 22.2012 32.557 21.2318 33.5447C20.6619 34.1255 20.1426 34.7549 19.5719 35.3349C19.005 35.911 18.3877 36.439 17.8301 37.023C17.2848 37.5941 16.7798 38.2017 16.2116 38.7513C15.3352 39.5991 13.5744 41.3787 12.6025 41.9454C12.3964 41.7003 12.516 38.8886 12.5593 38.4192C12.6596 37.3305 15.3027 35.8735 16.1212 35.2599L24.512 29.0577C25.4638 28.3528 26.2592 27.8767 27.2681 27.0867Z" fill="white"/>
<path d="M31.2873 34.405C32.0543 34.358 33.2451 34.3692 34.0026 34.4023C36.4731 36.4068 35.9501 36.7789 34.198 38.9649C34.4448 39.5399 34.6762 39.9885 34.988 40.5296C35.2605 41.0026 35.8376 41.6967 35.5252 42.2158C34.658 42.6224 34.082 41.4158 33.7449 40.9007C33.5805 40.7099 33.129 39.5792 32.8434 39.1656C32.685 39.1203 31.9196 38.871 31.8639 38.8916C30.6139 39.3512 32.3352 42.2695 30.6285 42.3306C30.3115 42.342 30.0292 42.1178 30.0152 41.7767C29.9856 41.0525 30.0233 40.3244 30.0267 39.5976L30.0846 34.516L31.2873 34.405ZM33.7962 37.5346C35.8524 36.0007 32.5494 35.5974 31.5914 35.5067C31.4452 35.81 31.321 36.4832 31.3408 36.8209C31.4195 38.1602 32.931 37.8602 33.7962 37.5346Z" fill="white"/>
<path d="M75.433 34.4086C77.1763 34.2344 77.6806 34.4355 79.0093 35.5361C79.8835 38.215 77.9345 38.3598 78.0494 39.2245C78.1632 40.0787 79.5585 41.2309 79.4382 42.0733C79.4132 42.2505 79.339 42.2793 79.2069 42.3869C78.5671 42.4878 77.8427 41.4182 77.5719 40.9215C77.4241 40.4663 77.1116 39.7957 76.9138 39.3388C74.8327 38.1656 75.5891 40.3762 75.4769 41.6922C75.1059 42.0405 74.7701 42.4942 74.2532 42.1197C73.8795 41.0897 74.288 37.7744 74.1323 36.5244C74.0792 36.0971 74.1181 34.8811 74.4066 34.554C74.6938 34.4123 75.1037 34.4241 75.433 34.4086ZM77.6368 37.5084C79.0296 36.2825 77.5738 35.7598 76.4088 35.7646C76.1267 35.768 75.8446 35.7758 75.5627 35.7878C74.5108 37.2765 76.2132 38.5083 77.6368 37.5084Z" fill="white"/>
<path d="M18.4054 29.7568L18.4891 29.88C18.2595 30.3587 17.3412 31.1989 16.919 31.6145C13.5411 34.9392 10.3088 38.3996 6.85939 41.6525C6.75174 41.7541 6.54805 41.8228 6.40848 41.8701C6.14604 41.4055 6.27564 38.5706 6.45468 37.9686C6.66506 37.7486 7.08715 37.35 7.33569 37.1821C9.23076 35.9026 11.1127 34.6439 13.0446 33.4229C13.8822 32.8 14.7697 32.257 15.6264 31.6642C16.5579 31.0196 17.3457 30.1972 18.4054 29.7568Z" fill="white"/>
<path d="M54.8584 41.6025C54.5294 41.9012 54.0598 42.467 53.6213 42.0956C53.4147 41.1422 53.4376 35.8817 53.6071 34.5683C53.6227 34.447 53.8205 34.3723 53.9378 34.323C55.142 34.4207 56.7742 38.0449 57.5413 39.0041C57.661 39.1524 57.8216 39.2621 58.0033 39.3197C58.5465 39.152 58.1892 37.906 57.947 37.642C58.0539 36.8153 58.0985 36.1915 58.0917 35.3614C58.1116 34.8889 58.0844 34.4476 58.6688 34.4432C59.2234 34.7063 59.2369 34.9242 59.4711 35.4925C59.0357 37.4828 59.3288 39.3265 59.2895 41.3228C59.2837 41.6163 59.1478 42.1189 58.9334 42.3371C57.4713 42.5637 55.7502 37.3606 54.6153 37.3751C54.3924 37.6642 54.8922 40.8437 54.8584 41.6025Z" fill="white"/>
<path d="M96.4556 34.4094C97.9399 34.2072 98.9001 35.5758 99.4493 36.7442C99.2071 37.5297 98.8915 38.0944 98.4126 38.7519C97.2735 39.1728 95.6173 39.2243 95.1587 39.4238C95.0321 39.6808 95.0462 40.1466 95.0345 40.4494C95.0368 41.0983 95.2165 41.993 94.5563 42.3019C94.3852 42.2712 94.3454 42.2752 94.2306 42.1338C93.6556 41.4272 93.9946 35.7783 94.1212 34.5408C94.8243 34.4626 95.7149 34.459 96.4556 34.4094ZM97.1501 37.942C97.7009 37.6037 97.9001 37.2351 98.2313 36.6972C97.5063 35.9582 97.2181 35.6686 96.1071 35.6503C95.8993 35.673 95.5391 35.6955 95.4352 35.8899C94.6579 37.343 95.5774 38.5058 97.1501 37.942Z" fill="white"/>
<path d="M48.3914 34.4107C49.1353 34.3978 51.444 34.1906 51.9187 34.5623C52.0474 34.6624 52.1284 34.8115 52.1423 34.9739C52.2526 36.1335 49.3509 35.7101 48.5519 35.6914C47.8726 38.9433 50.1926 37.2475 51.4615 37.7769C51.5584 37.8881 51.5936 37.8858 51.614 38.036C51.75 39.0354 50.5196 38.886 49.8823 38.856C48.5623 38.7937 48.0922 39.0385 48.4081 40.4063C48.4268 40.5123 48.5095 40.978 48.58 41.0445C49.2162 41.6444 51.8037 40.6906 52.1633 41.5648C52.039 42.5675 50.5883 42.2192 49.8147 42.2426C49.1995 42.2611 47.3558 42.3758 46.9767 41.9743C46.8767 41.2804 46.997 39.1094 46.9794 38.2849C46.9573 37.2574 46.8447 35.5022 46.9644 34.5584C47.3865 34.4941 47.9555 34.4536 48.3914 34.4107Z" fill="white"/>
<path d="M69.5236 34.4755L69.6062 34.4687C70.7095 34.3809 71.2643 34.8078 72.0896 35.4727C72.2984 35.6409 72.677 36.3107 72.4485 36.5717C71.2252 36.771 68.2294 33.2131 68.6417 39.0459C68.7836 41.0527 69.3459 41.7598 71.3219 40.6377C71.9816 38.5784 70.8537 39.4206 70.2644 38.9661C70.1618 38.7065 70.215 38.7162 70.2855 38.3906C72.0024 37.0139 73.2434 38.2487 72.7969 40.2077C72.1929 42.8575 68.0078 42.913 67.4007 40.3061C67.1562 39.2565 67.3256 38.0311 67.3137 36.9593C67.2903 35.642 68.515 35.0745 69.5236 34.4755Z" fill="white"/>
<path d="M87.3704 34.4133C89.1407 34.7415 88.2798 37.9568 88.3274 39.1575C88.3431 39.545 88.536 40.248 88.6298 40.6421C90.7665 42.208 91.8063 40.026 91.4282 38.1749C91.3462 37.5441 91.479 36.5458 91.3962 35.959C91.1641 34.3159 92.5321 33.69 92.7915 35.5633C92.8016 36.9277 92.8595 38.9634 92.7329 40.2915C92.6345 40.4325 92.3587 40.7844 92.2962 40.9077C91.1641 43.1485 87.0391 42.3597 87.1579 39.7433C87.2235 38.2875 86.8884 35.7241 87.3704 34.4133Z" fill="white"/>
<path d="M61.7398 34.4094C62.6105 34.3858 65.4025 34.2157 65.9057 34.6876C66.2388 35.634 64.6957 35.6087 63.9993 35.7926L64.013 41.7722C63.9147 42.1206 63.9847 42.0433 63.746 42.2823C63.5522 42.3376 62.7511 42.1584 62.685 41.9518C62.4361 41.1727 62.8068 36.2762 62.499 35.8387C62.158 35.6694 61.0523 35.6294 60.6277 35.5965C60.5959 35.1759 60.5555 34.9494 60.4736 34.5394C60.8657 34.4737 61.3382 34.4446 61.7398 34.4094Z" fill="white"/>
<path d="M24.5633 34.3978L28.9378 34.3877C28.9113 34.8134 28.9134 35.2729 28.9072 35.7018C28.1674 35.7172 27.4276 35.7368 26.6879 35.7607C26.7064 37.4655 26.7145 39.1704 26.7122 40.8754C26.7304 41.3757 26.8181 41.7721 26.5335 42.1536C26.2878 42.2812 26.0405 42.2426 25.7611 42.2312C25.1113 41.7621 25.6399 36.9755 25.4418 35.8367C24.951 35.406 24.1746 36.0161 23.7759 35.5693C23.7795 35.2111 24.2191 34.5669 24.5633 34.3978Z" fill="white"/>
<path d="M26.5967 45.6563C27.8572 45.6151 29.3382 46.5782 28.2102 47.7649C28.7925 48.8149 28.9901 49.6042 27.6283 50.0904C27.2223 50.1715 25.6665 50.4073 25.6006 49.8737C25.5152 49.1827 25.3843 46.4086 25.6094 45.8758C25.8599 45.7241 26.2931 45.6971 26.5967 45.6563ZM26.6197 49.5072C26.8819 49.5212 27.1956 49.5682 27.389 49.3596C27.7386 48.9826 27.8623 48.4094 27.4884 48.0144L27.2047 47.9973C26.9481 48.0321 26.3218 48.0788 26.151 48.2158C26.0219 48.52 26.1897 49.0145 26.2682 49.3608C26.4061 49.4787 26.4341 49.4726 26.6197 49.5072ZM26.698 47.5641C26.9872 47.5695 27.246 47.6082 27.4843 47.4535C27.8612 47.0136 27.6523 46.7008 27.3529 46.3122C27.248 46.2668 27.2245 46.2429 27.1136 46.2383C26.6254 46.5151 26.3548 46.6057 26.0365 47.0626C26.0161 47.3316 25.9842 47.2304 26.1568 47.4402C26.3985 47.5514 26.4419 47.5515 26.698 47.5641Z" fill="white"/>
<path d="M37.9322 34.4037L38.163 34.3999C38.3808 34.5966 38.4601 34.8937 38.4445 35.1722C38.3903 36.1374 38.6407 41.6344 38.3141 42.2058C38.0841 42.3195 37.9203 42.2565 37.6719 42.2014C37.3212 42.2069 37.3512 42.2589 37.0892 42.105C36.9621 41.6951 36.9963 35.3768 37.0217 34.5583L37.9322 34.4037Z" fill="white"/>
<path d="M44.6303 46.6561C44.721 46.3838 44.7864 46.1188 44.9652 45.8963C45.2327 45.8924 45.2165 46.1321 45.4544 46.283C45.5101 46.3183 45.6962 46.2024 45.8374 46.3286C45.493 46.6267 45.4665 46.5789 45.4651 47.0243L45.3746 47.644C45.2331 48.4882 45.4785 49.1429 45.3201 49.7986L45.3129 49.8617C44.8001 50.5341 43.3512 50.2728 42.9638 49.3203C42.7785 48.869 42.7839 48.3621 42.9787 47.9149C43.3137 47.1582 43.9331 46.9293 44.6303 46.6561ZM44.0848 49.4464L44.4156 49.5025C44.8894 49.1174 44.7692 48.0759 44.5586 47.5646C44.478 47.5215 44.4372 47.4915 44.3487 47.4689C44.0355 47.7705 43.7288 48.0789 43.4291 48.3939C43.6467 48.7589 43.8483 49.0917 44.0848 49.4464Z" fill="white"/>
<path d="M86.629 48.2979C86.5844 48.054 86.5446 47.905 86.4743 47.6677C86.2821 47.5188 86.3743 47.551 86.1251 47.5508C85.5868 48.1876 86.293 49.4098 85.5852 49.912C85.3157 49.9234 85.05 49.9694 84.8602 49.8178C84.6954 49.3869 84.7524 48.1995 84.8766 47.7456C85.1915 46.5957 86.6219 47.0832 87.4329 47.0601C88.3383 47.0342 88.5071 46.978 89.3469 47.2761C89.4188 47.828 89.4633 49.7538 89.0485 50.0908C88.6813 49.8313 88.7672 48.5377 88.5352 47.8876C88.0696 47.6387 87.8415 47.9163 87.2141 47.9908C87.0415 48.0823 86.8 48.2197 86.629 48.2979Z" fill="white"/>
<path d="M38.6924 47.0401C40.7403 46.6223 40.4945 47.4906 40.6059 49.1915C40.6745 50.2389 40.5431 51.382 39.244 51.521C38.991 51.548 38.6928 51.5506 38.4525 51.4557L38.3563 51.3275C38.527 50.7649 39.1769 51.1209 39.5727 50.7838C39.7262 50.2014 38.6496 49.7118 38.291 49.1772C38.4363 49.0253 38.6129 48.9871 38.8156 48.9152C39.0517 49.0631 39.5432 49.5075 39.7756 49.7068C39.848 49.1399 40.1709 47.7328 39.3255 47.6615C38.9727 47.7862 38.545 48.26 38.3496 48.5704C38.2505 48.7138 38.1489 48.8553 38.045 48.9952L37.9457 48.9974C37.8763 48.8253 37.8552 48.7582 37.8159 48.5771C37.6237 48.0235 38.3004 47.3464 38.6924 47.0401Z" fill="white"/>
<path d="M79.9181 46.8611C81.7368 46.8959 81.3485 51.2177 79.3157 49.9866L78.854 48.8458L78.3259 49.3833L78.2837 49.2924C78.3501 48.9306 78.4368 48.3736 78.5978 48.0584L78.6212 48.0143C78.8681 47.5358 79.454 47.115 79.9181 46.8611ZM79.8001 49.4237C80.0938 49.5119 79.9853 49.5255 80.2181 49.4023C80.4946 48.9492 80.5665 47.763 80.029 47.5536C79.7946 47.7639 79.2782 48.1755 79.1743 48.4333C79.229 48.7503 79.5579 48.8383 79.8001 49.4237Z" fill="white"/>
<path d="M34.4891 47.3115C37.7422 45.3973 37.4288 49.6644 36.7547 50.0675C36.6372 50.0008 36.5743 49.9708 36.5519 49.7965C36.419 48.7619 36.4659 48.3114 36.1715 47.2972C35.9742 47.5624 35.7869 47.8109 35.5781 48.0672C35.3634 48.199 35.2209 48.23 35.1719 48.4789C35.0814 48.938 35.0174 49.4436 34.9768 49.9089C34.8939 49.9896 34.8069 50.0411 34.7107 50.1048L34.565 50.0275C34.3242 49.5476 34.4634 47.9192 34.4891 47.3115Z" fill="white"/>
<path d="M52.3163 47.4019C53.1147 47.0862 53.7898 46.7372 54.5555 47.5474C54.7743 47.7789 55.0066 48.4132 54.6979 48.6469L54.4044 48.5876C54.1444 48.3511 53.7476 48.0429 53.3834 48.038C53.1569 48.1623 53.2372 48.0941 53.0859 48.3304C53.1856 48.6455 53.4146 48.6272 53.7165 48.6495C53.5783 48.9576 53.4595 48.7741 53.3083 49.2254C53.4014 49.4137 53.3478 49.3676 53.5098 49.4706C53.8047 49.5405 53.9601 49.5633 54.056 49.8441L53.9484 50.0064C53.7138 50.1455 53.5397 50.208 53.2601 50.17C52.9462 50.1275 52.6627 49.9605 52.4732 49.7068C52.0116 49.0819 52.2198 48.126 52.3163 47.4019Z" fill="white"/>
<path d="M90.7226 46.9392C92.9577 46.6279 92.8968 48.4154 92.714 49.9771C91.5624 50.1671 91.0897 50.3862 90.2022 49.5343C90.0694 49.3675 90.0507 49.3593 90.0366 49.156C90.2476 48.938 90.7804 49.0815 91.0702 49.1287C91.3733 49.1779 91.4413 49.6125 91.9015 49.4915C92.0038 49.2497 91.9562 48.9932 91.7866 48.8009C91.6429 48.8377 91.4999 48.8793 91.3585 48.9255L91.2608 48.8131C91.3335 48.563 91.4397 48.5373 91.6679 48.3314L91.6749 48.1827C91.3101 47.5039 90.8562 47.8941 90.7226 46.9392Z" fill="white"/>
<path d="M75.0762 49.9259C75.0571 49.3374 74.9895 47.9963 75.1743 47.4715C75.5249 46.6045 77.4227 46.701 77.6191 47.605C77.6664 47.8229 77.663 49.7782 77.6045 49.8971C77.3925 50.056 77.4786 50.0408 77.263 50.0185C76.9909 49.5676 77.4812 47.6749 76.6055 47.559C76.3307 47.6582 76.2513 47.8305 76.0874 48.0756C75.2757 48.5851 75.7986 49.2017 75.4042 49.901C75.209 49.9837 75.295 49.974 75.0762 49.9259Z" fill="white"/>
<path d="M62.7807 46.8997C63.5724 46.8552 63.7398 47.0706 64.2447 47.6348C64.3038 48.1216 64.6031 49.8189 64.0546 50.0479C63.6846 49.6674 63.7982 48.7735 63.8504 48.2817C63.5696 48.0786 63.4338 47.961 63.1819 47.7215L63.0092 47.5614C62.194 47.5505 62.6317 49.772 62.1881 50.1263C61.7414 49.8807 61.8614 47.5885 62.0432 47.1127C62.2299 46.9489 62.5203 46.9393 62.7807 46.8997Z" fill="white"/>
<path d="M70.3896 47.7127C70.8871 47.4463 71.8786 46.5879 72.5039 47.1127L72.4936 47.24C72.1282 47.5114 71.7112 47.5065 71.5169 47.7519C71.608 47.9248 73.1969 48.6455 72.8069 49.5486C72.4861 50.2916 71.2467 50.3265 70.6383 49.9736L70.6565 49.6889C71.4186 49.4655 72.0107 49.6399 71.9165 48.5912L71.7939 48.4367C71.5211 48.3113 71.4818 48.2934 71.1803 48.2791L70.6231 47.9493L70.4304 47.8649L70.3896 47.7127Z" fill="white"/>
<path d="M83.4599 46.9014C83.6506 46.9175 83.8302 46.9834 83.9123 47.1532C83.792 47.3648 83.2763 47.7658 82.9388 48.267C82.9927 48.7454 83.1068 49.2473 82.9287 49.6794C82.7185 49.8722 82.7904 49.8161 82.4435 49.8268C82.2021 49.7876 82.2271 49.9839 81.9373 49.8625C81.656 49.2649 81.8795 47.8683 82.299 47.3683C82.642 46.9595 82.9716 46.9548 83.4599 46.9014Z" fill="white"/>
<path d="M50.2885 46.333C50.5627 46.0656 51.0684 45.4279 51.4377 45.6557L51.4756 45.933L51.4664 45.9969C51.4006 46.4757 51.4384 47.5701 51.3562 47.8981C51.0948 47.813 51.2527 47.5964 50.988 47.6263L50.8695 47.8861C50.7162 48.473 50.7837 49.0104 50.7509 49.6058C50.712 49.8093 50.6906 49.9819 50.6052 50.1712L50.4572 50.0927C50.2028 49.6912 50.2032 46.9152 50.2885 46.333Z" fill="white"/>
<path d="M48.2993 46.2744C48.5347 46.0649 48.9624 45.6267 49.2341 45.5984C49.4892 45.8917 49.469 47.0848 49.4437 47.4742C49.4265 47.7141 49.4022 47.9535 49.371 48.1921C49.1632 48.1449 49.1694 47.7442 49.1387 47.5512C49.0711 47.3207 49.0975 46.8599 48.9908 46.7863C48.4524 47.5659 48.9529 49.6556 48.4865 50.0953C48.0957 49.7478 48.2067 46.8755 48.2993 46.2744Z" fill="white"/>
<path d="M65.4815 46.0605C65.6601 46.1252 66.3053 46.9123 66.5489 47.1525C66.1343 47.6796 66.0841 47.8208 65.889 48.4429C66.0702 49.0593 66.2449 49.3714 66.5447 49.9457L66.4769 50.0798C65.0777 50.6583 65.3342 46.7441 65.4815 46.0605Z" fill="white"/>
<path d="M30.0629 47.1279C30.4219 47.4568 30.0357 48.0594 30.1762 48.637L30.2649 48.6975L30.3203 48.6861C30.9013 49.6873 31.3043 49.3718 31.4935 50.0082C30.902 50.3786 30.4439 50.2085 29.8354 49.9923C29.5106 49.1032 29.5234 48.6032 29.4614 47.6771C29.681 47.4196 29.7928 47.3369 30.0629 47.1279Z" fill="white"/>
<path d="M58.7023 47.2825C59.435 47.7617 58.771 48.1913 59.1061 48.6512C59.1472 48.9329 59.1481 49.1986 59.346 49.3916C59.5364 49.4713 59.5979 49.5035 59.8048 49.5379C60.0239 49.6308 60.1625 49.6935 60.2052 49.9277C59.8732 50.2934 59.0852 50.0708 58.6831 49.948C58.3761 49.3883 58.286 49.1706 58.0825 48.5647C58.2362 48.0244 58.3645 47.7284 58.7023 47.2825Z" fill="white"/>
<path d="M56.566 46.9776C56.8617 46.9276 57.2062 46.8552 57.4559 47.0307L57.4674 47.1904C57.2218 47.5566 56.6851 47.9395 56.3151 48.2648C56.3349 48.8753 56.3407 49.2208 56.279 49.825C56.2159 50.026 56.2612 49.955 56.108 50.0967C55.6281 49.8821 55.6195 47.7968 55.7972 47.3459C55.9664 47.1518 56.3118 47.0657 56.566 46.9776Z" fill="white"/>
<path d="M93.678 45.7292C94.378 46.1323 93.9562 47.9257 94.1085 48.646C94.2523 49.3225 94.9382 49.7102 94.5765 50.2936C93.2265 49.7604 93.5991 48.0524 93.532 46.8828C93.5101 46.5125 93.539 46.0735 93.678 45.7292Z" fill="white"/>
<path d="M68.8919 45.6382C69.1201 45.6826 69.1508 45.6885 69.3213 45.8444C69.4629 46.4394 69.481 49.6308 69.1688 50.2703C69.157 50.2614 69.1446 50.2531 69.1334 50.2436C69.1152 50.2282 69.0983 50.2114 69.0804 50.1958C69.0693 50.1861 69.0573 50.1776 69.0463 50.1677C68.6559 49.8161 68.9582 46.4086 68.8919 45.6382Z" fill="white"/>
<path d="M33.2141 45.5869C33.2676 45.6201 33.3851 45.6842 33.3863 45.7582C33.4064 46.9404 33.7933 49.2998 33.352 50.3307C32.8172 49.8593 33.0577 46.2956 33.2141 45.5869Z" fill="white"/>
<path d="M47.015 45.5842L47.1452 45.7132C47.1831 46.5211 47.3731 49.6288 47.0749 50.1953C46.2857 49.3932 46.9631 47.162 46.9009 46.0869C46.8899 45.8991 46.9152 45.7472 47.015 45.5842Z" fill="white"/>
<path d="M45.4653 47.0244C45.4756 47.2235 45.466 47.6386 45.574 47.7766C46.0008 47.4568 45.9042 47.4414 46.419 47.6447C46.4305 48.1364 46.5203 49.5202 46.3037 49.88C45.9239 49.971 45.8354 49.7501 45.313 49.8618L45.3203 49.7988L45.5233 49.4832C45.914 49.3764 45.7121 49.5454 46.103 49.5561C46.1235 49.0368 45.8799 48.6307 45.9972 48.0889L45.8861 48.0399C45.7713 48.1807 45.7174 48.2768 45.5481 48.34C45.3897 48.1247 45.4139 47.9412 45.3747 47.6442L45.4653 47.0244Z" fill="white"/>
<path d="M59.106 48.6513C59.1206 48.3011 59.0769 48.0473 59.3822 47.8418C59.6589 47.8631 59.9303 48.1066 60.2112 48.2692C60.3903 48.4477 60.4494 48.528 60.6972 48.6065C60.9745 48.5605 60.8827 48.6119 61.0631 48.4317L61.0506 48.5989C60.5899 48.8252 59.9028 48.679 59.6693 49.3143L59.8046 49.538C59.5978 49.5035 59.5362 49.4713 59.3459 49.3916C59.1479 49.1987 59.1471 48.9329 59.106 48.6513Z" fill="white"/>
<path d="M30.3199 48.6862C30.2791 48.3914 30.2184 48.1045 30.446 47.87C30.9677 47.8094 31.1946 48.3096 31.742 48.6257L31.8027 48.6603L32.1655 48.7535C31.7447 48.7489 31.2928 48.671 30.9659 49.0486C31.0502 49.3461 31.2579 49.4814 31.5145 49.6741C31.5561 49.8891 31.562 49.8014 31.4932 50.0084C31.304 49.3719 30.901 49.6874 30.3199 48.6862Z" fill="white"/>
<path d="M30.0625 47.1281C30.3311 46.9581 30.4298 46.9188 30.728 46.8035L31.2911 47.1782L31.0376 47.3567C31.0291 47.6538 31.5914 48.3081 31.8027 48.6603L31.7419 48.6257C31.1945 48.3096 30.9677 47.8094 30.4459 47.87C30.2184 48.1045 30.2791 48.3914 30.3198 48.6862L30.2645 48.6976L30.1758 48.6371C30.0353 48.0596 30.4215 47.457 30.0625 47.1281Z" fill="white"/>
<path d="M51.4754 45.9329C51.515 46.4062 51.5497 49.58 51.4232 49.9005C50.8533 50.0781 51.0524 49.8152 50.605 50.1711C50.6903 49.9818 50.7118 49.8092 50.7506 49.6057L50.9083 49.7192C51.3025 49.4079 51.3765 48.0701 50.8692 47.886L50.9877 47.6262C51.2524 47.5963 51.0945 47.8129 51.3559 47.898C51.4381 47.57 51.4003 46.4756 51.4662 45.9968L51.4754 45.9329Z" fill="white"/>
<path d="M58.7021 47.2825C59.239 46.9649 59.5386 46.7344 60.1103 47.1025C59.8753 47.3469 59.9154 47.2376 59.8786 47.5494C59.931 47.68 60.2039 48.2427 60.2112 48.2692C59.9303 48.1066 59.6589 47.8631 59.3822 47.8418C59.0769 48.0473 59.1206 48.3011 59.106 48.6512C58.7708 48.1913 59.4349 47.7617 58.7021 47.2825Z" fill="white"/>
<path d="M57.9474 37.642C57.918 37.6118 57.7753 37.4731 57.7695 37.4458C57.6722 36.9823 57.4578 35.6671 57.5243 35.2961C57.7329 35.3423 57.8821 35.3479 58.0921 35.3614C58.0989 36.1915 58.0543 36.8154 57.9474 37.642Z" fill="white"/>
<path d="M60.1105 47.1025C60.6612 47.5149 60.8141 47.7865 61.0634 48.4317C60.883 48.6118 60.9748 48.5604 60.6975 48.6064C60.4497 48.528 60.3905 48.4477 60.2115 48.2692C60.2041 48.2427 59.9313 47.68 59.8789 47.5494C59.9156 47.2376 59.8755 47.3469 60.1105 47.1025Z" fill="white"/>
<path d="M86.6288 48.2979C86.7999 48.2197 87.0413 48.0823 87.214 47.9907C87.2124 48.6135 87.2742 49.3185 86.9539 49.8563L86.8421 49.865C86.571 49.4232 86.6296 48.8218 86.6288 48.2979Z" fill="white"/>
<path d="M45.3748 47.644C45.414 47.9411 45.3898 48.1245 45.5481 48.3399C45.7174 48.2766 45.7713 48.1805 45.8862 48.0397L45.9973 48.0887C45.8799 48.6306 46.1235 49.0367 46.1031 49.556C45.7121 49.5452 45.9141 49.3763 45.5234 49.483L45.3203 49.7987C45.4787 49.1429 45.2333 48.4882 45.3748 47.644Z" fill="white"/>
<path d="M31.2912 47.1782C31.515 47.3415 31.7886 47.5526 32.0198 47.6927C32.1197 48.0893 32.2061 48.3411 32.1656 48.7535L31.8028 48.6603C31.5915 48.3081 31.0293 47.6538 31.0377 47.3567L31.2912 47.1782Z" fill="white"/>
<path d="M75.0762 49.926C75.295 49.9741 75.2091 49.9838 75.4042 49.9011C75.7986 49.2018 75.2757 48.5852 76.0874 48.0757C75.9292 48.2613 75.79 48.3844 75.7807 48.6295L75.8744 48.8333L75.9028 48.6794L75.9181 48.7456C76.0082 49.1279 76.2601 49.536 76.1902 49.7853C75.941 50.0315 75.707 49.8701 75.2717 50.1069C75.1205 50.0187 75.1485 50.063 75.0762 49.926Z" fill="white"/>
<path d="M99.8242 32.4365C99.943 32.4675 99.986 32.5078 100.085 32.5768C100.288 33.0263 100.097 34.2317 100.035 34.7723C99.5781 34.6496 99.7469 32.846 99.8242 32.4365Z" fill="white"/>
<path d="M53.5099 49.4707C53.3479 49.3678 53.4015 49.4138 53.3084 49.2255C53.4596 48.7743 53.5784 48.9577 53.7166 48.6496C53.4147 48.6273 53.1857 48.6457 53.0859 48.3305C53.2373 48.0942 53.157 48.1624 53.3835 48.0381C53.7477 48.043 54.1445 48.3512 54.4045 48.5878C54.0534 48.7516 53.7723 48.7908 53.5384 49.0689C53.5175 49.2295 53.5044 49.3096 53.5099 49.4707Z" fill="white"/>
<path d="M34.9766 49.9091C35.0171 49.4438 35.0812 48.9382 35.1716 48.4791C35.2206 48.2302 35.3631 48.1992 35.5778 48.0674C35.6038 48.3514 35.5908 48.8743 35.6475 49.0819L35.4593 48.9301L35.3195 48.9827C35.2144 49.32 35.2744 49.545 35.4019 49.8695C35.5001 49.9055 35.5381 49.9284 35.6423 49.9386L35.4666 50.024C35.3067 49.9393 35.2516 49.905 35.0792 49.8554L34.9766 49.9091Z" fill="white"/>
<path d="M69.7496 49.7064C69.7205 49.1239 69.5917 48.1921 69.8967 47.7331C70.1463 47.636 70.0958 47.6702 70.3895 47.7126L70.4302 47.8647L70.6229 47.9492C70.2476 48.0349 70.3374 47.9646 70.0691 48.2054C69.8798 48.5937 70.0261 48.9413 69.9117 49.2801C69.8228 49.4594 69.7864 49.5124 69.7496 49.7064Z" fill="white"/>
<path d="M94.6087 46.2632C95.1056 46.4788 94.9103 47.5033 94.7415 47.898L94.5407 47.8409C94.2673 47.4928 94.4876 46.6498 94.6087 46.2632Z" fill="white"/>
<path d="M37.8162 48.5772C37.8555 48.7584 37.8766 48.8255 37.946 48.9975L38.0453 48.9953C38.1492 48.8555 38.2508 48.7139 38.3499 48.5706C38.4755 48.8598 38.4695 48.8811 38.816 48.9153C38.6132 48.9872 38.4366 49.0255 38.2914 49.1774L38.2283 49.1324C37.8996 49.1679 38.0635 49.4451 37.5149 49.6817C37.4922 49.6257 37.7987 48.8834 37.8162 48.5772Z" fill="white"/>
<path d="M49.1387 47.551C49.1694 47.744 49.1631 48.1447 49.3709 48.1919C49.3695 48.5618 49.3657 48.9317 49.3595 49.3015L49.3552 49.2441L49.2371 49.5344C49.2603 49.6128 49.2397 49.5834 49.2891 49.6289C49.0677 49.3656 49.1255 47.9537 49.1387 47.551Z" fill="white"/>
<path d="M71.1803 48.2791C71.4817 48.2933 71.521 48.3112 71.7939 48.4366L71.9164 48.5912C71.4121 48.4626 71.3089 48.8359 70.9482 48.7796C70.9551 48.5182 71.0048 48.5349 71.1803 48.2791Z" fill="white"/>
<path d="M35.6424 49.9384C35.5381 49.9282 35.5001 49.9053 35.4019 49.8693C35.2744 49.5449 35.2144 49.3198 35.3195 48.9825L35.4593 48.9299L35.6475 49.0817L35.6424 49.9384Z" fill="white"/>
<path d="M69.75 49.7066C69.7867 49.5126 69.8231 49.4596 69.9121 49.2803C70.101 49.5716 70.0363 49.5611 70.3095 49.7059L70.6567 49.6889L70.6385 49.9737C70.2839 49.8629 70.1823 49.9947 69.75 49.7066Z" fill="white"/>
<path d="M0 37.7799C2.71209 36.2168 5.42312 34.6074 7.99625 32.8312C8.93984 32.18 9.93531 31.8872 10.9627 31.115C10.2506 32.4426 8.47602 33.7883 7.4292 34.8379C5.45738 36.8151 2.28235 40.6302 0 41.9729V37.7799Z" fill="white"/>
<path d="M101.606 33.8296C101.795 33.6494 102.239 33.5 102.509 33.5079L102.708 33.5388C102.996 33.88 103.107 34.1325 103.485 34.1895L103.522 34.2954C103.201 34.552 101.88 34.5482 101.477 34.4633C101.405 34.265 101.523 34.0761 101.606 33.8296Z" fill="white"/>
<path d="M101.606 33.8297C101.171 33.7205 100.937 33.4002 100.996 32.9592L100.93 33.1068L100.942 33.0012C101.291 32.8213 102.031 33.3821 102.51 33.4677L102.509 33.508C102.239 33.5002 101.795 33.6495 101.606 33.8297Z" fill="white"/>
<path d="M102.708 33.5389C103.16 33.4532 103.36 33.3479 103.75 33.646V33.7104C103.525 33.8683 103.404 33.879 103.485 34.1896C103.107 34.1325 102.996 33.88 102.708 33.5389Z" fill="white"/>
<path d="M103.75 33.0251V33.6459C103.36 33.3477 103.16 33.453 102.708 33.5387L102.509 33.5078L102.51 33.4676C103.097 33.1858 103.074 33.1444 103.75 33.0251Z" fill="white"/>
</g>
</g>
<defs>
<clipPath id="clip0_1936_3323">
<rect width="104" height="80" fill="white"/>
</clipPath>
<clipPath id="clip1_1936_3323">
<rect width="103.75" height="80" fill="white"/>
</clipPath>
</defs>
</svg>
