<svg preserveAspectRatio="none" width="100%" height="100%" overflow="visible" style="display: block;" viewBox="0 0 16.0397 16.0397" fill="none" xmlns="http://www.w3.org/2000/svg">
<g id="icons8-microsoft-excel-2019 1">
<path id="Vector" d="M14.706 5.01221H9.35938V8.01966H14.706V5.01221Z" fill="var(--fill-0, #21A366)"/>
<path id="Vector_2" d="M14.701 8.02051H4.00781V13.3671C4.00781 13.7363 4.30689 14.0354 4.67614 14.0354H14.0327C14.4019 14.0354 14.701 13.7363 14.701 13.3671V8.02051Z" fill="var(--fill-0, #185C37)"/>
<path id="Vector_3" d="M14.706 8.02051H9.35938V11.028H14.706V8.02051Z" fill="var(--fill-0, #107C42)"/>
<path id="Vector_4" d="M9.3544 5.01221H4.00781V8.01966H9.3544V5.01221Z" fill="var(--fill-0, #3FA071)"/>
<path id="Vector_5" d="M14.0376 2.00488H9.35938V5.01234H14.706V2.67321C14.706 2.30396 14.4069 2.00488 14.0376 2.00488Z" fill="var(--fill-0, #33C481)"/>
<path id="Vector_6" d="M4.67614 2.00488H9.3544V5.01234H4.00781V2.67321C4.00781 2.30396 4.30689 2.00488 4.67614 2.00488Z" fill="var(--fill-0, #21A366)"/>
<path id="Vector_7" opacity="0.05" d="M7.45602 4.34424H4.00781V12.3641H7.45602C8.13537 12.3641 8.68607 11.8134 8.68607 11.1341V5.57429C8.68607 4.89494 8.13537 4.34424 7.45602 4.34424Z" fill="var(--fill-0, black)"/>
<path id="Vector_8" opacity="0.07" d="M7.4206 12.0305H4.00781V4.45605H7.4206C7.9967 4.45605 8.46352 4.92288 8.46352 5.49897V10.9876C8.46319 11.5637 7.99636 12.0305 7.4206 12.0305Z" fill="var(--fill-0, black)"/>
<path id="Vector_9" opacity="0.09" d="M7.38485 11.696H4.00781V4.56738H7.38485C7.85735 4.56738 8.2403 4.95033 8.2403 5.42284V10.8406C8.24064 11.3131 7.85735 11.696 7.38485 11.696Z" fill="var(--fill-0, black)"/>
<path id="Vector_10" d="M7.35084 11.3615H2.00426C1.63501 11.3615 1.33594 11.0624 1.33594 10.6931V5.34655C1.33594 4.9773 1.63501 4.67822 2.00426 4.67822H7.35084C7.72009 4.67822 8.01916 4.9773 8.01916 5.34655V10.6931C8.01916 11.0624 7.72009 11.3615 7.35084 11.3615Z" fill="url(#paint0_linear_0_4190)"/>
<path id="Vector_11" d="M3.27749 6.34961H4.0748L4.72174 7.60405L5.40543 6.34961H6.15028L5.12407 8.02042L6.17367 9.69122H5.38806L4.68298 8.37797L3.9809 9.69122H3.18359L4.25057 8.0144L3.27749 6.34961Z" fill="var(--fill-0, #F8FAFC)"/>
</g>
<defs>
<linearGradient id="paint0_linear_0_4190" x1="1.5782" y1="4.92049" x2="7.70338" y2="11.0457" gradientUnits="userSpaceOnUse">
<stop stop-color="#18884F"/>
<stop offset="1" stop-color="#0B6731"/>
</linearGradient>
</defs>
</svg>
