<svg preserveAspectRatio="none" width="100%" height="100%" overflow="visible" style="display: block;" viewBox="0 0 14.3472 10.1442" fill="none" xmlns="http://www.w3.org/2000/svg">
<g id="Group">
<path id="Vector" fill-rule="evenodd" clip-rule="evenodd" d="M5.97048 1.10645C6.43305 0.619692 7.07749 0.317431 7.78986 0.317431C8.73682 0.317431 9.56326 0.850945 10.0032 1.64297C10.3969 1.46535 10.8233 1.37379 11.2544 1.37431C12.9626 1.37431 14.3472 2.78529 14.3472 4.52611C14.3472 6.26692 12.9626 7.6779 11.2544 7.6779C11.0456 7.6779 10.8419 7.65681 10.645 7.61671C10.2576 8.31459 9.51886 8.78629 8.67138 8.78629C8.31661 8.78629 7.98098 8.70387 7.68238 8.55631C7.28947 9.48988 6.37421 10.1442 5.30769 10.1442C4.19708 10.1442 3.25028 9.43409 2.88703 8.43854C2.72518 8.47304 2.56022 8.49041 2.3948 8.49037C1.0722 8.49053 3.33224e-05 7.39624 3.33224e-05 6.04629C-0.00095891 5.61847 0.109076 5.19787 0.319169 4.82641C0.529262 4.45494 0.832073 4.14559 1.19742 3.92919C1.04585 3.57641 0.967865 3.19586 0.968329 2.81128C0.968329 1.25861 2.21592 0.000112113 3.7549 0.000112113C4.18363 -0.000393153 4.60666 0.0991976 4.99099 0.29111C5.37532 0.483022 5.71054 0.762063 5.97048 1.10645Z" fill="var(--fill-0, #00A1E0)"/>
<path id="Vector_2" fill-rule="evenodd" clip-rule="evenodd" d="M2.07757 5.26078L2.13562 5.098C2.14488 5.0701 2.16575 5.07929 2.17422 5.08452C2.19039 5.09419 2.202 5.10291 2.22287 5.11527C2.3939 5.22448 2.55238 5.22559 2.60181 5.22559C2.72984 5.22559 2.80924 5.15712 2.80924 5.06471V5.05996C2.80924 4.95947 2.68685 4.92143 2.54548 4.87768L2.51409 4.86754C2.31999 4.81174 2.1124 4.73107 2.1124 4.48285V4.47778C2.1124 4.24225 2.30054 4.07788 2.5698 4.07788L2.5993 4.07757C2.75746 4.07757 2.91029 4.12401 3.02107 4.19185C3.03111 4.19819 3.04084 4.20992 3.03519 4.22545L2.97557 4.38823C2.96505 4.41597 2.93634 4.39758 2.93634 4.39758C2.82076 4.33674 2.69287 4.30361 2.56258 4.30074C2.44835 4.30074 2.37491 4.36192 2.37491 4.44497V4.4502C2.37491 4.54705 2.50076 4.58842 2.64668 4.63644L2.67179 4.64437C2.86526 4.70618 3.07175 4.79177 3.07175 5.02715V5.03206C3.07175 5.28645 2.8888 5.44448 2.59459 5.44448C2.45007 5.44448 2.31184 5.42197 2.16559 5.34351C2.13798 5.32735 2.11068 5.3134 2.08369 5.29359C2.08086 5.28946 2.06847 5.28455 2.07741 5.26078H2.07757ZM6.38586 5.26078L6.44408 5.098C6.45255 5.07137 6.47718 5.08119 6.48252 5.08452C6.49852 5.09451 6.51045 5.10291 6.53116 5.11527C6.70251 5.22448 6.86067 5.22559 6.91057 5.22559C7.03814 5.22559 7.11769 5.15712 7.11769 5.06471V5.05996C7.11769 4.95947 6.99546 4.92143 6.85408 4.87768L6.8227 4.86754C6.62829 4.81174 6.4207 4.73107 6.4207 4.48285V4.47778C6.4207 4.24225 6.60899 4.07788 6.87825 4.07788L6.90759 4.07757C7.06576 4.07757 7.21874 4.12401 7.32968 4.19185C7.33941 4.19819 7.34929 4.20992 7.3438 4.22545C7.33831 4.23987 7.28935 4.37301 7.28417 4.38823C7.27335 4.41597 7.24495 4.39758 7.24495 4.39758C7.12932 4.33672 7.00138 4.30358 6.87103 4.30074C6.7568 4.30074 6.68336 4.36192 6.68336 4.44497V4.4502C6.68336 4.54705 6.80905 4.58842 6.95513 4.63644L6.98024 4.64437C7.17371 4.70618 7.38005 4.79177 7.38005 5.02715V5.03206C7.38005 5.28645 7.19725 5.44448 6.90304 5.44448C6.75837 5.44448 6.62013 5.42197 6.47405 5.34351C6.44643 5.32735 6.41913 5.3134 6.39198 5.29359C6.38916 5.28946 6.37676 5.28455 6.38586 5.26078ZM9.57272 4.49538C9.59688 4.57716 9.60881 4.66703 9.60881 4.76197C9.60881 4.85707 9.59688 4.94663 9.57272 5.02841C9.55062 5.10728 9.5127 5.18071 9.46131 5.24413C9.40982 5.30573 9.34525 5.35482 9.27239 5.38774C9.19707 5.42261 9.10857 5.44004 9.00909 5.44004C8.90961 5.44004 8.8208 5.42261 8.7458 5.38774C8.67294 5.35482 8.60837 5.30573 8.55688 5.24413C8.50554 5.18071 8.46757 5.10735 8.44531 5.02857C8.42064 4.94192 8.40849 4.85213 8.40922 4.76197C8.40922 4.66687 8.42131 4.57716 8.44531 4.49538C8.46948 4.41295 8.50698 4.34036 8.55672 4.27981C8.60833 4.21796 8.67292 4.16848 8.7458 4.13494C8.82096 4.09944 8.9093 4.08153 9.00909 4.08153C9.10889 4.08153 9.19723 4.09944 9.27239 4.13494C9.34739 4.17029 9.4111 4.21895 9.46131 4.27981C9.51121 4.34036 9.54887 4.41295 9.57272 4.49538ZM9.32731 4.76197C9.32731 4.61821 9.30095 4.5052 9.24854 4.42595C9.19676 4.34734 9.1183 4.3093 9.00909 4.3093C8.89988 4.3093 8.82206 4.34734 8.7709 4.42595C8.71959 4.5052 8.69339 4.61821 8.69339 4.76197C8.69339 4.90558 8.71959 5.01938 8.77122 5.09926C8.82206 5.17883 8.89988 5.21735 9.00909 5.21735C9.1183 5.21735 9.19676 5.17867 9.24854 5.09926C9.30063 5.01938 9.32731 4.90558 9.32731 4.76197ZM11.5903 5.17883L11.6505 5.34716C11.6584 5.36776 11.6406 5.3768 11.6406 5.3768C11.5476 5.41325 11.4185 5.43925 11.2928 5.43925C11.0797 5.43925 10.9165 5.37727 10.8076 5.25491C10.6993 5.13287 10.6441 4.96692 10.6441 4.76102C10.6441 4.66576 10.6578 4.57558 10.6844 4.49395C10.7111 4.41153 10.7511 4.33893 10.8038 4.27839C10.8586 4.21614 10.9261 4.1667 11.0017 4.13352C11.0802 4.09817 11.1724 4.08042 11.2754 4.08042C11.3449 4.08042 11.4067 4.0847 11.4597 4.09262C11.5164 4.1015 11.5918 4.12211 11.6237 4.13463C11.6295 4.13685 11.6457 4.14477 11.6391 4.16395C11.6158 4.23004 11.6 4.27316 11.5785 4.33339C11.5691 4.35906 11.5499 4.35051 11.5499 4.35051C11.4691 4.32483 11.3916 4.3131 11.2904 4.3131C11.1688 4.3131 11.0775 4.35399 11.0179 4.43404C10.9576 4.51471 10.9239 4.62043 10.9234 4.76102C10.9229 4.91524 10.9612 5.02952 11.029 5.10021C11.0966 5.17075 11.1911 5.20641 11.31 5.20641C11.3582 5.20641 11.4037 5.20324 11.4447 5.19674C11.4851 5.19024 11.5231 5.17756 11.5589 5.16346C11.5589 5.16346 11.582 5.15474 11.5903 5.17883ZM12.8471 4.44862C12.9006 4.63787 12.8727 4.80128 12.8718 4.81032C12.8697 4.83187 12.8478 4.83219 12.8478 4.83219L12.0163 4.83156C12.0215 4.95915 12.0517 5.04949 12.1129 5.11083C12.173 5.17091 12.2684 5.20942 12.3976 5.20958C12.595 5.21006 12.6792 5.16996 12.739 5.14761C12.739 5.14761 12.7618 5.13936 12.7704 5.16219L12.8245 5.31609C12.8355 5.34193 12.8267 5.35096 12.8175 5.35619C12.7654 5.3852 12.6391 5.43941 12.3987 5.44004C12.2821 5.44052 12.1806 5.42372 12.0969 5.39091C12.0175 5.36117 11.9459 5.31327 11.8878 5.25095C11.8322 5.1898 11.791 5.11684 11.7671 5.03745C11.7414 4.95046 11.7287 4.86005 11.7296 4.76926C11.7296 4.67416 11.7417 4.58382 11.766 4.50124C11.7903 4.41803 11.8281 4.34464 11.8785 4.28298C11.9307 4.22005 11.9962 4.16969 12.0701 4.13558C12.1464 4.09928 12.2408 4.08153 12.3447 4.08153C12.4337 4.08153 12.5149 4.10087 12.5826 4.13035C12.6347 4.15285 12.6871 4.19359 12.7407 4.25192C12.7746 4.28869 12.8263 4.36921 12.8471 4.44862ZM12.0202 4.62408H12.6133C12.6072 4.54705 12.5923 4.47794 12.5581 4.42595C12.506 4.34734 12.4341 4.30406 12.3251 4.30406C12.2159 4.30406 12.1384 4.34734 12.0871 4.42595C12.0535 4.47794 12.032 4.54419 12.0202 4.62408ZM6.18706 4.44862C6.24041 4.63787 6.21295 4.80128 6.212 4.81032C6.20981 4.83187 6.18784 4.83219 6.18784 4.83219L5.35621 4.83156C5.36155 4.95915 5.39168 5.04949 5.45303 5.11083C5.51313 5.17091 5.60837 5.20942 5.73751 5.20958C5.9349 5.21006 6.01948 5.16996 6.0791 5.14761C6.0791 5.14761 6.10185 5.13936 6.11033 5.16219L6.16462 5.31609C6.1756 5.34193 6.16681 5.35096 6.15771 5.35619C6.10531 5.3852 5.97884 5.43941 5.73876 5.44004C5.62202 5.44052 5.5205 5.42372 5.43702 5.39091C5.35753 5.36113 5.2859 5.31324 5.2277 5.25095C5.17232 5.18974 5.1312 5.11679 5.10735 5.03745C5.08143 4.95049 5.06868 4.86007 5.06954 4.76926C5.06954 4.67416 5.08178 4.58382 5.10594 4.50124C5.12855 4.42156 5.16687 4.34732 5.2186 4.28298C5.27079 4.22011 5.33619 4.16975 5.41003 4.13558C5.48661 4.09928 5.58107 4.08153 5.68463 4.08153C5.76648 4.08133 5.84752 4.09794 5.92282 4.13035C5.97491 4.15285 6.02732 4.19359 6.08083 4.25192C6.11472 4.28869 6.16634 4.36921 6.18706 4.44862ZM5.35998 4.62408H5.95342C5.94714 4.54705 5.93223 4.47794 5.89818 4.42595C5.8464 4.34734 5.77422 4.30406 5.66517 4.30406C5.55596 4.30406 5.47829 4.34734 5.42729 4.42595C5.3934 4.47794 5.37206 4.54419 5.35998 4.62408ZM3.89349 4.58398C3.89349 4.58398 3.95908 4.58984 4.03063 4.6003V4.5648C4.03063 4.45274 4.00757 4.39996 3.96222 4.36461C3.91578 4.32879 3.84642 4.31025 3.75667 4.31025C3.75667 4.31025 3.55425 4.30771 3.3942 4.39552C3.38683 4.39996 3.38071 4.40249 3.38071 4.40249C3.38071 4.40249 3.36063 4.40963 3.35341 4.38886L3.29457 4.22909C3.28547 4.20611 3.30194 4.19565 3.30194 4.19565C3.37679 4.13669 3.55818 4.10102 3.55818 4.10102C3.63181 4.08796 3.70639 4.08101 3.78115 4.08026C3.94716 4.08026 4.07567 4.11925 4.16307 4.19644C4.25062 4.27395 4.29519 4.39885 4.29519 4.56718L4.29566 5.33559C4.29566 5.33559 4.29738 5.35778 4.27651 5.36285C4.27651 5.36285 4.24592 5.37141 4.21846 5.37791C4.19068 5.38441 4.09057 5.40501 4.00882 5.41896C3.92534 5.43309 3.84084 5.4402 3.7562 5.4402C3.67539 5.4402 3.60133 5.43259 3.53605 5.41753C3.47522 5.40466 3.41762 5.37942 3.36674 5.34335C3.32038 5.30935 3.28317 5.26418 3.25848 5.21196C3.2329 5.15918 3.22003 5.09467 3.22003 5.02017C3.22003 4.9471 3.23525 4.88196 3.2646 4.82648C3.2941 4.77133 3.33458 4.72457 3.38542 4.68795C3.43794 4.6506 3.49666 4.62306 3.5588 4.60664C3.62361 4.58921 3.69249 4.58017 3.76373 4.58017C3.81598 4.58017 3.8596 4.58128 3.89349 4.58398ZM3.56257 5.17423C3.5621 5.17408 3.6371 5.23367 3.80641 5.22321C3.92535 5.21592 4.03079 5.1931 4.03079 5.1931V4.81111C4.03079 4.81111 3.92441 4.79352 3.805 4.79177C3.63569 4.78971 3.56351 4.85264 3.56398 4.85248C3.51408 4.8883 3.48976 4.9414 3.48976 5.01494C3.48976 5.06202 3.49808 5.09879 3.51487 5.12447C3.52538 5.14143 3.52993 5.14776 3.56257 5.17423ZM10.6008 4.15111C10.5929 4.17409 10.5526 4.28917 10.538 4.32736C10.5327 4.34195 10.5239 4.35193 10.5077 4.35019C10.5077 4.35019 10.46 4.33909 10.4164 4.33909C10.3865 4.33909 10.3436 4.3429 10.305 4.35494C10.2663 4.36696 10.2311 4.38834 10.2024 4.41723C10.172 4.44687 10.1473 4.48856 10.1294 4.54086C10.1112 4.59349 10.1018 4.67718 10.1018 4.76118V5.38694C10.1018 5.39029 10.1012 5.3936 10.1 5.3967C10.0987 5.39979 10.0969 5.40261 10.0945 5.40498C10.0922 5.40735 10.0894 5.40923 10.0864 5.41052C10.0833 5.4118 10.08 5.41246 10.0767 5.41246H9.85845C9.85511 5.4125 9.8518 5.41188 9.8487 5.41063C9.8456 5.40938 9.84277 5.40752 9.84038 5.40517C9.83799 5.40281 9.83609 5.4 9.83477 5.3969C9.83346 5.3938 9.83276 5.39047 9.83272 5.3871V4.13415C9.83272 4.12005 9.84292 4.10879 9.85688 4.10879H10.0698C10.0839 4.10879 10.094 4.12005 10.094 4.13415V4.23654C10.1258 4.19343 10.1829 4.15539 10.2346 4.13193C10.2863 4.10816 10.3442 4.09072 10.4489 4.09706C10.5034 4.10039 10.5741 4.11545 10.5884 4.121C10.5912 4.12213 10.5937 4.12381 10.5959 4.12594C10.598 4.12807 10.5997 4.13062 10.6009 4.13342C10.602 4.13623 10.6026 4.13924 10.6026 4.14227C10.6026 4.14531 10.602 4.14832 10.6008 4.15111ZM8.54997 3.57052C8.55578 3.5729 8.57163 3.58067 8.56535 3.59969L8.50149 3.7761C8.49615 3.78941 8.4927 3.79734 8.46555 3.7891C8.42965 3.77769 8.39225 3.77181 8.35462 3.77166C8.32167 3.77166 8.29185 3.77594 8.26549 3.78482C8.23912 3.79335 8.2152 3.80825 8.19583 3.82824C8.17004 3.85342 8.1501 3.88406 8.13745 3.91796C8.10686 4.00672 8.09509 4.10134 8.09352 4.10736H8.35933C8.38176 4.10736 8.38883 4.11783 8.38663 4.13447L8.35556 4.30914C8.35054 4.3345 8.32779 4.33355 8.32779 4.33355H8.05382L7.86663 5.40438C7.85053 5.50041 7.82606 5.59483 7.79351 5.68651C7.76416 5.76402 7.73388 5.8206 7.68524 5.87465C7.64372 5.92302 7.59093 5.96017 7.53162 5.98275C7.47404 6.00415 7.40405 6.01508 7.32764 6.01508C7.29124 6.01508 7.25201 6.01429 7.20572 6.00319C7.17993 5.99724 7.15451 5.98973 7.12962 5.98069C7.11942 5.97704 7.1111 5.96389 7.11707 5.94708C7.12271 5.93044 7.17198 5.79429 7.17857 5.77638C7.18705 5.75482 7.2087 5.76307 7.2087 5.76307C7.22345 5.76941 7.23381 5.77353 7.25342 5.77749C7.27335 5.78145 7.30002 5.78494 7.32026 5.78494C7.35651 5.78494 7.38946 5.7805 7.41818 5.77067C7.4527 5.75942 7.4731 5.73897 7.49412 5.71171C7.51609 5.68302 7.53398 5.64419 7.55233 5.59204C7.57069 5.53926 7.58748 5.46952 7.60192 5.38504L7.78833 4.3337H7.60474C7.58278 4.3337 7.57524 4.32324 7.57775 4.30644L7.60851 4.13177C7.61337 4.10641 7.63675 4.10736 7.63675 4.10736H7.8252L7.8354 4.05062C7.86365 3.88198 7.91966 3.75375 8.00251 3.66959C8.08583 3.58479 8.2043 3.54199 8.35462 3.54199C8.39761 3.54199 8.43558 3.54484 8.46775 3.55071C8.49929 3.55673 8.5233 3.56228 8.54997 3.57052ZM4.83496 5.38694C4.83496 5.40121 4.82523 5.41246 4.81111 5.41246H4.59065C4.57653 5.41246 4.56695 5.40105 4.56695 5.3871V3.59398C4.56695 3.58019 4.57668 3.56878 4.59049 3.56878H4.81111C4.82523 3.56878 4.83496 3.58019 4.83496 3.59414V5.38694Z" fill="var(--fill-0, #F8FAFC)"/>
</g>
</svg>
