<svg preserveAspectRatio="none" width="100%" height="100%" overflow="visible" style="display: block;" viewBox="0 0 14.4367 14.472" fill="none" xmlns="http://www.w3.org/2000/svg">
<g id="Group">
<path id="Path" d="M12.4054 11.0296L9.35062 9.26484C8.92146 9.01775 8.37266 9.1647 8.12427 9.59386C8.02803 9.76292 7.99032 9.94889 8.00853 10.1297V13.5785C8.00853 14.0714 8.40907 14.4719 8.90325 14.4719C9.39613 14.4719 9.79668 14.0714 9.79668 13.5785V11.5953L11.5081 12.5837C11.9373 12.832 12.4874 12.6838 12.7345 12.2546C12.9828 11.8255 12.8359 11.2767 12.4054 11.0296Z" fill="var(--fill-0, #29B5E8)"/>
<path id="Path2" d="M4.80853 7.24812C4.81373 6.9295 4.64597 6.63299 4.37027 6.47303L1.31546 4.70959C1.18281 4.63286 1.03065 4.59255 0.878496 4.59255C0.565081 4.59255 0.273775 4.76031 0.117718 5.03081C-0.124171 5.44956 0.0201822 5.98666 0.438935 6.22855L2.19978 7.24422L0.438935 8.26119C0.236061 8.37823 0.0904077 8.5668 0.030586 8.79308C-0.0305364 9.01937 0.000675002 9.25605 0.117718 9.45893C0.273775 9.72943 0.565081 9.89719 0.877195 9.89719C1.03065 9.89719 1.18281 9.85687 1.31546 9.78014L4.37027 8.0167C4.64337 7.85804 4.81113 7.56413 4.80853 7.24812Z" fill="var(--fill-0, #29B5E8)"/>
<path id="Path3" d="M2.00813 3.45926L5.06295 5.22271C5.41928 5.42948 5.85884 5.36186 6.13974 5.08746C6.31791 4.9236 6.42845 4.68951 6.42845 4.42942V0.894727C6.42845 0.400546 6.0279 0 5.53502 0C5.04084 0 4.6403 0.400546 4.6403 0.894727V2.90656L2.90546 1.9052C2.4763 1.65681 1.9275 1.80376 1.67911 2.23292C1.43072 2.66207 1.57898 3.21087 2.00813 3.45926Z" fill="var(--fill-0, #29B5E8)"/>
<path id="Combined-Shape" d="M8.87743 7.38984C8.87743 7.45747 8.83842 7.5511 8.7903 7.60052L7.57956 8.81126C7.53144 8.85938 7.43651 8.89839 7.36888 8.89839H7.06067C6.99304 8.89839 6.89811 8.85938 6.84999 8.81126L5.63795 7.60052C5.58983 7.5511 5.55082 7.45747 5.55082 7.38984V7.08163C5.55082 7.0127 5.58983 6.91907 5.63795 6.87095L6.84999 5.65891C6.89811 5.61079 6.99304 5.57178 7.06067 5.57178H7.36888C7.43651 5.57178 7.53144 5.61079 7.57956 5.65891L8.7903 6.87095C8.83842 6.91907 8.87743 7.0127 8.87743 7.08163V7.38984ZM7.79674 7.24159V7.22858C7.79674 7.17916 7.76813 7.11024 7.73302 7.07383L7.37538 6.7175C7.34027 6.68108 7.27135 6.65247 7.22063 6.65247H7.20762C7.1582 6.65247 7.08928 6.68108 7.05287 6.7175L6.69654 7.07383C6.66142 7.10894 6.63281 7.17786 6.63281 7.22858V7.24159C6.63281 7.29231 6.66142 7.36123 6.69654 7.39634L7.05287 7.75398C7.08928 7.78909 7.1582 7.8177 7.20762 7.8177H7.22063C7.27135 7.8177 7.34027 7.78909 7.37538 7.75398L7.73302 7.39634C7.76813 7.36123 7.79674 7.29231 7.79674 7.24159Z" fill="var(--fill-0, #29B5E8)"/>
<path id="Path4" d="M9.35402 5.22271L12.4088 3.45926C12.838 3.21217 12.9862 2.66207 12.7379 2.23292C12.4895 1.80376 11.9407 1.65681 11.5115 1.9052L9.80008 2.89356V0.894727C9.80008 0.400546 9.39953 0 8.90665 0C8.41247 0 8.01193 0.400546 8.01193 0.894727V4.35919C7.99502 4.53866 8.03013 4.72593 8.12767 4.89499C8.37606 5.32415 8.92486 5.4711 9.35402 5.22271Z" fill="var(--fill-0, #29B5E8)"/>
<path id="Path5" d="M5.67547 9.16085C5.4726 9.12184 5.25542 9.15435 5.06295 9.26489L2.00813 11.0296C1.57898 11.2767 1.43072 11.8255 1.67911 12.2547C1.9275 12.6851 2.4763 12.8321 2.90546 12.5837L4.6403 11.5823V13.5786C4.6403 14.0714 5.04084 14.472 5.53502 14.472C6.0279 14.472 6.42845 14.0714 6.42845 13.5786V10.0439C6.42845 9.59781 6.10203 9.22848 5.67547 9.16085Z" fill="var(--fill-0, #29B5E8)"/>
<path id="Path6" d="M14.3159 5.01961C14.0688 4.58915 13.5187 4.4422 13.0896 4.69059L10.0348 6.45404C9.74215 6.6231 9.58089 6.93261 9.5861 7.24733C9.5835 7.56074 9.74475 7.86635 10.0348 8.03281L13.0896 9.79756C13.5187 10.0446 14.0675 9.89769 14.3159 9.46854C14.5643 9.03938 14.4161 8.49058 13.9869 8.24219L12.2573 7.24342L13.9869 6.24466C14.4174 5.99757 14.5643 5.44877 14.3159 5.01961Z" fill="var(--fill-0, #29B5E8)"/>
</g>
</svg>
