<svg width="160" height="160" viewBox="0 0 160 160" fill="none" xmlns="http://www.w3.org/2000/svg">
<circle cx="80" cy="80" r="75" fill="#FCFCFC"/>
<path d="M80 6.25C89.9563 6.25 99.6156 8.2 108.706 12.0438C117.487 15.7594 125.375 21.075 132.15 27.85C138.925 34.625 144.241 42.5094 147.956 51.2938C151.803 60.3844 153.75 70.0437 153.75 80C153.75 89.9563 151.8 99.6156 147.956 108.706C144.241 117.487 138.925 125.375 132.15 132.15C125.375 138.925 117.491 144.241 108.706 147.956C99.6156 151.803 89.9563 153.75 80 153.75C70.0437 153.75 60.3844 151.8 51.2938 147.956C42.5125 144.241 34.625 138.925 27.85 132.15C21.075 125.375 15.7594 117.491 12.0438 108.706C8.19688 99.6156 6.25 89.9563 6.25 80C6.25 70.0437 8.2 60.3844 12.0438 51.2938C15.7594 42.5125 21.075 34.625 27.85 27.85C34.625 21.075 42.5094 15.7594 51.2938 12.0438C60.3844 8.19688 70.0437 6.25 80 6.25ZM80 5C38.5781 5 5 38.5781 5 80C5 121.422 38.5781 155 80 155C121.422 155 155 121.422 155 80C155 38.5781 121.422 5 80 5Z" fill="#1262F8"/>
<path d="M130.384 124.531C129.484 125.553 128.544 126.55 127.572 127.522C114.947 140.147 98.1594 147.1 80.3031 147.1C60.4094 147.1 42.5187 138.366 30.2656 124.531H54.5875C62.15 128.941 70.9375 131.469 80.3031 131.469C89.6687 131.469 98.4563 128.941 106.019 124.531H130.384Z" fill="#B8D0FD"/>
<path d="M147.151 80.2531C147.151 86.3594 146.338 92.3406 144.763 98.075H128.323C130.388 92.5219 131.52 86.5188 131.52 80.2531C131.52 52.0156 108.541 29.0406 80.3039 29.0375C52.0664 29.0375 29.0914 52.0125 29.0914 80.2531C29.0914 86.5188 30.2227 92.5219 32.2883 98.075H15.8695C14.2977 92.4 13.457 86.4219 13.457 80.2531C13.457 62.3969 20.4102 45.6094 33.0383 32.9844C45.6633 20.3594 62.4508 13.4062 80.3039 13.4062C89.232 13.4062 97.8945 15.1438 105.901 18.4625C113.907 21.7781 121.26 26.6719 127.573 32.9844C140.198 45.6094 147.151 62.3969 147.151 80.2531Z" fill="#B8D0FD"/>
<path d="M143.236 102.885C141.089 108.875 138.08 114.538 134.27 119.719H26.3766C22.6266 114.61 19.5859 108.95 17.3984 102.885H143.236Z" fill="#B8D0FD"/>
<path d="M80.1953 17.0117L81.4734 20.6867H85.6078L82.2641 22.9586L83.5422 26.6336L80.1984 24.3617L76.8547 26.6336L78.1328 22.9586L74.7891 20.6867H78.9234L80.2016 17.0117H80.1953Z" fill="#001040"/>
<path d="M51.3359 24.2285L52.6141 27.9035H56.7484L53.4047 30.1754L54.6828 33.8504L51.3391 31.5785L47.9953 33.8504L49.2734 30.1754L45.9297 27.9035H50.0641L51.3422 24.2285H51.3359Z" fill="#001040"/>
<path d="M81.3969 133.656L80.1188 137.331H75.9844L79.3281 139.603L78.05 143.278L81.3937 141.006L84.7375 143.278L83.4594 139.603L86.8031 137.331H82.6688L81.3906 133.656H81.3969Z" fill="#001040"/>
<path d="M110.256 126.439L108.978 130.114H104.844L108.188 132.386L106.909 136.061L110.253 133.789L113.597 136.061L112.319 132.386L115.662 130.114H111.528L110.25 126.439H110.256Z" fill="#001040"/>
<path d="M51.3344 126.439L50.0562 130.114H45.9219L49.2656 132.386L47.9875 136.061L51.3312 133.789L54.675 136.061L53.3969 132.386L56.7406 130.114H52.6062L51.3281 126.439H51.3344Z" fill="#001040"/>
<path d="M29.6914 45.8711L30.9695 49.5461H35.1039L31.7602 51.818L33.0383 55.493L29.6945 53.2211L26.3508 55.493L27.6289 51.818L24.2852 49.5461H28.4195L29.6977 45.8711H29.6914Z" fill="#001040"/>
<path d="M130.705 45.8711L131.98 49.5461H136.114L132.77 51.818L134.048 55.493L130.705 53.2211L127.358 55.493L128.636 51.818L125.289 49.5461H129.423L130.702 45.8711H130.705Z" fill="#001040"/>
<path d="M139.12 75.9336L137.845 79.6086H133.711L137.055 81.8805L135.78 85.5555L139.123 83.2836L142.47 85.5555L141.192 81.8805L144.539 79.6086H140.405L139.127 75.9336H139.12Z" fill="#001040"/>
<path d="M22.475 75.9336L21.1969 79.6086H17.0625L20.4063 81.8805L19.1281 85.5555L22.4719 83.2836L25.8156 85.5555L24.5375 81.8805L27.8813 79.6086H23.7469L22.4688 75.9336H22.475Z" fill="#001040"/>
<path d="M110.258 25.4316L111.536 29.1066H115.67L112.327 31.3785L113.605 35.0535L110.261 32.7816L106.917 35.0535L108.195 31.3785L104.852 29.1066H108.986L110.264 25.4316H110.258Z" fill="#001040"/>
<path d="M29.9547 110.054C29.9109 109.92 29.8547 109.801 29.7828 109.695C29.7109 109.588 29.6266 109.498 29.5266 109.423C29.4266 109.348 29.3141 109.288 29.1859 109.248C29.0609 109.207 28.9203 109.188 28.7703 109.188C28.5141 109.188 28.2828 109.254 28.0766 109.385C27.8703 109.516 27.7078 109.707 27.5891 109.957C27.4703 110.207 27.4109 110.513 27.4109 110.876C27.4109 111.238 27.4703 111.548 27.5922 111.801C27.7109 112.054 27.8766 112.245 28.0859 112.373C28.2953 112.504 28.5328 112.57 28.7984 112.57C29.0453 112.57 29.2609 112.52 29.4453 112.42C29.6297 112.32 29.7734 112.179 29.8734 111.998C29.9766 111.813 30.0266 111.601 30.0266 111.351L30.2047 111.385H28.9016V110.826H30.6891V111.338C30.6891 111.716 30.6078 112.045 30.4453 112.323C30.2828 112.601 30.0609 112.813 29.7734 112.963C29.4891 113.113 29.1641 113.188 28.7953 113.188C28.3828 113.188 28.0234 113.095 27.7109 112.907C27.4016 112.72 27.1609 112.454 26.9859 112.11C26.8141 111.763 26.7266 111.354 26.7266 110.879C26.7266 110.52 26.7766 110.198 26.8766 109.913C26.9766 109.629 27.1172 109.385 27.3016 109.185C27.4859 108.985 27.7016 108.832 27.9484 108.726C28.1984 108.62 28.4703 108.566 28.7641 108.566C29.0109 108.566 29.2391 108.601 29.4516 108.673C29.6641 108.745 29.8547 108.848 30.0203 108.979C30.1891 109.11 30.3266 109.266 30.4359 109.448C30.5453 109.629 30.6203 109.829 30.6578 110.048H29.9547V110.054Z" fill="#001040"/>
<path d="M33.1055 113.198C32.768 113.198 32.4805 113.126 32.2367 112.986C31.9961 112.842 31.8086 112.642 31.6773 112.382C31.5461 112.123 31.4805 111.817 31.4805 111.467C31.4805 111.117 31.5461 110.817 31.6773 110.554C31.8086 110.292 31.993 110.086 32.2273 109.939C32.4648 109.792 32.7398 109.717 33.0586 109.717C33.2523 109.717 33.4367 109.748 33.618 109.811C33.7992 109.873 33.9617 109.973 34.1055 110.107C34.2492 110.242 34.3617 110.417 34.4461 110.632C34.5305 110.845 34.5711 111.107 34.5711 111.411V111.642H31.8586V111.151H33.9211C33.9211 110.979 33.8867 110.826 33.8148 110.692C33.743 110.557 33.643 110.451 33.5148 110.373C33.3867 110.295 33.2367 110.257 33.0648 110.257C32.8773 110.257 32.7148 110.304 32.5773 110.395C32.4398 110.486 32.3336 110.601 32.2586 110.745C32.1836 110.889 32.1461 111.045 32.1461 111.214V111.598C32.1461 111.823 32.1867 112.017 32.2648 112.173C32.3461 112.332 32.4586 112.451 32.6055 112.536C32.7492 112.617 32.9211 112.657 33.1148 112.657C33.2398 112.657 33.3555 112.639 33.4586 112.604C33.5617 112.567 33.6523 112.514 33.7273 112.442C33.8023 112.37 33.8617 112.282 33.8992 112.176L34.5273 112.289C34.4773 112.473 34.3867 112.632 34.2555 112.77C34.1273 112.907 33.9648 113.014 33.768 113.089C33.5742 113.164 33.3523 113.201 33.1023 113.201L33.1055 113.198Z" fill="#001040"/>
<path d="M36.0953 111.129V113.132H35.4297V109.761H36.0672V110.311H36.1109C36.1891 110.132 36.3109 109.989 36.4797 109.879C36.6484 109.77 36.8609 109.717 37.1172 109.717C37.3484 109.717 37.5547 109.764 37.7266 109.861C37.9016 109.954 38.0359 110.098 38.1328 110.286C38.2297 110.473 38.2766 110.707 38.2766 110.986V113.132H37.6109V111.067C37.6109 110.823 37.5453 110.632 37.4172 110.495C37.2891 110.354 37.1109 110.286 36.8859 110.286C36.7328 110.286 36.5953 110.32 36.4734 110.386C36.3547 110.451 36.2609 110.548 36.1922 110.676C36.1234 110.801 36.0891 110.954 36.0891 111.132L36.0953 111.129Z" fill="#001040"/>
<path d="M40.7656 113.198C40.4281 113.198 40.1406 113.126 39.8969 112.986C39.6562 112.842 39.4687 112.642 39.3375 112.382C39.2062 112.123 39.1406 111.817 39.1406 111.467C39.1406 111.117 39.2062 110.817 39.3375 110.554C39.4687 110.292 39.6531 110.086 39.8875 109.939C40.125 109.792 40.4 109.717 40.7188 109.717C40.9125 109.717 41.0969 109.748 41.2781 109.811C41.4594 109.873 41.6219 109.973 41.7656 110.107C41.9094 110.242 42.0219 110.417 42.1063 110.632C42.1906 110.845 42.2312 111.107 42.2312 111.411V111.642H39.5187V111.151H41.5812C41.5812 110.979 41.5469 110.826 41.475 110.692C41.4031 110.557 41.3031 110.451 41.175 110.373C41.0469 110.295 40.8969 110.257 40.725 110.257C40.5375 110.257 40.375 110.304 40.2375 110.395C40.1 110.486 39.9937 110.601 39.9187 110.745C39.8437 110.889 39.8062 111.045 39.8062 111.214V111.598C39.8062 111.823 39.8469 112.017 39.925 112.173C40.0063 112.332 40.1188 112.451 40.2656 112.536C40.4094 112.617 40.5812 112.657 40.775 112.657C40.9 112.657 41.0156 112.639 41.1188 112.604C41.2219 112.567 41.3125 112.514 41.3875 112.442C41.4625 112.37 41.5219 112.282 41.5594 112.176L42.1875 112.289C42.1375 112.473 42.0469 112.632 41.9156 112.77C41.7875 112.907 41.625 113.014 41.4281 113.089C41.2344 113.164 41.0125 113.201 40.7625 113.201L40.7656 113.198Z" fill="#001040"/>
<path d="M43.0898 113.134V109.762H43.7305V110.296H43.7648C43.8273 110.115 43.9367 109.971 44.093 109.868C44.2523 109.762 44.4305 109.709 44.6305 109.709C44.6711 109.709 44.7211 109.709 44.7773 109.712C44.8336 109.712 44.8805 109.718 44.9117 109.721V110.35C44.8836 110.343 44.8367 110.334 44.7711 110.325C44.7023 110.315 44.6336 110.309 44.568 110.309C44.4117 110.309 44.2711 110.343 44.1492 110.409C44.0273 110.475 43.9305 110.562 43.8617 110.678C43.7898 110.793 43.7555 110.921 43.7555 111.068V113.128H43.0898V113.134Z" fill="#001040"/>
<path d="M46.5789 113.206C46.3633 113.206 46.1664 113.165 45.9914 113.087C45.8164 113.006 45.6789 112.89 45.5758 112.737C45.4758 112.584 45.4258 112.4 45.4258 112.178C45.4258 111.987 45.4633 111.831 45.5383 111.709C45.6133 111.587 45.7133 111.487 45.8383 111.418C45.9633 111.346 46.1039 111.293 46.2602 111.256C46.4164 111.218 46.5727 111.19 46.7352 111.171C46.9383 111.15 47.1039 111.128 47.232 111.115C47.3602 111.1 47.4508 111.075 47.5102 111.037C47.5664 111.003 47.5977 110.943 47.5977 110.865V110.85C47.5977 110.659 47.5414 110.509 47.432 110.403C47.3227 110.296 47.1633 110.243 46.9477 110.243C46.732 110.243 46.5477 110.293 46.4195 110.39C46.2914 110.487 46.2039 110.593 46.1539 110.712L45.5289 110.571C45.6039 110.365 45.7102 110.2 45.8539 110.075C45.9977 109.946 46.1633 109.856 46.3508 109.796C46.5383 109.737 46.732 109.709 46.9383 109.709C47.0758 109.709 47.2195 109.725 47.3727 109.756C47.5258 109.787 47.6695 109.843 47.8039 109.928C47.9383 110.012 48.0477 110.131 48.1352 110.287C48.2195 110.44 48.2633 110.64 48.2633 110.887V113.128H47.6133V112.665H47.5852C47.5414 112.75 47.4789 112.834 47.3914 112.915C47.3039 112.996 47.1945 113.065 47.0602 113.118C46.9258 113.171 46.7633 113.2 46.5758 113.2L46.5789 113.206ZM46.7227 112.678C46.907 112.678 47.0633 112.643 47.1945 112.571C47.3258 112.5 47.4258 112.406 47.4945 112.29C47.5633 112.175 47.5977 112.046 47.5977 111.915V111.481C47.5727 111.506 47.5289 111.528 47.4602 111.546C47.3945 111.565 47.3164 111.581 47.232 111.596C47.1445 111.609 47.0633 111.621 46.982 111.634C46.9008 111.643 46.832 111.653 46.7789 111.659C46.6508 111.675 46.532 111.703 46.4258 111.74C46.3195 111.778 46.2352 111.834 46.1727 111.906C46.1102 111.975 46.0789 112.068 46.0789 112.187C46.0789 112.35 46.1383 112.471 46.2602 112.556C46.382 112.637 46.5352 112.678 46.7258 112.678H46.7227Z" fill="#001040"/>
<path d="M49.9352 108.631V113.128H49.2695V108.631H49.9352Z" fill="#001040"/>
<path d="M54.2609 113.132H52.7891V108.635H54.3078C54.7547 108.635 55.1359 108.725 55.4578 108.904C55.7766 109.082 56.0234 109.338 56.1922 109.675C56.3641 110.01 56.4484 110.41 56.4484 110.875C56.4484 111.341 56.3609 111.747 56.1891 112.082C56.0172 112.419 55.7672 112.679 55.4422 112.86C55.1172 113.041 54.7234 113.129 54.2609 113.129V113.132ZM53.4766 112.538H54.2266C54.5734 112.538 54.8609 112.472 55.0922 112.344C55.3203 112.213 55.4922 112.025 55.6078 111.779C55.7203 111.532 55.7797 111.229 55.7797 110.872C55.7797 110.516 55.7234 110.219 55.6078 109.975C55.4953 109.729 55.3266 109.544 55.1047 109.416C54.8797 109.288 54.6047 109.225 54.2703 109.225H53.4797V112.538H53.4766Z" fill="#001040"/>
<path d="M58.368 113.206C58.1523 113.206 57.9555 113.165 57.7805 113.087C57.6055 113.006 57.468 112.89 57.3648 112.737C57.2648 112.584 57.2148 112.4 57.2148 112.178C57.2148 111.987 57.2523 111.831 57.3273 111.709C57.4023 111.587 57.5023 111.487 57.6273 111.418C57.7523 111.346 57.893 111.293 58.0492 111.256C58.2055 111.218 58.3617 111.19 58.5242 111.171C58.7273 111.15 58.893 111.128 59.0211 111.115C59.1492 111.1 59.2398 111.075 59.2992 111.037C59.3555 111.003 59.3867 110.943 59.3867 110.865V110.85C59.3867 110.659 59.3305 110.509 59.2211 110.403C59.1117 110.296 58.9523 110.243 58.7367 110.243C58.5211 110.243 58.3367 110.293 58.2086 110.39C58.0805 110.487 57.993 110.593 57.943 110.712L57.318 110.571C57.393 110.365 57.4992 110.2 57.643 110.075C57.7867 109.946 57.9523 109.856 58.1367 109.796C58.3242 109.737 58.5211 109.709 58.7242 109.709C58.8617 109.709 59.0055 109.725 59.1586 109.756C59.3117 109.787 59.4555 109.843 59.5898 109.928C59.7242 110.012 59.8336 110.131 59.9211 110.287C60.0055 110.44 60.0492 110.64 60.0492 110.887V113.128H59.3992V112.665H59.3711C59.3273 112.75 59.2648 112.834 59.1773 112.915C59.093 112.996 58.9805 113.065 58.8461 113.118C58.7117 113.171 58.5492 113.2 58.3617 113.2L58.368 113.206ZM58.5148 112.678C58.6992 112.678 58.8555 112.643 58.9867 112.571C59.118 112.5 59.218 112.406 59.2867 112.29C59.3555 112.175 59.3898 112.046 59.3898 111.915V111.481C59.3648 111.506 59.3211 111.528 59.2523 111.546C59.1867 111.565 59.1086 111.581 59.0242 111.596C58.9398 111.609 58.8555 111.621 58.7742 111.634C58.693 111.643 58.6242 111.653 58.5711 111.659C58.443 111.675 58.3242 111.703 58.218 111.74C58.1117 111.778 58.0273 111.834 57.9648 111.906C57.9023 111.975 57.8711 112.068 57.8711 112.187C57.8711 112.35 57.9305 112.471 58.0523 112.556C58.1742 112.637 58.3273 112.678 58.518 112.678H58.5148Z" fill="#001040"/>
<path d="M62.6555 109.756V110.284H60.793V109.756H62.6555ZM61.293 108.95H61.9586V112.14C61.9586 112.268 61.9773 112.362 62.0148 112.428C62.0523 112.49 62.1023 112.534 62.1648 112.556C62.2273 112.578 62.293 112.59 62.368 112.59C62.4211 112.59 62.468 112.587 62.5086 112.578C62.5492 112.571 62.5805 112.565 62.6023 112.559L62.7211 113.103C62.6836 113.118 62.6273 113.131 62.5555 113.146C62.4836 113.162 62.3961 113.171 62.2898 113.171C62.1148 113.171 61.9523 113.143 61.8023 113.078C61.6523 113.012 61.5305 112.915 61.4367 112.778C61.343 112.643 61.2961 112.475 61.2961 112.271V108.943L61.293 108.95Z" fill="#001040"/>
<path d="M64.5086 113.206C64.293 113.206 64.0961 113.165 63.9211 113.087C63.7461 113.006 63.6086 112.89 63.5055 112.737C63.4055 112.584 63.3555 112.4 63.3555 112.178C63.3555 111.987 63.393 111.831 63.468 111.709C63.543 111.587 63.643 111.487 63.768 111.418C63.893 111.346 64.0336 111.293 64.1898 111.256C64.3461 111.218 64.5023 111.19 64.6648 111.171C64.868 111.15 65.0336 111.128 65.1617 111.115C65.2898 111.1 65.3805 111.075 65.4398 111.037C65.4961 111.003 65.5273 110.943 65.5273 110.865V110.85C65.5273 110.659 65.4711 110.509 65.3617 110.403C65.2523 110.296 65.093 110.243 64.8773 110.243C64.6617 110.243 64.4773 110.293 64.3492 110.39C64.2211 110.487 64.1336 110.593 64.0836 110.712L63.4586 110.571C63.5336 110.365 63.6398 110.2 63.7836 110.075C63.9273 109.946 64.093 109.856 64.2805 109.796C64.468 109.737 64.6617 109.709 64.868 109.709C65.0055 109.709 65.1492 109.725 65.3023 109.756C65.4555 109.787 65.5992 109.843 65.7336 109.928C65.868 110.012 65.9773 110.131 66.0648 110.287C66.1492 110.44 66.193 110.64 66.193 110.887V113.128H65.543V112.665H65.5148C65.4711 112.75 65.4086 112.834 65.3211 112.915C65.2336 112.996 65.1242 113.065 64.9898 113.118C64.8555 113.171 64.693 113.2 64.5055 113.2L64.5086 113.206ZM64.6523 112.678C64.8367 112.678 64.993 112.643 65.1242 112.571C65.2555 112.5 65.3555 112.406 65.4242 112.29C65.493 112.175 65.5273 112.046 65.5273 111.915V111.481C65.5023 111.506 65.4586 111.528 65.3898 111.546C65.3242 111.565 65.2461 111.581 65.1617 111.596C65.0742 111.609 64.993 111.621 64.9117 111.634C64.8305 111.643 64.7617 111.653 64.7086 111.659C64.5805 111.675 64.4617 111.703 64.3555 111.74C64.2492 111.778 64.1648 111.834 64.1023 111.906C64.0398 111.975 64.0086 112.068 64.0086 112.187C64.0086 112.35 64.068 112.471 64.1898 112.556C64.3117 112.637 64.4648 112.678 64.6555 112.678H64.6523Z" fill="#001040"/>
<path d="M69.0344 113.132V108.635H70.6562C71.0094 108.635 71.3031 108.697 71.5375 108.825C71.7687 108.954 71.9438 109.129 72.0594 109.347C72.175 109.566 72.2312 109.813 72.2312 110.091C72.2312 110.369 72.1719 110.616 72.0562 110.838C71.9406 111.057 71.7656 111.232 71.5312 111.36C71.3 111.488 71.0063 111.55 70.6531 111.55H69.5375V110.975H70.5906C70.8156 110.975 70.9969 110.938 71.1344 110.86C71.275 110.782 71.375 110.675 71.4406 110.544C71.5062 110.41 71.5375 110.26 71.5375 110.091C71.5375 109.922 71.5062 109.769 71.4406 109.638C71.375 109.507 71.2719 109.404 71.1313 109.329C70.9906 109.254 70.8094 109.216 70.5812 109.216H69.7187V113.132H69.0312H69.0344Z" fill="#001040"/>
<path d="M73.1094 113.134V109.762H73.75V110.296H73.7844C73.8469 110.115 73.9563 109.971 74.1125 109.868C74.2719 109.762 74.45 109.709 74.65 109.709C74.6906 109.709 74.7406 109.709 74.7969 109.712C74.8563 109.712 74.9 109.718 74.9313 109.721V110.35C74.9031 110.343 74.8563 110.334 74.7906 110.325C74.7219 110.315 74.6531 110.309 74.5875 110.309C74.4312 110.309 74.2906 110.343 74.1687 110.409C74.0469 110.475 73.95 110.562 73.8813 110.678C73.8094 110.793 73.775 110.921 73.775 111.068V113.128H73.1094V113.134Z" fill="#001040"/>
<path d="M76.95 113.196C76.6313 113.196 76.35 113.125 76.1125 112.978C75.875 112.834 75.6875 112.631 75.5563 112.368C75.425 112.109 75.3594 111.803 75.3594 111.456C75.3594 111.109 75.425 110.8 75.5563 110.537C75.6875 110.275 75.8719 110.071 76.1125 109.928C76.35 109.784 76.6313 109.709 76.95 109.709C77.2688 109.709 77.55 109.781 77.7875 109.928C78.025 110.071 78.2125 110.275 78.3438 110.537C78.475 110.8 78.5406 111.106 78.5406 111.456C78.5406 111.806 78.475 112.109 78.3438 112.368C78.2125 112.628 78.0281 112.831 77.7875 112.978C77.55 113.121 77.2688 113.196 76.95 113.196ZM76.9531 112.646C77.1594 112.646 77.3312 112.593 77.4688 112.484C77.6063 112.375 77.7063 112.231 77.7719 112.053C77.8375 111.871 77.8719 111.675 77.8719 111.459C77.8719 111.243 77.8375 111.046 77.7719 110.865C77.7063 110.684 77.6063 110.537 77.4688 110.428C77.3312 110.318 77.1594 110.262 76.9531 110.262C76.7469 110.262 76.5719 110.318 76.4344 110.428C76.2969 110.537 76.1969 110.684 76.1313 110.865C76.0656 111.046 76.0344 111.243 76.0344 111.459C76.0344 111.675 76.0656 111.875 76.1313 112.053C76.1969 112.234 76.3 112.378 76.4344 112.484C76.5719 112.593 76.7469 112.646 76.9531 112.646Z" fill="#001040"/>
<path d="M80.9992 109.756V110.284H79.1367V109.756H80.9992ZM79.6367 108.95H80.3023V112.14C80.3023 112.268 80.3211 112.362 80.3586 112.428C80.3961 112.49 80.4461 112.534 80.5086 112.556C80.5711 112.578 80.6367 112.59 80.7117 112.59C80.7648 112.59 80.8117 112.587 80.8523 112.578C80.893 112.571 80.9242 112.565 80.9461 112.559L81.0648 113.103C81.0273 113.118 80.9711 113.131 80.8992 113.146C80.8273 113.162 80.7398 113.171 80.6336 113.171C80.4586 113.171 80.2961 113.143 80.1461 113.078C79.9961 113.012 79.8742 112.915 79.7805 112.778C79.6867 112.643 79.6398 112.475 79.6398 112.271V108.943L79.6367 108.95Z" fill="#001040"/>
<path d="M83.293 113.198C82.9555 113.198 82.668 113.126 82.4242 112.986C82.1836 112.842 81.9961 112.642 81.8648 112.382C81.7336 112.123 81.668 111.817 81.668 111.467C81.668 111.117 81.7336 110.817 81.8648 110.554C81.9961 110.292 82.1805 110.086 82.4148 109.939C82.6523 109.792 82.9273 109.717 83.2461 109.717C83.4398 109.717 83.6242 109.748 83.8055 109.811C83.9867 109.873 84.1492 109.973 84.293 110.107C84.4367 110.242 84.5492 110.417 84.6336 110.632C84.718 110.845 84.7586 111.107 84.7586 111.411V111.642H82.0461V111.151H84.1086C84.1086 110.979 84.0742 110.826 84.0023 110.692C83.9305 110.557 83.8305 110.451 83.7023 110.373C83.5742 110.295 83.4242 110.257 83.2523 110.257C83.0648 110.257 82.9023 110.304 82.7648 110.395C82.6273 110.486 82.5211 110.601 82.4461 110.745C82.3711 110.889 82.3336 111.045 82.3336 111.214V111.598C82.3336 111.823 82.3742 112.017 82.4523 112.173C82.5336 112.332 82.6461 112.451 82.793 112.536C82.9367 112.617 83.1086 112.657 83.3023 112.657C83.4273 112.657 83.543 112.639 83.6461 112.604C83.7492 112.567 83.8398 112.514 83.9148 112.442C83.9898 112.37 84.0492 112.282 84.0867 112.176L84.7148 112.289C84.6648 112.473 84.5742 112.632 84.443 112.77C84.3148 112.907 84.1523 113.014 83.9555 113.089C83.7617 113.164 83.5398 113.201 83.2898 113.201L83.293 113.198Z" fill="#001040"/>
<path d="M87.0555 113.198C86.7242 113.198 86.4398 113.123 86.2023 112.976C85.9648 112.826 85.7836 112.62 85.6555 112.361C85.5273 112.098 85.4648 111.798 85.4648 111.461C85.4648 111.123 85.5305 110.817 85.6617 110.554C85.793 110.292 85.9742 110.086 86.2117 109.939C86.4492 109.792 86.7273 109.717 87.0492 109.717C87.3086 109.717 87.5398 109.764 87.743 109.861C87.9461 109.954 88.1086 110.086 88.2336 110.254C88.3586 110.423 88.4336 110.623 88.4586 110.848H87.8117C87.7773 110.689 87.6961 110.554 87.568 110.439C87.443 110.323 87.2742 110.267 87.0617 110.267C86.8773 110.267 86.7148 110.314 86.5742 110.411C86.4367 110.504 86.3305 110.642 86.2523 110.82C86.1742 110.995 86.1367 111.204 86.1367 111.445C86.1367 111.686 86.1742 111.904 86.2492 112.082C86.3242 112.261 86.4305 112.398 86.568 112.498C86.7086 112.595 86.8711 112.645 87.0586 112.645C87.1836 112.645 87.2992 112.623 87.3992 112.576C87.5023 112.529 87.5898 112.464 87.6586 112.376C87.7305 112.289 87.7805 112.186 87.8086 112.064H88.4555C88.4305 112.282 88.3586 112.476 88.2398 112.648C88.1211 112.82 87.9586 112.954 87.7586 113.051C87.5586 113.148 87.3242 113.198 87.0555 113.198Z" fill="#001040"/>
<path d="M90.8859 109.758V110.286H89.0234V109.758H90.8859ZM89.5203 108.952H90.1859V112.142C90.1859 112.27 90.2047 112.364 90.2422 112.43C90.2797 112.492 90.3297 112.536 90.3922 112.558C90.4547 112.58 90.5203 112.592 90.5953 112.592C90.6484 112.592 90.6953 112.589 90.7359 112.58C90.7766 112.573 90.8078 112.567 90.8297 112.561L90.9484 113.105C90.9109 113.12 90.8547 113.133 90.7828 113.148C90.7109 113.164 90.6234 113.173 90.5172 113.173C90.3422 113.173 90.1797 113.145 90.0297 113.08C89.8797 113.014 89.7578 112.917 89.6641 112.78C89.5703 112.645 89.5234 112.477 89.5234 112.273V108.945L89.5203 108.952Z" fill="#001040"/>
<path d="M91.7445 113.132V109.761H92.4102V113.132H91.7445ZM92.0789 109.239C91.9633 109.239 91.8633 109.201 91.782 109.123C91.7008 109.045 91.6602 108.954 91.6602 108.845C91.6602 108.736 91.7008 108.645 91.782 108.567C91.8664 108.489 91.9633 108.451 92.0789 108.451C92.1945 108.451 92.2914 108.489 92.3758 108.567C92.4601 108.642 92.5008 108.736 92.5008 108.845C92.5008 108.954 92.4601 109.045 92.3758 109.123C92.2945 109.198 92.1945 109.239 92.0789 109.239Z" fill="#001040"/>
<path d="M94.8641 113.198C94.5453 113.198 94.2641 113.127 94.0266 112.98C93.7891 112.836 93.6016 112.633 93.4703 112.37C93.3391 112.111 93.2734 111.805 93.2734 111.458C93.2734 111.111 93.3391 110.802 93.4703 110.539C93.6016 110.277 93.7859 110.073 94.0266 109.93C94.2641 109.786 94.5453 109.711 94.8641 109.711C95.1828 109.711 95.4641 109.783 95.7016 109.93C95.9391 110.073 96.1266 110.277 96.2578 110.539C96.3891 110.802 96.4547 111.108 96.4547 111.458C96.4547 111.808 96.3891 112.111 96.2578 112.37C96.1266 112.63 95.9422 112.833 95.7016 112.98C95.4641 113.123 95.1828 113.198 94.8641 113.198ZM94.8672 112.648C95.0734 112.648 95.2453 112.595 95.3828 112.486C95.5203 112.377 95.6203 112.233 95.6859 112.055C95.7516 111.873 95.7859 111.677 95.7859 111.461C95.7859 111.245 95.7516 111.048 95.6859 110.867C95.6203 110.686 95.5203 110.539 95.3828 110.43C95.2453 110.32 95.0734 110.264 94.8672 110.264C94.6609 110.264 94.4859 110.32 94.3484 110.43C94.2109 110.539 94.1109 110.686 94.0453 110.867C93.9797 111.048 93.9484 111.245 93.9484 111.461C93.9484 111.677 93.9797 111.877 94.0453 112.055C94.1109 112.236 94.2141 112.38 94.3484 112.486C94.4859 112.595 94.6609 112.648 94.8672 112.648Z" fill="#001040"/>
<path d="M97.9859 111.129V113.132H97.3203V109.761H97.9578V110.311H98.0016C98.0797 110.132 98.2016 109.989 98.3703 109.879C98.5391 109.77 98.7516 109.717 99.0078 109.717C99.2391 109.717 99.4453 109.764 99.6172 109.861C99.7922 109.954 99.9266 110.098 100.023 110.286C100.12 110.473 100.167 110.707 100.167 110.986V113.132H99.5016V111.067C99.5016 110.823 99.4359 110.632 99.3078 110.495C99.1797 110.354 99.0016 110.286 98.7766 110.286C98.6234 110.286 98.4859 110.32 98.3672 110.386C98.2484 110.451 98.1547 110.548 98.0859 110.676C98.0172 110.801 97.9828 110.954 97.9828 111.132L97.9859 111.129Z" fill="#001040"/>
<path d="M103.022 113.132V108.635H104.644C104.997 108.635 105.288 108.694 105.522 108.816C105.756 108.935 105.931 109.104 106.047 109.313C106.163 109.522 106.219 109.766 106.219 110.044C106.219 110.322 106.159 110.563 106.044 110.772C105.928 110.982 105.753 111.141 105.519 111.257C105.288 111.372 104.994 111.429 104.641 111.429H103.413V110.844H104.578C104.8 110.844 104.981 110.813 105.119 110.75C105.259 110.688 105.363 110.597 105.428 110.475C105.494 110.354 105.525 110.21 105.525 110.044C105.525 109.879 105.491 109.729 105.425 109.604C105.359 109.479 105.256 109.385 105.116 109.319C104.975 109.25 104.794 109.219 104.566 109.219H103.703V113.135H103.016L103.022 113.132ZM105.269 111.1L106.394 113.129H105.612L104.509 111.1H105.269Z" fill="#001040"/>
<path d="M108.551 113.198C108.213 113.198 107.926 113.126 107.682 112.986C107.441 112.842 107.254 112.642 107.123 112.382C106.991 112.123 106.926 111.817 106.926 111.467C106.926 111.117 106.991 110.817 107.123 110.554C107.254 110.292 107.438 110.086 107.673 109.939C107.91 109.792 108.185 109.717 108.504 109.717C108.698 109.717 108.882 109.748 109.063 109.811C109.245 109.873 109.407 109.973 109.551 110.107C109.695 110.242 109.807 110.417 109.891 110.632C109.976 110.845 110.016 111.107 110.016 111.411V111.642H107.304V111.151H109.366C109.366 110.979 109.332 110.826 109.26 110.692C109.188 110.557 109.088 110.451 108.96 110.373C108.832 110.295 108.682 110.257 108.51 110.257C108.323 110.257 108.16 110.304 108.023 110.395C107.885 110.486 107.779 110.601 107.704 110.745C107.629 110.889 107.591 111.045 107.591 111.214V111.598C107.591 111.823 107.632 112.017 107.71 112.173C107.791 112.332 107.904 112.451 108.051 112.536C108.195 112.617 108.366 112.657 108.56 112.657C108.685 112.657 108.801 112.639 108.904 112.604C109.007 112.567 109.098 112.514 109.173 112.442C109.248 112.37 109.307 112.282 109.345 112.176L109.973 112.289C109.923 112.473 109.832 112.632 109.701 112.77C109.573 112.907 109.41 113.014 109.213 113.089C109.02 113.164 108.798 113.201 108.548 113.201L108.551 113.198Z" fill="#001040"/>
<path d="M112.308 114.468C112.036 114.468 111.805 114.433 111.608 114.361C111.414 114.293 111.255 114.199 111.133 114.083C111.011 113.968 110.917 113.839 110.858 113.702L111.43 113.471C111.47 113.536 111.523 113.602 111.589 113.674C111.658 113.746 111.748 113.808 111.864 113.861C111.98 113.911 112.133 113.939 112.314 113.939C112.567 113.939 112.773 113.88 112.939 113.758C113.105 113.639 113.186 113.446 113.186 113.183V112.521H113.142C113.102 112.593 113.045 112.671 112.97 112.761C112.895 112.849 112.795 112.924 112.664 112.989C112.533 113.055 112.364 113.086 112.155 113.086C111.886 113.086 111.642 113.024 111.427 112.899C111.211 112.774 111.042 112.586 110.914 112.343C110.789 112.096 110.727 111.796 110.727 111.436C110.727 111.077 110.789 110.771 110.911 110.514C111.036 110.258 111.205 110.061 111.42 109.927C111.636 109.789 111.883 109.721 112.155 109.721C112.367 109.721 112.536 109.755 112.667 109.827C112.798 109.896 112.898 109.977 112.97 110.068C113.045 110.161 113.102 110.243 113.142 110.311H113.192V109.764H113.842V113.211C113.842 113.502 113.773 113.739 113.639 113.924C113.502 114.108 113.317 114.249 113.086 114.336C112.855 114.427 112.595 114.471 112.305 114.471L112.308 114.468ZM112.302 112.536C112.492 112.536 112.655 112.493 112.786 112.405C112.92 112.314 113.02 112.189 113.089 112.024C113.158 111.858 113.192 111.658 113.192 111.424C113.192 111.189 113.158 110.996 113.089 110.824C113.02 110.652 112.92 110.518 112.789 110.421C112.658 110.324 112.495 110.274 112.302 110.274C112.108 110.274 111.936 110.324 111.802 110.427C111.667 110.527 111.567 110.664 111.498 110.839C111.433 111.014 111.398 111.208 111.398 111.424C111.398 111.639 111.433 111.839 111.502 112.005C111.57 112.171 111.67 112.302 111.805 112.396C111.939 112.489 112.105 112.536 112.302 112.536Z" fill="#001040"/>
<path d="M117.022 111.734V109.759H117.687V113.131H117.034V112.546H117C116.922 112.728 116.797 112.878 116.622 112.996C116.45 113.115 116.237 113.175 115.981 113.175C115.762 113.175 115.569 113.128 115.4 113.031C115.231 112.934 115.1 112.79 115.003 112.603C114.909 112.415 114.859 112.181 114.859 111.903V109.756H115.525V111.821C115.525 112.053 115.591 112.234 115.719 112.371C115.847 112.509 116.016 112.575 116.222 112.575C116.347 112.575 116.469 112.543 116.594 112.481C116.719 112.418 116.822 112.328 116.903 112.203C116.988 112.078 117.028 111.921 117.025 111.728L117.022 111.734Z" fill="#001040"/>
<path d="M119.373 108.631V113.128H118.707V108.631H119.373Z" fill="#001040"/>
<path d="M121.384 113.206C121.168 113.206 120.971 113.165 120.796 113.087C120.621 113.006 120.484 112.89 120.38 112.737C120.28 112.584 120.23 112.4 120.23 112.178C120.23 111.987 120.268 111.831 120.343 111.709C120.418 111.587 120.518 111.487 120.643 111.418C120.768 111.346 120.909 111.293 121.065 111.256C121.221 111.218 121.377 111.19 121.54 111.171C121.743 111.15 121.909 111.128 122.037 111.115C122.165 111.1 122.255 111.075 122.315 111.037C122.371 111.003 122.402 110.943 122.402 110.865V110.85C122.402 110.659 122.346 110.509 122.237 110.403C122.127 110.296 121.968 110.243 121.752 110.243C121.537 110.243 121.352 110.293 121.224 110.39C121.096 110.487 121.009 110.593 120.959 110.712L120.334 110.571C120.409 110.365 120.515 110.2 120.659 110.075C120.802 109.946 120.968 109.856 121.155 109.796C121.343 109.737 121.537 109.709 121.743 109.709C121.88 109.709 122.024 109.725 122.177 109.756C122.33 109.787 122.474 109.843 122.609 109.928C122.743 110.012 122.852 110.131 122.94 110.287C123.024 110.44 123.068 110.64 123.068 110.887V113.128H122.418V112.665H122.39C122.346 112.75 122.284 112.834 122.196 112.915C122.112 112.996 121.999 113.065 121.865 113.118C121.73 113.171 121.568 113.2 121.38 113.2L121.384 113.206ZM121.53 112.678C121.715 112.678 121.871 112.643 122.002 112.571C122.134 112.5 122.234 112.406 122.302 112.29C122.371 112.175 122.405 112.046 122.405 111.915V111.481C122.38 111.506 122.337 111.528 122.268 111.546C122.202 111.565 122.124 111.581 122.04 111.596C121.952 111.609 121.871 111.621 121.79 111.634C121.709 111.643 121.64 111.653 121.587 111.659C121.459 111.675 121.34 111.703 121.234 111.74C121.127 111.778 121.043 111.834 120.98 111.906C120.918 111.975 120.887 112.068 120.887 112.187C120.887 112.35 120.946 112.471 121.068 112.556C121.19 112.637 121.343 112.678 121.534 112.678H121.53Z" fill="#001040"/>
<path d="M125.671 109.756V110.284H123.809V109.756H125.671ZM124.309 108.95H124.971V112.14C124.971 112.268 124.99 112.362 125.027 112.428C125.065 112.49 125.115 112.534 125.177 112.556C125.24 112.578 125.305 112.59 125.38 112.59C125.434 112.59 125.48 112.587 125.521 112.578C125.562 112.571 125.593 112.565 125.615 112.559L125.734 113.103C125.696 113.118 125.64 113.131 125.568 113.146C125.496 113.162 125.409 113.171 125.302 113.171C125.127 113.171 124.965 113.143 124.815 113.078C124.665 113.012 124.543 112.915 124.449 112.778C124.355 112.643 124.309 112.475 124.309 112.271V108.943V108.95Z" fill="#001040"/>
<path d="M126.53 113.132V109.761H127.193V113.132H126.53ZM126.868 109.239C126.752 109.239 126.652 109.201 126.571 109.123C126.49 109.045 126.449 108.954 126.449 108.845C126.449 108.736 126.49 108.645 126.571 108.567C126.655 108.489 126.752 108.451 126.868 108.451C126.984 108.451 127.08 108.489 127.165 108.567C127.246 108.642 127.29 108.736 127.29 108.845C127.29 108.954 127.249 109.045 127.165 109.123C127.084 109.198 126.984 109.239 126.868 109.239Z" fill="#001040"/>
<path d="M129.653 113.196C129.334 113.196 129.053 113.125 128.816 112.978C128.578 112.834 128.394 112.631 128.259 112.368C128.128 112.109 128.062 111.803 128.062 111.456C128.062 111.109 128.128 110.8 128.259 110.537C128.391 110.275 128.578 110.071 128.816 109.928C129.053 109.784 129.334 109.709 129.653 109.709C129.972 109.709 130.253 109.781 130.491 109.928C130.728 110.071 130.913 110.275 131.047 110.537C131.178 110.8 131.244 111.106 131.244 111.456C131.244 111.806 131.178 112.109 131.047 112.368C130.916 112.628 130.728 112.831 130.491 112.978C130.253 113.121 129.975 113.196 129.653 113.196ZM129.653 112.646C129.863 112.646 130.034 112.593 130.169 112.484C130.303 112.375 130.406 112.231 130.472 112.053C130.541 111.871 130.572 111.675 130.572 111.459C130.572 111.243 130.541 111.046 130.472 110.865C130.406 110.684 130.306 110.537 130.169 110.428C130.034 110.318 129.859 110.262 129.653 110.262C129.447 110.262 129.272 110.318 129.134 110.428C129 110.537 128.897 110.684 128.831 110.865C128.766 111.046 128.734 111.243 128.734 111.459C128.734 111.675 128.766 111.875 128.831 112.053C128.897 112.234 129 112.378 129.134 112.484C129.272 112.593 129.447 112.646 129.653 112.646Z" fill="#001040"/>
<path d="M132.772 111.129V113.132H132.109V109.761H132.747V110.311H132.788C132.866 110.132 132.991 109.989 133.156 109.879C133.325 109.77 133.538 109.717 133.794 109.717C134.025 109.717 134.231 109.764 134.403 109.861C134.578 109.954 134.713 110.098 134.809 110.286C134.906 110.473 134.953 110.707 134.953 110.986V113.132H134.291V111.067C134.291 110.823 134.225 110.632 134.097 110.495C133.969 110.354 133.791 110.286 133.566 110.286C133.413 110.286 133.275 110.32 133.156 110.386C133.038 110.451 132.944 110.548 132.875 110.676C132.806 110.801 132.772 110.954 132.772 111.132V111.129Z" fill="#001040"/>
<path d="M62.9555 83.9074H62.243C62.2023 83.7043 62.1273 83.523 62.0211 83.3699C61.918 83.2168 61.793 83.0855 61.643 82.9824C61.4961 82.8762 61.3336 82.7949 61.1523 82.7418C60.9711 82.6887 60.7836 82.6605 60.5898 82.6605C60.2336 82.6605 59.9117 82.7512 59.6242 82.9293C59.3367 83.1074 59.1086 83.373 58.9398 83.7199C58.7711 84.0699 58.6867 84.4949 58.6867 85.0043C58.6867 85.5137 58.7711 85.9387 58.9398 86.2887C59.1086 86.6387 59.3398 86.9012 59.6242 87.0793C59.9117 87.2574 60.2367 87.348 60.5898 87.348C60.7836 87.348 60.9711 87.3199 61.1523 87.2668C61.3336 87.2137 61.4961 87.1355 61.643 87.0293C61.793 86.923 61.918 86.7918 62.0211 86.6387C62.1273 86.4824 62.1992 86.3043 62.243 86.1012H62.9555C62.9023 86.4012 62.8055 86.6668 62.6617 86.9043C62.5211 87.1418 62.343 87.3418 62.1336 87.5074C61.9242 87.6699 61.6867 87.7949 61.4242 87.8824C61.1648 87.9668 60.8867 88.0105 60.5898 88.0105C60.0898 88.0105 59.643 87.8887 59.2523 87.6449C58.8617 87.4012 58.5555 87.0543 58.3305 86.6043C58.1055 86.1543 57.9961 85.6199 57.9961 85.0043C57.9961 84.3887 58.1086 83.8543 58.3305 83.4043C58.5555 82.9543 58.8617 82.6074 59.2523 82.3637C59.643 82.1199 60.0898 81.998 60.5898 81.998C60.8867 81.998 61.1648 82.0418 61.4242 82.1262C61.6867 82.2105 61.9211 82.3387 62.1336 82.5043C62.343 82.6668 62.5211 82.8668 62.6617 83.1043C62.8023 83.3387 62.9023 83.6074 62.9555 83.9074Z" fill="#001040"/>
<path d="M69.0625 85.0043C69.0625 85.623 68.95 86.1543 68.7281 86.6043C68.5031 87.0543 68.1969 87.4012 67.8063 87.6449C67.4156 87.8887 66.9688 88.0105 66.4688 88.0105C65.9688 88.0105 65.5219 87.8887 65.1313 87.6449C64.7406 87.4012 64.4344 87.0543 64.2094 86.6043C63.9844 86.1543 63.875 85.6199 63.875 85.0043C63.875 84.3887 63.9875 83.8543 64.2094 83.4043C64.4344 82.9543 64.7406 82.6074 65.1313 82.3637C65.5219 82.1199 65.9688 81.998 66.4688 81.998C66.9688 81.998 67.4156 82.1199 67.8063 82.3637C68.1969 82.6074 68.5031 82.9543 68.7281 83.4043C68.9531 83.8543 69.0625 84.3887 69.0625 85.0043ZM68.375 85.0043C68.375 84.498 68.2906 84.0699 68.1188 83.7199C67.95 83.3699 67.7219 83.1074 67.4344 82.9293C67.1469 82.7512 66.825 82.6605 66.4688 82.6605C66.1125 82.6605 65.7906 82.7512 65.5031 82.9293C65.2156 83.1074 64.9875 83.373 64.8188 83.7199C64.65 84.0699 64.5656 84.4949 64.5656 85.0043C64.5656 85.5137 64.65 85.9387 64.8188 86.2887C64.9875 86.6387 65.2188 86.9012 65.5031 87.0793C65.7906 87.2574 66.1156 87.348 66.4688 87.348C66.8219 87.348 67.1469 87.2574 67.4344 87.0793C67.7219 86.9012 67.9531 86.6355 68.1188 86.2887C68.2875 85.9387 68.375 85.5137 68.375 85.0043Z" fill="#001040"/>
<path d="M70.2578 82.0801H71.1078L73.1047 86.9395H73.1734L75.1703 82.0801H76.0203V87.9332H75.3547V83.4863H75.2984L73.4609 87.9332H72.8172L70.9797 83.4863H70.9234V87.9332H70.2578V82.0801Z" fill="#001040"/>
<path d="M77.4484 87.9332V82.0801H79.4328C79.8953 82.0801 80.2703 82.1645 80.5641 82.3301C80.8578 82.4926 81.0766 82.7145 81.2172 82.9957C81.3578 83.277 81.4297 83.5895 81.4297 83.9332C81.4297 84.277 81.3578 84.5926 81.2172 84.8738C81.0766 85.1551 80.8609 85.3801 80.5672 85.5488C80.2734 85.7145 79.8984 85.7988 79.4422 85.7988H78.0203V85.1707H79.4203C79.7359 85.1707 79.9891 85.1176 80.1797 85.0082C80.3703 84.8988 80.5109 84.752 80.5953 84.5676C80.6828 84.3801 80.7266 84.1707 80.7266 83.9363C80.7266 83.702 80.6828 83.4926 80.5953 83.3082C80.5078 83.1238 80.3703 82.9801 80.1766 82.8738C79.9828 82.7676 79.7266 82.7145 79.4078 82.7145H78.1578V87.9395H77.4453L77.4484 87.9332Z" fill="#001040"/>
<path d="M82.5781 87.9332V82.0801H83.2906V87.3051H86.0219V87.9332H82.5781Z" fill="#001040"/>
<path d="M87.8375 82.0801V87.9332H87.125V82.0801H87.8375Z" fill="#001040"/>
<path d="M89.5047 87.9332H88.7578L90.9172 82.0801H91.6516L93.8109 87.9332H93.0641L91.3078 83.0051H91.2609L89.5047 87.9332ZM89.7797 85.6457H92.7859V86.2738H89.7797V85.6457Z" fill="#001040"/>
<path d="M99.3859 82.0801V87.9332H98.6984L95.4953 83.3395H95.4391V87.9332H94.7266V82.0801H95.4141L98.6266 86.6863H98.6828V82.0801H99.3828H99.3859Z" fill="#001040"/>
<path d="M100.484 82.7082V82.0801H104.891V82.7082H103.044V87.9332H102.331V82.7082H100.484Z" fill="#001040"/>
<path d="M61.8492 67.0754C61.7367 66.6848 61.5805 66.341 61.3805 66.0441C61.1805 65.741 60.9336 65.4848 60.643 65.2754C60.3586 65.0629 60.0305 64.9004 59.6586 64.7879C59.293 64.6754 58.8898 64.6191 58.443 64.6191C57.6117 64.6191 56.8805 64.8285 56.2523 65.2441C55.6273 65.6598 55.1398 66.266 54.7898 67.0598C54.4398 67.8504 54.2648 68.816 54.2648 69.9566C54.2648 71.0973 54.4367 72.0691 54.7805 72.8691C55.1242 73.6691 55.6117 74.2816 56.243 74.7004C56.8742 75.116 57.618 75.3254 58.4742 75.3254C59.2523 75.3254 59.918 75.1879 60.468 74.9098C61.0242 74.6285 61.4461 74.2285 61.7398 73.7191C62.0367 73.2066 62.1836 72.6004 62.1836 71.9035L62.8836 72.0066H58.6898V69.3973H65.493V71.4629C65.493 72.9035 65.1898 74.141 64.5867 75.1754C63.9836 76.2035 63.1523 77.0004 62.093 77.5598C61.0336 78.116 59.8211 78.391 58.4555 78.391C56.9305 78.391 55.593 78.0535 54.4367 77.3754C53.2836 76.6941 52.3836 75.7254 51.7367 74.4723C51.0961 73.2129 50.7773 71.7191 50.7773 69.991C50.7773 68.6629 50.968 67.4785 51.3492 66.4379C51.7367 65.391 52.2742 64.5066 52.968 63.7816C53.6617 63.0566 54.468 62.5035 55.3898 62.1254C56.3117 61.7473 57.3086 61.5566 58.3836 61.5566C59.3055 61.5566 60.1617 61.6941 60.9555 61.966C61.7492 62.2316 62.4523 62.6129 63.068 63.1035C63.6867 63.5941 64.193 64.1785 64.5836 64.8566C64.9742 65.5285 65.2273 66.2691 65.3367 67.0816H61.843L61.8492 67.0754Z" fill="#001040"/>
<path d="M73.5937 78.1668H67.8281V61.7793H73.6406C75.275 61.7793 76.6844 62.1074 77.8656 62.7637C79.0469 63.4137 79.9531 64.3512 80.5906 65.573C81.2312 66.7949 81.55 68.2574 81.55 69.9574C81.55 71.6574 81.2312 73.1324 80.5906 74.3574C79.9562 75.5855 79.0438 76.5262 77.85 77.1824C76.6656 77.8387 75.2469 78.1668 73.5937 78.1668ZM71.2656 75.198H73.45C74.4656 75.198 75.3219 75.0168 76.0156 74.6543C76.7156 74.2855 77.2375 73.7168 77.5875 72.9512C77.9437 72.1762 78.1188 71.1793 78.1188 69.9574C78.1188 68.7355 77.9406 67.7574 77.5875 66.9887C77.2375 66.2199 76.7156 65.6543 76.0219 65.2918C75.3281 64.9293 74.475 64.748 73.4563 64.748H71.2656V75.198Z" fill="#001040"/>
<path d="M83.8516 78.1668V61.7793H90.2672C91.5016 61.7793 92.5516 62.0168 93.4203 62.4918C94.2891 62.9605 94.9516 63.6137 95.4047 64.4512C95.8641 65.2824 96.0953 66.2449 96.0953 67.3324C96.0953 68.4199 95.8609 69.3793 95.3953 70.2137C94.9297 71.0449 94.2547 71.6949 93.3703 72.1574C92.4922 72.623 91.4266 72.8543 90.1797 72.8543H86.0891V70.0793H89.6234C90.2859 70.0793 90.8297 69.9637 91.2578 69.7355C91.6922 69.5012 92.0141 69.1793 92.2266 68.7668C92.4422 68.3512 92.5516 67.873 92.5516 67.3355C92.5516 66.798 92.4422 66.3168 92.2266 65.9105C92.0141 65.5012 91.6922 65.1824 91.2578 64.9574C90.8234 64.7293 90.2734 64.6137 89.6078 64.6137H87.2891V78.1668H83.8516Z" fill="#001040"/>
<path d="M98.0859 78.1668V61.7793H104.502C105.73 61.7793 106.777 62.0012 107.645 62.4449C108.517 62.8824 109.183 63.5043 109.639 64.3105C110.098 65.1105 110.33 66.0512 110.33 67.1355C110.33 68.2199 110.095 69.1605 109.63 69.9449C109.164 70.723 108.489 71.3199 107.605 71.7387C106.727 72.1543 105.661 72.3637 104.414 72.3637H100.117V69.5793H103.858C104.514 69.5793 105.061 69.4887 105.492 69.3074C105.927 69.1262 106.248 68.8543 106.461 68.4918C106.677 68.1293 106.786 67.6793 106.786 67.1387C106.786 66.598 106.677 66.1355 106.461 65.7637C106.248 65.3918 105.923 65.1074 105.486 64.9168C105.052 64.7199 104.505 64.6199 103.842 64.6199H101.523V78.173H98.0859V78.1668ZM106.867 70.7105L110.908 78.1668H107.111L103.158 70.7105H106.867Z" fill="#001040"/>
</svg>
