<svg width="160" height="160" viewBox="0 0 160 160" fill="none" xmlns="http://www.w3.org/2000/svg">
<circle cx="80" cy="80" r="75" fill="#FCFCFC"/>
<path d="M80 6.25C89.9563 6.25 99.6156 8.2 108.706 12.0438C117.487 15.7594 125.375 21.075 132.15 27.85C138.925 34.625 144.241 42.5094 147.956 51.2938C151.803 60.3844 153.75 70.0437 153.75 80C153.75 89.9563 151.8 99.6156 147.956 108.706C144.241 117.487 138.925 125.375 132.15 132.15C125.375 138.925 117.491 144.241 108.706 147.956C99.6156 151.803 89.9563 153.75 80 153.75C70.0437 153.75 60.3844 151.8 51.2938 147.956C42.5125 144.241 34.625 138.925 27.85 132.15C21.075 125.375 15.7594 117.491 12.0438 108.706C8.19688 99.6156 6.25 89.9563 6.25 80C6.25 70.0437 8.2 60.3844 12.0438 51.2938C15.7594 42.5125 21.075 34.625 27.85 27.85C34.625 21.075 42.5094 15.7594 51.2938 12.0438C60.3844 8.19688 70.0437 6.25 80 6.25ZM80 5C38.5781 5 5 38.5781 5 80C5 121.422 38.5781 155 80 155C121.422 155 155 121.422 155 80C155 38.5781 121.422 5 80 5Z" fill="#1262F8"/>
<path d="M146.855 72.1992H13.1641V87.4398H146.855V72.1992Z" fill="#B8D0FD"/>
<path d="M146.721 69.1895C141.599 37.3488 113.84 13.0176 80.3648 13.0176C46.8898 13.0176 19.1336 37.3457 14.0117 69.1895H30.5086C35.4242 46.3051 55.8773 29.1426 80.3648 29.1426C104.852 29.1426 125.305 46.3051 130.221 69.1895H146.718H146.721Z" fill="#B8D0FD"/>
<path d="M146.66 91.1621C141.388 122.831 113.713 146.981 80.3633 146.981C47.0133 146.981 19.3383 122.831 14.0664 91.1621H30.5852C35.6352 113.868 56.0039 130.856 80.3633 130.856C104.723 130.856 125.095 113.871 130.145 91.1621H146.663H146.66Z" fill="#B8D0FD"/>
<path d="M70.1797 136.193L70.2766 135.518L74.3047 136.093L74.2078 136.768L72.5828 136.537L71.9359 141.065L71.1547 140.956L71.8016 136.428L70.1797 136.196V136.193ZM74.6547 142.865C74.5391 142.856 74.4359 142.84 74.3453 142.815C74.2516 142.79 74.1828 142.768 74.1391 142.743L74.3672 142.128C74.5047 142.175 74.6266 142.2 74.7391 142.203C74.8516 142.206 74.9484 142.171 75.0359 142.1C75.1266 142.031 75.2109 141.909 75.2891 141.74L75.4016 141.487L74.2453 137.4L75.0641 137.459L75.8453 140.581H75.8859L77.0984 137.603L77.9203 137.662L75.9828 142.006C75.8922 142.206 75.7859 142.371 75.6578 142.506C75.5328 142.64 75.3859 142.737 75.2203 142.8C75.0547 142.859 74.8672 142.884 74.6547 142.868V142.865ZM78.7078 143.103L78.6828 137.681H79.4328V138.318H79.4984C79.5422 138.234 79.6078 138.14 79.6891 138.031C79.7734 137.925 79.8891 137.828 80.0359 137.746C80.1859 137.662 80.3797 137.621 80.6266 137.621C80.9453 137.621 81.2297 137.7 81.4797 137.859C81.7297 138.018 81.9266 138.25 82.0703 138.553C82.2141 138.856 82.2891 139.218 82.2922 139.646C82.2922 140.071 82.2234 140.437 82.0828 140.743C81.9422 141.046 81.7484 141.281 81.5016 141.446C81.2547 141.609 80.9703 141.693 80.6516 141.693C80.4109 141.693 80.2172 141.656 80.0641 141.575C79.9141 141.493 79.7953 141.4 79.7078 141.293C79.6203 141.184 79.5547 141.09 79.5078 141.006H79.4609L79.4703 143.096H78.7016L78.7078 143.103ZM79.4453 139.65C79.4453 139.928 79.4891 140.168 79.5703 140.378C79.6516 140.587 79.7703 140.75 79.9203 140.868C80.0734 140.984 80.2609 141.043 80.4797 141.04C80.7078 141.04 80.9016 140.978 81.0547 140.856C81.2078 140.731 81.3234 140.565 81.4016 140.353C81.4797 140.143 81.5203 139.906 81.5203 139.64C81.5203 139.381 81.4797 139.146 81.3984 138.94C81.3203 138.734 81.2047 138.571 81.0484 138.45C80.8953 138.331 80.7016 138.271 80.4703 138.271C80.2484 138.271 80.0609 138.331 79.9078 138.446C79.7547 138.562 79.6422 138.721 79.5641 138.928C79.4859 139.134 79.4484 139.371 79.4484 139.646L79.4453 139.65ZM85.2109 141.49C84.8234 141.521 84.4828 141.468 84.1891 141.325C83.8984 141.181 83.6609 140.965 83.4859 140.675C83.3109 140.384 83.2047 140.034 83.1703 139.628C83.1359 139.225 83.1828 138.865 83.3078 138.543C83.4328 138.225 83.6266 137.968 83.8828 137.771C84.1422 137.578 84.4516 137.462 84.8172 137.434C85.0391 137.415 85.2578 137.434 85.4703 137.49C85.6859 137.546 85.8797 137.646 86.0609 137.79C86.2391 137.934 86.3859 138.128 86.5047 138.368C86.6203 138.609 86.6953 138.909 86.7234 139.265L86.7453 139.537L83.6203 139.8L83.5734 139.228L85.9484 139.028C85.9328 138.828 85.8766 138.653 85.7797 138.503C85.6828 138.353 85.5578 138.24 85.4047 138.162C85.2516 138.084 85.0734 138.053 84.8766 138.068C84.6609 138.087 84.4797 138.156 84.3266 138.275C84.1766 138.39 84.0641 138.537 83.9922 138.715C83.9203 138.89 83.8922 139.075 83.9109 139.271L83.9484 139.718C83.9703 139.981 84.0359 140.2 84.1422 140.378C84.2516 140.556 84.3953 140.684 84.5703 140.768C84.7453 140.85 84.9453 140.881 85.1672 140.862C85.3109 140.85 85.4422 140.818 85.5578 140.768C85.6734 140.715 85.7703 140.643 85.8516 140.553C85.9328 140.462 85.9891 140.353 86.0266 140.228L86.7609 140.296C86.7203 140.515 86.6328 140.709 86.4953 140.881C86.3609 141.053 86.1828 141.19 85.9672 141.3C85.7516 141.406 85.4984 141.471 85.2141 141.493L85.2109 141.49ZM90.0734 135.512L91.0078 140.687L90.2266 140.828L89.2922 135.653L90.0734 135.512ZM92.0422 135.115L93.1391 140.256L92.3641 140.421L91.2672 135.281L92.0422 135.115Z" fill="#001040"/>
<path d="M58.6203 108.713C58.6203 110.304 58.0766 111.535 56.9891 112.41C55.9016 113.266 54.5016 113.697 52.7922 113.697C50.9016 113.697 49.2984 113.313 47.9797 112.544V110.213C49.2797 111.194 50.8672 111.688 52.7391 111.688C53.8609 111.688 54.7453 111.438 55.3859 110.938C56.0266 110.438 56.3484 109.716 56.3484 108.769C56.3484 108.375 56.2672 108.029 56.1078 107.725C55.9641 107.404 55.7172 107.119 55.3578 106.869C55.0203 106.6 54.6891 106.388 54.3672 106.225C54.0641 106.047 53.6453 105.832 53.1109 105.582C53.0047 105.529 52.8422 105.457 52.6297 105.366C51.8641 105.025 51.2734 104.75 50.8641 104.535C50.4703 104.319 49.9984 104.007 49.4484 103.597C48.9141 103.169 48.5203 102.679 48.2734 102.122C48.0234 101.569 47.8984 100.925 47.8984 100.194C47.8984 98.6566 48.4422 97.4598 49.5297 96.6035C50.6359 95.7285 52.0172 95.291 53.6734 95.291C55.2234 95.291 56.5422 95.5691 57.6297 96.1223V98.4004C56.5422 97.6848 55.2422 97.3285 53.7266 97.3285C52.6391 97.3285 51.7734 97.5879 51.1328 98.1066C50.4922 98.6066 50.1703 99.2691 50.1703 100.088C50.1703 100.516 50.2516 100.9 50.4109 101.241C50.5891 101.582 50.8922 101.9 51.3203 102.207C51.7484 102.491 52.1141 102.716 52.4172 102.875C52.7203 103.019 53.1922 103.232 53.8328 103.519C54.4391 103.788 54.9016 104 55.2234 104.163C55.5453 104.307 55.9547 104.547 56.4547 104.888C56.9703 105.21 57.3547 105.532 57.6047 105.854C57.8734 106.157 58.1047 106.569 58.2984 107.085C58.5109 107.585 58.6203 108.129 58.6203 108.719V108.713Z" fill="#001040"/>
<path d="M76.6906 104.479C76.6906 107.319 75.9594 109.588 74.4969 111.285C73.0531 112.963 71.0938 113.804 68.6156 113.804C66.1375 113.804 64.2125 112.954 62.7344 111.257C61.2563 109.56 60.5156 107.3 60.5156 104.479C60.5156 101.657 61.2375 99.3785 62.6813 97.7004C64.1438 96.0223 66.1125 95.1816 68.5906 95.1816C71.0688 95.1816 73.1 96.0223 74.525 97.7004C75.9688 99.3629 76.6906 101.622 76.6906 104.479ZM62.7844 104.479C62.7844 106.71 63.3094 108.479 64.3625 109.785C65.4313 111.088 66.85 111.741 68.6125 111.741C70.375 111.741 71.8656 111.097 72.8625 109.813C73.8781 108.529 74.3875 106.75 74.3875 104.482C74.3875 102.213 73.8781 100.435 72.8625 99.1504C71.8469 97.8629 70.4219 97.2223 68.5844 97.2223C66.7469 97.2223 65.3406 97.8754 64.3063 99.1785C63.2906 100.463 62.7812 102.232 62.7812 104.485L62.7844 104.479Z" fill="#001040"/>
<path d="M92.2687 112.626C91.1625 113.376 89.6469 113.751 87.7219 113.751C85.0125 113.751 82.8125 112.92 81.1187 111.26C79.425 109.582 78.5781 107.304 78.5781 104.429C78.5781 101.713 79.4344 99.507 81.1438 97.8102C82.8719 96.0945 85.0375 95.2383 87.6406 95.2383C89.5125 95.2383 91.0375 95.5602 92.2125 96.2039V98.4289C91.4281 98.0195 90.725 97.7227 90.1 97.5445C89.475 97.3664 88.6562 97.2758 87.6406 97.2758C85.6969 97.2758 84.075 97.9352 82.775 99.257C81.4906 100.579 80.85 102.301 80.85 104.429C80.85 106.557 81.4906 108.413 82.775 109.735C84.0594 111.057 85.7594 111.716 87.8813 111.716C89.5938 111.716 91.0531 111.26 92.2656 110.351V112.629L92.2687 112.626Z" fill="#001040"/>
<path d="M110.887 113.347H99.8438V111.554C105.369 107.372 108.131 103.891 108.131 101.104C108.131 99.9973 107.809 99.1473 107.169 98.5566C106.528 97.9504 105.662 97.6441 104.575 97.6441C103.166 97.6441 101.775 98.1723 100.403 99.2254V97.1098C101.669 96.1285 103.122 95.6348 104.762 95.6348C106.403 95.6348 107.65 96.091 108.719 97.0004C109.787 97.9129 110.322 99.2066 110.322 100.885C110.322 104.047 107.8 107.582 102.756 111.494H110.884V113.344L110.887 113.347Z" fill="#001040"/>
<path fill-rule="evenodd" clip-rule="evenodd" d="M67.2273 82.9191C68.1086 82.9191 68.7961 82.641 69.2898 82.0848C69.7836 81.5285 70.0305 80.7629 70.0305 79.791C70.0305 78.8191 69.7836 78.0535 69.2898 77.4973C68.7961 76.9441 68.1117 76.666 67.2336 76.666C66.3555 76.666 65.6336 76.9379 65.1461 77.4816C64.6555 78.0254 64.4117 78.791 64.4117 79.7816C64.4117 80.7723 64.6555 81.5504 65.1461 82.0973C65.6336 82.6441 66.3305 82.9191 67.2273 82.9191ZM27.6305 82.4723C27.2398 82.7723 26.7117 82.9223 26.043 82.9223C25.318 82.9223 24.7617 82.8285 24.3711 82.6441V81.9629C24.6211 82.0691 24.8961 82.1504 25.1898 82.2129C25.4867 82.2754 25.7773 82.3035 26.068 82.3035C26.5398 82.3035 26.8992 82.2129 27.1367 82.0348C27.3773 81.8566 27.4961 81.6066 27.4961 81.2879C27.4961 81.0785 27.4523 80.9066 27.368 80.7723C27.2836 80.6379 27.1398 80.5129 26.943 80.4004C26.743 80.2879 26.4398 80.1566 26.0336 80.0129C25.4648 79.8098 25.0586 79.5723 24.8148 79.2941C24.5711 79.016 24.4492 78.6566 24.4492 78.2098C24.4492 77.741 24.6273 77.3691 24.9805 77.091C25.3336 76.8129 25.8023 76.6754 26.3836 76.6754C26.9648 76.6754 27.5492 76.7848 28.0586 77.0066L27.8367 77.6223C27.3336 77.4129 26.843 77.3066 26.3648 77.3066C25.9898 77.3066 25.6961 77.3879 25.4836 77.5473C25.2711 77.7066 25.1648 77.9316 25.1648 78.216C25.1648 78.4254 25.2023 78.6004 25.2805 78.7316C25.3586 78.866 25.4898 78.9879 25.6742 79.1004C25.8586 79.2129 26.143 79.3348 26.5242 79.4723C27.1648 79.7004 27.6055 79.9441 27.8461 80.2035C28.0867 80.4629 28.2086 80.8004 28.2086 81.216C28.2086 81.7504 28.0148 82.166 27.6242 82.466L27.6305 82.4723ZM33.5398 82.2004V82.8316H30.1336V76.7598H33.5398V77.3879H30.8461V79.3441H33.3773V79.966H30.8461V82.2004H33.5398ZM36.2773 82.8316V80.3066H37.5523L39.0305 82.8316H39.8711L38.2117 80.1035C39.0305 79.8223 39.4398 79.2785 39.4398 78.4754C39.4398 77.9035 39.2617 77.4723 38.9023 77.1879C38.543 76.9035 37.9898 76.7598 37.243 76.7598H35.568V82.8316H36.2773ZM36.2648 79.7035H37.2398C37.7398 79.7035 38.1086 79.6035 38.343 79.4066C38.5773 79.2098 38.693 78.9129 38.693 78.516C38.693 78.1191 38.5742 77.8254 38.3367 77.6473C38.0992 77.4691 37.7148 77.3816 37.1898 77.3816H36.268V79.7035H36.2648ZM43.5742 82.8316L45.7773 76.7598H45.0117L43.6148 80.6629C43.4523 81.1098 43.3211 81.5566 43.2211 82.0035C43.1273 81.5785 42.9992 81.1379 42.8367 80.6879L41.4336 76.7598H40.6805L42.8711 82.8316H43.5742ZM47.993 76.7598V82.8316H47.2836V76.7598H47.993ZM52.843 82.9223C53.4648 82.9223 53.9867 82.8441 54.4086 82.6848V82.066C53.8617 82.2191 53.3773 82.2941 52.9492 82.2941C52.2555 82.2941 51.7211 82.0785 51.3461 81.6441C50.9711 81.2098 50.7836 80.5973 50.7836 79.8035C50.7836 79.0098 50.9773 78.4223 51.368 77.9785C51.7555 77.5348 52.2867 77.3129 52.9586 77.3129C53.4211 77.3129 53.8836 77.4223 54.3461 77.6379L54.6461 77.0316C54.168 76.8004 53.6086 76.6816 52.968 76.6816C52.368 76.6816 51.843 76.8098 51.3992 77.0629C50.9555 77.3191 50.6148 77.6816 50.3805 78.1504C50.1461 78.6223 50.0273 79.1691 50.0273 79.7941C50.0273 80.7941 50.2711 81.566 50.7617 82.1066C51.2492 82.6504 51.9461 82.9223 52.843 82.9223ZM59.8148 82.2004V82.8316H56.4086V76.7598H59.8148V77.3879H57.1211V79.3441H59.6523V79.966H57.1211V82.2004H59.8148ZM65.6867 81.666C66.0398 82.091 66.5523 82.3035 67.2211 82.3035C67.8898 82.3035 68.4086 82.091 68.7555 81.6691C69.1023 81.2441 69.2742 80.6223 69.2742 79.7973C69.2742 78.9723 69.1023 78.3598 68.7586 77.9379C68.4148 77.516 67.9055 77.3035 67.2305 77.3035C66.5555 77.3035 66.0398 77.516 65.6867 77.941C65.3336 78.366 65.1586 78.9848 65.1586 79.7941C65.1586 80.6035 65.3336 81.241 65.6867 81.666ZM72.7648 82.8316V80.3066H74.0398L75.518 82.8316H76.3586L74.6992 80.1035C75.518 79.8223 75.9273 79.2785 75.9273 78.4754C75.9273 77.9035 75.7492 77.4723 75.3898 77.1879C75.0305 76.9035 74.4773 76.7598 73.7305 76.7598H72.0555V82.8316H72.7648ZM72.7742 79.7035H73.7492C74.2492 79.7035 74.618 79.6035 74.8523 79.4066C75.0867 79.2098 75.2023 78.9129 75.2023 78.516C75.2023 78.1191 75.0836 77.8254 74.8461 77.6473C74.6086 77.4691 74.2242 77.3816 73.6992 77.3816H72.7773V79.7035H72.7742ZM80.6305 82.9223C81.0711 82.9223 81.4586 82.8973 81.793 82.8441C82.1273 82.791 82.4555 82.7129 82.7774 82.6129V79.6598H80.7023V80.291H82.068V82.1598C81.6648 82.2566 81.2492 82.3066 80.8273 82.3066C80.0461 82.3066 79.4555 82.0941 79.0555 81.6723C78.6523 81.2473 78.4523 80.6285 78.4523 79.8066C78.4523 78.9848 78.6617 78.416 79.0805 77.9754C79.4992 77.5348 80.0805 77.316 80.8242 77.316C81.3336 77.316 81.8648 77.4316 82.4148 77.666L82.6898 77.0441C82.1273 76.8066 81.5211 76.6879 80.868 76.6879C80.2148 76.6879 79.6648 76.8129 79.1836 77.0629C78.7055 77.3129 78.3367 77.6754 78.0836 78.1504C77.8273 78.6254 77.7023 79.1785 77.7023 79.8098C77.7023 80.7941 77.9617 81.5629 78.4742 82.1098C78.9898 82.6566 79.7086 82.9316 80.6336 82.9316L80.6305 82.9223ZM85.543 80.9035L84.7898 82.8348H84.0711L86.4867 76.7379H87.0836L89.4867 82.8348H88.7523L87.993 80.9035H85.5461H85.543ZM87.768 80.2691H85.793L86.5117 78.3879C86.6273 78.0691 86.7148 77.7785 86.7742 77.5129C86.8711 77.8598 86.968 78.1504 87.0586 78.3879L87.768 80.2691ZM91.6461 79.3816V82.8316H90.9899V76.7598H91.793L95.1211 81.8348H95.1555C95.1492 81.7598 95.1367 81.5191 95.118 81.1129C95.0992 80.7066 95.093 80.416 95.0961 80.2441V76.7598H95.7617V82.8316H94.9523L91.6149 77.7348H91.5805C91.6242 78.3316 91.6461 78.8816 91.6461 79.3785V79.3816ZM98.8273 82.8316V76.7598H98.118V82.8316H98.8273ZM104.871 82.1941V82.8348H100.671V82.2816L103.912 77.3973H100.771V76.7629H104.777V77.316L101.537 82.1973H104.871V82.1941ZM106.612 82.8348L107.365 80.9035H109.812L110.571 82.8348H111.305L108.902 76.7379H108.305L105.89 82.8348H106.609H106.612ZM107.615 80.2691H109.59L108.88 78.3879C108.79 78.1504 108.693 77.8566 108.596 77.5129C108.534 77.7785 108.446 78.0723 108.334 78.3879L107.615 80.2691ZM114.099 82.8316V77.3879H116.034V76.7598H111.455V77.3879H113.39V82.8316H114.099ZM118.334 76.7598V82.8316H117.624V76.7598H118.334ZM123.174 82.9191C124.055 82.9191 124.743 82.641 125.237 82.0848C125.73 81.5285 125.977 80.7629 125.977 79.791C125.977 78.8191 125.73 78.0535 125.237 77.4973C124.743 76.9441 124.059 76.666 123.18 76.666C122.302 76.666 121.58 76.9379 121.093 77.4816C120.602 78.0254 120.359 78.791 120.359 79.7816C120.359 80.7723 120.602 81.5504 121.093 82.0973C121.58 82.6441 122.277 82.9191 123.174 82.9191ZM121.637 81.666C121.99 82.091 122.502 82.3035 123.171 82.3035C123.84 82.3035 124.359 82.091 124.702 81.6691C125.049 81.2441 125.221 80.6223 125.221 79.7973C125.221 78.9723 125.049 78.3598 124.705 77.9379C124.362 77.516 123.852 77.3035 123.177 77.3035C122.502 77.3035 121.987 77.516 121.634 77.941C121.28 78.366 121.105 78.9848 121.105 79.7941C121.105 80.6035 121.28 81.241 121.634 81.666H121.637ZM128.665 82.8316V79.3816C128.665 78.8848 128.643 78.3348 128.599 77.7379H128.63L131.968 82.8348H132.777V76.7629H132.115V80.2473C132.109 80.4223 132.115 80.7129 132.137 81.116C132.159 81.5223 132.168 81.7629 132.174 81.8379H132.14L128.809 76.7629H128.009V82.8348H128.665V82.8316ZM137.987 82.4723C137.596 82.7723 137.068 82.9223 136.399 82.9223C135.674 82.9223 135.118 82.8285 134.727 82.6441V81.9629C134.977 82.0691 135.249 82.1504 135.546 82.2129C135.84 82.2754 136.134 82.3035 136.424 82.3035C136.899 82.3035 137.255 82.2129 137.493 82.0348C137.734 81.8566 137.852 81.6066 137.852 81.2879C137.852 81.0785 137.812 80.9066 137.724 80.7723C137.64 80.6379 137.499 80.5129 137.299 80.4004C137.099 80.2879 136.796 80.1566 136.39 80.0129C135.821 79.8098 135.415 79.5723 135.174 79.2941C134.93 79.016 134.809 78.6566 134.809 78.2098C134.809 77.741 134.987 77.3691 135.34 77.091C135.693 76.8129 136.162 76.6754 136.743 76.6754C137.324 76.6754 137.909 76.7848 138.418 77.0066L138.196 77.6223C137.693 77.4129 137.202 77.3066 136.727 77.3066C136.352 77.3066 136.059 77.3879 135.846 77.5473C135.637 77.7066 135.53 77.9316 135.53 78.216C135.53 78.4254 135.568 78.6004 135.646 78.7316C135.724 78.866 135.855 78.9879 136.04 79.1004C136.224 79.2129 136.509 79.3348 136.89 79.4723C137.53 79.7004 137.971 79.9441 138.212 80.2035C138.452 80.4629 138.571 80.8004 138.571 81.216C138.571 81.7504 138.377 82.166 137.987 82.466V82.4723Z" fill="#001040"/>
<path fill-rule="evenodd" clip-rule="evenodd" d="M47.6992 59.8629L45.6023 64.4066H42.543L51.8523 44.5285L60.8336 64.4066H57.7273L55.7523 59.8629H47.6992ZM48.8773 57.2066H54.593L51.8023 50.8473L48.8773 57.2066ZM66.0336 64.4035V45.7004H63.193V64.4035H66.0336ZM84.443 63.3754C82.818 64.2879 81.1117 64.7441 79.3242 64.7441C76.6367 64.7441 74.3398 63.8129 72.4398 61.9473C70.5461 60.066 69.5992 57.7973 69.5992 55.141C69.5992 52.7598 70.3898 50.6348 71.9742 48.7691C73.9242 46.4848 76.4461 45.341 79.5398 45.341C81.2305 45.341 82.8617 45.7973 84.4398 46.7098V50.0535C82.7992 48.6879 81.1023 48.0066 79.3461 48.0066C77.4117 48.0066 75.7836 48.6973 74.4586 50.0785C73.1273 51.4504 72.4617 53.1316 72.4617 55.116C72.4617 57.1004 73.1273 58.7348 74.4586 60.0816C75.7898 61.4316 77.4242 62.1035 79.3555 62.1035C80.3555 62.1035 81.2023 61.941 81.9023 61.6191C82.293 61.4566 82.6961 61.241 83.1148 60.966C83.5336 60.691 83.9742 60.3598 84.4367 59.9723V63.3754H84.443ZM90.8711 64.4035V56.8098H92.1867C94.143 56.8098 95.6992 56.3098 96.8523 55.3066C98.0055 54.3066 98.5836 52.9473 98.5836 51.2379C98.5836 49.6379 98.043 48.316 96.9617 47.266C96.343 46.6598 95.6305 46.2473 94.818 46.0316C94.0148 45.8129 92.8242 45.7035 91.2492 45.7035H88.0336V64.4066H90.8742L90.8711 64.4035ZM90.8711 54.191H91.9305C94.5367 54.191 95.843 53.1941 95.843 51.2004C95.843 49.2066 94.4992 48.3066 91.8086 48.3066H90.8711V54.1941V54.191ZM102.412 64.4035L104.509 59.8598H112.562L114.537 64.4035H117.643L108.662 44.5254L99.3523 64.4035H102.412ZM105.687 57.2066H111.402L108.612 50.8473L105.687 57.2066Z" fill="#001040"/>
<path fill-rule="evenodd" clip-rule="evenodd" d="M75.5617 18.4519C75.4773 18.5394 75.3711 18.5863 75.2398 18.5925C75.1086 18.6019 74.9992 18.5675 74.9023 18.4894C74.8086 18.4144 74.7586 18.3144 74.7492 18.1894C74.7398 18.0582 74.7805 17.9519 74.8648 17.8675C74.9492 17.7832 75.0555 17.7363 75.1867 17.73C75.318 17.7207 75.4273 17.755 75.5242 17.8269C75.618 17.8988 75.668 18.0019 75.6773 18.1332C75.6836 18.2582 75.6461 18.3644 75.5617 18.4519ZM71.4336 23.7988L71.0961 20.9457C71.2711 20.7207 71.4305 20.5488 71.5742 20.4269C71.718 20.305 71.893 20.2332 72.0961 20.2082C72.3555 20.1769 72.5523 20.2363 72.6898 20.3863C72.8055 20.5113 72.8867 20.7144 72.9367 20.9925L72.9617 21.1707L73.2461 23.5769L73.9086 23.4988L73.6117 21.005C73.5523 20.4988 73.4117 20.1269 73.1898 19.8894C72.968 19.6519 72.6492 19.5582 72.2336 19.6082C71.9586 19.6394 71.7242 19.7332 71.5336 19.8832C71.4055 19.9832 71.2836 20.0988 71.168 20.2269L70.9992 20.4269H70.9742L70.8492 19.8707L70.2992 19.9363L70.7648 23.8738L71.4273 23.7957L71.4336 23.7988ZM67.643 24.5425C67.8867 24.4925 68.1055 24.3925 68.2961 24.2425C68.4242 24.1425 68.543 24.03 68.6555 23.9113L68.818 23.7269L68.843 23.7207L68.9898 24.1738L69.5336 24.0675L69.0648 21.6832C68.968 21.1988 68.7867 20.83 68.5148 20.5832C68.2461 20.3332 67.8742 20.2582 67.3992 20.3519C67.0867 20.4144 66.8086 20.5269 66.5711 20.6863C66.393 20.8082 66.2367 20.9269 66.1023 21.0425L65.9773 21.1582L66.3242 21.5644C66.4586 21.4269 66.6148 21.2957 66.793 21.1707C66.9742 21.0457 67.1742 20.9613 67.3992 20.9175C67.5586 20.8863 67.6961 20.8863 67.8117 20.9238C67.9273 20.9582 68.0211 21.0175 68.0992 21.0957C68.1742 21.1738 68.2367 21.2707 68.2836 21.3832C68.3305 21.4957 68.368 21.6144 68.3898 21.7363C67.5773 21.9925 67.0055 22.2707 66.6711 22.5707C66.3398 22.8738 66.2148 23.2363 66.2992 23.6644C66.368 24.0175 66.5305 24.2675 66.7836 24.4175C67.0367 24.5675 67.3273 24.6082 67.6492 24.5457L67.643 24.5425ZM65.318 26.7425C65.0992 26.88 64.843 26.9894 64.543 27.0707C64.3086 27.1363 64.0867 27.1738 63.8805 27.18C63.6742 27.1894 63.4898 27.1675 63.3273 27.1175C63.1648 27.0675 63.0273 26.9894 62.918 26.8832C62.8086 26.7769 62.7305 26.6425 62.6836 26.4738C62.6398 26.3113 62.6461 26.1425 62.7055 25.9675C62.7648 25.7925 62.8648 25.6207 63.0023 25.455L62.993 25.4238L62.8867 25.3832C62.818 25.3488 62.7523 25.305 62.6898 25.2488C62.5961 25.1644 62.5273 25.0457 62.4867 24.8957C62.443 24.7332 62.4492 24.58 62.5023 24.4332C62.5586 24.2894 62.6273 24.1675 62.7055 24.0707L62.6961 24.0394L62.5805 23.98C62.4648 23.9144 62.3523 23.8238 62.2398 23.7144C62.0898 23.5675 61.9836 23.3769 61.918 23.1457C61.8617 22.9363 61.8461 22.7363 61.8773 22.5488C61.9086 22.3613 61.9711 22.1894 62.0711 22.0332C62.168 21.88 62.2961 21.7457 62.4555 21.6363C62.6117 21.5238 62.7898 21.4425 62.9836 21.3894C63.0867 21.3613 63.1898 21.3425 63.2867 21.3363C63.3836 21.33 63.4711 21.33 63.5523 21.3363L64.8773 20.9707L65.0117 21.4675L64.2273 21.6832L64.3367 21.7582C64.4086 21.8144 64.4773 21.88 64.543 21.9613C64.6398 22.08 64.7117 22.2207 64.7555 22.3863C64.8117 22.5894 64.8273 22.7863 64.7992 22.9707C64.7711 23.155 64.7117 23.3238 64.6148 23.4707C64.5211 23.6175 64.3961 23.7457 64.243 23.855C64.0898 23.9644 63.918 24.0457 63.7242 24.0988C63.6305 24.1238 63.5305 24.1394 63.4242 24.1425C63.318 24.1457 63.2148 24.1425 63.1148 24.1207C63.0617 24.1957 63.0242 24.2769 62.9961 24.3613C62.968 24.4457 62.968 24.5394 62.9961 24.6457C63.0305 24.7675 63.1023 24.8519 63.218 24.905C63.3336 24.9582 63.5211 24.9488 63.7836 24.8769L64.5211 24.6738L64.7055 24.6269C65.0648 24.5457 65.3555 24.5425 65.5805 24.6144C65.843 24.6957 66.018 24.8988 66.1055 25.2175C66.1555 25.3957 66.1555 25.5769 66.1117 25.7613C66.068 25.9457 65.9773 26.1207 65.843 26.2894C65.7086 26.455 65.5336 26.6082 65.3148 26.7457L65.318 26.7425ZM60.7305 26.33L59.9055 23.9238C59.9242 23.5613 59.9992 23.2863 60.1273 23.0988C60.2555 22.9113 60.3992 22.7894 60.5586 22.7363L60.6992 22.6957C60.7211 22.6925 60.7398 22.6863 60.7586 22.6863L60.8461 22.6769H60.943L60.8773 22.0769C60.743 22.0675 60.5992 22.0863 60.4523 22.1363C60.2367 22.2113 60.0617 22.3488 59.9273 22.5488C59.8273 22.6988 59.7492 22.8738 59.6992 23.0675L59.6555 23.2707L59.6336 23.28L59.3461 22.6207L58.8242 22.8019L60.1055 26.5519L60.7367 26.3363L60.7305 26.33ZM57.0117 27.9175C57.3211 27.7863 57.5773 27.605 57.7836 27.3738C57.9898 27.1425 58.1398 26.8769 58.2305 26.5738C58.3242 26.2707 58.3523 25.9394 58.318 25.5769C58.2867 25.2144 58.1836 24.8363 58.0148 24.4425C57.8492 24.0519 57.6492 23.7238 57.4117 23.455C57.1773 23.1863 56.918 22.9832 56.6398 22.8457C56.3617 22.7082 56.068 22.6363 55.7586 22.6269C55.4523 22.6207 55.143 22.6832 54.8336 22.8144C54.5242 22.9457 54.2648 23.1269 54.0586 23.3519C53.8492 23.5769 53.7023 23.8363 53.6086 24.1332C53.518 24.43 53.4867 24.755 53.518 25.1113C53.5492 25.4675 53.6492 25.8425 53.818 26.2394C53.9867 26.6332 54.1898 26.9675 54.4273 27.2425C54.6648 27.5175 54.9242 27.7238 55.2023 27.8675C55.4805 28.0113 55.7742 28.0894 56.0836 28.0988C56.393 28.1082 56.6992 28.0488 57.0086 27.9144L57.0117 27.9175ZM51.5648 30.5769C51.7992 30.4425 51.9898 30.2863 52.1336 30.1113C52.2305 29.9925 52.3148 29.8769 52.3898 29.755L52.4961 29.5738L52.0742 29.3082C51.993 29.4613 51.8961 29.6019 51.7836 29.73C51.6711 29.8582 51.5336 29.9707 51.368 30.0644C51.0367 30.2519 50.7086 30.2957 50.3836 30.1988C50.1023 30.1144 49.8586 29.9363 49.6461 29.6613L49.543 29.5175L51.8648 28.1957C51.8492 28.1488 51.8273 28.0925 51.7961 28.0332L51.6961 27.8488C51.5555 27.6019 51.3992 27.3988 51.2273 27.2332C51.0523 27.0707 50.868 26.9488 50.6742 26.8738C50.4773 26.7988 50.2742 26.7707 50.0586 26.7925C49.843 26.8144 49.6273 26.8863 49.4117 27.0113C49.2148 27.1238 49.0461 27.2738 48.9086 27.4613C48.7711 27.6488 48.6742 27.8613 48.6211 28.0988C48.5648 28.3363 48.5586 28.5925 48.5992 28.8675C48.6398 29.1425 48.7398 29.4207 48.8992 29.705C49.0586 29.9894 49.2461 30.2175 49.4555 30.3925C49.6648 30.5675 49.8898 30.6894 50.1242 30.7582C50.3586 30.8269 50.6023 30.8457 50.8492 30.8144C51.0961 30.7832 51.3367 30.7019 51.568 30.5707L51.5648 30.5769ZM48.8617 32.03C48.7305 32.2238 48.5648 32.3894 48.3648 32.5207C48.1492 32.6644 47.918 32.7613 47.6773 32.8113C47.4367 32.8613 47.1992 32.8582 46.9648 32.8019C46.7305 32.7457 46.5023 32.6363 46.2805 32.4738C46.0586 32.3113 45.8586 32.0925 45.6805 31.8207C45.4992 31.5425 45.3773 31.2707 45.3211 30.9957C45.2648 30.7238 45.2586 30.4644 45.3055 30.2175C45.3523 29.9707 45.4461 29.7457 45.5867 29.5425C45.7273 29.3394 45.9055 29.1644 46.118 29.0238C46.3336 28.88 46.5461 28.7957 46.7492 28.7707C46.9523 28.7457 47.1492 28.7457 47.3367 28.7707L47.293 29.3269L47.143 29.3113C47.043 29.305 46.9461 29.305 46.8523 29.3175C46.7086 29.3332 46.5742 29.3863 46.443 29.4738C46.293 29.5738 46.1773 29.6957 46.0898 29.8394C46.0023 29.9863 45.9523 30.1457 45.9367 30.3175C45.9211 30.4894 45.9367 30.6738 45.9898 30.8644C46.0398 31.055 46.1305 31.2457 46.2555 31.4363C46.3805 31.6269 46.5211 31.7832 46.6711 31.905C46.8211 32.0269 46.9805 32.1144 47.1398 32.1644C47.3023 32.2175 47.4648 32.2332 47.6336 32.2082C47.7992 32.1863 47.9586 32.1238 48.1086 32.0238C48.2617 31.9207 48.3805 31.7957 48.468 31.6425C48.5523 31.4925 48.618 31.3363 48.6617 31.1769L49.1523 31.3894L49.0992 31.5582C49.0398 31.7238 48.9617 31.88 48.8617 32.0269V32.03ZM43.0117 30.1207C42.9867 30.2394 42.9242 30.3363 42.818 30.4144C42.7117 30.4925 42.5992 30.5238 42.4805 30.5113C42.3586 30.4988 42.2617 30.4425 42.1898 30.3425C42.1117 30.2363 42.0867 30.1269 42.1117 30.0113C42.1367 29.8957 42.2023 29.7988 42.3055 29.7207C42.4117 29.6425 42.5211 29.6082 42.6398 29.6207C42.7586 29.63 42.8555 29.6894 42.9336 29.7925C43.0086 29.8925 43.0336 30.0019 43.0086 30.1207H43.0117ZM43.6867 35.8175L42.2586 31.8613L41.7492 32.28L42.5961 34.4957L43.0586 35.6238L43.0336 35.6457L42.0117 34.9769L40.0086 33.7113L39.4742 34.1519L43.0836 36.3113L43.6867 35.8144V35.8175ZM39.0773 36.43L40.8023 38.2988L40.3117 38.7519L37.6273 35.8425L38.0336 35.4644L38.5617 35.9519L38.5805 35.9363L38.5398 35.7332C38.5086 35.5332 38.5086 35.3425 38.5398 35.1644C38.5805 34.9269 38.6867 34.73 38.8523 34.5738C38.968 34.4675 39.0898 34.3894 39.218 34.3457L39.5211 34.8644L39.4336 34.9082L39.3586 34.9519C39.3117 34.98 39.2586 35.0238 39.1992 35.0769C39.0773 35.1925 38.993 35.3613 38.9523 35.5832C38.9117 35.805 38.9523 36.0894 39.0836 36.4269L39.0773 36.43ZM39.0898 39.9394C39.0023 40.1488 38.8648 40.3519 38.6773 40.5488C38.493 40.7425 38.2867 40.8894 38.0617 40.9894C37.8336 41.0894 37.5961 41.1425 37.3523 41.1425C37.1055 41.1425 36.8586 41.0925 36.6055 40.9863C36.3555 40.88 36.1117 40.7144 35.8742 40.4894C35.6398 40.2644 35.4617 40.0269 35.3461 39.7738C35.2305 39.5238 35.1648 39.2738 35.1492 39.03C35.1336 38.7863 35.1648 38.555 35.243 38.3363C35.3211 38.1175 35.4367 37.9238 35.5961 37.7613C35.768 37.58 35.9555 37.4488 36.1555 37.3644C36.3555 37.28 36.5586 37.2488 36.768 37.2644C36.9773 37.28 37.1898 37.3425 37.4023 37.4488C37.6148 37.555 37.8242 37.7082 38.0273 37.9019L38.1742 38.0488C38.2211 38.0988 38.2586 38.1425 38.2867 38.1863L36.443 40.1207L36.5836 40.23C36.8648 40.43 37.1492 40.53 37.443 40.5332C37.7836 40.5332 38.0867 40.3957 38.3492 40.1207C38.4805 39.9832 38.5805 39.8363 38.6492 39.68C38.718 39.5238 38.7711 39.3613 38.8055 39.1925L39.2867 39.3269L39.2367 39.53C39.1992 39.6644 39.1492 39.805 39.093 39.9425L39.0898 39.9394ZM35.7586 43.8425C35.9367 43.6238 36.068 43.405 36.1492 43.18C36.2305 42.9582 36.2648 42.7425 36.2586 42.5332C36.2523 42.3238 36.2023 42.1269 36.1148 41.9457C36.0242 41.7644 35.8992 41.605 35.7367 41.4707C35.5867 41.3457 35.4336 41.2582 35.2836 41.2082C35.1336 41.1582 34.9836 41.1332 34.8336 41.1394C34.6867 41.1457 34.5367 41.1738 34.3867 41.2238L34.1617 41.3113L33.9398 41.4175L33.2086 41.7957C33.1055 41.8519 33.0023 41.905 32.8961 41.9519C32.7898 41.9988 32.6836 42.0332 32.5773 42.0582C32.4711 42.0832 32.3648 42.0863 32.2648 42.0675C32.1617 42.0488 32.0617 42.0019 31.9617 41.9175C31.7742 41.7613 31.6836 41.5707 31.693 41.3425C31.7023 41.1144 31.7992 40.8832 31.9898 40.6519C32.1492 40.4582 32.3242 40.3144 32.5211 40.2175C32.668 40.1457 32.8211 40.0925 32.9836 40.0613L33.1492 40.0363L33.043 39.4738C32.7711 39.4957 32.5023 39.5738 32.2367 39.705C31.9711 39.8363 31.7367 40.0269 31.5336 40.2769C31.3773 40.4675 31.2648 40.6613 31.1898 40.8644C31.1148 41.0675 31.0805 41.2675 31.0836 41.4644C31.0867 41.6613 31.1305 41.8488 31.2117 42.0238C31.293 42.1988 31.4117 42.3519 31.5648 42.48C31.7148 42.605 31.868 42.6894 32.0273 42.7332C32.1836 42.7769 32.3367 42.7957 32.4867 42.7832C32.6367 42.7738 32.7805 42.7394 32.9211 42.6894L33.1242 42.6082L33.3117 42.5175L34.0555 42.1363L34.4086 41.9738C34.518 41.9238 34.6273 41.8894 34.7273 41.8738C34.8305 41.855 34.9336 41.8582 35.0336 41.8832C35.1367 41.9082 35.2398 41.9644 35.3461 42.0488C35.5461 42.2144 35.6461 42.4238 35.6461 42.6769C35.6461 42.93 35.5336 43.1925 35.3086 43.4675C35.1336 43.6832 34.9148 43.8488 34.6586 43.9707C34.4648 44.0613 34.268 44.1238 34.0648 44.1582L33.8586 44.1832L33.9648 44.7988C34.3023 44.7738 34.6273 44.6832 34.9367 44.5238C35.2492 44.3644 35.5242 44.1425 35.7617 43.8519L35.7586 43.8425ZM31.2805 49.9175L30.1992 48.5925L31.2648 46.9613L32.9023 47.4332L33.2992 46.8269L27.8461 45.4082L27.4273 46.0488L30.9023 50.4957L31.2805 49.9144V49.9175ZM29.3586 53.33L27.5023 52.3144L27.9211 51.5394C28.0617 51.28 28.1586 51.03 28.2148 50.7863C28.2711 50.5425 28.2805 50.3113 28.243 50.0925C28.2055 49.8738 28.1211 49.6738 27.9867 49.4925C27.8523 49.3113 27.6586 49.1519 27.4117 49.0175C27.1555 48.8769 26.9148 48.8019 26.693 48.7925C26.4711 48.7832 26.2648 48.8238 26.0742 48.9175C25.8836 49.0113 25.7055 49.155 25.5398 49.3457C25.4148 49.4894 25.2992 49.6519 25.1867 49.8363L25.0773 50.0269L24.3492 51.3675L29.0367 53.9269L29.3586 53.3332V53.33ZM28.1992 55.4238C28.2148 55.7238 28.1555 56.03 28.0148 56.3488C27.8805 56.6582 27.6961 56.9144 27.468 57.1238C27.2398 57.3332 26.9773 57.4832 26.6742 57.58C26.3742 57.6769 26.043 57.7082 25.6805 57.6769C25.318 57.6457 24.9398 57.5394 24.543 57.3644C24.1523 57.1894 23.8242 56.98 23.5586 56.7332C23.293 56.4863 23.0961 56.2175 22.9617 55.9269C22.8273 55.6363 22.7617 55.3332 22.7617 55.0175C22.7617 54.7019 22.8305 54.3863 22.968 54.0738C23.0992 53.7738 23.2742 53.5394 23.4961 53.3675C23.718 53.1957 23.9398 53.0707 24.1617 52.9988L24.4148 53.5113L24.2242 53.5894C24.1023 53.6488 23.9898 53.7207 23.8836 53.805C23.7273 53.9332 23.6023 54.0988 23.5117 54.3082C23.4086 54.5425 23.3617 54.7738 23.3711 55.005C23.3805 55.2332 23.4398 55.455 23.5523 55.6644C23.6648 55.8738 23.8273 56.0707 24.0367 56.2488C24.2461 56.4269 24.5055 56.5863 24.8086 56.7207C25.1148 56.8582 25.4086 56.9425 25.6867 56.98C25.9648 57.0175 26.218 57.0082 26.4492 56.955C26.6805 56.9019 26.8836 56.805 27.0586 56.6582C27.2336 56.5144 27.3742 56.3238 27.4773 56.0894C27.5836 55.8519 27.6273 55.6207 27.6086 55.3988C27.5898 55.1769 27.5305 54.9488 27.4273 54.7113L27.9648 54.5394L28.0555 54.7582C28.1367 54.98 28.1836 55.2019 28.1961 55.4269L28.1992 55.4238ZM26.5617 59.5207L21.5586 57.6613L21.3242 58.2957L26.3273 60.1582L26.5617 59.5238V59.5207ZM23.6336 63.2332L25.0398 64.2019L24.8367 64.8644L20.2617 61.5675L20.4867 60.8332L26.118 60.6675L25.9055 61.3613L24.2023 61.3675L23.6336 63.2332ZM23.1555 62.9113L23.6242 61.3738H22.7711L22.3023 61.3832H21.8398C21.5305 61.3769 21.218 61.3738 20.8961 61.3644L20.8867 61.3957L21.2898 61.6488L21.6805 61.9019C21.9367 62.0707 22.193 62.2488 22.4523 62.43L23.1555 62.9113ZM27.0211 52.0519L27.4023 51.3488L27.4898 51.1769C27.6492 50.8394 27.7055 50.5519 27.6648 50.3082C27.618 50.0269 27.4273 49.7925 27.093 49.6113C26.7555 49.4269 26.4648 49.4019 26.2211 49.5394C25.9773 49.6769 25.743 49.9488 25.5211 50.3613L25.1555 51.0332L27.0211 52.0519ZM29.8336 48.1519L30.7117 46.8082L29.893 46.5738L29.443 46.4488L28.9961 46.3175L28.0961 46.0363L28.0773 46.0644L28.393 46.4207L28.6992 46.7738C28.8992 47.0082 29.0961 47.2488 29.293 47.4957L29.8367 48.155L29.8336 48.1519ZM37.5648 38.2613L36.1023 39.7957C35.9773 39.6457 35.8805 39.4925 35.818 39.3363C35.7555 39.1832 35.7211 39.03 35.7148 38.8832C35.7086 38.7363 35.7305 38.5957 35.7805 38.4675C35.8305 38.3363 35.9023 38.2207 35.9992 38.1207C36.2117 37.8957 36.4555 37.7957 36.7242 37.8175C36.9492 37.8363 37.1805 37.9425 37.418 38.1363L37.5617 38.2644L37.5648 38.2613ZM45.9086 34.0707L43.5617 30.88L43.0242 31.2769L45.3711 34.4675L45.9086 34.0707ZM49.2898 29.1082L51.1305 28.0613L51.0305 27.8957C50.8586 27.6394 50.668 27.4707 50.4586 27.3894C50.2086 27.2925 49.9461 27.3207 49.6773 27.4738C49.5555 27.5425 49.4523 27.6332 49.368 27.7425C49.2836 27.8519 49.2242 27.98 49.1867 28.1238C49.1492 28.2675 49.1398 28.4207 49.1555 28.5863C49.1711 28.7519 49.218 28.9269 49.2961 29.1082H49.2898ZM56.1305 27.48C56.3492 27.4988 56.568 27.4613 56.7867 27.3675C57.0055 27.2738 57.1836 27.1425 57.3211 26.9707C57.4586 26.7988 57.5523 26.5988 57.6023 26.3675C57.6555 26.1363 57.6617 25.88 57.6273 25.6019C57.593 25.3238 57.5086 25.03 57.3773 24.7207C57.2461 24.4144 57.0961 24.155 56.9211 23.9394C56.7461 23.7238 56.5586 23.5582 56.3617 23.4425C56.1617 23.3269 55.9555 23.2613 55.7367 23.2425C55.5211 23.2269 55.3023 23.2644 55.0836 23.3582C54.8648 23.4519 54.6867 23.5832 54.5492 23.7519C54.4117 23.9207 54.3148 24.1175 54.2617 24.3425C54.2086 24.5675 54.1961 24.8175 54.2305 25.0925C54.2648 25.3675 54.3461 25.6582 54.4773 25.9613C54.6086 26.2707 54.7617 26.5363 54.9398 26.7519C55.1148 26.9707 55.3055 27.1394 55.5055 27.2644C55.7086 27.3863 55.918 27.4582 56.1367 27.4769L56.1305 27.48ZM63.6086 23.6675C63.4992 23.6988 63.3898 23.705 63.2805 23.6894C63.1711 23.6738 63.068 23.6363 62.9711 23.58C62.8742 23.5207 62.7898 23.4425 62.7148 23.3425C62.643 23.2425 62.5867 23.1207 62.5461 22.98C62.468 22.6957 62.4867 22.455 62.6023 22.2582C62.718 22.0613 62.8867 21.93 63.1117 21.8675C63.3367 21.805 63.5492 21.83 63.7492 21.9425C63.9492 22.055 64.0867 22.2519 64.1648 22.5332C64.2023 22.6738 64.218 22.8082 64.2055 22.9332C64.1961 23.0582 64.1617 23.1707 64.1086 23.2675C64.0555 23.3675 63.9836 23.4519 63.8992 23.5207C63.8148 23.5894 63.718 23.6394 63.6055 23.6707L63.6086 23.6675ZM63.6492 26.6425C63.8773 26.7082 64.1648 26.6957 64.5117 26.5988C64.6961 26.5488 64.8555 26.48 64.9898 26.3957C65.1273 26.3113 65.2367 26.2175 65.3211 26.1175C65.4055 26.0175 65.4648 25.9113 65.4961 25.8019C65.5273 25.6925 65.5305 25.5863 65.5023 25.4863C65.4523 25.3082 65.3555 25.2019 65.2055 25.1707C65.0555 25.1394 64.8555 25.1582 64.6055 25.2269L63.9461 25.4082L63.8305 25.4363L63.7023 25.4613C63.6148 25.4769 63.5242 25.4832 63.4336 25.48C63.3242 25.6175 63.2555 25.7488 63.2211 25.8769C63.1898 26.005 63.1867 26.1238 63.218 26.2332C63.2742 26.4363 63.418 26.5738 63.6461 26.6394L63.6492 26.6425ZM67.2211 23.9269C67.3742 23.9957 67.5461 24.0113 67.7367 23.9738C67.9242 23.9363 68.0898 23.8582 68.2367 23.7363C68.3836 23.6144 68.5336 23.4519 68.6867 23.2425L68.4742 22.1613L68.2461 22.2425C68.0305 22.3207 67.843 22.3988 67.6867 22.4769C67.4773 22.58 67.3117 22.6832 67.193 22.7925C67.0742 22.8988 66.993 23.0113 66.9523 23.1269C66.9117 23.2425 66.9023 23.3613 66.9273 23.4863C66.9711 23.7113 67.068 23.8582 67.2211 23.9269ZM75.8586 23.3457L75.6211 19.3894L74.9555 19.43L75.193 23.3863L75.8586 23.3457ZM79.7586 22.7238L79.7648 23.2707L76.7711 23.305V22.9457L78.8148 19.8644L76.9617 19.8863L76.9555 19.3394L79.6555 19.3082V19.6675L77.6117 22.7488L79.7586 22.7238ZM81.5523 23.4582C81.8023 23.4738 82.0367 23.43 82.2617 23.33C82.4086 23.2644 82.5523 23.1863 82.6898 23.0988L82.893 22.9613H82.918L82.9492 23.4394L83.5023 23.4707L83.6398 21.0425C83.668 20.5488 83.5805 20.1457 83.3805 19.8394C83.1805 19.53 82.8398 19.3644 82.3586 19.3363C82.0398 19.3175 81.743 19.3582 81.4711 19.4519C81.268 19.5238 81.0867 19.5988 80.9273 19.68L80.7773 19.7613L81.0117 20.2394C81.1742 20.1394 81.3586 20.0519 81.5648 19.9769C81.7711 19.9019 81.9867 19.8707 82.2148 19.8832C82.3773 19.8925 82.5086 19.9269 82.6117 19.9925C82.7148 20.055 82.793 20.1363 82.8461 20.23C82.8992 20.3269 82.9367 20.4332 82.9555 20.555C82.9742 20.6769 82.9773 20.7988 82.9711 20.9238C82.1211 20.9675 81.4992 21.0957 81.0992 21.3019C80.7023 21.5113 80.4898 21.8332 80.4648 22.2675C80.443 22.6269 80.5398 22.9082 80.7461 23.1175C80.9555 23.3269 81.2242 23.4394 81.5523 23.4582ZM81.2898 22.755C81.4211 22.8613 81.5805 22.9175 81.7773 22.93C81.968 22.9394 82.1492 22.905 82.3211 22.8269C82.493 22.7457 82.6805 22.6238 82.8805 22.4613L82.943 21.3613L82.7023 21.3832C82.4711 21.405 82.2711 21.4363 82.0992 21.4707C81.8711 21.5175 81.6867 21.5769 81.543 21.6519C81.3992 21.7269 81.2961 21.8144 81.2273 21.9144C81.1586 22.0175 81.1211 22.13 81.1148 22.255C81.1023 22.4832 81.1617 22.6488 81.2898 22.755ZM85.9648 23.8238C86.0898 23.8394 86.2148 23.8394 86.3461 23.8238L86.5336 23.7988L86.7086 23.7644L86.6398 23.2457C86.5711 23.2644 86.4961 23.28 86.4117 23.2925C86.3273 23.305 86.2523 23.305 86.1805 23.2988C85.9555 23.2707 85.8055 23.1863 85.7305 23.0457C85.6711 22.93 85.6461 22.7863 85.6523 22.605L85.6648 22.4644L85.9242 20.2769L86.9836 20.4019L87.0492 19.8582L85.9899 19.7332L86.1211 18.63L85.5648 18.5644L85.3523 19.6582L84.7336 19.6269L84.6742 20.13L85.2555 20.1988L84.9992 22.3769C84.9773 22.5707 84.9742 22.7519 84.993 22.9175C85.0117 23.0832 85.0586 23.23 85.1336 23.3519C85.2086 23.4769 85.3148 23.58 85.4492 23.6613C85.5836 23.7425 85.7555 23.7957 85.968 23.8207L85.9648 23.8238ZM88.9023 19.1988C88.8023 19.2644 88.6867 19.2863 88.5586 19.2675C88.4305 19.2457 88.3273 19.1894 88.2523 19.0925C88.1773 18.9957 88.1492 18.8894 88.168 18.7644C88.1898 18.6363 88.2492 18.5394 88.3492 18.4769C88.4492 18.4144 88.5648 18.3925 88.693 18.4144C88.8211 18.4363 88.9242 18.4925 88.9992 18.5832C89.0742 18.6738 89.1023 18.7863 89.0805 18.9144C89.0617 19.0394 88.9992 19.1332 88.8992 19.1988H88.9023ZM88.118 24.0394L88.7492 20.1238L88.0899 20.0175L87.4586 23.9332L88.118 24.0394ZM91.6149 24.7332C91.3805 24.7769 91.143 24.7707 90.9055 24.7175C90.668 24.6644 90.4523 24.5707 90.2555 24.4332C90.0617 24.2957 89.8992 24.1207 89.7742 23.9144C89.6492 23.705 89.5648 23.4644 89.5211 23.1894C89.4773 22.9144 89.493 22.6207 89.5617 22.3019C89.6336 21.9769 89.7461 21.7019 89.8992 21.4707C90.0523 21.2394 90.2305 21.055 90.4336 20.9175C90.6367 20.78 90.8555 20.6863 91.0898 20.6457C91.3242 20.6019 91.5617 20.6082 91.7992 20.6613C92.0367 20.7144 92.2555 20.8082 92.4492 20.9457C92.643 21.0832 92.8055 21.2582 92.9305 21.4707C93.0555 21.6832 93.1398 21.9238 93.1836 22.1988C93.2273 22.4738 93.2117 22.7707 93.1398 23.0957C93.0711 23.4144 92.9586 23.6894 92.8055 23.9207C92.6524 24.1519 92.4742 24.3332 92.2711 24.4707C92.068 24.6082 91.8492 24.6957 91.6149 24.7394V24.7332ZM91.0242 24.18C90.8586 24.1425 90.718 24.0738 90.5961 23.9707C90.4742 23.8675 90.3773 23.7425 90.3086 23.5894C90.2398 23.4363 90.1992 23.2644 90.1836 23.0738C90.1711 22.88 90.1898 22.6738 90.2367 22.4519C90.2867 22.23 90.3586 22.0332 90.4492 21.8613C90.543 21.6894 90.6523 21.5488 90.7805 21.4363C90.9086 21.3238 91.0492 21.2488 91.2023 21.2082C91.3555 21.1675 91.5148 21.1644 91.6773 21.2019C91.843 21.2394 91.9836 21.3082 92.1055 21.4113C92.2273 21.5144 92.3242 21.6425 92.3898 21.7957C92.4586 21.9488 92.4992 22.1238 92.5117 22.3207C92.5242 22.5144 92.5055 22.7238 92.4586 22.9488C92.4086 23.1707 92.3398 23.3675 92.2461 23.5363C92.1523 23.705 92.043 23.8425 91.918 23.9519C91.793 24.0613 91.6523 24.1363 91.4992 24.1769C91.3461 24.2175 91.1867 24.2207 91.0242 24.1832V24.18ZM95.1805 22.7363L94.3492 25.4832L93.7117 25.2894L94.8617 21.4957L95.3898 21.6582L95.2774 22.2207L95.2992 22.2269L95.5367 22.1113C95.693 22.0425 95.8523 21.9863 96.0117 21.9457C96.2492 21.8832 96.4992 21.8925 96.7648 21.9738C97.1648 22.0957 97.418 22.3082 97.5273 22.6144C97.6367 22.9207 97.6148 23.3175 97.468 23.8082L96.7398 26.2113L96.1023 26.0175L96.8055 23.6988L96.8523 23.5269C96.918 23.2519 96.9242 23.0332 96.868 22.8707C96.8023 22.6769 96.643 22.5425 96.3961 22.4675C96.1992 22.4082 96.0086 22.405 95.8305 22.4582C95.6492 22.5113 95.4336 22.605 95.1836 22.7394L95.1805 22.7363ZM101.355 28.13C101.674 28.2675 101.984 28.3269 102.28 28.305C102.502 28.2894 102.724 28.2394 102.943 28.1582L103.162 28.0644L102.984 27.5269C102.749 27.6332 102.521 27.6957 102.299 27.7175C102.077 27.7394 101.849 27.6957 101.609 27.5957C101.374 27.4957 101.184 27.3582 101.037 27.1832C100.89 27.0082 100.79 26.805 100.734 26.5738C100.677 26.3425 100.668 26.0894 100.702 25.8113C100.737 25.5332 100.818 25.2394 100.952 24.9269C101.084 24.6207 101.237 24.3613 101.412 24.1488C101.59 23.9363 101.78 23.7707 101.99 23.655C102.199 23.5394 102.418 23.4769 102.646 23.4675C102.874 23.455 103.105 23.5019 103.34 23.6019C103.549 23.6925 103.718 23.8144 103.846 23.9707C103.93 24.0738 104.005 24.1863 104.065 24.3082L104.143 24.4957L104.652 24.2363C104.577 24.0144 104.449 23.7925 104.277 23.5738C104.102 23.355 103.865 23.18 103.568 23.0519C103.252 22.9175 102.94 22.8519 102.624 22.855C102.309 22.8582 102.009 22.93 101.721 23.0644C101.434 23.2019 101.168 23.4019 100.921 23.6707C100.677 23.9394 100.471 24.2707 100.302 24.6644C100.13 25.0644 100.034 25.4457 100.002 25.8082C99.9742 26.1707 100.009 26.5019 100.109 26.8019C100.209 27.1019 100.362 27.3644 100.571 27.5925C100.78 27.8175 101.04 27.9988 101.349 28.13H101.355ZM105.715 30.105C105.477 30.0832 105.252 30.0175 105.034 29.9019C104.818 29.7863 104.634 29.6394 104.484 29.455C104.334 29.2707 104.224 29.0613 104.159 28.8269C104.093 28.5925 104.074 28.3363 104.105 28.0613C104.137 27.7863 104.227 27.505 104.38 27.2144C104.534 26.9207 104.718 26.6832 104.924 26.5019C105.134 26.3207 105.352 26.1894 105.587 26.1082C105.818 26.0269 106.052 25.9988 106.29 26.0207C106.527 26.0425 106.752 26.1082 106.971 26.2238C107.187 26.3394 107.371 26.4863 107.521 26.6707C107.671 26.855 107.78 27.0675 107.846 27.305C107.912 27.5425 107.927 27.7988 107.896 28.0738C107.865 28.3488 107.771 28.6332 107.618 28.9269C107.465 29.2144 107.287 29.4519 107.077 29.6332C106.868 29.8144 106.649 29.9457 106.418 30.0207C106.187 30.0988 105.952 30.1269 105.715 30.105ZM105.293 29.4144C105.143 29.3363 105.024 29.23 104.934 29.0988C104.843 28.9675 104.784 28.8207 104.759 28.655C104.73 28.4894 104.737 28.3144 104.777 28.1238C104.815 27.9363 104.887 27.7394 104.993 27.5363C105.099 27.3332 105.221 27.1644 105.355 27.0238C105.49 26.8832 105.634 26.7769 105.787 26.7019C105.94 26.63 106.093 26.5925 106.252 26.5925C106.412 26.5925 106.565 26.6332 106.715 26.7113C106.865 26.7894 106.984 26.8957 107.074 27.0269C107.165 27.1582 107.221 27.3082 107.249 27.4738C107.274 27.6425 107.268 27.8207 107.227 28.0113C107.187 28.2019 107.115 28.3988 107.009 28.6019C106.902 28.805 106.78 28.9738 106.649 29.1113C106.515 29.2488 106.374 29.355 106.221 29.4238C106.071 29.4957 105.915 29.53 105.755 29.5269C105.596 29.5269 105.443 29.4863 105.293 29.4082V29.4144ZM109.696 29.1425L108.162 31.5675L107.599 31.2082L109.718 27.8613L110.184 28.1582L109.927 28.6707L109.949 28.6832L110.209 28.6363C110.38 28.6113 110.546 28.5988 110.709 28.6019C110.952 28.605 111.193 28.6832 111.427 28.83C111.78 29.055 111.968 29.33 111.99 29.6519C112.012 29.9769 111.887 30.355 111.615 30.7863L110.271 32.9082L109.709 32.5488L111.002 30.5019L111.093 30.3488C111.23 30.0988 111.293 29.8925 111.284 29.7207C111.271 29.5175 111.155 29.3457 110.937 29.205C110.762 29.0957 110.58 29.0394 110.393 29.0425C110.205 29.0425 109.971 29.0769 109.696 29.1394V29.1425ZM112.277 34.4488C112.377 34.5238 112.49 34.5863 112.609 34.6363L112.787 34.705L112.955 34.7613L113.149 34.2769C113.08 34.2613 113.009 34.2363 112.927 34.205C112.849 34.1738 112.78 34.1394 112.724 34.0957C112.54 33.9613 112.452 33.8144 112.459 33.6519C112.465 33.5238 112.512 33.3832 112.605 33.23L112.684 33.1144L113.977 31.3363L114.837 31.9675L115.159 31.5269L114.299 30.8957L114.952 29.9988L114.499 29.6675L113.78 30.5144L113.259 30.1832L112.962 30.5925L113.434 30.9394L112.143 32.7113C112.027 32.8707 111.937 33.0269 111.874 33.18C111.809 33.3332 111.777 33.4832 111.784 33.63C111.79 33.7738 111.83 33.9175 111.909 34.055C111.987 34.1925 112.112 34.3238 112.28 34.4488H112.277ZM115.643 33.73L114.046 35.7082L113.527 35.2863L116.015 32.205L116.446 32.555L116.04 33.1488L116.059 33.1644L116.252 33.0925C116.446 33.0332 116.634 33.005 116.815 33.0113C117.055 33.0175 117.265 33.0925 117.443 33.2363C117.565 33.3363 117.659 33.4457 117.721 33.5675L117.252 33.9425L117.196 33.8613L117.143 33.7925C117.109 33.7488 117.059 33.7019 116.996 33.6519C116.865 33.5457 116.687 33.4894 116.462 33.48C116.237 33.4707 115.962 33.555 115.646 33.73H115.643ZM116.755 38.2144C116.934 38.38 117.137 38.505 117.362 38.5863C117.587 38.6675 117.818 38.7019 118.062 38.6863C118.305 38.6707 118.549 38.6019 118.799 38.48C119.049 38.3582 119.284 38.1769 119.502 37.9363C119.727 37.6925 119.89 37.4425 119.99 37.1832C120.09 36.9238 120.14 36.6738 120.137 36.4269C120.137 36.18 120.084 35.9488 119.987 35.73C119.887 35.5144 119.749 35.3207 119.568 35.155C119.39 34.9894 119.187 34.8644 118.962 34.7832C118.737 34.7019 118.502 34.6707 118.259 34.6863C118.015 34.705 117.768 34.7738 117.518 34.8957C117.268 35.0175 117.034 35.1988 116.809 35.4425C116.587 35.6832 116.427 35.93 116.327 36.1894C116.227 36.4488 116.177 36.6988 116.184 36.9425C116.187 37.1863 116.24 37.4175 116.337 37.6363C116.437 37.855 116.574 38.0457 116.755 38.2113V38.2144ZM116.868 37.4144C116.921 37.5644 117.012 37.6957 117.134 37.8113C117.259 37.9269 117.396 38.005 117.549 38.0457C117.702 38.0863 117.862 38.0925 118.024 38.0644C118.19 38.0363 118.352 37.9707 118.518 37.8707C118.684 37.7707 118.843 37.6394 118.996 37.4707C119.149 37.3019 119.271 37.13 119.359 36.9582C119.446 36.7832 119.499 36.6113 119.515 36.4425C119.534 36.2738 119.515 36.1144 119.462 35.9644C119.409 35.8144 119.318 35.6832 119.196 35.5675C119.074 35.4519 118.934 35.3738 118.78 35.3332C118.627 35.2925 118.468 35.2863 118.302 35.3175C118.137 35.3488 117.971 35.4144 117.802 35.5175C117.637 35.6175 117.474 35.7519 117.321 35.9207C117.168 36.0894 117.046 36.2582 116.962 36.4332C116.877 36.605 116.827 36.7769 116.809 36.9425C116.793 37.1082 116.809 37.2675 116.865 37.4175L116.868 37.4144ZM119.327 40.7019C119.39 40.7675 119.449 40.8207 119.496 40.855L119.568 40.9019L119.637 40.9332L119.937 40.5175L119.893 40.4894L119.865 40.4675L119.821 40.4238C119.787 40.3894 119.771 40.3425 119.777 40.2863C119.78 40.2425 119.805 40.1957 119.849 40.1425L119.902 40.0863L123.53 36.5738L123.068 36.0925L119.474 39.5707C119.265 39.7738 119.14 39.9675 119.109 40.1519C119.074 40.3363 119.146 40.5207 119.324 40.705L119.327 40.7019ZM123.609 42.0332L121.855 43.4519L121.43 42.9238L125.584 39.5644L126.63 40.8675L126.79 41.08C126.89 41.2207 126.974 41.3613 127.043 41.505C127.149 41.7175 127.205 41.9269 127.218 42.13C127.227 42.3332 127.19 42.5332 127.099 42.7238C127.009 42.9144 126.855 43.0988 126.64 43.2707C126.315 43.5332 125.987 43.6582 125.655 43.6457C125.324 43.6332 125.009 43.5113 124.705 43.2832L123.746 45.8082L123.265 45.2113L124.212 42.7894L123.605 42.0332H123.609ZM124.605 42.3832L124.043 41.6863L125.587 40.4363L126.149 41.1363C126.412 41.4613 126.559 41.755 126.587 42.0175C126.615 42.28 126.493 42.5207 126.218 42.7457C125.949 42.9644 125.677 43.0394 125.402 42.9738C125.177 42.9175 124.952 42.7738 124.734 42.5394L124.602 42.3863L124.605 42.3832ZM125.596 48.4269C125.409 48.2988 125.237 48.1207 125.087 47.8988C124.937 47.68 124.834 47.4457 124.784 47.2019C124.73 46.9582 124.73 46.7144 124.777 46.4738C124.824 46.2332 124.927 45.9988 125.084 45.7738C125.24 45.5488 125.449 45.3425 125.718 45.1582C125.987 44.9738 126.255 44.8488 126.524 44.7863C126.793 44.7238 127.049 44.7082 127.29 44.7425C127.534 44.7769 127.752 44.855 127.949 44.9769C128.146 45.0988 128.312 45.2519 128.44 45.4394C128.58 45.6457 128.671 45.855 128.712 46.0675C128.752 46.28 128.743 46.4894 128.684 46.6894C128.624 46.8925 128.521 47.0863 128.374 47.2738C128.227 47.4613 128.037 47.6363 127.802 47.7957C127.743 47.8363 127.687 47.8738 127.63 47.9113L127.549 47.9582L127.474 47.9925L125.962 45.7863L125.827 45.9019C125.574 46.1363 125.418 46.3957 125.359 46.6832C125.29 47.0175 125.359 47.3425 125.574 47.6582C125.684 47.8144 125.805 47.9425 125.943 48.0425C126.08 48.1425 126.227 48.2269 126.387 48.2957L126.159 48.7394L125.971 48.6488C125.846 48.5832 125.721 48.5082 125.596 48.4238V48.4269ZM127.552 47.2582L126.355 45.5082C126.53 45.4144 126.699 45.355 126.862 45.3238C127.024 45.2925 127.18 45.2925 127.324 45.3175C127.471 45.3425 127.602 45.3925 127.718 45.4675C127.834 45.5425 127.934 45.6363 128.012 45.755C128.187 46.0113 128.237 46.2675 128.162 46.5269C128.099 46.7425 127.946 46.9488 127.709 47.1425L127.552 47.2582ZM126.54 50.6269L125.387 51.2988L125.052 50.7207L129.915 47.8925L130.193 48.3738L129.827 48.6519L129.84 48.6738L130.055 48.7613C130.199 48.8238 130.337 48.9019 130.471 48.9894C130.674 49.1207 130.834 49.2863 130.949 49.4894C131.077 49.7113 131.149 49.93 131.165 50.1457C131.18 50.3644 131.146 50.5707 131.059 50.7738C130.971 50.9769 130.837 51.1675 130.659 51.3519C130.48 51.5363 130.255 51.705 129.987 51.8613C129.696 52.03 129.415 52.1425 129.14 52.1925C128.865 52.2457 128.609 52.2488 128.371 52.205C128.134 52.1613 127.921 52.0738 127.734 51.9425C127.549 51.8113 127.399 51.6488 127.284 51.4488C127.19 51.2894 127.134 51.1082 127.115 50.9113C127.093 50.7113 127.099 50.4988 127.127 50.2675L126.537 50.63L126.54 50.6269ZM127.727 51.0675C127.662 50.955 127.615 50.8082 127.584 50.6332C127.562 50.5019 127.559 50.3519 127.577 50.1894L127.602 50.0207L129.396 48.9769C129.643 49.0582 129.852 49.1519 130.018 49.2519C130.184 49.355 130.309 49.4769 130.393 49.6238C130.487 49.7832 130.537 49.9394 130.54 50.0894C130.546 50.2394 130.515 50.3832 130.446 50.5207C130.377 50.6582 130.277 50.7894 130.14 50.9113C130.005 51.0332 129.843 51.1519 129.655 51.2582C129.446 51.38 129.24 51.4675 129.043 51.5144C128.846 51.5644 128.665 51.5769 128.499 51.5582C128.334 51.5363 128.184 51.4863 128.052 51.4019C127.918 51.3175 127.812 51.2082 127.73 51.0644L127.727 51.0675ZM129.718 55.8207C129.54 55.6613 129.396 55.4707 129.293 55.2519C129.187 55.03 129.13 54.8019 129.118 54.5644C129.105 54.3269 129.143 54.0925 129.23 53.8644C129.318 53.6363 129.455 53.4207 129.643 53.2175C129.834 53.0144 130.074 52.8425 130.365 52.7019C130.665 52.5582 130.949 52.4769 131.227 52.455C131.502 52.4332 131.759 52.4613 131.993 52.5363C132.227 52.6113 132.434 52.7269 132.612 52.8863C132.79 53.0457 132.93 53.2332 133.037 53.455C133.143 53.6769 133.199 53.905 133.212 54.1457C133.224 54.3832 133.187 54.6175 133.096 54.8488C133.005 55.0769 132.868 55.2957 132.68 55.4957C132.49 55.6988 132.249 55.8707 131.949 56.0144C131.655 56.155 131.371 56.2363 131.096 56.2582C130.821 56.28 130.568 56.2519 130.337 56.1769C130.105 56.1019 129.899 55.9832 129.721 55.8238L129.718 55.8207ZM129.793 55.0144C129.721 54.8613 129.687 54.7082 129.693 54.5488C129.699 54.3894 129.74 54.2363 129.815 54.0863C129.893 53.9394 130.002 53.7988 130.143 53.6707C130.287 53.5425 130.462 53.4269 130.665 53.33C130.871 53.23 131.071 53.1644 131.262 53.1332C131.452 53.1019 131.634 53.1019 131.799 53.1332C131.965 53.1644 132.112 53.23 132.24 53.3238C132.365 53.4207 132.465 53.5425 132.54 53.6957C132.612 53.8488 132.646 54.005 132.64 54.1613C132.634 54.3207 132.593 54.4738 132.515 54.6238C132.437 54.7738 132.324 54.9144 132.177 55.0425C132.034 55.1738 131.855 55.2863 131.652 55.3863C131.446 55.4863 131.249 55.5488 131.059 55.58C130.868 55.6113 130.693 55.6082 130.527 55.5769C130.365 55.5425 130.221 55.48 130.093 55.3832C129.968 55.2863 129.868 55.1644 129.793 55.0113V55.0144ZM133.193 57.4957L130.837 58.4457L130.59 57.8269L134.259 56.3457L134.465 56.8613L133.821 57.1832L133.83 57.205L134.037 57.2394C134.234 57.28 134.412 57.3488 134.568 57.4425C134.774 57.5675 134.921 57.7363 135.005 57.9457C135.065 58.0925 135.093 58.2332 135.09 58.3707L134.496 58.4675L134.487 58.3707L134.474 58.2832C134.465 58.23 134.443 58.1644 134.412 58.0863C134.349 57.93 134.221 57.7925 134.027 57.6738C133.834 57.555 133.555 57.4957 133.193 57.4957ZM131.921 61.6707C131.962 61.7894 132.015 61.905 132.087 62.0144L132.193 62.1738L132.299 62.3175L132.734 62.03C132.687 61.9769 132.64 61.9144 132.593 61.8457C132.546 61.7769 132.512 61.7082 132.487 61.6394C132.412 61.4238 132.424 61.2519 132.518 61.1238C132.596 61.0207 132.715 60.9332 132.877 60.8613L133.009 60.8113L135.084 60.0925L135.43 61.1019L135.946 60.9238L135.599 59.9144L136.646 59.5519L136.462 59.0207L135.39 59.305L135.149 58.7332L134.674 58.8988L134.865 59.455L132.796 60.1707C132.612 60.2332 132.449 60.3113 132.305 60.3988C132.165 60.4894 132.052 60.5925 131.977 60.7144C131.899 60.8363 131.852 60.9769 131.837 61.1332C131.821 61.2894 131.849 61.4707 131.918 61.6707H131.921ZM132.915 64.6738C132.805 64.5144 132.718 64.3238 132.655 64.0988C132.577 63.8269 132.555 63.555 132.584 63.28C132.612 63.005 132.677 62.755 132.777 62.53L133.299 62.73L133.221 62.9363C133.174 63.0707 133.14 63.205 133.118 63.3394C133.084 63.5394 133.099 63.7519 133.165 63.9832C133.237 64.2332 133.346 64.405 133.496 64.4988C133.646 64.5925 133.805 64.6144 133.971 64.5675C134.071 64.5394 134.149 64.4894 134.209 64.4144C134.268 64.3425 134.312 64.255 134.343 64.1582C134.374 64.0613 134.396 63.955 134.409 63.8394L134.446 63.4894C134.452 63.3394 134.468 63.1894 134.49 63.0363C134.512 62.8832 134.549 62.7394 134.605 62.6082C134.662 62.4769 134.737 62.3613 134.83 62.2582C134.924 62.1582 135.055 62.0832 135.215 62.0363C135.368 61.9925 135.518 61.9832 135.668 62.005C135.818 62.0269 135.959 62.08 136.087 62.1644C136.215 62.2488 136.33 62.3644 136.43 62.5113C136.53 62.6582 136.612 62.8332 136.668 63.0363C136.737 63.2769 136.759 63.5113 136.73 63.7363C136.705 63.9613 136.652 64.1644 136.574 64.3457L136.08 64.155L136.137 63.9957C136.168 63.8894 136.193 63.7832 136.209 63.6769C136.23 63.5175 136.218 63.355 136.171 63.1863C136.102 62.9457 135.996 62.7832 135.855 62.705C135.715 62.6238 135.571 62.605 135.424 62.6457C135.337 62.6707 135.265 62.7175 135.215 62.7832C135.165 62.8488 135.124 62.9269 135.096 63.0207C135.068 63.1144 135.049 63.2175 135.04 63.33L134.987 63.9113L134.962 64.1425C134.943 64.2988 134.909 64.4425 134.852 64.5769C134.799 64.7113 134.718 64.8332 134.612 64.9394C134.505 65.0457 134.365 65.1238 134.19 65.1738C134.034 65.2175 133.877 65.23 133.727 65.2082C133.574 65.1863 133.427 65.1332 133.29 65.0457C133.152 64.9582 133.027 64.8363 132.918 64.6769L132.915 64.6738Z" fill="#001040"/>
</svg>
