<svg width="18" height="18" viewBox="0 0 18 18" fill="none" xmlns="http://www.w3.org/2000/svg">
<path d="M7.98749 2.6956C7.57991 3.21386 7.28877 3.79557 7.13527 4.42489C6.10309 4.48835 5.08679 4.66287 4.08108 4.93786C2.76836 5.29747 2.00613 5.6941 1.7997 6.11716C2.01143 6.54023 2.76836 6.93157 4.08108 7.28589C5.28793 7.61377 6.52126 7.78828 7.77046 7.81473C8.20451 8.45991 8.80793 9.02047 9.5331 9.44354C9.0673 9.48056 8.59091 9.49642 8.09864 9.49642C7.46874 9.49642 6.85473 9.46998 6.25131 9.41181C5.64788 9.35364 5.08149 9.27431 4.55217 9.16855C4.01755 9.06278 3.51999 8.93057 3.05419 8.77721C2.58838 8.62385 2.17022 8.44404 1.7944 8.24837V10.7974C2.17022 10.993 2.58838 11.1728 3.05419 11.3262C3.51999 11.4796 4.01755 11.6118 4.55217 11.7228C5.08678 11.8286 5.65317 11.9079 6.25131 11.9661C6.84944 12.0243 7.46874 12.0507 8.09864 12.0507C8.72853 12.0507 9.33726 12.0243 9.91951 11.9661C10.5018 11.9079 11.0628 11.8286 11.5975 11.7228C12.1321 11.6171 12.6349 11.4848 13.106 11.3262C13.5771 11.1675 14.0112 10.993 14.3976 10.7974V10.2051C15.0486 10.0676 15.6521 9.84546 16.1973 9.54931V14.5997C16.1973 15.5463 15.4139 16.3501 13.8471 17.0112C12.2803 17.6669 10.3641 18.0001 8.09864 18.0001C5.83314 18.0001 3.91698 17.6722 2.35018 17.0112C0.783383 16.3554 0 15.5516 0 14.5997V6.09072C0 5.15468 0.79398 4.35614 2.37666 3.68981C3.93287 3.03405 5.80138 2.70088 7.98749 2.69031V2.6956ZM14.3976 12.4896C14.0059 12.6853 13.5771 12.8651 13.106 13.0238C12.6349 13.1824 12.1321 13.3093 11.5975 13.4204C11.0628 13.5314 10.5071 13.6055 9.91951 13.6636C9.33196 13.7218 8.72853 13.7483 8.09864 13.7483C7.46874 13.7483 6.85473 13.7218 6.25131 13.6636C5.64788 13.6055 5.08149 13.5262 4.55217 13.4204C4.01755 13.3146 3.51999 13.1824 3.05419 13.0238C2.58838 12.8651 2.17022 12.6906 1.7944 12.4896V14.5944C1.8685 14.8059 2.1067 15.0122 2.50369 15.2131C2.90068 15.4141 3.39825 15.5886 4.00168 15.7526C4.59982 15.9165 5.26147 16.0487 5.98135 16.1492C6.70123 16.2497 7.40523 16.2973 8.09864 16.2973C8.79205 16.2973 9.49076 16.2497 10.2054 16.1492C10.9199 16.0487 11.571 15.9165 12.1744 15.7526C12.7779 15.5886 13.2754 15.4035 13.683 15.1973C14.0906 14.991 14.3288 14.7848 14.4029 14.568V12.4843L14.3976 12.4896Z" fill="#0E48A5"/>
<path fill-rule="evenodd" clip-rule="evenodd" d="M15.9644 5.33979L17.0177 7.14841L17.8488 6.67246C17.9229 6.63015 17.9758 6.55611 17.9917 6.4715C18.0128 6.38689 17.9917 6.2917 17.9493 6.21237L17.2453 5.00663C17.1977 4.9273 17.1236 4.86913 17.0389 4.84269C16.9542 4.81624 16.8642 4.82682 16.7901 4.86913L15.9591 5.34508L15.9644 5.33979ZM13.1536 0.511522L14.207 2.32014L15.038 1.84419C15.1121 1.80188 15.1651 1.72784 15.181 1.64323C15.1968 1.55862 15.181 1.46343 15.1386 1.3841L14.4346 0.178355C14.387 0.0990296 14.3129 0.0408577 14.2282 0.0144159C14.1435 -0.0120259 14.0535 -0.0014492 13.9794 0.0408577L13.1484 0.51681L13.1536 0.511522ZM10.6658 1.93938C8.98789 2.89657 8.49562 5.16528 9.55956 6.99505C10.6235 8.82482 12.8572 9.53346 14.5352 8.57627L16.4672 7.471L15.4139 5.66238L13.4818 6.76765C12.7143 7.20658 11.7086 6.88399 11.2216 6.04843C10.7346 5.21287 10.957 4.18693 11.7245 3.748L13.6565 2.64273L12.6032 0.834111L10.6711 1.93938H10.6658Z" fill="#12B6F8"/>
</svg>
