<svg width="18" height="18" viewBox="0 0 18 18" fill="none" xmlns="http://www.w3.org/2000/svg">
<path fill-rule="evenodd" clip-rule="evenodd" d="M4.89448 13.3078C5.70405 14.1809 6.76232 14.8212 7.95287 15.1281V17.7738C7.95287 17.8478 7.95287 17.9219 7.93699 17.9907H4.91035C4.89977 17.9219 4.89448 17.8478 4.89448 17.7738V13.3078ZM0.015874 18.0013H3.04251C3.0531 17.9325 3.05839 17.8584 3.05839 17.7843L3.233 2.88904H0V17.7843C0 17.8584 0 17.9325 0.015874 18.0013ZM9.79954 18.0013H12.8262C12.8368 17.9325 12.8421 17.8584 12.8421 17.7843L12.8526 14.3978C11.9531 14.9482 10.9054 15.2868 9.78367 15.3291V17.7843C9.78367 17.8584 9.78367 17.9325 9.79954 18.0013Z" fill="#1262F8"/>
<path fill-rule="evenodd" clip-rule="evenodd" d="M8.14889 4.18018C7.36048 4.40771 6.6144 4.82573 5.99532 5.45011C4.04811 7.39206 4.04811 10.5563 5.99532 12.5036C7.76791 14.2762 10.5459 14.4243 12.5037 12.9745L16.7685 17.2341C17.0489 17.5145 17.5093 17.5145 17.7897 17.2341C18.0701 16.9536 18.0701 16.4933 17.7897 16.2128L13.5249 11.9533C14.5831 10.5352 14.7895 8.67258 14.1387 7.07987C13.8529 7.22273 13.546 7.32856 13.2286 7.40264C13.8529 8.86836 13.5619 10.6304 12.3714 11.821C10.7998 13.3872 8.24943 13.3872 6.6779 11.821C5.10638 10.2547 5.10638 7.69896 6.6779 6.12741C7.95311 5.09559 7.81024 5.27021 8.46637 5.09559C8.3288 4.80985 8.22297 4.50295 8.15418 4.18018H8.14889Z" fill="#12B6F8"/>
<path d="M6.71469 9.61954H6.57184C6.57184 7.6407 7.86811 6.03223 9.45538 6.03223V6.17508C7.94218 6.17508 6.7094 7.72006 6.7094 9.62483L6.71469 9.61954Z" fill="#12B6F8"/>
<path d="M14.9 6.81511L15.4344 5.62463L16.5931 5.07436L15.4344 4.52939L14.9 3.33362L14.3709 4.52939L13.2069 5.07436L14.3709 5.62463L14.9 6.81511Z" fill="#12B6F8"/>
<path d="M11.4452 0L10.5351 1.85199L8.52972 2.69333L10.5351 3.53466L11.4452 5.38665L12.3554 3.53466L14.3608 2.69333L12.3554 1.85199L11.4452 0Z" fill="#1262F8"/>
</svg>
