<svg width="160" height="160" viewBox="0 0 160 160" fill="none" xmlns="http://www.w3.org/2000/svg">
<circle cx="80" cy="80" r="75" fill="#FCFCFC"/>
<path d="M80 6.25C89.9563 6.25 99.6156 8.2 108.706 12.0438C117.487 15.7594 125.375 21.075 132.15 27.85C138.925 34.625 144.241 42.5094 147.956 51.2938C151.803 60.3844 153.75 70.0437 153.75 80C153.75 89.9563 151.8 99.6156 147.956 108.706C144.241 117.487 138.925 125.375 132.15 132.15C125.375 138.925 117.491 144.241 108.706 147.956C99.6156 151.803 89.9563 153.75 80 153.75C70.0437 153.75 60.3844 151.8 51.2938 147.956C42.5125 144.241 34.625 138.925 27.85 132.15C21.075 125.375 15.7594 117.491 12.0438 108.706C8.19688 99.6156 6.25 89.9563 6.25 80C6.25 70.0437 8.2 60.3844 12.0438 51.2938C15.7594 42.5125 21.075 34.625 27.85 27.85C34.625 21.075 42.5094 15.7594 51.2938 12.0438C60.3844 8.19688 70.0437 6.25 80 6.25ZM80 5C38.5781 5 5 38.5781 5 80C5 121.422 38.5781 155 80 155C121.422 155 155 121.422 155 80C155 38.5781 121.422 5 80 5Z" fill="#1262F8"/>
<path d="M79.6994 121.66C79.7338 124.128 79.7682 125.928 79.8026 126.81C79.8369 126.916 79.8369 127.056 79.8026 127.163V127.41C79.8026 127.903 79.8713 128.397 80.0057 128.856C80.1401 128.397 80.2088 127.903 80.2088 127.41C80.2088 127.231 80.2776 124.66 80.3776 120.531C80.3432 120.566 80.3088 120.603 80.3088 120.638C80.0713 120.956 79.8682 121.306 79.6994 121.66ZM72.6526 70.1533C73.1932 69.5533 73.7026 68.8471 74.0744 68.1064C73.8026 68.7408 72.7526 71.1408 73.7682 71.3533C74.8869 71.5658 76.1401 71.2127 78.4088 68.2127C78.3401 64.3658 78.2744 61.0158 78.2401 58.4752H76.8526C76.1744 58.4752 75.0557 58.4033 74.3119 57.2408C73.4994 55.9721 73.4651 54.6658 73.4307 53.7127C73.3963 52.3377 73.0588 49.8314 71.3994 48.4221C70.2463 47.4689 67.1307 46.7283 64.2526 47.9283C63.3026 48.3158 61.4057 49.3408 59.5432 50.2908C57.8494 51.1721 55.6807 52.2658 55.0026 52.2658C56.1213 51.7377 57.6119 50.9596 59.2369 50.0064C61.0994 48.9471 63.0651 47.8189 64.0463 47.3971C66.0119 46.5846 69.7713 46.3377 71.7026 47.9627C73.5307 49.5158 73.9057 52.1971 73.9369 53.6439C73.9713 54.5971 74.0057 55.7596 74.7151 56.9252C75.3588 57.9127 76.3744 57.9127 76.9838 57.9127H78.2026V56.9939C77.1182 57.0658 75.5619 57.1346 74.8838 55.6189C74.0713 53.7846 74.9526 49.0908 72.2401 47.1158C69.5307 45.1408 65.1932 45.6346 61.3338 47.9627C57.5057 50.2564 52.4244 53.2533 46.1588 55.8658C39.8932 58.4752 35.9963 59.5346 35.2526 59.6408C34.5401 59.7814 35.8276 60.2752 38.5057 60.3471C41.1807 60.4189 43.4182 60.2064 43.4182 60.2064L63.0651 50.8939C63.0651 50.8939 46.1276 59.6783 44.7057 60.6314C43.2838 61.5846 42.1307 61.9002 42.2338 62.7846C42.3369 63.6658 43.4182 63.5596 46.3994 63.4908C49.3807 63.4189 50.0244 63.1377 51.0401 62.8221C52.0557 62.5033 63.0651 57.2127 63.0651 57.2127C63.0651 57.2127 51.2776 63.3158 49.5838 64.7283C47.8901 66.1408 49.7182 66.5971 50.8713 66.6346C52.0557 66.6689 55.2057 66.4939 56.9682 65.5752C58.7307 64.6564 64.2182 60.9877 64.2182 60.9877C64.2182 60.9877 58.7994 65.0439 57.7494 65.9627C56.9026 66.7033 56.4619 67.3377 56.6651 68.1158C56.9713 69.1033 58.5963 68.9971 60.7651 68.1877C60.7651 68.1877 62.9994 67.3752 63.8463 66.6002C64.6932 65.7877 67.0651 63.6002 67.0651 63.6002C67.0651 63.6002 64.2526 66.6346 63.5432 67.9408C62.8651 69.2471 62.7307 69.5627 63.0682 70.3033C63.5432 71.3627 67.1338 70.2689 68.1494 69.1377C68.8932 68.2564 69.6057 67.3377 70.2494 66.3502C70.2494 66.3502 69.1651 68.1846 68.9276 69.2439C68.6901 70.3033 68.4182 71.1502 69.4026 71.2564C70.4869 71.4314 71.5026 71.4689 72.6557 70.1627L72.6526 70.1533ZM79.3588 94.1783L79.6651 93.9658C79.8682 93.8252 80.0369 93.7189 80.1744 93.5783C80.4463 93.4033 80.7151 93.1908 80.9869 93.0127C81.0213 91.0002 81.0901 88.9564 81.1213 86.9439C80.5807 86.6971 80.0026 86.4502 79.3932 86.2033C79.3588 86.2033 79.3244 86.1689 79.2901 86.1689C79.2213 86.1346 79.1869 86.1346 79.1213 86.0971C78.7151 85.9564 78.3432 85.7783 77.9026 85.6377C77.3932 85.4252 76.8869 85.2502 76.3776 85.0377C72.9901 86.9064 72.3119 87.7908 72.3119 89.5189C72.3119 91.9533 74.3119 93.0471 77.7651 95.3408C78.3057 94.9189 78.8494 94.5283 79.3557 94.1752L79.3588 94.1783ZM75.1932 89.8377C75.1932 89.8377 74.9557 88.2846 78.7838 86.4877C78.8869 86.4533 78.9869 86.3814 79.0901 86.3471C79.1244 88.7814 79.1588 91.2158 79.2244 93.6502C77.3276 92.3096 75.1932 91.0408 75.1932 89.8408V89.8377ZM80.9869 119.791C80.8182 120.003 80.6494 120.213 80.4776 120.391C81.4588 121.766 81.3932 123.106 80.8494 124.835C81.3588 124.235 82.3744 122.719 81.5276 120.744C81.3588 120.425 81.1901 120.11 80.9869 119.791ZM79.4276 105.325C79.7994 105.713 80.2401 106.172 80.6807 106.631C80.9526 106.913 81.2213 107.197 81.5276 107.513C81.5619 107.547 81.6307 107.585 81.6963 107.653C83.9994 105.572 86.0994 103.597 86.0994 101.125C86.0994 99.1846 84.3026 97.4221 82.5088 96.0096C82.3401 96.1158 82.1713 96.2221 81.9994 96.3627C81.5932 96.6439 81.2213 96.8908 80.8807 97.1377C80.8807 97.1377 80.8463 97.1377 80.8463 97.1721C80.7776 97.2439 80.6776 97.2783 80.6088 97.3471C80.1338 97.7002 79.6932 98.0189 79.2869 98.3346C79.3557 100.697 79.3901 103.063 79.4213 105.319L79.4276 105.325ZM80.8838 97.5283C83.1182 99.2221 83.9994 100.316 83.9994 101.516C83.9994 102.716 82.7463 104.197 80.7151 106.313C80.7494 103.491 80.8182 100.563 80.8838 97.5283ZM93.2494 63.6252C93.2494 63.6252 95.6213 65.8127 96.4682 66.6252C97.3151 67.4377 99.5494 68.2127 99.5494 68.2127C101.718 69.0252 103.343 69.1314 103.649 68.1408C103.887 67.3658 103.412 66.6939 102.565 65.9877C101.515 65.0689 96.0963 61.0127 96.0963 61.0127C96.0963 61.0127 101.584 64.6814 103.346 65.6002C105.109 66.5189 108.259 66.6939 109.443 66.6596C110.628 66.6252 112.424 66.1658 110.731 64.7533C109.037 63.3408 97.2494 57.2377 97.2494 57.2377C97.2494 57.2377 108.224 62.5658 109.274 62.8471C110.29 63.1658 110.934 63.4127 113.915 63.5158C116.896 63.5877 117.946 63.6908 118.081 62.8096C118.215 61.9627 117.031 61.6439 115.609 60.6564C114.187 59.7033 97.2494 50.9189 97.2494 50.9189L116.896 60.2314C116.896 60.2314 119.131 60.4439 121.809 60.3721C124.484 60.3002 125.771 59.8064 125.062 59.6658C124.353 59.5252 120.421 58.5002 114.156 55.8908C107.89 53.2814 102.809 50.3158 98.9807 47.9877C95.1526 45.6939 90.7838 45.1658 88.0744 47.1408C85.3651 49.1158 86.2463 53.7721 85.4307 55.6439C84.7526 57.1596 83.1963 57.0908 82.1119 57.0189C82.1119 57.3002 82.1119 57.6189 82.0776 57.9377H83.3307C83.9401 57.9377 84.9557 57.9377 85.5994 56.9502C86.3119 55.8221 86.3432 54.6221 86.3776 53.6689C86.4119 52.2221 86.7838 49.5408 88.6119 47.9877C90.5432 46.3658 94.3026 46.6127 96.2682 47.4221C97.2494 47.8096 99.2151 48.9377 101.078 50.0314C102.703 50.9846 104.193 51.7596 105.312 52.2908C104.599 52.2908 102.465 51.1971 100.771 50.3158C98.9432 49.3283 97.0463 48.3408 96.0619 47.9533C93.1838 46.7533 90.0651 47.4939 88.9151 48.4471C87.2213 49.8596 86.9151 52.3627 86.8838 53.7377C86.8494 54.6908 86.8151 56.0314 86.0026 57.2658C85.2901 58.4314 84.1744 58.5002 83.4619 58.5002H82.0744C82.0057 61.0408 81.9401 64.3564 81.8713 68.1314C84.1744 71.2002 85.4963 71.5877 86.5807 71.3408C87.5963 71.1283 86.5807 68.7314 86.2744 68.0939C86.6807 68.8346 87.1557 69.5064 87.6963 70.1408C88.8151 71.4471 89.8651 71.4096 90.8807 71.2689C91.8963 71.1283 91.5932 70.3158 91.3557 69.2564C91.1182 68.1971 90.0338 66.3627 90.0338 66.3627C90.6776 67.3158 91.3901 68.2689 92.1338 69.1502C93.1494 70.2783 96.7401 71.4096 97.2151 70.3158C97.5213 69.6096 97.4182 69.2564 96.7401 67.9533C96.0963 66.6471 93.2526 63.6127 93.2526 63.6127L93.2494 63.6252ZM80.2057 52.8314C80.7463 52.8314 81.2901 52.6564 81.7307 52.3377C82.1713 52.0189 82.5432 51.5627 82.7463 51.0689C82.9494 50.5408 83.0182 49.9752 82.9151 49.4096C82.8119 48.8439 82.5432 48.3502 82.1713 47.9283C81.7994 47.5408 81.2901 47.2564 80.7494 47.1533C80.2088 47.0471 79.6651 47.0814 79.1588 47.3283C78.6494 47.5408 78.2088 47.9283 77.9401 48.3877C77.6338 48.8471 77.4651 49.4096 77.4651 49.9752C77.4651 50.3627 77.5338 50.7158 77.6682 51.0689C77.8026 51.4221 78.0057 51.7377 78.2776 51.9877C78.5494 52.2689 78.8182 52.4814 79.1588 52.6221C79.4651 52.7627 79.8369 52.8346 80.2088 52.8346L80.2057 52.8314ZM89.2182 74.2814C89.2182 74.2814 89.1494 72.3064 86.0682 72.0939C82.9182 71.8814 82.7838 73.2939 82.8494 73.8221C83.0869 73.8221 83.2901 73.8939 83.2901 73.9627C83.2901 74.0314 83.1213 74.1033 82.9182 74.1033C83.0869 74.6314 83.5619 75.2689 84.9182 75.9721C86.0369 76.5377 86.5776 76.5002 87.2213 76.3939C87.2213 76.3939 87.9651 76.8533 87.9651 77.5939C87.9651 78.3346 86.7807 79.6752 81.2244 82.5689C81.5619 66.9752 81.8682 53.2877 81.8682 53.2877H82.2057C82.3401 53.2877 82.4776 53.2158 82.5776 53.1127C82.6807 53.0064 82.7463 52.8658 82.7463 52.7252V52.5502C82.7463 52.4783 82.7463 52.4096 82.7119 52.3377C82.6776 52.2658 82.6432 52.1971 82.5776 52.1627C82.2713 52.5158 81.9338 52.7971 81.5276 53.0096C81.1213 53.2221 80.6807 53.2908 80.2401 53.2908C79.7994 53.2908 79.3588 53.1846 78.9526 53.0096C78.5463 52.8346 78.1744 52.5158 77.9026 52.1627C77.8338 52.2346 77.7994 52.2689 77.7682 52.3377C77.7338 52.4096 77.7338 52.4783 77.7338 52.5502V52.7252C77.7338 52.8658 77.8026 53.0064 77.9026 53.1127C78.0057 53.2189 78.1401 53.2877 78.2744 53.2877H78.6119C78.6119 53.2877 78.8494 66.5877 79.0869 81.9002C79.5619 82.1471 80.0338 82.3939 80.5776 82.6752C80.6463 82.7096 80.7463 82.7471 80.8151 82.7814C82.0682 83.4158 83.1182 83.9471 83.9994 84.4408C86.9807 83.2408 89.8932 81.8658 90.7744 79.9252C92.3338 76.3252 89.2151 74.2814 89.2151 74.2814H89.2182ZM85.0838 73.4689C84.7463 73.4689 84.4744 73.2939 84.4744 73.0814C84.4744 72.8689 84.7463 72.6939 85.0838 72.6939C85.4213 72.6939 85.6932 72.8689 85.6932 73.0814C85.6932 73.2939 85.4213 73.4689 85.0838 73.4689ZM79.6994 118.131C79.9713 117.778 80.2088 117.425 80.4776 117.11C80.5119 115.097 80.5807 112.841 80.6119 110.406C80.2744 110.053 79.8994 109.7 79.4932 109.313C79.3588 109.206 79.2557 109.066 79.1213 108.96C78.9526 108.785 78.7838 108.641 78.6119 108.5C77.6619 109.419 75.7994 111.463 75.7994 113.228C75.7994 115.31 77.7307 117.425 79.1869 118.944C79.3213 118.625 79.4932 118.378 79.6963 118.131H79.6994ZM79.4963 109.738C79.5651 112.738 79.5994 115.488 79.6307 117.853C78.5119 116.3 77.3276 114.713 77.3276 113.619C77.3276 112.597 77.9026 111.431 79.4963 109.738ZM80.2744 83.1346C73.6682 79.8189 72.3151 78.3002 72.3151 77.5596C72.3151 76.8189 73.0588 76.3596 73.0588 76.3596C73.7026 76.5002 74.2432 76.5002 75.3619 75.9377C76.7182 75.2689 77.1901 74.5971 77.3619 74.0689C77.1588 74.0689 76.9901 73.9971 76.9901 73.9283C76.9901 73.8596 77.1932 73.7877 77.4307 73.7877V73.7533C77.4651 73.2252 77.2963 71.8471 74.1776 72.0596C71.0963 72.2721 71.0276 74.2471 71.0276 74.2471C71.0276 74.2471 67.9119 76.3283 69.5369 79.8564C70.9588 82.9971 77.6338 84.6533 81.4932 86.4533C85.3213 88.2533 85.0838 89.8064 85.0838 89.8064C85.0838 91.1471 82.5088 92.5596 80.4776 94.0408C78.4463 95.5221 74.1432 98.0971 74.1432 101.131C74.1432 103.919 76.8182 106.072 79.4276 108.469C82.0713 110.869 82.9151 112.316 82.9151 113.656C82.9151 115.491 80.0026 117.96 78.5119 121.028C77.0213 124.097 79.9682 128.86 79.0526 126.356C78.1026 123.85 78.6119 122.088 79.8307 120.322C81.3213 118.169 84.5057 116.053 84.5057 113.197C84.5057 110.797 81.1526 107.975 81.1526 107.975C78.1713 104.872 76.2744 103.106 76.2744 101.553C76.2744 100 77.6963 98.6252 81.6932 95.9096C85.6557 93.2283 87.9932 92.1689 87.9932 89.5596C87.9932 87.2658 86.8744 86.4564 80.2713 83.1377L80.2744 83.1346ZM75.1932 72.7283C75.5307 72.7283 75.8026 72.9033 75.8026 73.1158C75.8026 73.3283 75.5307 73.5033 75.1932 73.5033C74.8557 73.5033 74.5838 73.3283 74.5838 73.1158C74.5838 72.9033 74.8557 72.7283 75.1932 72.7283Z" fill="#B8D0FD"/>
<path d="M147.065 80.216C147.065 87.1848 146.005 93.9879 143.965 100.444H127.265C129.946 94.2379 131.43 87.3973 131.43 80.216C131.43 51.9754 108.455 29.0004 80.218 29.0004C51.9805 29.0004 29.0023 51.9754 29.0023 80.216C29.0023 87.3973 30.4867 94.2379 33.168 100.444H16.4711C14.4305 93.9879 13.3711 87.1848 13.3711 80.216C13.3711 62.3598 20.3242 45.5723 32.9492 32.9473C45.5742 20.3223 62.3617 13.3691 80.218 13.3691C98.0742 13.3691 114.859 20.3223 127.484 32.9473C140.112 45.5723 147.065 62.3598 147.065 80.216Z" fill="#B8D0FD"/>
<path d="M128.495 126.453C128.164 126.8 127.827 127.144 127.486 127.484C114.861 140.109 98.0734 147.063 80.2203 147.063C62.3672 147.063 45.5766 140.109 32.9516 127.484C32.6109 127.144 32.2734 126.8 31.9453 126.453H58.2047C64.8766 129.644 72.3453 131.431 80.2203 131.431C88.0953 131.431 95.5609 129.644 102.233 126.453H128.495Z" fill="#B8D0FD"/>
<path d="M143.153 102.848C140.384 110.566 136.188 117.741 130.691 124.048H29.7438C24.25 117.741 20.05 110.566 17.2812 102.848H143.153Z" fill="#B8D0FD"/>
<path d="M139.034 84.3145L137.759 87.9895H133.625L136.969 90.2613L135.694 93.9363L139.038 91.6644L142.384 93.9363L141.106 90.2613L144.453 87.9895H140.319L139.041 84.3145H139.034Z" fill="#001040"/>
<path d="M22.3891 84.3145L21.1109 87.9895H16.9766L20.3203 90.2613L19.0422 93.9363L22.3859 91.6644L25.7297 93.9363L24.4516 90.2613L27.7953 87.9895H23.6609L22.3828 84.3145H22.3891Z" fill="#001040"/>
<path d="M64.3775 136.848L63.6119 136.614C63.6338 136.442 63.6213 136.279 63.5806 136.132C63.5369 135.986 63.4713 135.848 63.3838 135.726C63.2931 135.604 63.1838 135.498 63.0525 135.411C62.9244 135.323 62.7806 135.254 62.6181 135.207C62.3275 135.12 62.0463 135.114 61.7744 135.189C61.5025 135.264 61.2588 135.423 61.04 135.664C60.8244 135.904 60.6525 136.226 60.5306 136.632C60.4056 137.042 60.365 137.404 60.4119 137.726C60.4588 138.048 60.5744 138.317 60.7588 138.529C60.9431 138.742 61.1775 138.895 61.465 138.982C61.6244 139.029 61.7806 139.054 61.9338 139.054C62.09 139.054 62.24 139.029 62.3838 138.979C62.5244 138.929 62.6556 138.854 62.7713 138.757C62.89 138.657 62.99 138.532 63.0713 138.382L63.8338 138.617C63.7181 138.851 63.5681 139.054 63.3869 139.226C63.2088 139.398 63.0056 139.529 62.7744 139.623C62.5463 139.717 62.3056 139.767 62.0463 139.779C61.7869 139.792 61.5213 139.754 61.2431 139.67C60.8088 139.539 60.4525 139.317 60.1744 139.007C59.8963 138.695 59.7213 138.317 59.6431 137.873C59.565 137.429 59.6088 136.939 59.7713 136.404C59.9338 135.867 60.1744 135.439 60.4869 135.114C60.7994 134.789 61.1588 134.573 61.5619 134.473C61.965 134.37 62.3838 134.382 62.815 134.514C63.0806 134.595 63.3181 134.711 63.5244 134.857C63.7338 135.004 63.9088 135.179 64.0463 135.382C64.1869 135.582 64.2838 135.807 64.34 136.054C64.3963 136.301 64.4056 136.567 64.365 136.848H64.3775ZM69.6338 138.895C69.5213 139.445 69.3275 139.895 69.0463 140.251C68.765 140.604 68.4275 140.851 68.0369 140.992C67.6463 141.132 67.2275 141.157 66.7838 141.067C66.34 140.976 65.9619 140.789 65.6556 140.507C65.3494 140.226 65.1369 139.867 65.0181 139.429C64.8963 138.995 64.8931 138.501 65.0025 137.954C65.115 137.404 65.3088 136.954 65.59 136.601C65.8713 136.245 66.2056 136.001 66.5994 135.861C66.9931 135.72 67.4119 135.695 67.8556 135.782C68.2994 135.873 68.6744 136.061 68.9775 136.342C69.2838 136.623 69.4994 136.982 69.6181 137.42C69.74 137.854 69.7431 138.345 69.6338 138.895ZM68.865 138.739C68.9494 138.32 68.9525 137.954 68.8775 137.639C68.8025 137.323 68.6619 137.07 68.4588 136.873C68.2556 136.676 68.0088 136.548 67.7119 136.489C67.415 136.429 67.1369 136.448 66.8744 136.551C66.6119 136.651 66.3838 136.832 66.19 137.092C65.9994 137.351 65.8588 137.689 65.7744 138.107C65.69 138.526 65.6838 138.892 65.7588 139.207C65.8369 139.52 65.9775 139.776 66.1775 139.973C66.3806 140.167 66.6306 140.295 66.9275 140.354C67.2213 140.414 67.4994 140.395 67.7619 140.292C68.0275 140.192 68.2556 140.011 68.4463 139.751C68.64 139.489 68.7806 139.151 68.865 138.732V138.739ZM70.9994 136.448L71.9556 136.539L73.2306 140.757L73.2931 140.764L75.3431 136.861L76.2994 136.951L75.7994 142.176L75.0494 142.104L75.4119 138.326L75.3619 138.32L73.4619 141.945L72.84 141.886L71.6588 137.964L71.6088 137.957L71.2463 141.739L70.4963 141.667L70.9963 136.442L70.9994 136.448ZM77.3463 142.254L77.3275 137.007L79.1963 137.001C79.6056 137.001 79.9431 137.073 80.2119 137.22C80.4806 137.367 80.6806 137.57 80.815 137.826C80.9494 138.082 81.0181 138.37 81.0181 138.692C81.0181 139.014 80.9525 139.304 80.8181 139.564C80.6869 139.82 80.4838 140.023 80.215 140.176C79.9463 140.326 79.6119 140.401 79.2025 140.404L77.915 140.411V139.739L79.1275 139.736C79.3869 139.736 79.5931 139.689 79.7556 139.601C79.915 139.511 80.0338 139.386 80.1088 139.229C80.1838 139.073 80.2213 138.895 80.2181 138.698C80.2181 138.501 80.1806 138.326 80.1025 138.17C80.0275 138.017 79.9088 137.898 79.7463 137.811C79.5869 137.723 79.3744 137.679 79.1088 137.682H78.115L78.1306 142.254H77.34H77.3463ZM82.3056 142.182L81.8806 136.954L82.6713 136.892L83.04 141.442L85.4088 141.248L85.465 141.926L82.3056 142.182ZM86.7431 136.498L87.4119 141.704L86.6275 141.804L85.9588 136.601L86.7431 136.501V136.498ZM89.3119 141.376L88.4869 141.542L89.2963 136.023L90.1931 135.842L93.0869 140.611L92.2619 140.776L89.9556 136.861L89.915 136.87L89.3119 141.373V141.376ZM89.0431 139.336L91.715 138.795L91.8463 139.448L89.1744 139.989L89.0431 139.336ZM96.7369 134.082L98.2431 139.107L97.5463 139.317L93.8869 136.398L93.84 136.411L94.9463 140.098L94.1869 140.326L92.6806 135.301L93.3838 135.092L97.0494 138.017L97.0963 138.001L95.99 134.311L96.74 134.086L96.7369 134.082ZM97.7556 134.467L97.5025 133.832L101.274 132.326L101.528 132.957L100.006 133.567L101.699 137.807L100.968 138.101L99.2744 133.861L97.7556 134.467Z" fill="#001040"/>
<path d="M50.6953 120.441V106.01H53.7609V111.963H59.9859V106.01H63.0453V120.441H59.9859V114.482H53.7609V120.441H50.6953Z" fill="#001040"/>
<path d="M68.425 106.01V120.441H65.3594V106.01H68.425Z" fill="#001040"/>
<path d="M70.7266 120.441V106.01H76.4484C77.5484 106.01 78.4859 106.219 79.2609 106.638C80.0359 107.05 80.6266 107.625 81.0328 108.363C81.4422 109.094 81.6484 109.941 81.6484 110.9C81.6484 111.86 81.4422 112.704 81.0266 113.438C80.6109 114.169 80.0078 114.741 79.2203 115.15C78.4359 115.56 77.4891 115.763 76.3734 115.763H72.7266V113.319H75.8797C76.4703 113.319 76.9547 113.219 77.3391 113.016C77.7266 112.81 78.0141 112.525 78.2016 112.163C78.3953 111.797 78.4922 111.375 78.4922 110.9C78.4922 110.425 78.3953 110.004 78.2016 109.647C78.0141 109.285 77.7234 109.007 77.3391 108.81C76.9516 108.607 76.4609 108.507 75.8672 108.507H73.7984V120.441H70.7328H70.7266Z" fill="#001040"/>
<path d="M84.2445 120.441H80.957L85.9633 106.01H89.9164L94.9164 120.441H91.6289L87.9945 109.31H87.882L84.2414 120.441H84.2445ZM84.0414 114.769H91.8039V117.15H84.0414V114.769Z" fill="#001040"/>
<path d="M98.9437 120.441H95.6562L100.662 106.01H104.616L109.616 120.441H106.328L102.694 109.31H102.581L98.9406 120.441H98.9437ZM98.7375 114.769H106.5V117.15H98.7375V114.769Z" fill="#001040"/>
<path d="M22.707 78.3434L17.4727 77.9652L17.5289 77.1746L19.8039 77.3402L19.9914 74.7309L17.7164 74.5652L17.7727 73.7715L23.007 74.1496L22.9508 74.9434L20.6695 74.7777L20.482 77.3871L22.7633 77.5527L22.707 78.3434ZM23.4602 71.484C23.4008 71.8684 23.2664 72.184 23.057 72.434C22.8477 72.684 22.582 72.859 22.2602 72.9621C21.9352 73.0621 21.5727 73.0809 21.1695 73.0184C20.7727 72.9559 20.432 72.8246 20.1508 72.6277C19.8695 72.4309 19.6664 72.184 19.5383 71.8871C19.4102 71.5902 19.3758 71.2621 19.432 70.8996C19.4664 70.6809 19.5352 70.4746 19.6414 70.2777C19.7477 70.084 19.8883 69.9152 20.0695 69.7777C20.2508 69.6371 20.4727 69.5402 20.7352 69.4871C20.9977 69.4309 21.3039 69.4309 21.657 69.4871L21.9258 69.5309L21.4383 72.6215L20.8727 72.5309L21.2445 70.1809C21.0445 70.1496 20.8633 70.1621 20.6977 70.2184C20.5289 70.2746 20.3883 70.3684 20.2758 70.5027C20.1633 70.634 20.0914 70.7965 20.0602 70.9934C20.0258 71.2059 20.0508 71.3996 20.1289 71.5746C20.207 71.7465 20.3227 71.8902 20.4758 72.0027C20.6289 72.1121 20.8008 72.184 20.9945 72.2152L21.4383 72.284C21.6977 72.3246 21.9258 72.3152 22.1227 72.2527C22.3195 72.1902 22.4789 72.0809 22.6008 71.9309C22.7227 71.7809 22.7977 71.5934 22.8352 71.3746C22.857 71.2309 22.857 71.0965 22.8352 70.9715C22.8102 70.8465 22.7664 70.734 22.6977 70.6371C22.6289 70.5371 22.5383 70.4559 22.4227 70.3902L22.6664 69.6934C22.8695 69.784 23.0383 69.9152 23.1727 70.0902C23.307 70.2621 23.4008 70.4652 23.4508 70.7027C23.5008 70.9371 23.5039 71.1965 23.4602 71.4809V71.484ZM24.1445 67.9184C24.0883 68.1621 23.9914 68.3715 23.857 68.5465C23.7195 68.7215 23.5508 68.8465 23.3508 68.9215C23.1508 68.9934 22.9258 69.0027 22.6758 68.9434C22.4602 68.8934 22.2914 68.809 22.1695 68.6934C22.0477 68.5777 21.9633 68.4402 21.9164 68.2809C21.8664 68.1215 21.8414 67.9496 21.8414 67.7652C21.8414 67.5809 21.8508 67.3965 21.8695 67.209C21.8977 66.9746 21.9164 66.7809 21.9352 66.634C21.9508 66.4871 21.9445 66.3746 21.9195 66.3027C21.8945 66.2277 21.8383 66.1809 21.7477 66.159H21.7289C21.5102 66.1059 21.3289 66.1277 21.1789 66.2215C21.032 66.3152 20.9289 66.484 20.8727 66.7246C20.8133 66.9746 20.8258 67.1871 20.9008 67.359C20.9789 67.5277 21.0758 67.6559 21.1977 67.7402L20.8758 68.4059C20.6633 68.2684 20.5008 68.1027 20.3977 67.9121C20.2914 67.7184 20.2289 67.5059 20.2133 67.284C20.1945 67.059 20.2133 66.8309 20.2664 66.5996C20.3008 66.4465 20.357 66.2871 20.4352 66.1246C20.5102 65.959 20.6133 65.8121 20.7414 65.684C20.8727 65.5559 21.0352 65.4621 21.2352 65.4059C21.432 65.3496 21.6695 65.3527 21.9508 65.4184L24.4977 66.009L24.3289 66.7371L23.8039 66.6152L23.7977 66.6465C23.882 66.7184 23.9602 66.8121 24.032 66.9309C24.1039 67.0496 24.1508 67.1902 24.1789 67.3559C24.2039 67.5215 24.1945 67.709 24.1445 67.9215V67.9184ZM23.582 67.6152C23.6289 67.409 23.6289 67.2215 23.582 67.059C23.5352 66.8934 23.4539 66.7559 23.3414 66.6465C23.2258 66.5371 23.0945 66.4652 22.9414 66.4309L22.4477 66.3152C22.4695 66.3496 22.482 66.4059 22.4883 66.4871C22.4914 66.5684 22.4914 66.6559 22.4883 66.759C22.482 66.859 22.4727 66.9559 22.4664 67.0496C22.457 67.1434 22.4477 67.2215 22.4445 67.2871C22.4289 67.4371 22.4289 67.5746 22.4445 67.7059C22.4602 67.834 22.5008 67.9434 22.5664 68.034C22.6289 68.1215 22.7289 68.1809 22.8602 68.2121C23.0445 68.2559 23.2008 68.2184 23.3258 68.1059C23.4508 67.9902 23.5383 67.8277 23.5852 67.6152H23.582ZM19.932 62.8121L24.9664 64.2965L24.7508 65.0309L19.7164 63.5465L19.932 62.8121ZM22.1414 60.2746L22.7258 60.4715L22.0414 62.509L21.457 62.3121L22.1414 60.2746ZM20.7477 61.4652L20.9914 60.7402L24.5195 61.9277C24.6602 61.9746 24.7727 61.9902 24.8602 61.9715C24.9445 61.9527 25.0102 61.9152 25.057 61.8559C25.1039 61.7965 25.1414 61.7277 25.1664 61.6465C25.1852 61.5871 25.1977 61.5371 25.207 61.4902C25.2133 61.4434 25.2195 61.409 25.2227 61.3809L25.8664 61.4527C25.8664 61.4996 25.8664 61.5652 25.8539 61.6496C25.8445 61.734 25.8227 61.834 25.7852 61.9496C25.7227 62.1402 25.6289 62.309 25.5039 62.4496C25.3758 62.5902 25.2227 62.6871 25.0383 62.7402C24.8539 62.7934 24.6508 62.7809 24.4258 62.7059L20.7477 61.4684V61.4652ZM24.3133 59.0809L26.4789 59.959L26.1914 60.6684L21.3289 58.6934L21.6133 57.9934L23.4227 58.7277L23.4414 58.684C23.2789 58.5184 23.1758 58.3246 23.132 58.1027C23.0883 57.8809 23.1227 57.6277 23.2383 57.3434C23.3414 57.0934 23.4789 56.8965 23.6602 56.7496C23.8383 56.6027 24.0508 56.5184 24.2977 56.4996C24.5414 56.4777 24.8164 56.5277 25.1195 56.6527L27.4383 57.5934L27.1508 58.3027L24.9164 57.3965C24.6477 57.2871 24.4133 57.2715 24.2102 57.3496C24.007 57.4277 23.8539 57.5871 23.7539 57.834C23.6852 58.0027 23.6602 58.1652 23.6789 58.3277C23.6977 58.4871 23.7602 58.634 23.8664 58.7652C23.9727 58.8934 24.1227 58.9996 24.3133 59.0777V59.0809ZM24.4477 51.7215L29.0945 54.159L28.7258 54.859L24.0789 52.4215L24.4477 51.7215ZM28.007 51.3465L30.0195 52.534L29.6289 53.1934L26.2414 51.1902L26.6164 50.5559L27.1664 50.8809L27.1914 50.8402C27.057 50.6559 26.9852 50.4496 26.9758 50.2184C26.9664 49.9871 27.0352 49.7434 27.1852 49.4902C27.3227 49.259 27.4883 49.0871 27.6883 48.9684C27.8852 48.8527 28.107 48.7996 28.3539 48.8184C28.6008 48.834 28.8633 48.9246 29.1414 49.0902L31.2977 50.3652L30.907 51.0246L28.832 49.7965C28.5852 49.6527 28.357 49.6027 28.1445 49.6465C27.9289 49.6934 27.757 49.8277 27.6227 50.0496C27.532 50.2027 27.4852 50.359 27.482 50.5152C27.4789 50.6715 27.5195 50.8215 27.607 50.9684C27.6945 51.1121 27.8258 51.234 28.007 51.3402V51.3465ZM31.0664 45.4277L30.7695 46.0684C30.6789 46.0402 30.5852 46.0309 30.482 46.0371C30.382 46.0402 30.2789 46.0715 30.1758 46.1309C30.0727 46.1871 29.9758 46.2809 29.8852 46.4121C29.7602 46.5902 29.6977 46.7652 29.6945 46.9402C29.6914 47.1152 29.7508 47.2434 29.8758 47.3309C29.9852 47.4059 30.0977 47.4277 30.2195 47.3934C30.3414 47.359 30.4852 47.2684 30.6508 47.1184L31.1258 46.6871C31.4008 46.4371 31.6633 46.2902 31.907 46.2434C32.1508 46.1965 32.3883 46.2527 32.6164 46.4121C32.8102 46.5465 32.9414 46.7246 33.0164 46.9402C33.0883 47.1559 33.0977 47.3934 33.0445 47.6496C32.9914 47.9059 32.8758 48.1652 32.6945 48.4277C32.4414 48.7902 32.1602 49.0309 31.8477 49.1527C31.532 49.2715 31.2133 49.259 30.8914 49.1121L31.2227 48.4402C31.407 48.5121 31.582 48.5184 31.7445 48.459C31.907 48.3965 32.0539 48.2715 32.1852 48.0809C32.3289 47.8746 32.4008 47.6809 32.4008 47.4965C32.4008 47.3121 32.3383 47.1777 32.2133 47.0902C32.1133 47.0184 32.0008 46.9996 31.8789 47.0277C31.757 47.0527 31.6258 47.1309 31.4852 47.2621L30.9852 47.7246C30.707 47.9777 30.4414 48.1246 30.1914 48.1652C29.9414 48.2027 29.7008 48.1434 29.4727 47.984C29.282 47.8496 29.1539 47.6809 29.0852 47.4746C29.0164 47.2684 29.007 47.0434 29.0602 46.7996C29.1102 46.5559 29.2195 46.3121 29.3883 46.0684C29.632 45.7184 29.8977 45.4965 30.1914 45.4027C30.482 45.3059 30.7758 45.3152 31.0727 45.4277H31.0664ZM34.3258 43.4559L32.532 42.0121L33.0133 41.4121L36.0789 43.8777L35.607 44.4652L35.0758 44.0371L35.0508 44.0684C35.157 44.2715 35.2039 44.4934 35.1883 44.7371C35.1727 44.9777 35.0695 45.2152 34.8852 45.4434C34.7258 45.6402 34.5445 45.7809 34.3352 45.8621C34.1258 45.9434 33.9008 45.9559 33.6602 45.9059C33.4195 45.8527 33.1727 45.7246 32.9195 45.5215L30.9695 43.9527L31.4508 43.3559L33.3289 44.8684C33.5383 45.0371 33.7508 45.1121 33.9664 45.0965C34.182 45.0809 34.3664 44.9809 34.5164 44.7934C34.607 44.6809 34.6664 44.5465 34.7008 44.3934C34.7352 44.2371 34.7258 44.0746 34.6695 43.9121C34.6164 43.7465 34.5008 43.5934 34.3258 43.4559ZM36.732 43.1152L33.8289 40.459L34.3289 39.9121L34.7914 40.334L34.8195 40.3027C34.7102 40.1059 34.6727 39.9027 34.707 39.6871C34.7383 39.4684 34.8352 39.2746 34.9883 39.1059C35.0195 39.0715 35.0602 39.0309 35.107 38.984C35.1539 38.9371 35.1914 38.9027 35.2227 38.8777L35.7633 39.3715C35.7352 39.3871 35.6914 39.4215 35.632 39.4746C35.5695 39.5246 35.5133 39.5777 35.4602 39.6371C35.3383 39.7715 35.257 39.9152 35.2195 40.0715C35.182 40.2246 35.182 40.3777 35.2289 40.5309C35.2727 40.6809 35.357 40.8152 35.482 40.9309L37.257 42.5527L36.7414 43.1184L36.732 43.1152ZM39.4695 40.3902C39.2914 40.5652 39.0977 40.6871 38.8883 40.7621C38.6789 40.834 38.4695 40.8496 38.2602 40.8027C38.0539 40.7559 37.8602 40.6402 37.6789 40.4559C37.5258 40.2965 37.4289 40.134 37.3883 39.9746C37.3508 39.8121 37.3539 39.6496 37.4008 39.4902C37.4477 39.3277 37.5195 39.1715 37.6195 39.0152C37.7195 38.859 37.8258 38.709 37.9445 38.5652C38.0945 38.3809 38.2164 38.2309 38.3102 38.1184C38.4039 38.0027 38.457 37.9059 38.4789 37.8309C38.4977 37.7559 38.4758 37.684 38.4102 37.6184L38.3977 37.6059C38.2414 37.4465 38.0758 37.3652 37.9008 37.3652C37.7258 37.3652 37.5477 37.4496 37.3727 37.6215C37.1883 37.7996 37.082 37.984 37.0539 38.1684C37.0258 38.3527 37.0414 38.5121 37.0977 38.6496L36.4664 39.034C36.3602 38.8027 36.3164 38.5777 36.332 38.359C36.3477 38.1371 36.4102 37.9277 36.5164 37.7309C36.6227 37.5309 36.7633 37.3496 36.932 37.184C37.0445 37.0746 37.1789 36.9715 37.3289 36.8777C37.482 36.7809 37.6477 36.7121 37.8258 36.6746C38.0039 36.6371 38.1945 36.6465 38.3914 36.709C38.5883 36.7684 38.7852 36.9027 38.9852 37.109L40.8039 38.984L40.2664 39.5059L39.8914 39.1184L39.8695 39.1402C39.9039 39.2465 39.9164 39.3684 39.9133 39.5059C39.9102 39.6434 39.8727 39.7902 39.8039 39.9434C39.7352 40.0965 39.6258 40.2496 39.4695 40.3996V40.3902ZM39.1602 39.834C39.3133 39.6871 39.4133 39.5309 39.4633 39.3652C39.5133 39.1996 39.5195 39.0402 39.482 38.8902C39.4445 38.7371 39.3727 38.6027 39.2633 38.4934L38.9102 38.1277C38.9102 38.1652 38.8883 38.2215 38.8508 38.2934C38.8102 38.3621 38.7602 38.4371 38.7008 38.5184C38.6414 38.5996 38.582 38.6746 38.5227 38.7496C38.4633 38.8246 38.4133 38.8871 38.3758 38.9371C38.282 39.0527 38.207 39.1715 38.1508 39.2902C38.0945 39.4059 38.0695 39.5215 38.0758 39.6309C38.082 39.7402 38.132 39.8434 38.2258 39.9402C38.357 40.0777 38.507 40.1309 38.6758 40.1027C38.8414 40.0746 39.0039 39.984 39.1602 39.834ZM40.607 36.0402L42.107 37.8309L41.5195 38.3215L38.9914 35.3059L39.5539 34.834L39.9664 35.3246L40.0039 35.2934C39.9383 35.0746 39.9414 34.8559 40.007 34.634C40.0758 34.4121 40.2227 34.2059 40.4477 34.0152C40.6539 33.8434 40.8695 33.734 41.0977 33.6934C41.3227 33.6496 41.5508 33.6746 41.7758 33.7746C42.0039 33.8715 42.2195 34.0465 42.4289 34.2934L44.0352 36.2121L43.4477 36.7027L41.9008 34.8559C41.7164 34.6371 41.5164 34.5152 41.3008 34.4871C41.082 34.459 40.8727 34.5277 40.6758 34.6934C40.5383 34.8059 40.4445 34.9371 40.3852 35.0871C40.3289 35.234 40.3195 35.3902 40.3539 35.5559C40.3883 35.7184 40.4727 35.8809 40.607 36.0402ZM46.2008 34.6996C45.8914 34.9215 45.5758 35.0465 45.2508 35.0652C44.9258 35.084 44.6164 35.0121 44.3195 34.8496C44.0227 34.6871 43.757 34.4465 43.5258 34.1277C43.2914 33.8027 43.1445 33.4746 43.0883 33.1371C43.0289 32.7996 43.0602 32.4809 43.182 32.1809C43.3039 31.8809 43.5133 31.6215 43.8133 31.4059C44.0539 31.2309 44.3039 31.1184 44.5602 31.0715C44.8133 31.0215 45.057 31.0371 45.2883 31.1121C45.5227 31.1871 45.7289 31.3246 45.9039 31.5246L45.3008 31.9621C45.1602 31.8371 44.9914 31.7621 44.7945 31.7402C44.5977 31.7184 44.4008 31.7777 44.2039 31.9215C44.032 32.0465 43.9133 32.2027 43.8477 32.3871C43.7852 32.5715 43.7758 32.7715 43.8258 32.9902C43.8727 33.209 43.9789 33.4309 44.1445 33.659C44.3133 33.8902 44.4945 34.0652 44.6852 34.184C44.8789 34.3027 45.0727 34.3621 45.2664 34.359C45.4633 34.359 45.6508 34.2934 45.8258 34.1652C45.9445 34.0809 46.0352 33.9809 46.0977 33.8684C46.1633 33.7527 46.1977 33.634 46.2039 33.5027C46.2102 33.3715 46.1852 33.2402 46.1289 33.1059L46.732 32.6684C46.8602 32.8902 46.9258 33.1246 46.9289 33.3652C46.9352 33.609 46.8758 33.8434 46.7539 34.0715C46.6352 34.2996 46.4477 34.5027 46.1977 34.6871L46.2008 34.6996ZM49.5883 32.4434C49.257 32.6465 48.9289 32.7496 48.6039 32.7559C48.2789 32.759 47.9727 32.6715 47.6852 32.4934C47.3977 32.3121 47.1477 32.0496 46.932 31.6996C46.7195 31.3559 46.5977 31.0152 46.5664 30.6746C46.5352 30.334 46.5883 30.0184 46.732 29.7277C46.8758 29.4371 47.1008 29.1965 47.4133 29.0059C47.6039 28.8902 47.8039 28.809 48.0195 28.7621C48.2352 28.7152 48.4539 28.7152 48.6789 28.7621C48.9039 28.809 49.1195 28.9152 49.332 29.0777C49.5445 29.2402 49.7445 29.4746 49.932 29.7777L50.0758 30.009L47.4102 31.6465L47.1102 31.159L49.1352 29.9152C49.0289 29.7434 48.9008 29.6121 48.7508 29.5246C48.5977 29.434 48.4352 29.3871 48.2602 29.3902C48.0883 29.3902 47.9164 29.4434 47.7477 29.5465C47.5633 29.659 47.432 29.8027 47.3508 29.9777C47.2695 30.1496 47.2383 30.3309 47.2508 30.5215C47.2664 30.709 47.3258 30.8871 47.4289 31.0527L47.6633 31.434C47.8008 31.659 47.957 31.8246 48.132 31.934C48.3102 32.0434 48.4945 32.0934 48.6883 32.0902C48.882 32.084 49.0727 32.0215 49.2633 31.9059C49.3883 31.8309 49.4883 31.7434 49.5695 31.6465C49.6477 31.5465 49.7039 31.4402 49.7352 31.3215C49.7664 31.2059 49.7695 31.0809 49.7445 30.9527L50.432 30.684C50.4945 30.8965 50.5039 31.109 50.4602 31.3246C50.4164 31.5371 50.3227 31.7402 50.1758 31.934C50.032 32.1246 49.8352 32.2965 49.5914 32.4465L49.5883 32.4434ZM53.457 30.1434L51.2195 25.3965L52.9102 24.5996C53.2789 24.4246 53.6164 24.3496 53.9227 24.3684C54.2289 24.3871 54.4977 24.4871 54.7258 24.6621C54.957 24.8371 55.1383 25.0684 55.2758 25.359C55.4133 25.6496 55.4758 25.9434 55.4633 26.234C55.4508 26.5215 55.357 26.7934 55.1758 27.0434C54.9977 27.2934 54.7227 27.5027 54.3539 27.6777L53.1914 28.2277L52.9039 27.6215L54.0039 27.1027C54.2383 26.9934 54.407 26.8621 54.5164 26.7152C54.6227 26.5652 54.6758 26.4027 54.6789 26.2309C54.682 26.059 54.6383 25.8809 54.5539 25.7027C54.4695 25.5246 54.3602 25.3809 54.2258 25.2746C54.0914 25.1684 53.932 25.109 53.7508 25.0996C53.5695 25.0902 53.357 25.1402 53.1195 25.2527L52.2195 25.6777L54.1664 29.809L53.4508 30.1465L53.457 30.1434ZM59.0695 27.7621C58.7258 27.8934 58.3945 27.9277 58.0758 27.8684C57.7602 27.809 57.4758 27.6621 57.2258 27.434C56.9758 27.2027 56.7789 26.8996 56.632 26.5184C56.4883 26.1371 56.432 25.7777 56.4633 25.4371C56.4977 25.0965 56.6102 24.7996 56.807 24.5434C57.0039 24.2871 57.2758 24.0934 57.6195 23.9621C57.9633 23.8309 58.2945 23.7965 58.6133 23.8559C58.932 23.9152 59.2133 24.0621 59.4664 24.2934C59.7164 24.5246 59.9164 24.8309 60.0602 25.2121C60.2039 25.5934 60.2602 25.9496 60.2258 26.2902C60.1914 26.6277 60.0758 26.9246 59.8789 27.1809C59.682 27.4371 59.4102 27.6309 59.0664 27.7621H59.0695ZM58.8414 27.159C59.0633 27.0746 59.2289 26.9434 59.3289 26.7715C59.432 26.5965 59.4789 26.3996 59.4758 26.1746C59.4758 25.9496 59.4258 25.7215 59.3352 25.484C59.2445 25.2496 59.1289 25.0465 58.982 24.8777C58.8352 24.7059 58.6664 24.5902 58.4758 24.5246C58.282 24.4621 58.0758 24.4715 57.8508 24.5559C57.6258 24.6402 57.4633 24.7715 57.3602 24.9496C57.2602 25.1246 57.2102 25.3246 57.2133 25.5496C57.2164 25.7715 57.2633 26.0027 57.3539 26.2371C57.4445 26.4746 57.5602 26.6777 57.707 26.8465C57.8539 27.0152 58.0227 27.1309 58.2133 27.1934C58.407 27.2559 58.6164 27.2434 58.8414 27.1559V27.159ZM61.5383 26.7652L60.3758 23.0059L61.082 22.7871L61.2664 23.384L61.307 23.3715C61.3133 23.1465 61.3852 22.9527 61.5227 22.7809C61.6602 22.609 61.8414 22.4902 62.0602 22.4215C62.107 22.4059 62.1602 22.3934 62.2227 22.3777C62.2883 22.3621 62.3383 22.3496 62.3758 22.3434L62.5914 23.0434C62.5602 23.0434 62.5039 23.0527 62.4258 23.0652C62.3477 23.0777 62.2695 23.0934 62.1945 23.1184C62.0227 23.1715 61.8789 23.2559 61.7664 23.3715C61.6539 23.484 61.5789 23.6184 61.5414 23.7715C61.5039 23.9215 61.507 24.0809 61.5602 24.2434L62.2695 26.5402L61.5383 26.7652ZM65.232 21.6309L65.3852 22.2277L63.3039 22.759L63.1508 22.1621L65.232 21.6309ZM63.4727 21.1059L64.2133 20.9152L65.1352 24.5215C65.1727 24.6652 65.2227 24.7684 65.282 24.8309C65.3445 24.8902 65.4102 24.9246 65.4852 24.934C65.5602 24.9402 65.6383 24.934 65.7195 24.9121C65.7789 24.8965 65.8289 24.8809 65.8727 24.859C65.9164 24.8402 65.9477 24.8246 65.9727 24.8121L66.2633 25.3902C66.2258 25.4184 66.1664 25.4496 66.0914 25.4871C66.0164 25.5246 65.9195 25.5621 65.8008 25.5934C65.607 25.6465 65.4164 25.659 65.2289 25.6277C65.0414 25.5965 64.8758 25.5215 64.732 25.3934C64.5883 25.2684 64.4883 25.0902 64.4289 24.859L63.4695 21.0996L63.4727 21.1059ZM68.1664 25.1246C67.9227 25.1715 67.6914 25.1715 67.4758 25.1184C67.2602 25.0652 67.0758 24.9621 66.9289 24.809C66.782 24.6559 66.682 24.4527 66.632 24.1996C66.5883 23.9809 66.5977 23.7934 66.6539 23.6371C66.7102 23.4809 66.8008 23.3465 66.9289 23.2371C67.0539 23.1277 67.2039 23.034 67.3695 22.959C67.5383 22.884 67.7102 22.8152 67.8883 22.759C68.1133 22.6871 68.2977 22.6277 68.4383 22.584C68.5789 22.5371 68.6789 22.4871 68.7352 22.434C68.7914 22.3809 68.8133 22.309 68.7945 22.2184V22.1996C68.7477 21.9809 68.6539 21.8215 68.5039 21.7246C68.357 21.6277 68.1633 21.6027 67.9195 21.6496C67.6664 21.6996 67.4789 21.7934 67.3539 21.934C67.232 22.0715 67.157 22.2152 67.1258 22.3621L66.3883 22.3402C66.4258 22.0902 66.5133 21.8746 66.6445 21.6996C66.7789 21.5215 66.9445 21.3809 67.1445 21.2746C67.3414 21.1652 67.557 21.0902 67.7914 21.0434C67.9445 21.0121 68.1133 20.9996 68.2914 21.0027C68.4727 21.0027 68.6477 21.0371 68.8164 21.1027C68.9883 21.1684 69.1383 21.2809 69.2695 21.4402C69.4008 21.5965 69.4945 21.8152 69.5508 22.0996L70.0508 24.6652L69.3164 24.809L69.2133 24.2809L69.182 24.2871C69.1508 24.3934 69.0977 24.5027 69.0195 24.6152C68.9414 24.7277 68.832 24.8309 68.6914 24.9215C68.5508 25.0121 68.3758 25.0809 68.1602 25.1215L68.1664 25.1246ZM68.2102 24.4902C68.4195 24.4496 68.5883 24.3746 68.7195 24.2621C68.8539 24.1496 68.9445 24.0215 68.9977 23.8746C69.0508 23.7246 69.0633 23.5746 69.032 23.4215L68.9352 22.9246C68.9133 22.9559 68.8664 22.9934 68.7945 23.0309C68.7227 23.0684 68.6414 23.1027 68.5477 23.1402C68.4539 23.1746 68.3602 23.2059 68.2727 23.2371C68.182 23.2684 68.107 23.2934 68.0477 23.3121C67.9039 23.359 67.7789 23.4152 67.6664 23.484C67.557 23.5496 67.4727 23.6309 67.4164 23.7277C67.3602 23.8215 67.3477 23.9371 67.3727 24.0715C67.4102 24.259 67.5039 24.384 67.6602 24.4527C67.8164 24.5184 68.0008 24.534 68.2133 24.4902H68.2102ZM71.0633 24.509L70.4633 19.2965L71.2258 19.209L71.4477 21.1465L71.4945 21.1402C71.5289 21.0527 71.582 20.9527 71.6539 20.8371C71.7258 20.7215 71.8289 20.6152 71.9664 20.5184C72.1039 20.4215 72.2945 20.3559 72.5383 20.3277C72.8539 20.2902 73.1445 20.3402 73.4102 20.4684C73.6758 20.5996 73.8977 20.8059 74.0727 21.0902C74.2508 21.3746 74.3633 21.7277 74.4102 22.1496C74.4602 22.5715 74.4289 22.9434 74.3227 23.2621C74.2164 23.5777 74.0508 23.834 73.8227 24.0246C73.5945 24.2152 73.3227 24.3277 73.007 24.3621C72.7695 24.3902 72.5695 24.3715 72.4102 24.309C72.2508 24.2465 72.1227 24.1652 72.0258 24.0684C71.9289 23.9715 71.8539 23.884 71.7977 23.8059L71.7352 23.8121L71.8039 24.4215L71.0602 24.5059L71.0633 24.509ZM71.582 22.4684C71.6133 22.7434 71.682 22.9809 71.7852 23.1777C71.8883 23.3746 72.0227 23.5246 72.1883 23.6246C72.3539 23.7215 72.5445 23.759 72.7633 23.734C72.9914 23.709 73.1727 23.6246 73.3133 23.4871C73.4508 23.3465 73.5477 23.1684 73.6039 22.9496C73.6602 22.7309 73.6727 22.4934 73.6414 22.2309C73.6133 21.9715 73.5445 21.7465 73.4445 21.5496C73.3445 21.3527 73.2102 21.2027 73.0414 21.1027C72.8758 21.0027 72.6758 20.9652 72.4477 20.9902C72.2258 21.0152 72.0477 21.0934 71.907 21.2246C71.7695 21.3559 71.6727 21.5277 71.6195 21.7402C71.5664 21.9527 71.5539 22.1934 71.5852 22.4652L71.582 22.4684ZM75.5102 24.0184L75.2414 20.0934L76.007 20.0402L76.2758 23.9652L75.5102 24.0184ZM75.5852 19.459C75.4508 19.4684 75.3352 19.4309 75.232 19.3496C75.132 19.2652 75.0789 19.1621 75.0695 19.0371C75.0602 18.9121 75.1008 18.7996 75.1883 18.7059C75.2789 18.609 75.3883 18.5559 75.5227 18.5465C75.657 18.5371 75.7727 18.5746 75.8727 18.659C75.9727 18.7402 76.0289 18.8465 76.0383 18.9715C76.0477 19.0965 76.007 19.2059 75.9164 19.3027C75.8289 19.3965 75.7195 19.4496 75.5852 19.459ZM77.9695 18.6496L78.0977 23.8965L77.332 23.9152L77.2039 18.6684L77.9695 18.6496ZM79.2008 23.8809L79.2133 19.9465H79.9789L79.9664 23.884H79.2008V23.8809ZM79.6008 19.3402C79.4664 19.3402 79.3539 19.2965 79.257 19.2059C79.1633 19.1152 79.1164 19.0059 79.1164 18.884C79.1164 18.759 79.1633 18.6496 79.257 18.5621C79.3539 18.4715 79.4664 18.4277 79.6008 18.4277C79.7352 18.4277 79.8477 18.4746 79.9414 18.5652C80.0383 18.6559 80.0852 18.7621 80.0852 18.8871C80.0852 19.0121 80.0352 19.1184 79.9414 19.209C79.8477 19.2965 79.732 19.3402 79.6008 19.3402ZM83.0383 20.0465L83.0133 20.6621L80.8664 20.5746L80.8914 19.959L83.0383 20.0465ZM81.5039 19.0402L82.2695 19.0715L82.1195 22.7902C82.1133 22.9371 82.132 23.0527 82.1727 23.1277C82.2133 23.2027 82.2695 23.2559 82.3383 23.2871C82.4102 23.3152 82.4852 23.3309 82.5695 23.334C82.632 23.334 82.6852 23.334 82.732 23.3277C82.7789 23.3215 82.8133 23.3152 82.8414 23.3121L82.9539 23.9496C82.9102 23.9652 82.8445 23.9809 82.7633 23.9934C82.682 24.009 82.5789 24.0152 82.4539 24.0121C82.2539 24.0059 82.0664 23.9652 81.8945 23.8809C81.7227 23.7996 81.5883 23.6777 81.4852 23.5152C81.3852 23.3527 81.3383 23.1559 81.3477 22.9184L81.5039 19.0402ZM84.0477 25.5527C83.9352 25.5402 83.832 25.5215 83.7383 25.4934C83.6477 25.4684 83.5789 25.4402 83.5352 25.4152L83.782 24.809C83.9164 24.859 84.0414 24.8902 84.1508 24.8934C84.2602 24.8996 84.3602 24.8684 84.4508 24.7996C84.5445 24.7309 84.632 24.6152 84.7133 24.4465L84.832 24.1965L83.7945 20.0871L84.6102 20.1684L85.2977 23.3059H85.3383L86.632 20.3684L87.4508 20.4496L85.3945 24.7277C85.3008 24.9246 85.1883 25.0871 85.057 25.2184C84.9258 25.3496 84.7789 25.4434 84.6133 25.4996C84.4477 25.5559 84.257 25.5715 84.0477 25.5527ZM90.7789 25.0934C90.5351 25.0434 90.3227 24.9527 90.1445 24.8215C89.9664 24.6902 89.8383 24.5246 89.757 24.3246C89.6789 24.1277 89.6664 23.9027 89.7164 23.6496C89.7602 23.4309 89.8383 23.2621 89.9508 23.1371C90.0633 23.0152 90.1977 22.9246 90.357 22.8715C90.5164 22.8184 90.6883 22.7902 90.8727 22.784C91.057 22.7777 91.2414 22.784 91.4289 22.7996C91.6664 22.8215 91.857 22.8371 92.0039 22.8496C92.1508 22.8621 92.2633 22.8527 92.3352 22.8277C92.4102 22.7996 92.4539 22.7434 92.4727 22.6527V22.634C92.5227 22.4152 92.4945 22.2309 92.3945 22.0871C92.2977 21.9402 92.1258 21.8434 91.8852 21.7934C91.632 21.7402 91.4227 21.7559 91.2539 21.8402C91.0883 21.9215 90.9633 22.0246 90.8789 22.1465L90.207 21.8402C90.3383 21.6246 90.5008 21.459 90.6914 21.3496C90.882 21.2371 91.0914 21.1715 91.3164 21.1496C91.5414 21.1246 91.7695 21.1371 92.0008 21.1871C92.1539 21.2184 92.3133 21.2715 92.4789 21.3434C92.6445 21.4152 92.7945 21.5121 92.9258 21.6402C93.057 21.7684 93.1539 21.9277 93.2164 22.1246C93.2789 22.3215 93.2789 22.559 93.2227 22.8402L92.6977 25.3996L91.9633 25.2496L92.0727 24.7215L92.0414 24.7152C91.9727 24.8027 91.882 24.884 91.7633 24.9559C91.6477 25.0309 91.507 25.0809 91.3414 25.1121C91.1758 25.1434 90.9883 25.1371 90.7758 25.0934H90.7789ZM91.0664 24.5246C91.2727 24.5684 91.4602 24.5621 91.6227 24.5121C91.7883 24.4621 91.9227 24.3777 92.0289 24.259C92.1352 24.1402 92.2039 24.0059 92.2352 23.8527L92.3383 23.3559C92.307 23.3777 92.2477 23.3902 92.1664 23.3996C92.0852 23.4059 91.9977 23.409 91.8945 23.4059C91.7945 23.3996 91.6977 23.3965 91.6008 23.3902C91.507 23.384 91.4258 23.3777 91.3633 23.3715C91.2133 23.359 91.0758 23.3621 90.9445 23.3809C90.8164 23.3996 90.7102 23.4434 90.6195 23.509C90.532 23.5746 90.4758 23.6746 90.4477 23.809C90.4102 23.9934 90.4477 24.1496 90.5664 24.2715C90.6852 24.3934 90.8508 24.4746 91.0633 24.5184L91.0664 24.5246ZM95.0164 23.5871L94.3758 25.834L93.6383 25.6246L94.7195 21.8402L95.4258 22.0434L95.2508 22.659L95.2977 22.6715C95.4414 22.4965 95.6227 22.3746 95.8445 22.3059C96.0664 22.2371 96.3195 22.2434 96.6039 22.3246C96.8633 22.3996 97.0727 22.5152 97.2352 22.6809C97.3977 22.8434 97.5039 23.0465 97.5508 23.2871C97.5977 23.5309 97.5758 23.8059 97.4852 24.1184L96.7977 26.5246L96.0602 26.3152L96.7227 23.9965C96.8008 23.7215 96.7914 23.4871 96.6914 23.2934C96.5945 23.0965 96.4195 22.9621 96.1695 22.8902C95.9977 22.8402 95.8352 22.834 95.682 22.8715C95.5289 22.909 95.3945 22.9871 95.2758 23.1059C95.1602 23.2246 95.0727 23.3871 95.0164 23.5871ZM99.0852 27.4027C98.7883 27.2934 98.5477 27.1184 98.3695 26.8809C98.1945 26.6402 98.0914 26.3559 98.0633 26.0215C98.0351 25.6871 98.0977 25.3215 98.2414 24.9215C98.3883 24.5215 98.5789 24.2059 98.8164 23.9684C99.0539 23.734 99.3195 23.584 99.6102 23.5184C99.9008 23.4527 100.191 23.4746 100.488 23.584C100.716 23.6684 100.888 23.7746 101.001 23.9027C101.113 24.0309 101.191 24.159 101.232 24.2871C101.273 24.4184 101.301 24.5277 101.316 24.6215L101.36 24.6371L102.032 22.8059L102.751 23.0684L100.945 27.9965L100.241 27.7402L100.451 27.1652L100.391 27.1434C100.32 27.2059 100.223 27.2715 100.104 27.3434C99.9852 27.4152 99.8445 27.4621 99.6758 27.4871C99.507 27.5121 99.3102 27.4809 99.0852 27.3996V27.4027ZM99.4664 26.8465C99.6727 26.9215 99.8695 26.9309 100.051 26.8746C100.235 26.8184 100.401 26.7027 100.548 26.534C100.695 26.3652 100.816 26.1527 100.91 25.8934C101.004 25.6371 101.051 25.3996 101.048 25.1777C101.045 24.959 100.991 24.7684 100.888 24.609C100.785 24.4496 100.629 24.3309 100.42 24.2527C100.204 24.1746 100.001 24.1621 99.8164 24.2215C99.632 24.2809 99.4664 24.3934 99.3195 24.5621C99.1758 24.7309 99.0602 24.934 98.9695 25.1777C98.8789 25.4246 98.8352 25.659 98.8352 25.884C98.8352 26.109 98.8883 26.3059 98.9914 26.4746C99.0945 26.6434 99.2539 26.7652 99.4664 26.8434V26.8465ZM104.12 29.4152L103.37 29.034L107.432 25.2121L108.248 25.6277L107.551 31.1621L106.801 30.7809L107.426 26.2809L107.388 26.2621L104.116 29.4152H104.12ZM105.176 27.6496L107.607 28.8871L107.304 29.4809L104.873 28.2434L105.176 27.6496ZM109.423 32.3809C109.098 32.184 108.863 31.9402 108.716 31.6496C108.573 31.359 108.52 31.0434 108.551 30.7059C108.585 30.3684 108.704 30.0309 108.907 29.6934C109.113 29.3527 109.363 29.0902 109.651 28.9059C109.938 28.7215 110.245 28.6277 110.566 28.6215C110.888 28.6152 111.21 28.709 111.526 28.9027C111.782 29.059 111.979 29.2434 112.123 29.459C112.266 29.6746 112.348 29.9027 112.366 30.1465C112.388 30.3902 112.341 30.634 112.226 30.8746L111.588 30.4871C111.648 30.309 111.651 30.1246 111.595 29.934C111.538 29.7434 111.407 29.5871 111.201 29.459C111.02 29.3465 110.829 29.2996 110.632 29.3121C110.438 29.3246 110.251 29.3965 110.066 29.5246C109.885 29.6527 109.72 29.8371 109.576 30.0777C109.426 30.3215 109.335 30.5559 109.301 30.7809C109.266 31.0059 109.288 31.2059 109.363 31.3871C109.441 31.5684 109.573 31.7152 109.757 31.8277C109.882 31.9027 110.007 31.9496 110.135 31.9652C110.266 31.9809 110.391 31.9652 110.513 31.9215C110.635 31.8777 110.748 31.8027 110.848 31.6996L111.485 32.0871C111.329 32.2902 111.141 32.4402 110.92 32.5402C110.698 32.6402 110.457 32.6777 110.201 32.6527C109.945 32.6309 109.682 32.5402 109.416 32.3777L109.423 32.3809ZM112.782 34.6059C112.473 34.384 112.257 34.1215 112.135 33.8215C112.013 33.5215 111.985 33.2027 112.041 32.8684C112.098 32.534 112.245 32.2059 112.476 31.8871C112.71 31.5621 112.976 31.3184 113.276 31.159C113.576 30.9965 113.888 30.9246 114.21 30.9434C114.532 30.9621 114.845 31.0809 115.145 31.2965C115.388 31.4715 115.573 31.6715 115.698 31.8965C115.823 32.1215 115.888 32.3559 115.888 32.6027C115.888 32.8496 115.826 33.0871 115.695 33.3184L115.088 32.884C115.163 32.709 115.179 32.5277 115.138 32.334C115.098 32.1402 114.979 31.9746 114.779 31.8309C114.607 31.7059 114.42 31.6434 114.226 31.6402C114.032 31.6402 113.838 31.6934 113.648 31.8121C113.457 31.9277 113.279 32.0996 113.116 32.3246C112.948 32.559 112.841 32.784 112.788 33.0059C112.738 33.2246 112.745 33.4277 112.807 33.6152C112.87 33.8027 112.991 33.959 113.166 34.084C113.285 34.1684 113.407 34.2246 113.532 34.2496C113.66 34.2746 113.788 34.2715 113.91 34.234C114.035 34.1996 114.154 34.134 114.263 34.0371L114.87 34.4715C114.698 34.6621 114.498 34.7996 114.27 34.8809C114.041 34.9621 113.798 34.9809 113.545 34.9402C113.291 34.8996 113.038 34.7871 112.785 34.6059H112.782ZM115.988 37.0809C115.704 36.8465 115.51 36.5746 115.404 36.2715C115.301 35.9652 115.285 35.6465 115.363 35.3152C115.438 34.984 115.607 34.6621 115.866 34.3496C116.126 34.034 116.413 33.809 116.723 33.6684C117.035 33.5309 117.351 33.4809 117.67 33.5277C117.988 33.5715 118.291 33.7121 118.576 33.9465C118.86 34.1809 119.054 34.4527 119.16 34.7559C119.263 35.0621 119.279 35.3809 119.201 35.7121C119.123 36.0434 118.954 36.3684 118.695 36.684C118.435 36.9965 118.151 37.2246 117.841 37.3621C117.532 37.4996 117.216 37.5465 116.895 37.5027C116.576 37.459 116.273 37.3184 115.988 37.084V37.0809ZM116.401 36.5871C116.585 36.7402 116.779 36.8152 116.979 36.8184C117.182 36.8184 117.376 36.7652 117.57 36.6496C117.763 36.5371 117.938 36.384 118.101 36.1871C118.26 35.9934 118.379 35.7902 118.451 35.5809C118.529 35.3684 118.548 35.1652 118.507 34.9652C118.466 34.7652 118.354 34.5902 118.17 34.4371C117.985 34.284 117.788 34.2059 117.585 34.2027C117.382 34.2027 117.185 34.259 116.991 34.3715C116.801 34.4871 116.623 34.6402 116.463 34.834C116.301 35.0277 116.185 35.2309 116.107 35.4402C116.032 35.6496 116.016 35.8559 116.057 36.0527C116.098 36.2527 116.213 36.4277 116.398 36.5809L116.401 36.5871ZM120.963 39.2809L122.57 37.6309L123.12 38.1652L120.376 40.9871L119.835 40.4621L120.31 39.9746L120.282 39.9465C120.07 40.034 119.845 40.059 119.604 40.0184C119.366 39.9809 119.141 39.8559 118.929 39.6496C118.748 39.4746 118.626 39.2777 118.563 39.0621C118.504 38.8465 118.51 38.6215 118.585 38.3871C118.66 38.1527 118.81 37.9184 119.038 37.6871L120.782 35.8934L121.332 36.4277L119.651 38.1559C119.463 38.3496 119.37 38.5527 119.363 38.7715C119.36 38.9902 119.441 39.1809 119.613 39.3465C119.716 39.4465 119.845 39.5215 119.995 39.5684C120.148 39.6184 120.307 39.6215 120.476 39.584C120.645 39.5465 120.807 39.4465 120.963 39.284V39.2809ZM123.316 40.709L121.576 42.2684L121.063 41.6965L123.995 39.0715L124.485 39.6184L124.007 40.0465L124.038 40.084C124.254 40.0121 124.473 40.0059 124.698 40.0652C124.923 40.1246 125.132 40.2652 125.329 40.4871C125.507 40.6871 125.623 40.8996 125.673 41.1246C125.726 41.3496 125.704 41.5746 125.616 41.8059C125.526 42.034 125.36 42.259 125.12 42.4746L123.257 44.1465L122.745 43.5746L124.541 41.9652C124.754 41.7746 124.87 41.5715 124.891 41.3527C124.913 41.134 124.838 40.9277 124.663 40.734C124.545 40.6027 124.41 40.509 124.26 40.459C124.113 40.409 123.954 40.4027 123.791 40.4434C123.629 40.484 123.47 40.5715 123.316 40.7121V40.709ZM128.132 43.9184L127.651 44.2996L126.32 42.609L126.804 42.2277L128.132 43.9184ZM127.901 42.0996L128.376 42.7027L125.451 45.0059C125.335 45.0965 125.26 45.184 125.229 45.2652C125.198 45.3465 125.195 45.4215 125.216 45.4934C125.241 45.5652 125.279 45.634 125.332 45.6996C125.37 45.7465 125.407 45.7871 125.441 45.8184C125.479 45.8496 125.504 45.8746 125.526 45.8902L125.113 46.3902C125.073 46.3652 125.02 46.3277 124.957 46.2715C124.891 46.2184 124.82 46.1434 124.741 46.0496C124.613 45.8934 124.526 45.7246 124.479 45.5402C124.429 45.3559 124.435 45.1746 124.491 44.9934C124.548 44.8121 124.67 44.6465 124.857 44.4996L127.907 42.0996H127.901ZM126.11 48.009C125.97 47.8027 125.879 47.5934 125.838 47.3746C125.801 47.1559 125.823 46.9465 125.901 46.7496C125.982 46.5527 126.126 46.3809 126.338 46.234C126.52 46.109 126.695 46.0402 126.863 46.0277C127.029 46.0152 127.188 46.0465 127.338 46.1184C127.488 46.1902 127.635 46.2871 127.773 46.4121C127.91 46.5371 128.038 46.6684 128.163 46.809C128.32 46.9871 128.445 47.1309 128.545 47.2434C128.645 47.3527 128.729 47.4246 128.801 47.4559C128.873 47.4871 128.948 47.4777 129.023 47.4246L129.038 47.4152C129.223 47.2871 129.329 47.1371 129.36 46.9652C129.391 46.7934 129.335 46.6059 129.195 46.3996C129.048 46.1871 128.885 46.0527 128.707 45.9965C128.532 45.9402 128.37 45.9277 128.226 45.959L127.951 45.2746C128.195 45.209 128.426 45.2027 128.638 45.2527C128.854 45.3059 129.051 45.3996 129.229 45.5402C129.407 45.6777 129.563 45.8465 129.698 46.0402C129.788 46.1684 129.866 46.3184 129.935 46.484C130.007 46.6496 130.045 46.8246 130.054 47.0059C130.063 47.1902 130.02 47.3715 129.929 47.5559C129.838 47.7402 129.673 47.9121 129.438 48.0746L127.288 49.559L126.863 48.9434L127.307 48.6371L127.291 48.6121C127.182 48.6277 127.06 48.6215 126.926 48.5934C126.791 48.5652 126.654 48.5059 126.513 48.4152C126.373 48.3246 126.241 48.1871 126.116 48.009H126.11ZM126.71 47.7965C126.829 47.9715 126.966 48.0965 127.123 48.1715C127.279 48.2496 127.435 48.2809 127.588 48.2684C127.748 48.2559 127.891 48.2059 128.016 48.1184L128.435 47.8309C128.398 47.8246 128.348 47.7934 128.282 47.7434C128.22 47.6934 128.154 47.6309 128.085 47.559C128.016 47.4871 127.951 47.4152 127.885 47.3465C127.823 47.2746 127.77 47.2184 127.726 47.1715C127.626 47.059 127.523 46.9652 127.416 46.8902C127.313 46.8152 127.204 46.7715 127.091 46.759C126.982 46.7465 126.873 46.7777 126.76 46.8559C126.604 46.9621 126.526 47.1027 126.526 47.2746C126.526 47.4434 126.588 47.6184 126.713 47.7965H126.71ZM127.845 50.4309L132.366 47.7684L132.754 48.4277L131.073 49.4184L131.095 49.459C131.188 49.4559 131.304 49.4621 131.438 49.4809C131.573 49.4996 131.713 49.5496 131.857 49.6371C132.004 49.7246 132.138 49.8715 132.263 50.084C132.426 50.359 132.498 50.6434 132.488 50.9402C132.476 51.2371 132.376 51.5215 132.188 51.7996C132.001 52.0777 131.723 52.3246 131.357 52.5402C130.991 52.7559 130.641 52.8809 130.307 52.9121C129.976 52.9434 129.676 52.8934 129.41 52.7621C129.145 52.6309 128.929 52.4277 128.77 52.1559C128.648 51.9496 128.585 51.7621 128.576 51.5902C128.57 51.4215 128.591 51.2715 128.638 51.1434C128.688 51.0152 128.738 50.909 128.785 50.8277L128.754 50.7715L128.226 51.0809L127.848 50.4371L127.845 50.4309ZM129.92 50.0777C129.682 50.2184 129.491 50.3746 129.354 50.5496C129.213 50.7246 129.135 50.9059 129.107 51.0996C129.085 51.2902 129.129 51.4809 129.241 51.6684C129.357 51.8652 129.507 51.9996 129.691 52.0715C129.876 52.1402 130.079 52.1559 130.298 52.1184C130.52 52.0809 130.745 51.9965 130.97 51.8621C131.195 51.7309 131.376 51.5777 131.513 51.4059C131.651 51.234 131.732 51.0527 131.757 50.8559C131.782 50.6621 131.735 50.4652 131.62 50.2684C131.507 50.0777 131.363 49.9434 131.185 49.8684C131.007 49.7965 130.813 49.7777 130.595 49.8121C130.376 49.8465 130.151 49.9371 129.916 50.0746L129.92 50.0777ZM130.082 54.2809L133.579 52.4715L133.932 53.1527L130.435 54.9621L130.082 54.2809ZM134.295 52.5371C134.232 52.4184 134.22 52.2965 134.257 52.1715C134.295 52.0465 134.366 51.9559 134.479 51.8965C134.591 51.8371 134.707 51.8309 134.829 51.8746C134.954 51.9184 135.048 51.9996 135.107 52.1184C135.17 52.2371 135.179 52.359 135.145 52.484C135.11 52.609 135.035 52.7027 134.923 52.759C134.813 52.8152 134.695 52.8246 134.57 52.7809C134.448 52.7371 134.357 52.659 134.295 52.5402V52.5371ZM135.988 54.3934L131.232 56.609L130.907 55.9152L135.663 53.6996L135.988 54.3934ZM131.688 57.6184L135.298 56.0465L135.604 56.7496L131.995 58.3184L131.688 57.6152V57.6184ZM136.007 56.1621C135.954 56.0402 135.951 55.9184 135.991 55.7934C136.038 55.6715 136.116 55.584 136.232 55.534C136.348 55.484 136.466 55.484 136.585 55.534C136.707 55.5871 136.795 55.6715 136.848 55.7934C136.901 55.9152 136.904 56.0371 136.857 56.159C136.813 56.2809 136.735 56.3684 136.62 56.4184C136.504 56.4684 136.388 56.4684 136.266 56.4184C136.148 56.3684 136.063 56.2809 136.007 56.159V56.1621ZM136.732 59.6027L136.157 59.8246L135.385 57.8184L135.96 57.5965L136.732 59.6027ZM137.048 57.7965L137.323 58.5121L133.848 59.8496C133.71 59.9027 133.613 59.9652 133.557 60.0309C133.504 60.0996 133.479 60.1715 133.479 60.2465C133.479 60.3215 133.498 60.3996 133.526 60.4777C133.548 60.534 133.573 60.584 133.595 60.6246C133.62 60.6652 133.638 60.6965 133.651 60.7184L133.11 61.0746C133.079 61.0402 133.038 60.9871 132.995 60.9152C132.948 60.8465 132.901 60.7527 132.857 60.6402C132.782 60.4527 132.748 60.2652 132.754 60.0746C132.76 59.884 132.82 59.7121 132.926 59.5559C133.032 59.3996 133.198 59.2777 133.42 59.1934L137.041 57.7996L137.048 57.7965ZM132.07 62.7059C132.035 62.5965 132.013 62.4934 132.001 62.3996C131.988 62.3059 131.985 62.234 131.991 62.1809L132.645 62.1684C132.651 62.3121 132.673 62.4371 132.71 62.5402C132.748 62.6434 132.816 62.7215 132.913 62.7777C133.013 62.8371 133.154 62.8684 133.341 62.8809L133.62 62.8934L136.988 60.3215L137.235 61.1027L134.623 62.9715L134.635 63.0121L137.848 63.0434L138.095 63.8277L133.351 63.6246C133.132 63.6152 132.938 63.5746 132.77 63.509C132.598 63.4402 132.454 63.3434 132.335 63.209C132.22 63.0777 132.129 62.9121 132.063 62.709L132.07 62.7059ZM135.082 68.0434L134.92 67.2184L140.432 68.0684L140.607 68.9652L135.816 71.8215L135.654 70.9965L139.585 68.7215L139.576 68.6809L135.076 68.0434H135.082ZM137.126 67.7871L137.648 70.4621L136.995 70.5902L136.473 67.9152L137.126 67.7871ZM135.988 74.0277C135.948 73.6496 135.998 73.3152 136.138 73.0215C136.282 72.7309 136.498 72.4965 136.785 72.3184C137.073 72.1402 137.413 72.0277 137.807 71.9871C138.204 71.9434 138.563 71.9809 138.882 72.0965C139.204 72.2121 139.466 72.3965 139.666 72.6496C139.866 72.9027 139.988 73.2121 140.026 73.5809C140.057 73.8777 140.032 74.1496 139.948 74.3934C139.863 74.6371 139.732 74.8434 139.551 75.0059C139.37 75.1715 139.148 75.2809 138.888 75.3371L138.807 74.5965C138.985 74.5371 139.135 74.4246 139.251 74.2652C139.366 74.1059 139.413 73.9059 139.385 73.6621C139.363 73.4496 139.285 73.2715 139.157 73.1215C139.029 72.9746 138.86 72.8684 138.645 72.8027C138.432 72.7371 138.185 72.7184 137.907 72.7496C137.62 72.7809 137.379 72.8496 137.182 72.959C136.985 73.0684 136.838 73.209 136.741 73.3777C136.645 73.5496 136.607 73.7434 136.632 73.959C136.648 74.1027 136.688 74.2309 136.754 74.3434C136.823 74.4559 136.91 74.5465 137.02 74.6152C137.129 74.6871 137.254 74.7309 137.401 74.7465L137.482 75.4871C137.226 75.4871 136.991 75.4309 136.779 75.3121C136.566 75.1965 136.388 75.0277 136.251 74.809C136.113 74.5934 136.026 74.3277 135.995 74.0184L135.988 74.0277ZM140.329 78.0715L139.713 78.1027L139.604 75.9559L140.216 75.9246L140.326 78.0715H140.329ZM141.191 76.4496L141.229 77.2152L137.513 77.4059C137.363 77.4121 137.254 77.4402 137.182 77.4902C137.11 77.5371 137.063 77.5996 137.038 77.6684C137.016 77.7402 137.007 77.8184 137.013 77.9027C137.016 77.9652 137.023 78.0184 137.035 78.0621C137.045 78.109 137.054 78.1434 137.06 78.1684L136.435 78.3402C136.416 78.2965 136.395 78.234 136.373 78.1527C136.351 78.0715 136.335 77.9715 136.326 77.8465C136.313 77.6465 136.338 77.4559 136.404 77.2777C136.47 77.0996 136.579 76.9527 136.729 76.8371C136.879 76.7215 137.076 76.659 137.313 76.6465L141.191 76.4496Z" fill="#001040"/>
</svg>
