<svg width="168" height="48" viewBox="0 0 168 48" fill="none" xmlns="http://www.w3.org/2000/svg">
<path d="M11.245 0H0V36.744H11.245V0Z" fill="url(#paint0_linear_1063_39720)"/>
<path d="M29.7627 36.7441H11.2447V48.0001H29.7637V36.7441H29.7627Z" fill="url(#paint1_linear_1063_39720)"/>
<path fill-rule="evenodd" clip-rule="evenodd" d="M0 36.7441H11.245V48.0001L0 36.7441Z" fill="#56B5CF"/>
<path fill-rule="evenodd" clip-rule="evenodd" d="M26.7173 30.8437C22.1233 30.8437 19.3463 29.3437 19.3463 26.8257V17.0737H21.2693V26.8257C21.2693 28.0577 23.4603 28.9157 26.6643 28.9157C29.8683 28.9157 32.0593 28.0577 32.0593 26.8257V17.0737H33.9823V26.8257C34.0893 29.3437 31.3113 30.8437 26.7183 30.8437H26.7173Z" fill="#FAFBFB"/>
<path d="M41.5662 16.9624H39.6432V30.3044H41.5662V16.9624Z" fill="#FAFBFB"/>
<path fill-rule="evenodd" clip-rule="evenodd" d="M58.0694 30.3064H56.0934V19.3744L48.7754 27.7864L43.0604 20.8204V17.7124L48.8284 24.7864L55.6124 16.9624H58.0684V30.3064H58.0694Z" fill="#FAFBFB"/>
<path d="M75.1625 28.3789H63.6795V30.3089H75.1625V28.3789Z" fill="#FAFBFB"/>
<path fill-rule="evenodd" clip-rule="evenodd" d="M75.1629 18.7322V16.8042H63.5729V25.9662H65.5489V24.0902H75.1619V22.1622H65.5489V18.7322H75.1619H75.1629Z" fill="#FAFBFB"/>
<path d="M148.817 28.3789H137.332V30.3089H148.817V28.3789Z" fill="#FAFBFB"/>
<path fill-rule="evenodd" clip-rule="evenodd" d="M148.816 18.7322V16.8042H137.226V25.9662H139.202V24.0902H148.815V22.1622H139.202V18.7322H148.815H148.816Z" fill="#FAFBFB"/>
<path d="M82.6392 16.9106H80.7162V30.2526H82.6392V16.9106Z" fill="#FAFBFB"/>
<path fill-rule="evenodd" clip-rule="evenodd" d="M96.1534 30.3077H93.6434L84.2424 20.6617V17.8757L94.2304 28.1097V16.9097H96.1534V30.3077Z" fill="#FAFBFB"/>
<path fill-rule="evenodd" clip-rule="evenodd" d="M108.062 17.8743C105.177 17.8743 102.828 20.2323 102.828 23.1263C102.828 26.0203 105.177 28.3783 108.062 28.3783C110.947 28.3783 113.296 26.0203 113.296 23.1263C113.296 20.2323 110.947 17.8743 108.062 17.8743ZM108.062 30.3063C104.109 30.3063 100.905 27.0903 100.905 23.1263C100.905 19.1623 104.109 15.9463 108.062 15.9463C112.015 15.9463 115.219 19.1623 115.219 23.1263C115.219 27.0903 112.015 30.3063 108.062 30.3063Z" fill="#FAFBFB"/>
<path fill-rule="evenodd" clip-rule="evenodd" d="M121.629 23.6631V18.9471H128.572C129.427 18.9471 130.334 19.7511 130.334 20.9291C130.334 22.8051 129.266 23.7691 127.237 23.7691L121.63 23.6611V23.6631H121.629ZM132.259 20.9281C132.259 18.6781 130.55 17.0161 128.574 17.0161H119.655V30.3061H121.578V25.6441L126.652 25.6981L129.696 30.3061H131.992L128.841 25.4841C130.978 24.9481 132.26 23.2881 132.26 20.9301V20.9281H132.259Z" fill="#FAFBFB"/>
<path d="M160.801 2.39941H156.018C152.041 2.39941 148.818 5.62296 148.818 9.59941C148.818 13.5759 152.041 16.7994 156.018 16.7994H160.801C164.777 16.7994 168.001 13.5759 168.001 9.59941C168.001 5.62296 164.777 2.39941 160.801 2.39941Z" fill="url(#paint2_linear_1063_39720)"/>
<path d="M155.316 13.2769H153.649L156.188 5.9209H158.192L160.728 13.2769H159.062L157.22 7.6019H157.162L155.316 13.2769ZM155.212 10.3859H159.148V11.5999H155.212V10.3859ZM163.169 5.9209V13.2769H161.614V5.9209H163.169Z" fill="white"/>
<defs>
<linearGradient id="paint0_linear_1063_39720" x1="5.622" y1="0" x2="5.622" y2="48" gradientUnits="userSpaceOnUse">
<stop stop-color="#96AFDB"/>
<stop offset="1" stop-color="#90D3E3"/>
</linearGradient>
<linearGradient id="paint1_linear_1063_39720" x1="0.158718" y1="42.3721" x2="152.275" y2="42.3721" gradientUnits="userSpaceOnUse">
<stop stop-color="#83BECD"/>
<stop offset="1" stop-color="#99D8DE"/>
</linearGradient>
<linearGradient id="paint2_linear_1063_39720" x1="148.821" y1="9.80141" x2="167.998" y2="9.39741" gradientUnits="userSpaceOnUse">
<stop stop-color="#22D3EE"/>
<stop offset="0.5" stop-color="#3B82F6"/>
<stop offset="1" stop-color="#E879F9"/>
</linearGradient>
</defs>
</svg>
