<svg width="72" height="72" viewBox="0 0 72 72" fill="none" xmlns="http://www.w3.org/2000/svg">
<g clip-path="url(#clip0_1053_37827)">
<path fill-rule="evenodd" clip-rule="evenodd" d="M35.4259 15.0184C51.5044 15.0184 64.5351 26.5031 64.5351 40.6602C64.5351 46.5571 62.2713 51.9902 58.4725 56.319H12.3792C8.58045 51.9902 6.31665 46.5571 6.31665 40.6602C6.32769 26.5031 19.3584 15.0184 35.4259 15.0184Z" fill="#E31E24"/>
<path d="M64.5129 50.6099L64.9878 49.6823L69.8467 52.1559L69.3829 53.0614L65.2638 53.4921L68.3669 55.0712L67.8921 55.9988L63.0442 53.5252L63.497 52.6418L67.7264 52.2442L64.5129 50.6099ZM69.1289 43.8737C69.427 43.9289 69.6921 44.0283 69.935 44.1497C70.178 44.2823 70.3988 44.4479 70.5976 44.6467C70.9289 44.989 71.1608 45.3755 71.2933 45.8172C71.4258 46.2589 71.4479 46.7117 71.3595 47.1865C71.2933 47.5399 71.1608 47.8712 70.951 48.1694C70.7522 48.4675 70.4982 48.7326 70.189 48.9313C69.8687 49.1411 69.5264 49.2958 69.173 49.362C68.8086 49.4393 68.4442 49.4393 68.0798 49.3731C67.7043 49.2958 67.351 49.1632 67.0418 48.9645C66.7326 48.7657 66.4675 48.5227 66.2577 48.2135C66.0368 47.9043 65.8822 47.562 65.8049 47.1976C65.7276 46.8332 65.7276 46.4577 65.7939 46.0823C65.8712 45.6847 66.0148 45.3313 66.2246 45.0221C66.4344 44.7129 66.6994 44.4589 67.0307 44.2491C67.3399 44.0504 67.6822 43.9178 68.0356 43.8516C68.389 43.7964 68.7534 43.7964 69.1289 43.8737ZM68.9522 44.978C68.7203 44.9338 68.4994 44.9338 68.2896 44.9669C68.0798 45 67.87 45.0773 67.6822 45.1988C67.4724 45.3313 67.2957 45.4859 67.1632 45.6737C67.0307 45.8614 66.9313 46.0712 66.8872 46.2921C66.7988 46.7669 66.8872 47.1865 67.1632 47.573C67.4283 47.9596 67.8148 48.1915 68.3117 48.2908C68.7645 48.3792 69.1841 48.2908 69.5706 48.0369C69.9571 47.7829 70.189 47.4295 70.2773 46.9767C70.3657 46.5129 70.2884 46.0823 70.0233 45.6957C69.7694 45.2982 69.416 45.0663 68.9522 44.978ZM66.5338 41.4553L71.978 41.5546L71.9559 42.6148L66.5117 42.5154L66.5338 41.4553ZM67.9915 37.0602L68.0798 38.0319L68.0025 38.043C67.7706 38.0651 67.5939 38.1424 67.4724 38.2638C67.3399 38.3964 67.2847 38.562 67.3068 38.7608C67.3289 38.9706 67.4062 39.1362 67.5387 39.2577C67.6712 39.3681 67.8589 39.4123 68.0798 39.4013C68.4332 39.3681 68.654 39.1031 68.7645 38.5841C68.7755 38.5178 68.7976 38.4626 68.7976 38.4295C68.897 37.9988 69.0516 37.6675 69.2724 37.4356C69.4933 37.2148 69.7915 37.0823 70.1669 37.0491C70.6749 37.005 71.0945 37.1154 71.4258 37.3694C71.7571 37.6234 71.9448 37.9878 71.989 38.4516C72.0221 38.8933 71.9227 39.2577 71.6688 39.5448C71.4148 39.8319 71.0503 40.0086 70.5534 40.0859L70.4761 39.1252H70.5203C70.697 39.1142 70.8295 39.0479 70.9289 38.9375C71.0283 38.827 71.0724 38.6835 71.0503 38.5178C71.0393 38.3411 70.973 38.2086 70.8516 38.1203C70.7301 38.0319 70.5755 37.9878 70.3878 38.0099C70.3105 38.0209 70.2442 38.0319 70.178 38.0651C70.1227 38.0872 70.0675 38.1313 70.0233 38.1755C69.924 38.2859 69.8356 38.5178 69.7694 38.8602C69.7473 39.0148 69.7252 39.1252 69.7031 39.2135C69.6037 39.6 69.4491 39.8872 69.2283 40.0859C69.0074 40.2847 68.7092 40.3951 68.3448 40.4283C67.7927 40.4724 67.3289 40.362 66.9534 40.0749C66.589 39.7988 66.3792 39.4013 66.335 38.8823C66.2908 38.3964 66.4234 37.9878 66.7215 37.6675C67.0307 37.3142 67.4503 37.1154 67.9915 37.0602ZM67.1853 33.1068L67.3951 34.0565L67.3178 34.0675C67.097 34.1117 66.9313 34.2111 66.8209 34.3546C66.7105 34.4982 66.6773 34.6749 66.7215 34.8626C66.7657 35.0724 66.8651 35.227 67.0197 35.3264C67.1743 35.4258 67.351 35.4479 67.5718 35.4037C67.9142 35.3264 68.1129 35.0283 68.1571 34.5092C68.1681 34.443 68.1681 34.3878 68.1681 34.3546C68.2123 33.9129 68.3227 33.5706 68.5215 33.3166C68.7203 33.0626 68.9964 32.908 69.3608 32.8197C69.8577 32.7092 70.2884 32.7645 70.6528 32.9743C71.0172 33.1841 71.2491 33.5264 71.3485 33.9792C71.4368 34.4099 71.3816 34.7853 71.1608 35.0945C70.951 35.4037 70.5976 35.6356 70.1227 35.7681L69.924 34.8184L69.9681 34.8074C70.1448 34.7743 70.2663 34.6859 70.3436 34.5645C70.4319 34.443 70.454 34.2994 70.4209 34.1338C70.3878 33.9571 70.2994 33.8356 70.178 33.7694C70.0454 33.6921 69.8908 33.67 69.7031 33.7142C69.6258 33.7252 69.5596 33.7583 69.5043 33.7915C69.4491 33.8246 69.4049 33.8688 69.3608 33.924C69.2724 34.0454 69.2172 34.2773 69.1951 34.6307C69.1841 34.7853 69.1841 34.9068 69.173 34.9841C69.1289 35.3706 69.0074 35.6798 68.8086 35.9117C68.6209 36.1326 68.3338 36.2872 67.9694 36.3645C67.4172 36.4859 66.9534 36.4197 66.5559 36.1878C66.1583 35.9559 65.9043 35.5804 65.7939 35.0724C65.6945 34.5976 65.7718 34.178 66.0368 33.8135C66.2687 33.4602 66.6663 33.2283 67.1853 33.1068ZM64.8221 31.7706L69.8688 29.7277L70.2663 30.7105L65.2197 32.7534L64.8221 31.7706ZM62.2822 26.8123L61.7411 25.9068L66.4123 23.1019L67.1411 24.3056L64.4577 27.5301L68.5657 26.6688L69.2945 27.8724L64.6123 30.6994L64.0712 29.7939L67.4835 27.7951L63.3865 28.6565L62.978 27.9718L65.6614 24.7473L62.2822 26.8123ZM59.0577 19.7559L57.578 21.4013L56.7829 20.6835L60.427 16.6307L61.2221 17.3485L59.7424 18.9939L61.0454 20.1645L62.5252 18.5301L63.3203 19.2479L59.6761 23.3007L58.881 22.5829L60.3608 20.9375L59.0577 19.7559ZM59.3448 15.7252L58.8148 16.5203L57.9645 15.9461L55.4577 19.6675L54.5743 19.0712L57.081 15.3497L56.2307 14.7755L56.7608 13.9804L59.3448 15.7252ZM53.5914 18.3534L51.173 17.0062L53.8123 12.2467L54.7289 12.7546L52.5645 16.6859L54.0552 17.5142L53.5914 18.3534ZM47.9375 14.3338L47.1313 15.2504L46.1043 14.8528L50.0246 10.524L50.8859 10.8553L50.8749 16.6859L49.8148 16.2773L49.8258 15.0626L47.9375 14.3338ZM49.8589 13.9804L49.881 12.1142L48.6442 13.5166L49.8589 13.9804ZM45.8062 14.7755L42.9571 14.0577L44.2712 8.77919L47.1203 9.48594L46.8884 10.4135L45.0552 9.96078L44.7571 11.1645L46.5902 11.6172L46.3583 12.5338L44.5252 12.081L44.1939 13.3841L46.027 13.8369L45.8062 14.7755ZM39.3571 11.2197L39.1252 13.4283L38.0651 13.3178L38.6393 7.89575L39.6994 8.00618L39.4675 10.2037L41.2123 10.3915L41.4442 8.19391L42.5043 8.30434L41.9301 13.7154L40.87 13.605L41.1019 11.3964L39.3571 11.2197ZM35.0503 13.2516L32.2896 13.3951L32.0025 7.95097L33.0516 7.89575L33.2835 12.3792L34.9951 12.2908L35.0503 13.2516ZM28.1154 12.8099L27.8503 14.0025L26.7571 14.1571L28.0933 8.46998L29.0098 8.33747L31.8258 13.4393L30.6994 13.5939L30.1141 12.5227L28.1154 12.8099ZM29.6283 11.5731L28.7448 9.92765L28.3362 11.7608L29.6283 11.5731ZM24.1951 15.0626L23.1681 15.3608L21.6663 10.1264L22.9141 9.77305C23.3117 9.66262 23.6098 9.58532 23.8086 9.56324C24.0074 9.54115 24.1841 9.53011 24.3387 9.55219C24.67 9.60741 24.9571 9.72888 25.189 9.9387C25.4209 10.1485 25.5755 10.4135 25.6749 10.7448C25.7853 11.1534 25.7743 11.5289 25.6307 11.8712C25.4871 12.2135 25.2442 12.4786 24.8798 12.6663L26.7681 14.3227L25.5424 14.6761L23.4994 12.6332L24.1951 15.0626ZM23.4332 12.3792L23.654 12.3129C24.0626 12.1915 24.3608 12.0258 24.5375 11.816C24.7141 11.6062 24.7583 11.3522 24.67 11.0651C24.5927 10.789 24.4491 10.6123 24.2283 10.524C24.0074 10.4467 23.7092 10.4577 23.3338 10.5681L22.9583 10.6786L23.4332 12.3792ZM16.6197 12.4565L17.5804 11.9927L18.9608 14.8197C19.1706 15.2614 19.3694 15.5485 19.546 15.67C19.7227 15.7915 19.9215 15.8025 20.1534 15.6921C20.3743 15.5816 20.4957 15.416 20.5068 15.2062C20.5178 14.9853 20.4184 14.654 20.1976 14.2123L18.8172 11.3853L19.7779 10.9215L21.2908 14.0246C21.4565 14.3669 21.5669 14.6319 21.6111 14.8307C21.6552 15.0185 21.6663 15.2062 21.6442 15.3829C21.6 15.681 21.5006 15.935 21.335 16.1448C21.1694 16.3546 20.9375 16.5313 20.6393 16.6859C20.3411 16.8295 20.054 16.9068 19.789 16.9068C19.524 16.9068 19.2589 16.8295 18.9939 16.6859C18.8393 16.5976 18.7068 16.4872 18.5853 16.3436C18.4638 16.2 18.3203 15.9461 18.1436 15.5816L16.6197 12.4565ZM16.0896 19.2369L15.2062 19.8332L12.1583 15.3166L13.2295 14.5878C13.5718 14.3559 13.8368 14.2013 14.0135 14.1129C14.2013 14.0246 14.3669 13.9694 14.5215 13.9362C14.8528 13.881 15.162 13.9142 15.4491 14.0467C15.7252 14.1681 15.9681 14.378 16.1559 14.6651C16.3878 15.0185 16.4982 15.3718 16.4651 15.7473C16.443 16.1227 16.2773 16.454 15.9902 16.7412L18.2982 17.735L17.2381 18.4418L14.654 17.1277L16.0896 19.2369ZM14.5215 16.9178L14.7203 16.7853C15.0736 16.5424 15.3056 16.2994 15.4049 16.0454C15.5043 15.7915 15.4712 15.5375 15.3056 15.2945C15.1399 15.0516 14.9522 14.9301 14.7203 14.9191C14.4884 14.908 14.2123 15.0185 13.881 15.2393L13.5497 15.4602L14.5215 16.9178ZM12.854 21.7105L10.8994 23.6651L7.04543 19.8111L7.79635 19.0602L10.9657 22.2295L12.1694 21.0148L12.854 21.7105ZM7.54236 26.216L8.20494 27.243L7.54236 28.1264L4.46138 23.1571L5.01353 22.4283L10.6123 24.0405L9.92764 24.9571L8.75709 24.6148L7.54236 26.216ZM7.74113 24.2724L5.95218 23.7313L6.95708 25.3105L7.74113 24.2724ZM6.08469 31.4393L5.64297 32.389L0.706777 30.081L1.13745 29.1645L5.24543 28.5902L2.09819 27.1215L2.53991 26.1718L7.46506 28.4908L7.04543 29.3853L2.83807 29.9264L6.08469 31.4393ZM1.51291 38.0761C1.21475 38.0099 0.949722 37.9215 0.706777 37.778C0.463833 37.6454 0.242974 37.4798 0.0552436 37.281C-0.276045 36.9387 -0.496904 36.5411 -0.618376 36.0994C-0.739849 35.6577 -0.750892 35.205 -0.651505 34.7301C-0.574204 34.3767 -0.430646 34.0454 -0.231873 33.7473C-0.0220571 33.4491 0.231931 33.1951 0.541133 32.9964C0.861379 32.7865 1.20371 32.643 1.56813 32.5767C1.93254 32.5105 2.29696 32.5105 2.66138 32.5878C3.03684 32.6651 3.39021 32.8086 3.68837 33.0074C3.99758 33.2062 4.25156 33.4602 4.45034 33.7694C4.67119 34.0786 4.81475 34.4319 4.88101 34.7964C4.95831 35.1608 4.94727 35.5362 4.86997 35.9117C4.78162 36.3092 4.63807 36.6626 4.42825 36.9608C4.21843 37.2589 3.94236 37.5129 3.61107 37.7117C3.29083 37.8994 2.95954 38.0319 2.60616 38.0872C2.25279 38.1645 1.88837 38.1534 1.51291 38.0761ZM1.71169 36.9718C1.94359 37.016 2.16445 37.027 2.37426 36.9939C2.58408 36.9608 2.79389 36.8835 2.99267 36.7731C3.20248 36.6516 3.37917 36.497 3.52273 36.2982C3.66629 36.1105 3.75463 35.9117 3.7988 35.6908C3.89819 35.227 3.80985 34.7964 3.55586 34.4099C3.29083 34.0234 2.91537 33.7804 2.41843 33.67C1.96567 33.5706 1.54604 33.6479 1.15954 33.9019C0.773035 34.1559 0.53009 34.4982 0.430704 34.951C0.331317 35.4148 0.408618 35.8454 0.662606 36.243C0.894507 36.6295 1.24788 36.8724 1.71169 36.9718ZM4.29574 40.616L-1.14844 40.4283L-1.11531 39.3681L4.32886 39.5559L4.29574 40.616ZM-1.09322 41.6651L-0.143529 41.5988L-0.0772718 42.6148L4.40616 42.3056L4.48346 43.3657L2.88244e-05 43.6749L0.0662865 44.7019L-0.883407 44.7681L-1.09322 41.6651ZM4.18531 47.8823L5.40003 48.0148L5.66506 49.0859L-0.132487 48.3571L-0.353345 47.4626L4.42825 44.1166L4.70432 45.2209L3.69942 45.9166L4.18531 47.8823ZM2.80494 46.5019L1.25892 47.551L3.12518 47.7608L2.80494 46.5019ZM7.25524 52.3767L7.73009 53.3043L2.88224 55.778L2.41843 54.8835L4.49451 51.2945L1.39144 52.8737L0.916593 51.9461L5.77549 49.4724L6.22825 50.3559L4.06383 54L7.25524 52.3767Z" fill="#FCFCFC"/>
<path fill-rule="evenodd" clip-rule="evenodd" d="M35.2932 44.5914C33.3386 44.0723 31.9472 42.6478 31.9472 40.9693C31.9472 40.7705 31.9693 40.5717 32.0024 40.384L33.3607 40.4613C33.3386 40.5717 33.3276 40.6711 33.3276 40.7815C33.3276 41.8969 34.3656 42.8355 35.8012 43.1668L35.2932 44.5914ZM41.9079 41.2674C41.7423 42.8907 40.2736 44.2269 38.2969 44.6576L37.6675 43.2331C39.103 43.0233 40.2184 42.2282 40.4724 41.2122L41.9079 41.2674ZM37.9325 50.8858C38.2638 50.8858 38.5398 51.1619 38.5398 51.4932V53.2601C38.5398 53.5914 38.2638 53.8674 37.9325 53.8674C37.6012 53.8674 37.3251 53.5914 37.3251 53.2601V51.4932C37.3362 51.1509 37.6012 50.8858 37.9325 50.8858ZM35.8122 50.8858C36.1435 50.8858 36.4196 51.1619 36.4196 51.4932V53.2601C36.4196 53.5914 36.1546 53.8674 35.8122 53.8674C35.4699 53.8674 35.2049 53.5914 35.2049 53.2601V51.4932C35.2049 51.1509 35.481 50.8858 35.8122 50.8858ZM36.9607 39.2797C37.7227 39.2797 38.3411 39.9975 38.3411 40.892C38.3411 41.7864 37.7227 42.5042 36.9607 42.5042C36.1987 42.5042 35.5803 41.7754 35.5803 40.892C35.5693 39.9975 36.1877 39.2797 36.9607 39.2797ZM37.2478 43.465L37.3583 43.7963L39.9423 49.892C40.0748 50.2122 39.7104 50.5104 39.4012 50.5104H34.2552C33.8797 50.5104 33.3938 50.2012 33.5264 49.892L36.1435 43.9398L36.3092 43.465C36.6294 42.5595 36.9055 42.4822 37.2478 43.465ZM49.7043 48.8318C50.2785 48.8318 50.7423 49.2956 50.7423 49.8699V52.9177C50.7423 53.492 50.2785 53.9558 49.7043 53.9558C49.13 53.9558 48.6662 53.492 48.6662 52.9177V49.8699C48.6662 49.3067 49.13 48.8318 49.7043 48.8318ZM45.6184 48.8318C46.1926 48.8318 46.6564 49.2956 46.6564 49.8699V52.9177C46.6564 53.492 46.1926 53.9558 45.6184 53.9558C45.0441 53.9558 44.5803 53.492 44.5803 52.9177V49.8699C44.5803 49.3067 45.0441 48.8318 45.6184 48.8318ZM48.5116 35.8453L48.7104 36.4196L52.3767 47.0098C52.5644 47.5619 51.9018 48.0699 51.3165 48.0699H44.1055C43.5202 48.0699 42.8466 47.5619 43.0454 47.0098L46.6233 36.6625L46.8994 35.8453C47.4515 34.2662 47.9264 34.1337 48.5116 35.8453ZM54.1877 40.7153C53.746 41.0466 53.0945 40.9582 52.7411 40.5386L49.1079 36.1766C48.7546 35.746 48.8208 35.1276 49.2625 34.7963C49.7043 34.465 50.3558 34.5533 50.7092 34.973L54.3423 39.3349C54.6957 39.7656 54.6294 40.384 54.1877 40.7153ZM41.5435 40.8368C41.9852 41.157 42.6147 41.0576 42.946 40.6049L46.281 36.011C46.6122 35.5582 46.5129 34.9288 46.0601 34.6085C45.6184 34.2883 44.9779 34.3877 44.6576 34.8404L41.3227 39.4343C41.0024 39.8871 41.0908 40.5165 41.5435 40.8368ZM47.6724 28.1374C49.1079 28.1374 50.2785 29.4625 50.2785 31.0969C50.2785 32.7312 49.1079 34.0564 47.6724 34.0564C46.2368 34.0564 45.0662 32.7312 45.0662 31.0969C45.0662 29.4625 46.2368 28.1374 47.6724 28.1374ZM26.9337 44.4368C27.53 44.4368 28.0049 44.9226 28.0049 45.5079V52.6417C28.0049 53.238 27.519 53.7128 26.9337 53.7128C26.3374 53.7128 25.8625 53.2269 25.8625 52.6417V45.5079C25.8515 44.9226 26.3374 44.4368 26.9337 44.4368ZM22.7374 44.4368C23.3337 44.4368 23.8086 44.9226 23.8086 45.5079V52.6417C23.8086 53.238 23.3227 53.7128 22.7374 53.7128C22.1411 53.7128 21.6662 53.2269 21.6662 52.6417V45.5079C21.6552 44.9226 22.1411 44.4368 22.7374 44.4368ZM21.4785 36.6956L22.638 35.3484V33.6368H26.8122V35.0061L28.1264 36.6956V42.4711C28.1264 43.0233 27.6736 43.465 27.1325 43.465H22.4834C21.9313 43.465 21.4895 43.0122 21.4895 42.4711V36.6956H21.4785ZM33.0073 39.5889C32.5104 39.9975 31.7705 39.9312 31.3509 39.4343L27.5742 34.9177C27.4638 34.7852 27.3865 34.6417 27.3423 34.4871V33.8245C27.4086 33.6147 27.53 33.4159 27.7067 33.2613C28.2037 32.8527 28.9435 32.919 29.3632 33.4159L33.1398 37.9325C33.5595 38.4294 33.4932 39.1803 33.0073 39.5889ZM16.719 39.7435C17.2159 40.1521 17.9558 40.0858 18.3754 39.5889L22.1079 35.1276V33.5042C22.0859 33.4711 22.0527 33.449 22.0196 33.4269C21.5227 33.0183 20.7828 33.0846 20.3632 33.5815L16.5865 38.0981C16.1668 38.595 16.2331 39.3349 16.719 39.7435ZM24.9681 26.249C26.5141 26.249 27.773 27.6736 27.773 29.4404C27.773 31.1963 26.5141 32.6318 24.9681 32.6318C23.4221 32.6318 22.1632 31.2073 22.1632 29.4404C22.1632 27.6846 23.411 26.249 24.9681 26.249Z" fill="#FEFEFE"/>
<path fill-rule="evenodd" clip-rule="evenodd" d="M35.6688 18.7841C35.8786 18.8062 36.0774 18.8503 36.2651 18.9276L36.7179 18.1436L36.4087 18.9939C36.5523 19.0712 36.6848 19.1595 36.8173 19.27L38.0762 18.2209L37.0161 19.4798C37.1486 19.6233 37.248 19.789 37.3363 19.9767L38.1977 19.7117L37.3915 20.1203C37.4467 20.2749 37.4909 20.4516 37.502 20.6172L39.5891 20.8049L37.502 20.9927C37.4909 21.1694 37.4467 21.346 37.3915 21.5006L38.1977 21.9092L37.3363 21.6442C37.259 21.8209 37.1486 21.9865 37.0271 22.1301L38.0872 23.389L36.8283 22.3289C36.6627 22.4724 36.486 22.5829 36.2872 22.6712L36.5302 23.5436L36.1437 22.7264C36.0001 22.7706 35.8455 22.8037 35.6909 22.8148L35.5032 24.9019L35.3155 22.8148C35.1056 22.7927 34.9069 22.7485 34.7191 22.6712L34.2664 23.4552L34.5756 22.6049C34.432 22.5276 34.2995 22.4393 34.178 22.3289L32.9191 23.389L33.9793 22.1301C33.8467 21.9865 33.7474 21.8209 33.659 21.6332L32.7977 21.8982L33.6038 21.4896C33.5486 21.335 33.5044 21.1583 33.4934 20.9927L31.4062 20.8049L33.4934 20.6172C33.5044 20.4405 33.5486 20.2749 33.6038 20.1092L32.7977 19.7006L33.659 19.9657C33.7363 19.789 33.8467 19.6233 33.9682 19.4798L32.9081 18.2209L34.167 19.27C34.3326 19.1264 34.5093 19.016 34.7081 18.9387L34.4651 18.0663L34.8516 18.8835C34.9952 18.8393 35.1498 18.8062 35.3044 18.7951L35.4921 16.708L35.6688 18.7841Z" fill="#FFED00"/>
<path d="M59.0687 59.2344H58.8036V62.1277H58.3398V60.416H57.5227V60.8577C57.5227 61.0013 57.4785 61.0675 57.3791 61.0675C57.3349 61.0675 57.2576 61.0013 57.1582 60.8798C57.1141 60.8136 57.0588 60.7473 57.0147 60.6921C56.9705 60.6258 56.9263 60.5596 56.8932 60.4823C56.8159 60.3277 56.7717 60.2283 56.7717 60.1841C56.7717 60.0958 56.7938 60.0295 56.838 60.0074C56.8822 59.9853 56.9263 59.9633 56.9595 59.9633H58.3509V59.2455H56.3411V58.8037H59.0797V59.2344H59.0687ZM56.4515 59.2344H56.1865V62.1277H55.7226V59.2344H55.1815V58.7927H56.4515V59.2344ZM54.5079 59.6209C54.5079 59.5768 54.4969 59.5215 54.4638 59.4553C54.4306 59.389 54.3865 59.3338 54.3312 59.2786C54.265 59.2234 54.1987 59.2013 54.1214 59.2013C54.0552 59.2013 53.9889 59.2344 53.9447 59.3007C53.9006 59.3669 53.8674 59.4442 53.8674 59.5326C53.8674 59.632 53.9006 59.7093 53.9558 59.7755C54.011 59.8418 54.0883 59.8639 54.1656 59.8639C54.2429 59.8639 54.3092 59.8418 54.3754 59.7976C54.4417 59.7313 54.4858 59.6761 54.5079 59.6209ZM55.3472 59.2344H54.795C54.8613 59.3448 54.9055 59.4442 54.9386 59.5326C54.9717 59.6209 54.9828 59.7313 54.9828 59.8528C54.9828 60.0626 54.9496 60.2614 54.8723 60.4381C54.8061 60.6258 54.7067 60.7694 54.5742 60.8909C54.4969 60.9571 54.4306 61.0013 54.3644 61.0344C54.2981 61.0675 54.2208 61.0896 54.1325 61.0896L54.2429 61.2111C54.3202 61.2994 54.3754 61.3547 54.4085 61.3878L54.795 61.7632L54.53 62.1829L54.3975 62.0504L54.1325 61.7853L53.8564 61.4982L53.5251 61.1117L53.3153 60.8467L53.6134 60.4823L53.7901 60.681L53.8343 60.6921C53.8785 60.7031 53.9006 60.7031 53.9226 60.7031C53.9447 60.7031 53.9668 60.7031 53.9889 60.7031C54.2981 60.6258 54.4527 60.4271 54.4748 60.1399C54.3312 60.2062 54.2098 60.2504 54.1104 60.2504C53.9226 60.2504 53.768 60.1841 53.6355 60.0626C53.503 59.9412 53.4478 59.7645 53.4478 59.5547C53.4478 59.4442 53.4699 59.3448 53.5141 59.2344H52.8957V58.7927H55.3361V59.2344H55.3472ZM52.2993 60.2283V59.2344H51.5042V60.2283H52.2993ZM53.0282 59.2344H52.7631V62.1277H52.2993V60.659H51.5042V61.0344C51.5042 61.0675 51.4932 61.1117 51.4711 61.1669C51.449 61.2221 51.4159 61.2442 51.3607 61.2442C51.3165 61.2442 51.2503 61.178 51.1398 61.0565C51.0294 60.935 50.93 60.8025 50.8417 60.659C50.7533 60.5154 50.7092 60.416 50.7092 60.3718C50.7092 60.3056 50.7312 60.2614 50.7754 60.2393C50.7975 60.2283 50.8196 60.2172 50.8306 60.2172C50.8527 60.2062 50.8638 60.2062 50.8748 60.2062H51.0625V59.2123H50.3006V58.7706H53.0392V59.2344H53.0282ZM52.3435 58.6933H51.8687C51.8576 58.6823 51.8576 58.6712 51.8576 58.6712C51.8245 58.6271 51.7914 58.5718 51.7472 58.5166C51.703 58.4614 51.6588 58.4062 51.6147 58.351C51.5705 58.2958 51.5153 58.2406 51.449 58.1743C51.3276 58.0528 51.195 57.9534 51.0404 57.8541C50.8858 57.7657 50.7312 57.7215 50.5766 57.7215C50.3999 57.7215 50.2674 57.7767 50.1791 57.8982C50.0907 58.0197 50.0466 58.1743 50.0466 58.362C50.0466 58.4062 50.0466 58.4504 50.0576 58.4945C50.0687 58.5498 50.0687 58.5939 50.0797 58.6491C50.0907 58.7044 50.1018 58.7375 50.1018 58.7485C50.1018 58.7596 50.1128 58.7706 50.1128 58.7927H50.4331V59.2344H50.168V62.1277H49.6932V59.2344H49.1521V58.7927H49.6932C49.6822 58.7706 49.6822 58.7596 49.6822 58.7375C49.6711 58.7044 49.6601 58.6602 49.6601 58.6271C49.638 58.5056 49.6269 58.3952 49.6269 58.2958C49.6269 58.097 49.6601 57.9203 49.7484 57.7657C49.8257 57.6111 49.9361 57.4896 50.0907 57.4123C50.168 57.3682 50.2453 57.335 50.3227 57.3129C50.4 57.2909 50.4993 57.2798 50.5987 57.2798C50.8638 57.2798 51.1288 57.3902 51.3828 57.589C51.5153 57.6994 51.6368 57.7988 51.7361 57.8982C51.8355 57.9976 51.9349 58.108 52.0233 58.2185C52.1558 58.4172 52.2773 58.5718 52.3435 58.6933ZM47.0871 60.67V59.2455H46.4134C46.5128 59.4001 46.557 59.6099 46.557 59.8418C46.557 60.2725 46.3693 60.5375 45.9938 60.6258C46.0269 60.7694 46.0932 60.8909 46.1815 60.9682C46.2257 61.0123 46.2809 61.0455 46.3361 61.0786C46.3914 61.1007 46.4466 61.1228 46.5018 61.1228C46.5901 61.1228 46.6785 61.1007 46.7668 61.0565C46.811 61.0344 46.8441 61.0123 46.8773 60.9792C46.9104 60.9571 46.9435 60.924 46.9766 60.8798C47.0319 60.8025 47.076 60.7363 47.0871 60.67ZM47.838 59.2344H47.5619V62.1277H47.0981V61.3215C46.9987 61.3988 46.9104 61.454 46.8331 61.4872C46.7558 61.5093 46.6564 61.5314 46.557 61.5314C46.3693 61.5314 46.1926 61.4761 46.0269 61.3547C45.8613 61.2332 45.7288 61.0786 45.6294 60.8798C45.53 60.681 45.4858 60.4602 45.4858 60.2283C45.53 60.2393 45.5852 60.2504 45.6404 60.2504C45.7619 60.2504 45.8723 60.2062 45.9717 60.1289C46.0711 60.0516 46.1153 59.9191 46.1153 59.7424C46.1153 59.643 46.0932 59.5436 46.038 59.4332C45.9938 59.3228 45.9496 59.2455 45.9165 59.2234H45.0773V58.7817H47.8269V59.2344H47.838ZM45.6184 61.1338C45.3754 61.4099 45.0772 61.5424 44.7128 61.5424C44.4809 61.5424 44.2822 61.4761 44.1055 61.3547C43.9398 61.2332 43.8073 61.0786 43.7079 60.8798C43.6085 60.6921 43.5533 60.4933 43.5202 60.2945C43.6196 60.3498 43.7631 60.3718 43.9509 60.3718C44.0613 60.3718 44.1607 60.3498 44.2601 60.3056C44.3595 60.2614 44.4368 60.1841 44.503 60.0847C44.5693 59.9853 44.5914 59.8639 44.5914 59.7093C44.5914 59.5547 44.5582 59.4221 44.503 59.3228C44.4478 59.2234 44.3484 59.1682 44.2269 59.1682C44.0723 59.1682 43.995 59.2565 43.995 59.4221C43.995 59.4884 44.0171 59.5436 44.0723 59.5878C44.1165 59.632 44.1717 59.654 44.2159 59.654V60.0295C44.1276 60.0295 44.0392 60.0074 43.9398 59.9743C43.8404 59.9301 43.7521 59.8639 43.6858 59.7755C43.6196 59.6761 43.5754 59.5547 43.5754 59.389C43.5754 59.2565 43.6085 59.1461 43.6638 59.0467C43.719 58.9473 43.7963 58.87 43.9067 58.8148C44.0061 58.7596 44.1165 58.7375 44.2269 58.7375C44.3815 58.7375 44.5141 58.7817 44.6466 58.881C44.7791 58.9694 44.8785 59.1019 44.9558 59.2565C45.0331 59.4111 45.0662 59.5767 45.0662 59.7645C45.0662 59.9522 45.022 60.1289 44.9447 60.2725C44.8674 60.4271 44.757 60.5485 44.6245 60.6479C44.492 60.7473 44.3484 60.7915 44.2159 60.7915C44.238 60.8467 44.2932 60.9129 44.3705 60.9902C44.4588 61.0675 44.5803 61.1117 44.7349 61.1117C44.8564 61.1117 44.9668 61.0786 45.0662 61.0123C45.1656 60.9461 45.265 60.8798 45.3423 60.7915C45.4196 60.7031 45.4858 60.6258 45.5411 60.5485C45.5852 60.4712 45.6184 60.4271 45.6184 60.405V61.1338ZM43.476 59.2344H43.1226V60.0516C43.1226 60.2725 43.0674 60.4381 42.946 60.5264C42.8907 60.5706 42.8245 60.6037 42.7472 60.6258L42.5926 60.659L42.7251 60.8909L42.9128 61.2001C42.9791 61.2994 43.0674 61.4209 43.1668 61.5645L43.3214 61.7743L42.957 62.1056L42.8355 61.9068L42.5815 61.4982C42.5374 61.4209 42.4822 61.3326 42.4269 61.2332C42.3607 61.1228 42.3055 61.0344 42.2723 60.9571C42.1619 60.7694 42.0625 60.5706 41.9411 60.3387C41.8306 60.1068 41.7754 59.9853 41.7754 59.9743L42.1288 59.6982C42.1288 59.7313 42.1619 59.8197 42.2503 59.9853C42.3276 60.1399 42.4049 60.2283 42.4822 60.2283C42.6036 60.2283 42.6699 60.1399 42.6699 59.9743V59.2344H41.3999V58.7927H43.4871V59.2344H43.476ZM43.8736 60.5927H43.3766L43.1337 60.1841H43.8625V60.5927H43.8736ZM41.5104 59.2344H41.2453V62.1277H40.7815V59.2344H40.2404V58.7927H41.5104V59.2344ZM40.373 59.2344H40.1079V62.1277H39.6441V61.2884L39.6 61.3326C39.5779 61.3547 39.5447 61.3878 39.5006 61.4099C39.4564 61.432 39.4122 61.454 39.357 61.4761C39.3018 61.4982 39.2355 61.4982 39.1803 61.4982C38.9263 61.4982 38.7276 61.4099 38.5509 61.2332C38.3852 61.0565 38.2969 60.8136 38.2969 60.5154C38.2969 60.3498 38.33 60.1841 38.3963 60.0406C38.4625 59.897 38.5619 59.7755 38.6834 59.6982C38.8049 59.6209 38.9374 59.5767 39.0809 59.5767C39.1914 59.5767 39.3018 59.5988 39.4122 59.654L39.4564 60.0958C39.4453 60.0737 39.4122 60.0516 39.357 60.0185C39.3018 59.9853 39.2355 59.9743 39.1582 59.9743C39.0478 59.9743 38.9484 60.0295 38.8822 60.1289C38.8159 60.2283 38.7717 60.3608 38.7717 60.5264C38.7717 60.6921 38.8159 60.8246 38.8932 60.924C38.9705 61.0234 39.0699 61.0675 39.1803 61.0675C39.2687 61.0675 39.357 61.0455 39.4233 60.9902C39.4895 60.935 39.5447 60.8798 39.5889 60.8136C39.6331 60.7473 39.6552 60.7031 39.6552 60.681V59.2344H37.8773V58.7927H40.373V59.2344ZM38.0098 59.2344H37.6564V60.0516C37.6564 60.2725 37.5901 60.4381 37.4797 60.5264C37.4245 60.5706 37.3582 60.6037 37.2809 60.6258L37.1263 60.659L37.2588 60.8909L37.4466 61.2001C37.5128 61.2994 37.6012 61.4209 37.7006 61.5645L37.8552 61.7743L37.4907 62.1056L37.3693 61.9068L37.1153 61.4982C37.0711 61.4209 37.0159 61.3326 36.9607 61.2332C36.8944 61.1228 36.8392 61.0344 36.795 60.9571C36.6846 60.7694 36.5852 60.5706 36.4748 60.3387C36.3644 60.1068 36.3092 59.9853 36.3092 59.9743L36.6515 59.6982C36.6515 59.7313 36.6957 59.8197 36.773 59.9853C36.8503 60.1399 36.9276 60.2283 37.0049 60.2283C37.1263 60.2283 37.1926 60.1399 37.1926 59.9743V59.2344H35.9226V58.7927H38.0208V59.2344H38.0098ZM38.4184 60.5927H37.9214L37.6895 60.1841H38.4184V60.5927ZM34.5975 59.2344H34.3325V62.1277H33.8687V59.2344H33.3276V58.7927H34.5975V59.2344ZM32.9079 60.4712V59.2344H32.3447V60.4712C32.3447 60.7031 32.4441 60.8246 32.6319 60.8246C32.8085 60.8246 32.9079 60.7031 32.9079 60.4712ZM33.4601 59.2344H33.3717V60.4712C33.3717 60.6037 33.3386 60.7363 33.2723 60.8577C33.2061 60.9792 33.1177 61.0786 32.9963 61.1559C32.8858 61.2332 32.7644 61.2774 32.6429 61.2774C32.5104 61.2774 32.3779 61.2332 32.2674 61.1559C32.146 61.0786 32.0576 60.9682 31.9914 60.8467C31.9251 60.7252 31.892 60.6037 31.892 60.4712V59.2344H31.4061V58.7927H33.4601V59.2344ZM31.5276 59.2344H31.2515V62.1277H30.7877V59.2344H30.2466V58.7927H30.5999C30.5999 58.7596 30.5668 58.6381 30.5116 58.4393C30.4453 58.2406 30.368 58.0528 30.2576 57.8761C30.1472 57.6994 30.0257 57.6111 29.8822 57.6111C29.7607 57.6111 29.6613 57.6553 29.573 57.7326C29.4846 57.8099 29.4404 57.9203 29.4404 58.0528C29.4404 58.1522 29.4515 58.2516 29.4846 58.3399C29.5177 58.4283 29.5509 58.5166 29.595 58.5939C29.6282 58.6602 29.6613 58.6933 29.6723 58.7154H29.2085L29.1644 58.6491L29.0981 58.5166C29.076 58.4614 29.0539 58.3952 29.0319 58.3068C29.0098 58.2295 29.0098 58.1301 29.0098 58.0307C29.0098 57.9093 29.0318 57.7878 29.076 57.6884C29.1202 57.589 29.1754 57.5007 29.2638 57.4234C29.4184 57.2688 29.6282 57.2025 29.8822 57.2025C30.0809 57.2025 30.2466 57.2798 30.4012 57.4234C30.5447 57.5669 30.6662 57.7436 30.7656 57.9424C30.865 58.1412 30.9312 58.3289 30.9865 58.4945C31.0306 58.6602 31.0638 58.7596 31.0638 58.7927H31.5607V59.2344H31.5276ZM29.6503 60.2283V59.2344H28.8662V60.2283H29.6503ZM30.3791 59.2344H30.1141V62.1277H29.6503V60.659H28.8662V61.0344C28.8662 61.0675 28.8552 61.1117 28.8331 61.1669C28.811 61.2221 28.7779 61.2442 28.7226 61.2442C28.6785 61.2442 28.6122 61.178 28.5018 61.0565C28.3914 60.935 28.292 60.8025 28.2036 60.659C28.1153 60.5154 28.0711 60.416 28.0711 60.3718C28.0711 60.3056 28.0932 60.2614 28.1374 60.2393C28.1595 60.2283 28.1815 60.2172 28.1926 60.2172C28.2036 60.2062 28.2257 60.2062 28.2368 60.2062H28.4245V59.2123H27.6625V58.7706H30.4012V59.2344H30.3791ZM27.773 59.2344H27.5079V62.1277H27.0441V59.2344H26.503V58.7927H27.773V59.2344ZM25.9288 61.1559L24.7914 62.1166L24.5263 61.6749L25.9288 60.7804V61.1559ZM26.5803 59.2344H26.3042V62.1277H25.8404V59.2344H25.1889V60.8577C25.1889 61.0455 25.1337 61.1338 25.0122 61.1338C24.968 61.1338 24.8907 61.0786 24.7693 60.9571C24.6478 60.8356 24.5374 60.7142 24.4269 60.5706C24.3165 60.4271 24.2613 60.3387 24.2613 60.2945C24.2613 60.2283 24.2834 60.1841 24.3276 60.151C24.3717 60.1289 24.4049 60.1068 24.4269 60.1068H24.7141V59.2344H23.8085V58.7927H26.5803V59.2344ZM21.7546 60.67V59.2455H21.0809C21.1803 59.4001 21.2245 59.6099 21.2245 59.8418C21.2245 60.2725 21.0368 60.5375 20.6613 60.6258C20.6944 60.7694 20.7607 60.8909 20.849 60.9682C20.8932 61.0123 20.9484 61.0455 20.9926 61.0786C21.0478 61.1007 21.103 61.1228 21.1582 61.1228C21.2466 61.1228 21.3349 61.1007 21.4233 61.0565C21.4674 61.0344 21.5006 61.0123 21.5337 60.9792C21.5668 60.9571 21.5999 60.924 21.6331 60.8798C21.6883 60.8025 21.7325 60.7363 21.7546 60.67ZM22.4944 59.2344H22.2184V62.1277H21.7546V61.3215C21.6552 61.3988 21.5668 61.454 21.4895 61.4872C21.4122 61.5093 21.3239 61.5314 21.2134 61.5314C21.0257 61.5314 20.849 61.4761 20.6834 61.3547C20.5177 61.2332 20.3852 61.0786 20.2969 60.8798C20.1975 60.681 20.1533 60.4602 20.1533 60.2283C20.1975 60.2393 20.2527 60.2504 20.3079 60.2504C20.4294 60.2504 20.5398 60.2062 20.6392 60.1289C20.7386 60.0516 20.7828 59.9191 20.7828 59.7424C20.7828 59.643 20.7607 59.5436 20.7055 59.4332C20.6613 59.3228 20.6171 59.2455 20.584 59.2234H19.7447V58.7817H22.4944V59.2344ZM19.8662 59.2344H19.6012V62.1277H19.1374V59.2344H18.5963V58.7927H18.9607C18.9607 58.7596 18.9276 58.6381 18.8723 58.4393C18.8171 58.2406 18.7288 58.0528 18.6184 57.8761C18.5079 57.6994 18.3865 57.6111 18.2429 57.6111C18.1325 57.6111 18.022 57.6553 17.9337 57.7326C17.8453 57.8099 17.7901 57.9203 17.7901 58.0528C17.7901 58.1522 17.8012 58.2516 17.8343 58.3399C17.8674 58.4283 17.9006 58.5166 17.9447 58.5939C17.9779 58.6602 18.011 58.6933 18.022 58.7154H17.5582L17.5141 58.6491L17.4478 58.5166C17.4257 58.4614 17.4036 58.3952 17.3815 58.3068C17.3595 58.2295 17.3484 58.1301 17.3484 58.0307C17.3484 57.9093 17.3705 57.7878 17.4147 57.6884C17.4588 57.589 17.5141 57.5007 17.6024 57.4234C17.757 57.2688 17.9668 57.2025 18.2208 57.2025C18.4085 57.2025 18.5852 57.2798 18.7398 57.4234C18.8834 57.5669 19.0049 57.7436 19.1042 57.9424C19.2036 58.1412 19.2699 58.3289 19.3251 58.4945C19.3693 58.6602 19.4024 58.7596 19.4024 58.7927H19.8993V59.2344H19.8662ZM18.9607 62.7682L18.6957 63.1105L18.011 62.2491L17.4036 63.1105L17.0834 62.8455L17.8122 62.0062H18.1325L18.9607 62.7682ZM18.7398 59.2344H18.265V60.1951H17.2711C17.1717 60.1951 17.0834 60.2393 17.0171 60.3387C16.9509 60.4381 16.9177 60.5596 16.9177 60.7031C16.9177 60.8577 16.9509 61.0013 17.0282 61.1338C17.1055 61.2663 17.2049 61.3878 17.3153 61.4651C17.4368 61.5534 17.5582 61.5976 17.6687 61.5976C17.768 61.5976 17.8785 61.5534 17.9999 61.454C18.1214 61.3657 18.2098 61.2442 18.265 61.1117L18.6184 61.4099C18.4969 61.6197 18.3533 61.7743 18.1987 61.8737C18.0441 61.9731 17.8564 62.0172 17.6466 62.0172C17.4257 62.0172 17.2269 61.951 17.0392 61.8295C16.8515 61.708 16.7079 61.5314 16.5975 61.3105C16.4871 61.1007 16.4319 60.8688 16.4319 60.6148C16.4319 60.3608 16.4981 60.151 16.6417 59.9853C16.7742 59.8307 16.9509 59.7424 17.1496 59.7424H17.8012V59.2013H16.0122V58.7596H18.7067V59.2344H18.7398ZM16.4871 60.5817L15.7582 59.6099V60.3387C15.7582 60.416 15.7693 60.4823 15.8024 60.5485C15.8355 60.6148 15.8797 60.659 15.9349 60.7031C15.957 60.7252 15.9901 60.7363 16.0233 60.7473C16.0564 60.7583 16.0895 60.7583 16.1226 60.7694C16.2883 60.7694 16.4098 60.7142 16.4871 60.5817ZM16.5865 61.0234C16.4429 61.1448 16.2883 61.2001 16.1116 61.2001C15.9791 61.2001 15.8466 61.1559 15.7251 61.0786C15.6036 61.0013 15.5042 60.8909 15.4269 60.7473C15.3496 60.6037 15.3165 60.4491 15.3165 60.2725V59.2344H14.8527V58.7927H16.1889V59.2344H15.7803L16.5975 60.3166V61.0234H16.5865ZM14.9742 59.2344H14.7092V62.1277H14.2453V59.2344H13.6932V58.7927H14.9631V59.2344H14.9742ZM14.0466 59.2344H13.6932V60.0516C13.6932 60.1289 13.6822 60.2062 13.649 60.2945C13.6159 60.3829 13.5717 60.4491 13.5165 60.5154C13.4061 60.6148 13.2515 60.659 13.0527 60.659L13.1742 60.8798C13.1963 60.924 13.2294 60.9792 13.2515 61.0234C13.2736 61.0675 13.3177 61.1228 13.3509 61.189C13.4171 61.2884 13.5165 61.4209 13.638 61.5755C13.7484 61.7191 13.8147 61.7964 13.8257 61.8185L13.4944 62.1608L13.3288 61.9399L13.0417 61.5203C12.9312 61.3436 12.8208 61.1669 12.7104 60.9682C12.6662 60.8909 12.622 60.8025 12.5558 60.6921C12.5006 60.5817 12.4343 60.4602 12.368 60.3387L12.1582 59.9522L12.5116 59.6651C12.5116 59.6872 12.5337 59.7424 12.5779 59.8307C12.622 59.9301 12.6883 60.0185 12.7656 60.1068C12.8429 60.1952 12.9312 60.2393 13.0306 60.2393C13.0638 60.2393 13.0969 60.2283 13.13 60.2172C13.1521 60.1952 13.1742 60.1731 13.1852 60.1399C13.2073 60.0847 13.2184 60.0295 13.2184 59.9853V59.2455H11.7717V58.8037H14.0245V59.2344H14.0466Z" fill="#FCFCFC"/>
</g>
<defs>
<clipPath id="clip0_1053_37827">
<rect width="72" height="72" fill="white"/>
</clipPath>
</defs>
</svg>
