<?xml version="1.0" encoding="utf-8"?>
<!-- Generator: Adobe Illustrator 19.2.1, SVG Export Plug-In . SVG Version: 6.00 Build 0)  -->
<svg version="1.1" xmlns="http://www.w3.org/2000/svg" xmlns:xlink="http://www.w3.org/1999/xlink" x="0px" y="0px"
	 viewBox="0 0 652 652" style="enable-background:new 0 0 652 652;" xml:space="preserve">
<style type="text/css">
	.st0{fill:#0C0407;}
	.st1{fill:#067262;}
	.st2{fill:#FCB717;}
	.st3{fill:#231815;}
</style>
<g id="Layer_1">
	<g>
		<path class="st0" d="M240,670.9l1.6-0.1c0.1,0.6,0.3,1.2,0.5,1.6c0.3,0.4,0.7,0.7,1.3,1c0.6,0.3,1.2,0.4,2,0.4
			c0.7,0,1.2-0.1,1.7-0.3s0.9-0.5,1.1-0.8s0.4-0.7,0.4-1.1c0-0.4-0.1-0.8-0.4-1.1s-0.6-0.6-1.2-0.8c-0.3-0.1-1.1-0.3-2.3-0.6
			s-2-0.6-2.5-0.8c-0.6-0.3-1.1-0.7-1.4-1.2c-0.3-0.5-0.5-1-0.5-1.6c0-0.7,0.2-1.3,0.6-1.8s0.9-1,1.6-1.3s1.5-0.4,2.4-0.4
			c1,0,1.8,0.2,2.5,0.5c0.7,0.3,1.3,0.8,1.7,1.4s0.6,1.3,0.6,2l-1.6,0.1c-0.1-0.8-0.4-1.4-0.9-1.8c-0.5-0.4-1.3-0.6-2.2-0.6
			c-1,0-1.8,0.2-2.3,0.6c-0.5,0.4-0.7,0.8-0.7,1.4c0,0.5,0.2,0.8,0.5,1.1c0.3,0.3,1.2,0.6,2.6,0.9c1.4,0.3,2.3,0.6,2.9,0.8
			c0.8,0.3,1.3,0.8,1.7,1.3s0.5,1.1,0.5,1.8c0,0.7-0.2,1.3-0.6,1.9c-0.4,0.6-1,1.1-1.7,1.4c-0.7,0.3-1.6,0.5-2.5,0.5
			c-1.2,0-2.1-0.2-2.9-0.5c-0.8-0.3-1.4-0.9-1.9-1.5C240.3,672.6,240,671.8,240,670.9z"/>
		<path class="st0" d="M258.8,672.1l1.6,0.2c-0.3,1-0.7,1.7-1.4,2.2s-1.6,0.8-2.7,0.8c-1.4,0-2.4-0.4-3.2-1.3
			c-0.8-0.8-1.2-2-1.2-3.5c0-1.6,0.4-2.8,1.2-3.7s1.9-1.3,3.1-1.3c1.2,0,2.3,0.4,3.1,1.3s1.2,2,1.2,3.6c0,0.1,0,0.2,0,0.4h-7
			c0.1,1,0.3,1.8,0.9,2.4s1.2,0.8,2,0.8c0.6,0,1.1-0.2,1.5-0.5S258.6,672.7,258.8,672.1z M253.6,669.5h5.2c-0.1-0.8-0.3-1.4-0.6-1.8
			c-0.5-0.6-1.2-0.9-2-0.9c-0.7,0-1.3,0.2-1.8,0.7S253.6,668.7,253.6,669.5z"/>
		<path class="st0" d="M268.8,672.1l1.6,0.2c-0.3,1-0.7,1.7-1.4,2.2s-1.6,0.8-2.7,0.8c-1.4,0-2.4-0.4-3.2-1.3
			c-0.8-0.8-1.2-2-1.2-3.5c0-1.6,0.4-2.8,1.2-3.7s1.9-1.3,3.1-1.3c1.2,0,2.3,0.4,3.1,1.3s1.2,2,1.2,3.6c0,0.1,0,0.2,0,0.4h-7
			c0.1,1,0.3,1.8,0.9,2.4s1.2,0.8,2,0.8c0.6,0,1.1-0.2,1.5-0.5S268.6,672.7,268.8,672.1z M263.6,669.5h5.2c-0.1-0.8-0.3-1.4-0.6-1.8
			c-0.5-0.6-1.2-0.9-2-0.9c-0.7,0-1.3,0.2-1.8,0.7S263.7,668.7,263.6,669.5z"/>
		<path class="st0" d="M272.4,675.1v-12.9h1.6v7.3l3.7-3.8h2l-3.6,3.5l3.9,5.9h-2l-3.1-4.8l-1.1,1.1v3.7H272.4z"/>
		<path class="st0" d="M285.3,675.1l-5-12.9h1.8l3.3,9.4c0.3,0.8,0.5,1.5,0.7,2.1c0.2-0.7,0.4-1.4,0.7-2.1l3.5-9.4h1.7l-5,12.9
			H285.3z"/>
		<path class="st0" d="M298.8,672.1l1.6,0.2c-0.3,1-0.7,1.7-1.4,2.2s-1.6,0.8-2.7,0.8c-1.4,0-2.4-0.4-3.2-1.3
			c-0.8-0.8-1.2-2-1.2-3.5c0-1.6,0.4-2.8,1.2-3.7s1.9-1.3,3.1-1.3c1.2,0,2.3,0.4,3.1,1.3s1.2,2,1.2,3.6c0,0.1,0,0.2,0,0.4h-7
			c0.1,1,0.3,1.8,0.9,2.4s1.2,0.8,2,0.8c0.6,0,1.1-0.2,1.5-0.5S298.6,672.7,298.8,672.1z M293.6,669.5h5.2c-0.1-0.8-0.3-1.4-0.6-1.8
			c-0.5-0.6-1.2-0.9-2-0.9c-0.7,0-1.3,0.2-1.8,0.7S293.7,668.7,293.6,669.5z"/>
		<path class="st0" d="M308.5,671.7l1.6,0.2c-0.2,1.1-0.6,1.9-1.3,2.5c-0.7,0.6-1.6,0.9-2.6,0.9c-1.3,0-2.3-0.4-3.1-1.3
			c-0.8-0.8-1.2-2-1.2-3.6c0-1,0.2-1.9,0.5-2.6s0.8-1.3,1.5-1.7c0.7-0.4,1.4-0.6,2.2-0.6c1,0,1.8,0.3,2.5,0.8s1.1,1.2,1.2,2.2
			l-1.5,0.2c-0.1-0.6-0.4-1.1-0.8-1.4s-0.8-0.5-1.3-0.5c-0.8,0-1.4,0.3-1.9,0.9c-0.5,0.6-0.7,1.5-0.7,2.7c0,1.3,0.2,2.2,0.7,2.7
			s1.1,0.9,1.9,0.9c0.6,0,1.1-0.2,1.6-0.6S308.4,672.4,308.5,671.7z"/>
		<path class="st0" d="M314.9,673.7l0.2,1.4c-0.4,0.1-0.8,0.1-1.2,0.1c-0.6,0-1-0.1-1.3-0.3s-0.5-0.4-0.7-0.7s-0.2-0.9-0.2-1.9V667
			h-1.2v-1.2h1.2v-2.3l1.6-0.9v3.3h1.6v1.2h-1.6v5.5c0,0.5,0,0.7,0.1,0.9s0.1,0.2,0.3,0.3c0.1,0.1,0.3,0.1,0.5,0.1
			C314.4,673.7,314.6,673.7,314.9,673.7z"/>
		<path class="st0" d="M315.9,670.4c0-1.7,0.5-3,1.4-3.8c0.8-0.7,1.8-1,2.9-1c1.3,0,2.3,0.4,3.1,1.3s1.2,2,1.2,3.5
			c0,1.2-0.2,2.1-0.5,2.8c-0.4,0.7-0.9,1.2-1.6,1.6s-1.4,0.6-2.3,0.6c-1.3,0-2.4-0.4-3.2-1.3C316.3,673.2,315.9,672,315.9,670.4z
			 M317.5,670.4c0,1.2,0.3,2.1,0.8,2.7c0.5,0.6,1.2,0.9,2,0.9c0.8,0,1.4-0.3,2-0.9s0.8-1.5,0.8-2.7c0-1.2-0.3-2-0.8-2.6
			c-0.5-0.6-1.2-0.9-2-0.9c-0.8,0-1.4,0.3-2,0.9S317.5,669.2,317.5,670.4z"/>
		<path class="st0" d="M326.4,675.1v-9.3h1.4v1.4c0.4-0.7,0.7-1.1,1-1.3c0.3-0.2,0.6-0.3,1-0.3c0.5,0,1.1,0.2,1.6,0.5l-0.5,1.5
			c-0.4-0.2-0.8-0.3-1.2-0.3c-0.3,0-0.7,0.1-0.9,0.3s-0.5,0.5-0.6,0.9c-0.2,0.6-0.3,1.2-0.3,1.8v4.9H326.4z"/>
		<path class="st0" d="M332.6,675.1v-12.9h1.7v11.4h6.3v1.5H332.6z"/>
		<path class="st0" d="M341.9,670.4c0-1.7,0.5-3,1.4-3.8c0.8-0.7,1.8-1,2.9-1c1.3,0,2.3,0.4,3.1,1.3s1.2,2,1.2,3.5
			c0,1.2-0.2,2.1-0.5,2.8c-0.4,0.7-0.9,1.2-1.6,1.6s-1.4,0.6-2.3,0.6c-1.3,0-2.4-0.4-3.2-1.3C342.3,673.2,341.9,672,341.9,670.4z
			 M343.5,670.4c0,1.2,0.3,2.1,0.8,2.7c0.5,0.6,1.2,0.9,2,0.9c0.8,0,1.4-0.3,2-0.9s0.8-1.5,0.8-2.7c0-1.2-0.3-2-0.8-2.6
			c-0.5-0.6-1.2-0.9-2-0.9c-0.8,0-1.4,0.3-2,0.9S343.5,669.2,343.5,670.4z"/>
		<path class="st0" d="M352.2,675.8l1.5,0.2c0.1,0.5,0.2,0.8,0.5,1c0.4,0.3,0.9,0.4,1.6,0.4c0.7,0,1.3-0.1,1.7-0.4s0.7-0.7,0.8-1.2
			c0.1-0.3,0.1-1,0.1-2c-0.7,0.8-1.6,1.2-2.6,1.2c-1.3,0-2.3-0.5-3-1.4s-1.1-2-1.1-3.3c0-0.9,0.2-1.7,0.5-2.5
			c0.3-0.8,0.8-1.3,1.4-1.7s1.3-0.6,2.2-0.6c1.1,0,2,0.4,2.7,1.3v-1.1h1.5v8.1c0,1.5-0.1,2.5-0.4,3.1c-0.3,0.6-0.8,1.1-1.4,1.4
			c-0.6,0.4-1.4,0.5-2.4,0.5c-1.1,0-2-0.3-2.7-0.8C352.5,677.6,352.2,676.9,352.2,675.8z M353.5,670.2c0,1.2,0.2,2.1,0.7,2.7
			s1.1,0.8,1.8,0.8c0.7,0,1.3-0.3,1.8-0.8s0.7-1.4,0.7-2.6c0-1.1-0.3-2-0.8-2.6c-0.5-0.6-1.1-0.9-1.8-0.9c-0.7,0-1.3,0.3-1.8,0.9
			C353.7,668.3,353.5,669.1,353.5,670.2z"/>
		<path class="st0" d="M361.9,670.4c0-1.7,0.5-3,1.4-3.8c0.8-0.7,1.8-1,2.9-1c1.3,0,2.3,0.4,3.1,1.3s1.2,2,1.2,3.5
			c0,1.2-0.2,2.1-0.5,2.8c-0.4,0.7-0.9,1.2-1.6,1.6s-1.4,0.6-2.3,0.6c-1.3,0-2.4-0.4-3.2-1.3C362.3,673.2,361.9,672,361.9,670.4z
			 M363.5,670.4c0,1.2,0.3,2.1,0.8,2.7c0.5,0.6,1.2,0.9,2,0.9c0.8,0,1.4-0.3,2-0.9s0.8-1.5,0.8-2.7c0-1.2-0.3-2-0.8-2.6
			c-0.5-0.6-1.2-0.9-2-0.9c-0.8,0-1.4,0.3-2,0.9S363.5,669.2,363.5,670.4z"/>
		<path class="st0" d="M372.9,675.1v-1.8h1.8v1.8H372.9z"/>
		<path class="st0" d="M386.9,670.6l1.7,0.4c-0.4,1.4-1,2.5-1.9,3.2s-2.1,1.1-3.4,1.1c-1.4,0-2.5-0.3-3.4-0.8
			c-0.9-0.6-1.5-1.4-2-2.5c-0.5-1.1-0.7-2.2-0.7-3.5c0-1.3,0.3-2.5,0.8-3.5c0.5-1,1.2-1.8,2.2-2.3c0.9-0.5,2-0.8,3.1-0.8
			c1.3,0,2.4,0.3,3.3,1s1.5,1.6,1.8,2.8l-1.7,0.4c-0.3-0.9-0.7-1.6-1.3-2s-1.3-0.6-2.1-0.6c-1,0-1.8,0.2-2.5,0.7
			c-0.7,0.5-1.1,1.1-1.4,1.9c-0.3,0.8-0.4,1.6-0.4,2.5c0,1.1,0.2,2.1,0.5,2.9c0.3,0.8,0.8,1.4,1.5,1.8s1.4,0.6,2.2,0.6
			c1,0,1.8-0.3,2.4-0.8S386.7,671.6,386.9,670.6z"/>
		<path class="st0" d="M389.9,670.4c0-1.7,0.5-3,1.4-3.8c0.8-0.7,1.8-1,2.9-1c1.3,0,2.3,0.4,3.1,1.3s1.2,2,1.2,3.5
			c0,1.2-0.2,2.1-0.5,2.8c-0.4,0.7-0.9,1.2-1.6,1.6s-1.4,0.6-2.3,0.6c-1.3,0-2.4-0.4-3.2-1.3C390.3,673.2,389.9,672,389.9,670.4z
			 M391.5,670.4c0,1.2,0.3,2.1,0.8,2.7c0.5,0.6,1.2,0.9,2,0.9c0.8,0,1.4-0.3,2-0.9s0.8-1.5,0.8-2.7c0-1.2-0.3-2-0.8-2.6
			c-0.5-0.6-1.2-0.9-2-0.9c-0.8,0-1.4,0.3-2,0.9S391.5,669.2,391.5,670.4z"/>
		<path class="st0" d="M400.5,675.1v-9.3h1.4v1.3c0.3-0.5,0.7-0.8,1.2-1.1s1-0.4,1.7-0.4c0.7,0,1.3,0.1,1.7,0.4
			c0.4,0.3,0.8,0.7,0.9,1.2c0.7-1.1,1.7-1.6,2.9-1.6c0.9,0,1.6,0.3,2.1,0.8s0.7,1.3,0.7,2.4v6.4h-1.6v-5.9c0-0.6-0.1-1.1-0.2-1.4
			c-0.1-0.3-0.3-0.5-0.6-0.7s-0.6-0.3-0.9-0.3c-0.7,0-1.2,0.2-1.6,0.7c-0.4,0.4-0.7,1.1-0.7,2.1v5.4h-1.6V669c0-0.7-0.1-1.2-0.4-1.6
			s-0.7-0.5-1.3-0.5c-0.4,0-0.9,0.1-1.2,0.4c-0.4,0.2-0.7,0.6-0.8,1s-0.3,1.1-0.3,2v4.8H400.5z"/>
	</g>
</g>
<g id="Layer_2">
	<path class="st1" d="M156.8,333.4L156.8,333.4l12.9,0v40.4h7.1v-40.4h12.9v-6.4h-26.5L156.8,333.4 M91,348v25.8l94.6-95.2L91,348z
		 M227.7,348.8c1.7-2.2,2.6-4.8,2.6-8c0-4-1.3-7.3-4-9.8c-2.6-2.5-6.2-3.8-10.5-3.8h-18.1v46.7h7.1v-19.7h8.9l9.8,19.7h8.3
		l-10.8-20.7C223.7,352.4,225.9,350.9,227.7,348.8 M204.7,348.1v-14.6h10.5c2.4,0,4.3,0.7,5.7,2c1.5,1.3,2.2,3.1,2.2,5.4
		c0,2.3-0.7,4.1-2.2,5.4c-1.5,1.3-3.4,1.9-5.8,1.9H204.7z M15.7,373.8l67.2-67.6L15.7,348V373.8z M299.7,373.8h29.9v-6.4h-22.8v-14
		h19.4v-6.3h-19.4v-13.6h22.8v-6.4h-29.9V373.8z M381.2,327.1v6.4H394v40.4h7.1v-40.4h12.8v-6.4H381.2z M366,359.9l-8.3-12.6
		l-13.3-20.2h-6.5v46.7h7.1v-32.9l7.4,11.2l14.2,21.7h6.5v-46.7H366V359.9z M287.1,331.5c-2.9-2.9-7-4.4-12.1-4.4h-16.4v46.7H275
		c5.1,0,9.1-1.5,12.1-4.4c2-2,3.3-4.5,3.9-7.4c0.6-2.9,0.9-6.9,0.9-11.9c0-4.9-0.3-8.8-0.8-11.5
		C290.4,335.9,289.1,333.5,287.1,331.5 M284.3,359.3c-0.3,2.1-1,3.8-2.1,5c-1.9,2.1-4.6,3.1-7.9,3.1h-8.6v-34h8.6
		c3.4,0,6,1.1,7.9,3.1c1.1,1.2,1.8,2.8,2.1,4.8c0.3,1.9,0.4,4.9,0.4,8.8C284.7,354.1,284.6,357.1,284.3,359.3 M240.6,373.8h7.1
		v-46.7h-7.1V373.8z"/>
	<path class="st2" d="M567.3,357.6c0,3.1-0.9,5.5-2.6,7.3c-1.7,1.8-4.1,2.7-6.9,2.7c-2.9,0-5.2-0.9-6.9-2.7
		c-1.7-1.8-2.6-4.2-2.6-7.3v-30.5h-7v30.9c0,2.3,0.4,4.5,1.2,6.4c0.8,2,2,3.6,3.5,5.1c1.5,1.4,3.3,2.5,5.3,3.3
		c2,0.8,4.2,1.1,6.5,1.1s4.5-0.4,6.5-1.1c2-0.7,3.8-1.8,5.3-3.3c1.5-1.4,2.6-3.1,3.5-5.1c0.8-2,1.3-4.1,1.3-6.4v-30.9h-7V357.6
		 M435,354.5h12.7v2.6c0,3-0.8,5.4-2.3,7.2c-1.9,2.2-4.4,3.2-7.5,3.2c-1.3,0-2.6-0.3-3.8-0.8c-1.2-0.5-2.2-1.2-3-2
		c-0.6-0.6-1.1-1.3-1.4-2c-0.3-0.7-0.6-1.5-0.8-2.6c-0.2-1-0.4-2.3-0.4-3.8c-0.1-1.5-0.1-3.5-0.1-5.9c0-2.4,0-4.4,0.1-5.9
		c0.1-1.5,0.2-2.8,0.4-3.8c0.2-1,0.5-1.9,0.8-2.6c0.4-0.7,0.8-1.4,1.4-2c0.8-0.9,1.8-1.6,3-2.1c1.2-0.5,2.4-0.7,3.8-0.7
		c2.5,0,4.6,0.7,6.3,2.1c1.7,1.4,2.8,3.4,3.4,5.9h7c-0.7-4.2-2.5-7.6-5.4-10.3c-2.9-2.7-6.7-4-11.3-4c-4.8,0-8.8,1.6-12.1,4.9
		c-1.1,1.1-1.9,2.2-2.5,3.4c-0.6,1.2-1.1,2.5-1.3,3.9c-0.3,1.4-0.4,2.9-0.5,4.5c-0.1,1.6-0.1,3.8-0.1,6.7c0,2.9,0,5.1,0.1,6.7
		c0.1,1.6,0.2,3.1,0.5,4.5c0.3,1.4,0.7,2.7,1.3,3.9c0.6,1.2,1.5,2.3,2.5,3.4c3.3,3.3,7.3,4.9,12.1,4.9c2.5,0,4.8-0.4,6.9-1.3
		c2.1-0.8,4-2.2,5.7-4c1.5-1.6,2.6-3.4,3.2-5.4c0.6-2,0.9-4.5,0.9-7.5v-7h-13.8L435,354.5z M53.4,373.8l81.1-81.5L53.4,348V373.8z
		 M613,335.5c-0.7-1.7-1.7-3.2-3-4.5c-2.7-2.6-6.3-3.9-10.7-3.9h-17.4v46.7h7V355h10.5c4.4,0,8-1.3,10.7-4c1.3-1.2,2.3-2.7,3-4.4
		c0.7-1.7,1-3.5,1-5.5C614,339,613.6,337.2,613,335.5 M604.8,346.6c-1.5,1.4-3.5,2-5.9,2h-10.1v-15.3h10.1c2.4,0,4.4,0.7,5.9,2.1
		c1.5,1.4,2.2,3.3,2.2,5.6C607,343.4,606.3,345.2,604.8,346.6 M533.1,339.2c-0.3-1.4-0.7-2.7-1.3-3.9c-0.6-1.2-1.4-2.3-2.4-3.3
		c-3.3-3.3-7.3-4.9-12.1-4.9c-4.8,0-8.8,1.6-12.1,4.9c-1.1,1.1-1.9,2.2-2.5,3.4c-0.6,1.2-1,2.5-1.3,3.9c-0.3,1.4-0.5,2.9-0.5,4.5
		c-0.1,1.6-0.1,3.8-0.1,6.7c0,2.9,0,5.1,0.1,6.7c0.1,1.6,0.2,3.1,0.5,4.5c0.3,1.4,0.7,2.7,1.3,3.9c0.6,1.2,1.5,2.3,2.6,3.4
		c3.3,3.3,7.3,4.9,12.1,4.9c4.8,0,8.9-1.6,12.1-4.9c1-1,1.8-2.1,2.4-3.3c0.6-1.1,1-2.4,1.3-3.9c0.3-1.4,0.4-2.9,0.5-4.6
		c0.1-1.6,0.1-3.9,0.1-6.7c0-2.8,0-5.1-0.1-6.7C533.6,342.1,533.4,340.6,533.1,339.2 M526.7,356.3c-0.1,1.6-0.2,2.8-0.4,3.8
		c-0.2,1-0.5,1.9-0.9,2.6c-0.4,0.7-0.8,1.4-1.4,2c-0.8,0.9-1.8,1.5-3,2.1c-1.2,0.5-2.5,0.8-3.8,0.8c-1.3,0-2.6-0.3-3.8-0.8
		c-1.2-0.5-2.2-1.2-3-2.1c-0.6-0.6-1.1-1.3-1.4-2c-0.3-0.7-0.6-1.6-0.8-2.6c-0.2-1-0.3-2.3-0.4-3.8c-0.1-1.5-0.1-3.5-0.1-5.9
		c0-2.4,0-4.3,0.1-5.9c0.1-1.6,0.2-2.8,0.4-3.8c0.2-1,0.4-1.9,0.8-2.6c0.4-0.7,0.8-1.4,1.4-2c0.8-0.9,1.8-1.6,3-2.1
		c1.2-0.5,2.5-0.7,3.8-0.7c1.3,0,2.6,0.3,3.8,0.7c1.2,0.5,2.2,1.2,3,2.1c0.6,0.6,1.1,1.3,1.4,2c0.3,0.7,0.6,1.5,0.8,2.6
		c0.2,1,0.3,2.3,0.4,3.8c0.1,1.5,0.1,3.5,0.1,5.8C526.8,352.8,526.7,354.8,526.7,356.3 M491.5,348.4c1.7-2.1,2.6-4.8,2.6-7.9
		c0-4-1.3-7.2-3.9-9.7c-2.6-2.5-6.1-3.7-10.4-3.7H462v46.7h7v-20.1h8.7l10.1,20.1h8.1l-11-21.1C487.6,352,489.8,350.5,491.5,348.4
		 M468.9,347.7v-14.4h10.3c2.3,0,4.2,0.7,5.6,1.9c1.4,1.3,2.2,3.1,2.2,5.3c0,2.2-0.7,4-2.1,5.2c-1.4,1.3-3.3,1.9-5.7,1.9H468.9z"/>
	<path class="st3" d="M614.6,317.9h3.9V330h2.1v-12.1h3.9v-1.9h-9.9V317.9 M637.2,315.9l-4,8.7l-4.1-8.7h-2.1v14h2.1v-9.4l3.3,6.8
		h1.6l3.2-6.8v9.4h2.1v-14H637.2z"/>
</g>
</svg>
