<svg preserveAspectRatio="none" width="100%" height="100%" overflow="visible" style="display: block;" viewBox="0 0 104 40.5114" fill="none" xmlns="http://www.w3.org/2000/svg">
<g id="Group">
<path id="Vector" d="M20.742 20.3038C19.4293 21.7891 18.7917 23.4599 16.2788 23.2237C13.7659 22.9874 15.1912 22.9199 14.7786 22.6161C14.366 22.3123 14.1972 21.8566 13.7847 21.519C12.5282 23.4431 9.99658 25.0802 7.5587 23.6625C6.17098 22.8523 5.90844 21.5696 5.57088 20.2194C5.43961 20.135 4.80201 20.827 4.61448 20.9452C3.75185 21.4853 2.23286 21.7215 1.20144 21.6034C-0.448818 21.4346 0.788877 19.308 1.46398 18.6836C1.95156 18.2447 4.52072 17.0127 4.57698 16.8439C4.68949 16.5232 3.97688 15.8312 3.95813 15.4768C3.93938 15.1224 4.25818 14.346 4.35194 14.211C4.44571 14.076 4.44571 14.1266 4.53947 14.211C4.95204 14.6667 5.13957 15.3924 5.40211 15.9156C5.79592 16.0169 6.43352 14.4641 6.65856 14.7004C6.86484 15.6793 5.98345 16.3207 5.92719 17.2658C6.43352 19.2236 6.0022 21.8903 8.66512 22.6161C11.328 23.3418 11.7219 22.2785 12.8095 21.249C13.1283 20.962 13.7847 20 14.216 19.9831C14.6473 19.9663 14.6473 20.4895 14.8161 20.7426C15.885 22.3798 18.1354 22.0085 19.3543 20.7258C20.5733 19.4431 20.742 18.4979 21.3609 18.3798C21.9797 18.2616 21.9235 18.8355 22.1485 19.0211C23.4612 20.1182 26.0491 20.0507 27.4931 19.1899C28.187 18.7848 28.412 18.4473 27.6431 17.9747C26.1804 17.0633 23.0111 18.5992 23.3862 15.73C23.7613 12.8608 24.7739 12.962 26.4429 13.7722C28.637 14.8186 29.706 19.2236 27.5681 20.6414C26.5742 21.2996 25.1677 21.2658 24.0051 21.3671C24.0613 22.4304 23.9488 23.5612 23.2174 24.4557C22.8799 24.5401 21.811 23.4262 21.5109 23.2405C21.2109 23.0549 21.4171 23.1224 21.2859 23.1561C20.3295 24.557 18.8667 27.73 21.1546 28.6751C23.4237 29.6034 24.9427 27.1393 26.2929 26.0085C28.712 23.9663 31.4125 23.5612 34.1692 22.211C34.863 21.8734 36.2132 21.3165 35.9882 20.4726C34.863 15.6793 32.6314 10.6667 31.9751 5.8059C31.3187 0.94513 32.1438 4.84387 32.2751 4.57383C32.4064 4.30379 32.2751 4.3713 32.4439 4.40505C32.5564 4.45568 33.0065 5.33332 33.1002 5.51898C33.194 5.70463 33.7941 6.88607 33.8128 6.98734C33.8316 7.20674 33.5691 7.51054 33.494 7.72995C34.0754 11.3587 35.9132 15.1055 36.5133 18.7004C37.1134 22.2954 33.7191 23.5275 29.9497 25.3334C28.6933 25.941 27.3056 26.7342 26.2554 27.6118C24.7552 28.8608 23.1987 31.5106 20.7233 29.9916C18.2479 28.4726 19.148 26.9874 19.6169 25.4515C20.0857 23.9156 20.8358 23.173 20.9108 22.3966C20.9858 21.6203 20.742 20.962 20.742 20.3376V20.3038ZM24.7552 16.1688C25.2803 16.2532 26.2554 16.1688 26.8367 16.1688C27.4181 16.1688 27.1368 16.3713 27.0618 16.135C26.9868 15.8987 26.4242 15.443 26.2367 15.3249C25.4115 14.8186 24.5301 14.7848 23.9113 15.5612C23.8925 15.7975 24.5301 16.135 24.7552 16.1688ZM4.55822 17.6371C3.73309 18.3966 2.5329 18.903 1.68902 19.6118C0.845136 20.3207 1.10768 20.2363 1.91406 20.2194C2.72043 20.2026 4.48321 19.8819 4.93328 19.4431C5.38335 19.0042 5.15832 17.4684 4.53947 17.6203L4.55822 17.6371ZM22.9924 22.6667C23.2924 22.346 22.1485 20.3713 21.4546 20.3882C21.3796 21.0971 21.6609 21.6878 22.2235 22.1772C22.7861 22.6667 22.9361 22.7173 22.9924 22.6667Z" fill="var(--fill-0, #8D744A)"/>
<path id="Vector_2" d="M58.6413 19.3249C58.8288 19.3418 58.7913 19.3249 58.8475 19.2237C58.9976 18.9199 59.0726 18.211 59.2789 17.9916C59.6727 17.6034 61.3417 16.7089 61.923 16.3882C62.8982 15.865 63.9296 15.3756 64.961 14.9367C65.0923 14.7848 64.1171 14.3798 63.9483 14.2785C61.2854 12.6076 61.1166 9.23209 64.3047 7.96627C67.4927 6.70044 68.7491 7.78061 70.4744 9.38399C70.1368 9.40087 69.8368 9.13083 69.4992 9.04644C67.9802 8.60762 64.8672 8.86078 63.4608 9.56965C62.0543 10.2785 62.4669 10.2954 62.9357 11.1224C63.7046 12.5064 66.2175 14.0253 67.9427 13.519L73.1748 11.2068L72.4809 12.6583L62.2418 17.5865C62.2043 17.7722 62.3356 17.7047 62.4669 17.7047C64.6985 17.8397 68.3365 17.2827 70.6619 17.0465C72.9873 16.8102 73.4373 16.5908 73.4186 16.7764L72.7247 18.1097C69.7243 19.3756 66.2175 20.2195 63.4045 21.8228C63.067 22.0254 61.9605 22.7005 61.8105 22.9874C61.4355 23.73 62.9544 24.5739 63.5733 24.8102C64.1921 25.0465 65.4486 25.3165 65.5048 25.4178C65.6736 25.6541 65.3361 26.633 65.186 26.9199C63.0295 26.9199 60.479 25.7722 59.2414 24.1351C57.1785 21.4009 57.4786 15.0718 57.2348 11.7131C57.0473 9.23209 56.8972 6.53167 56.4847 4.10128C56.4284 3.74685 56.1659 3.17301 56.1471 2.85233C56.1284 2.53166 56.5597 1.70465 56.7285 1.3671C57.0285 1.3671 57.4598 4.67512 57.4973 5.06331C57.9849 9.33336 57.9849 13.6372 58.3975 17.8903C58.81 22.1435 58.5475 18.8355 58.585 19.3081L58.6413 19.3249ZM67.3051 18.6836C65.7861 18.8355 64.2671 19.0549 62.7482 19.173C61.8105 19.2405 60.7041 19.173 59.7664 19.2574C59.1288 19.3081 58.6788 19.3924 58.735 20.0169C58.8475 21.3503 59.8039 23.038 60.9854 23.8482C62.1668 24.6583 61.0979 24.0001 61.2479 23.9663C61.1542 22.2279 62.0543 21.2321 63.6295 20.3714C64.6985 19.7806 66.0299 19.4431 67.0801 18.9199C68.1303 18.3967 67.3426 18.8524 67.3051 18.6667V18.6836Z" fill="var(--fill-0, #8D744A)"/>
<path id="Vector_3" d="M44.2952 10.3123C44.089 11.7806 41.8386 13.8228 42.9075 15.2574C43.9764 16.692 44.3515 15.0211 44.614 14.3629C44.9516 14.4979 44.5015 15.5443 44.389 15.7806C44.1827 16.2532 43.7889 17.0465 43.1888 17.1477C42.5887 17.249 42.1199 16.2532 41.9511 16.3882C40.9947 18.6161 39.2882 21.1815 41.1823 23.4431C44.014 26.8017 49.2835 24.5064 52.3403 22.6836C52.8841 22.3629 54.0468 21.6541 54.4594 21.249C54.8719 20.8439 54.6281 20.8102 54.5156 20.4557C54.2343 19.5106 53.578 18.633 53.2217 17.7216C52.8653 16.8102 52.8841 16.2026 52.509 15.5275L52.9591 14.1097C53.1654 14.0591 53.1091 14.1435 53.1654 14.211C53.4279 14.5148 54.2906 15.7638 54.4031 16.1013C54.5156 16.4389 54.4218 16.2363 54.3656 16.2194L53.8218 15.8988C53.6717 15.8819 53.6717 15.8988 53.6905 16.0169C53.7842 16.7427 54.7219 17.9578 55.0032 18.7511C55.547 20.3207 55.0032 22.1266 53.653 23.2068C50.6337 25.5866 44.089 28.6583 40.8822 25.0296C38.8569 22.7511 39.7195 19.6456 41.1072 17.2659C41.2573 17.0127 41.9886 16.1013 42.0074 15.9832C42.0636 15.7469 41.9324 15.0886 41.9699 14.7173C42.0824 13.8735 43.3764 11.2912 43.9202 10.5486C44.464 9.80593 44.089 10.2616 44.2952 10.2785V10.3123Z" fill="var(--fill-0, #8D744A)"/>
<path id="Vector_4" d="M93.2408 21.7046C93.2783 21.654 93.5033 21.519 93.4846 21.7215C93.447 22.7511 92.4531 24.1013 93.5221 25.0127C94.591 25.9241 96.185 25.1477 97.2726 24.6414C99.448 23.6287 101.68 22.2785 103.536 20.8608C103.574 20.7595 103.424 20.4726 103.349 20.3713C102.749 19.5612 100.442 18.7342 99.448 18.1097C98.154 17.3165 97.6102 16.557 96.6163 15.5274C95.6224 14.4979 96.26 15.3586 96.2037 15.2405C96.1475 15.1224 95.9787 13.9409 96.2037 13.7721C96.2787 13.7553 97.5539 14.3966 97.6102 14.4472C97.7602 14.6329 97.6477 14.9029 97.7415 15.1392C98.2103 16.4051 102.13 17.6202 103.199 18.5992C104.268 19.5781 104.268 21.5359 103.199 22.4979C102.111 23.4599 99.2042 25.0295 97.8165 25.7722C96.3725 26.5317 94.2909 27.865 93.0532 26.1097C92.5844 25.4346 92.5657 24.5907 92.6407 23.7975C92.6782 23.4768 93.0532 21.8734 93.2033 21.6709L93.2408 21.7046Z" fill="var(--fill-0, #8D744A)"/>
<path id="Vector_5" d="M87.5399 18.6161C87.5587 20.0338 87.6337 21.1984 86.5835 22.3461C85.4583 23.5781 81.5952 25.7554 79.9075 26.2448C78.2197 26.7343 76.3069 26.5992 74.6191 27.0549L74.6566 26.7343C76.1194 26.1773 77.6384 25.7047 79.1011 25.1309C80.5638 24.557 83.0017 23.4938 84.6707 22.4136C85.1958 22.076 87.0148 20.844 86.9773 20.287C86.9398 19.73 86.6398 19.325 86.546 19.1224C86.246 18.5317 85.3083 17.5359 85.3646 16.9621C85.4208 16.3883 85.6459 16.2364 85.6271 15.865H85.9647C86.2647 16.3714 86.321 16.7933 86.9773 16.9621C87.6337 17.1309 88.8714 16.979 89.284 16.2701L88.3276 14.9368C88.5338 14.4304 88.29 13.0465 89.1339 13.8904C89.9778 14.7342 90.1466 16.4726 89.5465 17.5866C89.0964 18.4136 88.4588 18.498 87.5212 18.6499L87.5399 18.6161Z" fill="var(--fill-0, #8D744A)"/>
<path id="Vector_6" d="M83.3768 10.7173C83.4331 12.692 81.7641 14.1097 80.9389 15.7975C81.4828 16.4389 82.1579 16.6751 82.4392 17.519C82.9455 19.0549 82.1391 20.5232 80.7514 21.384C79.7575 22.0085 78.2198 22.211 78.051 20.827C77.8634 19.2574 78.6698 17.7384 79.3637 16.3545C78.5948 15.73 77.9947 15.0043 77.3571 14.2954C77.2446 14.1772 77.0008 14.1097 76.9258 13.9578C76.7195 13.5696 76.7758 12.9114 76.8695 12.5064C77.0196 12.4895 77.1321 12.5401 77.2634 12.5907C77.3946 12.6414 78.4073 13.4178 78.4635 13.4684C78.6511 13.6878 78.5948 14.0253 78.8574 14.3291C79.1199 14.6329 79.7575 14.9705 80.0763 15.2405C80.2451 15.2405 81.8391 12.9789 82.0454 12.6414C82.4017 12.1013 82.7205 11.3587 83.0768 10.8861C83.4331 10.4135 83.1705 10.6667 83.3581 10.7004L83.3768 10.7173ZM80.0951 16.9789C79.6075 17.5359 77.5071 20.6245 79.5137 20.3713C81.5203 20.1182 81.539 19.3924 82.1016 18.7848C82.1579 18.6667 82.1016 18.5823 82.0266 18.4642C81.8953 18.1941 80.3388 16.9114 80.0951 16.9789Z" fill="var(--fill-0, #8D744A)"/>
<path id="Vector_7" d="M93.8406 20.7933C93.7093 20.9114 93.6718 20.7933 93.653 20.6752C93.5405 19.8988 93.7093 18.903 93.653 18.076C93.4092 14.1773 92.134 9.46839 91.2714 5.58652C91.1401 4.94517 90.7276 4.30382 90.9151 3.66247C91.1026 3.02112 91.3839 2.59918 91.4402 2.59918C91.5339 2.66669 91.5902 2.7342 91.6465 2.81859C91.759 3.00424 92.5654 4.54011 92.5654 4.67513C92.5841 4.97893 92.3591 5.14771 92.3216 5.41775C92.209 6.04222 93.0904 9.16459 93.2592 10.0591C93.6343 11.9325 94.0656 13.9241 94.2719 15.7975C94.4594 17.4853 94.6657 19.2237 93.8218 20.7933H93.8406Z" fill="var(--fill-0, #8D744A)"/>
<path id="Vector_8" d="M35.2385 4.38821C35.3885 4.35445 35.426 4.48947 35.4823 4.57386C35.6698 4.82702 36.5699 6.29538 36.6074 6.49791C36.6637 6.76796 36.4012 7.038 36.3074 7.29116C36.7762 10.8861 38.389 14.5317 38.9703 18.0929C39.1203 19.0211 39.2141 20.1182 38.5015 20.8777C38.389 20.8777 38.314 20.5064 38.2952 20.4051C38.0889 19.4431 37.9952 18.3629 37.7889 17.3671C37.0012 13.519 35.8761 9.73843 34.7509 5.95783C34.7321 5.70466 35.0134 4.43884 35.2385 4.38821Z" fill="var(--fill-0, #8D744A)"/>
<path id="Vector_9" d="M25.7861 4.55698C25.8048 4.9958 25.486 5.38398 25.0735 5.56964C19.8601 7.35867 15.0219 9.89032 9.97731 11.9663C9.69602 12.0844 8.17703 12.7426 8.02701 12.6076C7.97075 12.2194 8.06451 12.0675 8.40207 11.8481C8.98341 11.4599 10.2211 10.9536 10.915 10.6161C15.3594 8.52323 20.3665 6.51479 25.0172 4.79327C29.6679 3.07174 25.7298 4.50635 25.8048 4.55698H25.7861Z" fill="var(--fill-0, #8D744A)"/>
<path id="Vector_10" d="M76.6058 1.21593e-05L76.362 0.74263C71.3925 2.39664 66.5542 4.37133 61.9785 6.75108L62.166 5.97471C66.8543 3.76373 71.5613 1.519 76.6058 1.21593e-05Z" fill="var(--fill-0, #8D744A)"/>
<path id="Vector_11" d="M88.6078 9.58657C88.4953 9.02961 88.364 8.55703 87.7076 9.06336C87.0513 9.56969 87.0138 9.941 87.9139 10.1942C89.2079 10.5486 89.5642 9.90725 90.6894 9.60345C90.7831 9.68784 90.4268 10.498 90.333 10.5992C90.1268 10.8186 89.0391 11.2068 88.6828 11.4094C88.0639 11.7469 87.5576 12.152 86.995 12.4895C86.4324 12.8271 86.7887 12.6414 86.6387 12.6246C86.4512 12.2701 87.5389 11.2743 87.4451 11.1562C87.1263 11.1562 86.3949 10.633 86.3574 10.3798C86.4324 9.73847 87.8577 7.67939 88.6265 7.86505C89.3954 8.0507 89.2641 9.29965 88.6265 9.62033L88.6078 9.58657Z" fill="var(--fill-0, #8D744A)"/>
<path id="Vector_12" d="M47.9517 6.73417C47.4453 6.78481 46.7702 6.98734 46.2827 7.13924C46.1514 6.97046 46.6202 5.92404 46.789 5.75527C47.2953 5.26581 50.1083 5.21518 50.8771 5.3502C50.9334 5.45147 50.9709 5.55274 50.9334 5.67088C50.8396 6.02531 49.6769 7.5443 49.3394 7.72995C48.7018 8.06751 47.5016 8.08439 46.7702 8.35443C46.8265 8.18565 47.2016 8.01688 47.3891 7.93249C47.9704 7.64557 48.608 7.40928 49.1519 7.0886C49.6957 6.76793 49.5457 6.91983 49.5269 6.73417C49.0206 6.76793 48.458 6.68354 47.9517 6.73417Z" fill="var(--fill-0, #8D744A)"/>
<path id="Vector_13" d="M11.7966 29.6372C11.5716 29.7553 10.3901 28.9114 10.2026 28.692C10.1651 28.557 10.8777 27.6287 11.009 27.5612C11.2903 27.4262 12.1904 28.2532 12.4905 28.3376C12.7155 28.3376 13.1656 27.6456 13.2781 27.46C13.5406 27.3081 14.8533 28.2363 14.8721 28.3207C14.9846 28.6245 14.2907 29.2828 14.0657 29.5359L12.5655 28.692L11.7778 29.6372H11.7966Z" fill="var(--fill-0, #8D744A)"/>
<path id="Vector_14" d="M26.9481 10.076C27.0606 10.2447 26.498 11.4093 26.3667 11.4431L24.7727 10.8861L24.1539 11.9325C23.9851 12.0338 22.4098 11.3587 22.3911 11.173C22.3723 10.9874 22.9349 10.0422 23.0474 10.0085L24.6414 10.5654C24.8665 10.5148 24.9977 9.53588 25.3728 9.51901C25.5228 9.51901 26.8918 10.0422 26.9293 10.1097L26.9481 10.076Z" fill="var(--fill-0, #8D744A)"/>
<path id="Vector_15" d="M4.12639 12.1688C3.47004 12.2363 2.9637 11.7806 2.38236 11.6119L1.651 12.7089C1.3697 12.5908 -0.0367696 12.1688 0.000736362 11.8988L0.582078 10.7848C0.825867 10.6329 1.9698 11.2405 2.2886 11.3587C2.47613 11.3587 2.68241 10.2448 3.07622 10.2448L4.63272 10.9536L4.12639 12.1688Z" fill="var(--fill-0, #8D744A)"/>
<path id="Vector_16" d="M79.7753 5.8566L78.6877 5.04647C77.6 6.66673 75.5934 7.71315 73.8119 8.62454C73.7181 8.54015 73.9994 8.32074 74.0744 8.25323C75.4059 7.08867 77.2999 6.27854 78.5001 4.91145C78.5376 4.75955 77.6187 4.35449 77.6187 3.94943C77.6 3.27432 78.8377 1.77221 79.2315 2.88613C79.4565 3.49373 79.0627 4.13508 79.269 4.47263C79.6065 4.97896 80.1879 5.0296 79.7566 5.8566H79.7753ZM78.4626 3.25744C78.3876 3.25744 78.1251 3.51061 78.1438 3.61187L78.7252 4.06757C79.0065 4.06757 78.7252 3.20681 78.4626 3.25744Z" fill="var(--fill-0, #8D744A)"/>
<path id="Vector_17" d="M80.4697 8.94518C80.6572 8.89454 81.8949 9.67092 81.9324 9.80594C82.0262 10.1097 81.4073 10.7342 81.1636 10.9536C80.8823 11.0211 80.0196 10.3123 79.7383 10.1604C79.4195 10.4135 79.2133 11.1224 78.7444 11.0549C78.2756 10.9874 77.4692 10.2785 77.4317 10.1772L78.2944 9.02956L79.7196 9.82281L80.4697 8.94518Z" fill="var(--fill-0, #8D744A)"/>
<path id="Vector_18" d="M101.885 6.73421C101.773 7.08864 101.866 7.40931 101.529 7.66248C100.985 8.06754 99.2221 8.69202 98.472 9.06332C97.7219 9.43463 97.0093 9.80594 96.2967 10.1941C96.0904 10.3123 95.1715 11.0043 95.0215 10.8692C95.059 10.5148 95.2465 10.0591 95.5466 9.80594C96.503 9.01269 99.766 7.52746 101.041 6.97049C102.316 6.41353 101.791 6.63294 101.885 6.71733V6.73421Z" fill="var(--fill-0, #8D744A)"/>
<path id="Vector_19" d="M91.2335 22.0085L90.9898 22.8187C89.3958 23.6457 87.7455 24.422 86.189 25.2997C85.4389 25.7216 84.6888 26.1267 84.1074 26.7174C84.1074 26.0592 84.3512 25.6204 84.9325 25.2153C86.039 24.422 89.602 22.5655 90.9147 22.0592C92.2275 21.5528 91.121 21.9748 91.2523 21.9917L91.2335 22.0085Z" fill="var(--fill-0, #8D744A)"/>
<g id="Group_2">
<path id="Vector_20" d="M46.8838 35.2068C49.2654 35.2068 49.0591 38.903 46.2462 38.4979C44.6334 38.2785 44.6709 35.2068 46.8838 35.2068ZM47.2588 38.076C47.8402 37.6541 47.6714 35.7469 46.865 35.595C45.421 35.3249 46.0586 38.9705 47.2588 38.076Z" fill="var(--fill-0, #8D744A)"/>
<path id="Vector_21" d="M49.527 35.865C49.4895 35.6625 49.1332 35.6119 49.1707 35.46C49.8271 35.173 49.527 34.481 50.0334 34.0422C50.5397 33.6034 51.8899 33.6034 51.6649 34.4473C51.1961 34.768 51.1023 34.2279 50.8397 34.1941C50.1646 34.0929 50.3147 34.9705 50.3897 35.3418C50.5209 35.5275 51.121 35.3756 51.3461 35.3418V35.6119C51.1398 35.865 50.4647 35.6119 50.3709 35.8819L50.4459 38.5148H49.5458C49.4333 37.7216 49.6958 36.6245 49.5458 35.8819L49.527 35.865Z" fill="var(--fill-0, #8D744A)"/>
</g>
<path id="Vector_22" d="M97.9859 2.61605C98.1921 2.81858 98.0984 3.32491 98.0046 3.5612C97.8171 3.67934 97.6296 3.08862 97.1982 3.27428C96.7669 3.45993 96.7669 4.91141 96.5981 5.33335C96.4294 5.75529 96.5231 5.6034 96.3356 5.58652C96.1481 5.55276 95.7543 4.3882 95.473 4.16879C94.8354 3.64559 94.029 3.83124 94.5541 2.63293C95.1729 2.36288 95.473 2.93672 95.7543 3.34179C96.0356 3.74685 96.1856 4.13504 96.4106 4.5401C96.7107 4.42196 96.5794 2.48103 97.517 2.44727C98.4547 2.41352 97.9109 2.54854 97.9671 2.61605H97.9859Z" fill="var(--fill-0, #8D744A)"/>
<path id="Vector_23" d="M4.74524 28.6583C5.00778 28.4558 5.02653 27.7132 5.49536 27.7807C5.79541 28.0507 4.42644 30.6667 3.5638 29.3165C3.18874 28.7089 3.39503 27.7638 3.54505 27.1056C3.69507 26.4473 4.33267 24.287 4.65148 24.287C4.97028 24.287 4.76399 24.5064 4.74524 24.6077C4.50145 25.7553 3.54505 26.9368 3.92011 28.2532C4.29517 29.5697 4.40769 28.8946 4.74524 28.6245V28.6583Z" fill="var(--fill-0, #8D744A)"/>
<path id="Vector_24" d="M66.2931 22.2616L68.2059 23.1224L67.4557 24.5232L65.6367 23.6456L66.2931 22.2616Z" fill="var(--fill-0, #8D744A)"/>
<g id="Group_3">
<path id="Vector_25" d="M25.8058 35.865C25.7495 35.6119 25.3932 35.6456 25.4495 35.4262C25.9371 35.2405 26.7247 35.0549 26.7059 35.7469C27.3436 35.1562 28.2812 34.9536 28.825 35.7469C29.4626 35.038 30.7753 34.9536 30.9441 36.0338C31.1129 37.114 30.8504 36.7764 30.8504 37.1646C30.8504 37.5528 31.0379 37.9916 30.9441 38.4304H30.044V36.1182C30.044 36.0169 29.7814 35.7638 29.6314 35.7469C29.4814 35.73 28.9563 35.8988 28.8625 36.0338C28.6188 36.3376 28.8438 37.9747 28.8625 38.4304H27.9624V36.2026C27.9624 36.0169 27.6999 35.7638 27.4561 35.7638C27.2123 35.7638 26.7622 35.9663 26.7247 36.0169C26.4059 36.4051 26.8372 37.9072 26.7059 38.4304H25.8058C25.6933 37.7047 25.9746 36.5401 25.8058 35.865Z" fill="var(--fill-0, #8D744A)"/>
<path id="Vector_26" d="M3.67632 38.4305L3.63881 34.2954H5.81416C6.0767 34.2954 6.77056 34.6836 6.97684 34.8693C7.82072 35.6794 7.65195 37.384 6.65804 38.0591C5.66413 38.7343 6.02044 38.4305 5.90792 38.4305H3.69507H3.67632ZM4.67023 38.0929C7.27689 38.5486 7.01435 34.4473 4.67023 34.6836V38.0929Z" fill="var(--fill-0, #8D744A)"/>
<path id="Vector_27" d="M13.071 39.7638C13.071 39.7976 13.2023 39.882 13.1648 39.9664H12.1709C11.9834 38.498 12.7147 36.7765 11.9083 35.46C12.1334 35.2575 12.6022 35.19 12.9023 35.2912C13.2023 35.3925 13.0523 35.4769 13.146 35.4769C13.2398 35.4769 13.5961 35.2069 13.8587 35.19C14.7963 35.1393 15.3401 36.0001 15.3401 36.7427C15.3401 37.9748 14.4212 38.6837 13.071 38.4811C13.1085 38.8862 13.0148 39.3419 13.071 39.7469V39.7638ZM13.071 38.1773C15.0213 38.6668 14.8713 35.2069 13.071 35.7469V38.1773Z" fill="var(--fill-0, #8D744A)"/>
<path id="Vector_28" d="M36.7195 38.4305H35.8193C35.6693 37.4347 36.1944 36.3545 35.5568 35.4769C35.9881 35.1225 36.7195 35.1393 36.7757 35.7638C37.132 35.2237 38.5198 34.9706 38.7635 35.6794C39.0073 36.3883 38.7635 37.0296 38.801 37.5191C38.8386 38.0085 38.9698 38.1267 38.8948 38.4474H37.9947V36.1351C37.9947 36.0339 37.7321 35.7807 37.5821 35.7638C37.4321 35.7469 36.7195 36.0001 36.7195 36.1351V38.4474V38.4305Z" fill="var(--fill-0, #8D744A)"/>
<path id="Vector_29" d="M19.2046 38.2616C19.2421 38.4642 19.2046 38.3966 19.0733 38.4304C18.717 38.5485 17.9856 38.6329 17.9294 38.1772H17.7981C17.273 38.7511 15.8478 38.6329 15.8478 37.7384C15.8478 36.8439 17.0105 36.7258 17.7231 36.7933C17.9106 36.6751 17.8731 35.2405 17.0105 35.6287C16.1478 36.0169 17.0105 36.2701 16.3354 36.1519C15.6603 36.0338 15.9603 35.73 16.2416 35.4937C16.7104 35.0886 17.9856 35.1224 18.417 35.5781C19.0733 36.2532 18.0419 38.0085 19.1858 38.2616H19.2046ZM17.7606 37.0464C16.2791 36.8777 16.3916 38.5992 17.7606 37.9072V37.0464Z" fill="var(--fill-0, #8D744A)"/>
<path id="Vector_30" d="M9.00218 36.7933C8.98343 38.0423 10.2399 38.4136 11.1588 37.5191C11.3088 38.4473 9.82731 38.6499 9.07719 38.4642C7.61446 38.076 7.877 34.8355 10.1836 35.2743C12.4902 35.7131 11.3463 36.2701 10.9337 36.7933H9.00218ZM10.2774 36.4726C10.2774 35.2574 9.20846 35.3418 9.02093 36.4726H10.2774Z" fill="var(--fill-0, #8D744A)"/>
<path id="Vector_31" d="M32.6506 36.7933C32.6319 38.0423 33.8883 38.4136 34.8072 37.519C34.9385 38.3967 33.7196 38.5823 32.9694 38.4811C31.0566 38.2279 31.6192 34.6161 33.9821 35.3081C34.6009 35.4937 34.976 36.3039 34.6009 36.7933H32.6694H32.6506ZM34.0009 36.4726C33.8696 35.3081 32.7819 35.2574 32.7444 36.4726H34.0009Z" fill="var(--fill-0, #8D744A)"/>
<path id="Vector_32" d="M41.0515 34.768L40.9577 35.3418L42.0454 35.2575C42.0079 35.8313 41.4266 35.6456 40.9577 35.6625C41.1265 36.5739 40.3389 38.5655 42.1392 37.8566C42.1767 38.5317 41.1265 38.6161 40.6014 38.4642C39.495 38.1604 40.714 35.9832 39.7951 35.4431L39.8326 35.325C40.3014 35.1056 40.4327 34.633 41.0515 34.7511V34.768Z" fill="var(--fill-0, #8D744A)"/>
<path id="Vector_33" d="M23.8914 34.768V35.2912L24.8853 35.2406C24.9228 35.7976 24.2289 35.6288 23.7976 35.6457C23.8914 36.1351 23.5913 37.6541 24.0226 37.9242C24.3602 38.1436 24.6415 37.9073 24.979 37.8398C25.054 38.5318 24.0601 38.5824 23.5163 38.4642C22.3161 38.228 23.6663 35.8651 22.6349 35.4263V35.3081C23.2162 35.2069 23.235 34.5824 23.8914 34.7343V34.768Z" fill="var(--fill-0, #8D744A)"/>
<path id="Vector_34" d="M22.1662 35.9663C21.8286 36.1519 21.6973 35.73 21.416 35.7469C20.4596 35.7638 20.8535 37.8903 20.8347 38.4135H19.9346C19.9721 37.4515 20.3096 36.2701 19.672 35.4431C20.1783 35.1055 20.9472 35.0886 20.7972 35.8144C21.1347 35.5106 21.6411 34.9199 22.1474 35.3249C22.6537 35.73 22.2974 35.8988 22.1662 35.9663Z" fill="var(--fill-0, #8D744A)"/>
</g>
<path id="Vector_35" d="M50.0702 19.8988L48.1387 19.0886L48.7388 17.7047C48.8325 17.6372 50.6141 18.4135 50.6703 18.5148C50.8391 18.7511 50.1077 19.5781 50.0702 19.8988Z" fill="var(--fill-0, #8D744A)"/>
<g id="Group_4">
<path id="Vector_36" d="M88.6077 36.1857C88.4765 35.5275 87.6138 35.73 87.2013 36.0676C87.145 36.9452 87.07 37.8904 87.2388 38.7511H86.1511C86.1886 38.6499 86.2261 38.5824 86.2449 38.4642C86.2824 37.9916 86.3199 36.1351 86.1323 35.7975C85.9448 35.46 85.8698 35.5612 85.7948 35.4094C86.1698 35.3081 86.7699 34.9874 87.07 35.3587C87.37 35.73 87.0887 35.7975 87.295 35.73C87.8576 35.0549 89.0015 34.8861 89.4704 35.73C89.9579 35.5106 90.2205 35.1562 90.8206 35.1562C92.5834 35.1562 91.5519 37.7722 91.9458 38.7343H90.9518V36.1688C90.9518 36.152 90.7643 35.8313 90.7456 35.8313C90.5018 35.6119 89.6954 35.8313 89.5454 36.0507C89.3203 36.422 89.6016 38.211 89.5829 38.7343H88.589C88.4952 37.9579 88.7202 36.9115 88.589 36.1688L88.6077 36.1857Z" fill="var(--fill-0, #8D744A)"/>
<path id="Vector_37" d="M83.1139 38.7511H82.045C81.9699 38.7005 81.6699 37.5697 81.4824 37.3334C81.2948 37.0971 80.0759 37.2153 79.6821 37.249L79.0445 38.7342H78.4256L80.2072 34.5486C80.3009 34.2617 81.1636 33.8735 81.3511 34.1098L83.1139 38.7342V38.7511ZM81.3136 36.7933C81.1823 36.6752 80.6572 34.903 80.5072 35.0043L79.8696 36.7933H81.3136Z" fill="var(--fill-0, #8D744A)"/>
<path id="Vector_38" d="M98.1919 38.7511H97.198C97.048 37.654 97.7231 36.3207 96.8417 35.4262C97.4418 35.2068 98.0794 34.9705 98.2481 35.7469C99.017 35.0043 100.423 34.8524 100.555 36.1013C100.686 37.3502 100.423 37.8903 100.649 38.7511H99.6546V36.2701C99.6546 36.2532 99.4671 35.865 99.4483 35.8481C99.167 35.595 98.2106 35.9325 98.2106 36.1182V38.7511H98.1919Z" fill="var(--fill-0, #8D744A)"/>
<path id="Vector_39" d="M96.465 38.4979C96.7088 38.6667 95.8087 38.8355 95.6961 38.8355C95.2836 38.8355 95.1898 38.7004 94.9648 38.4304C94.4584 38.8523 93.6146 39.0549 93.0707 38.5992C91.983 37.7046 93.7271 36.557 94.7772 36.962C95.1148 36.8945 94.946 35.2068 94.1021 35.5443C93.2582 35.8819 93.8958 36.2869 93.3333 36.2363C92.7707 36.1857 92.977 35.9325 93.0145 35.7131C93.1457 35.038 95.6024 34.8523 95.8087 36.0338C96.0149 37.2152 95.3773 38.4979 96.4463 38.5148L96.465 38.4979ZM94.9085 38.1603L94.8335 37.1477C93.1645 37.0464 93.277 38.8692 94.9085 38.1603Z" fill="var(--fill-0, #8D744A)"/>
<path id="Vector_40" d="M83.1131 40.4557C83.5445 40.1519 83.8633 39.6962 83.9195 39.1899C84.0133 38.5148 84.0133 36.7764 83.9195 36.1013C83.8258 35.4262 83.8445 35.8144 83.7695 35.6793C83.6945 35.5443 83.5257 35.6287 83.5632 35.4599C84.1446 35.038 84.8759 35.0886 84.9134 35.865C84.9509 36.6414 84.8197 36.2869 84.8197 36.5063C84.8197 37.4009 85.0259 39.2236 84.5384 39.9156C84.2383 40.3376 83.657 40.6414 83.1131 40.4557Z" fill="var(--fill-0, #8D744A)"/>
<path id="Vector_41" d="M84.7079 34.5823C84.3703 34.8861 83.5827 34.5823 83.864 34.0254C84.2015 33.4178 85.1954 34.1266 84.7079 34.5823Z" fill="var(--fill-0, #8D744A)"/>
</g>
<g id="Group_5">
<path id="Vector_42" d="M53.6898 38.7511V34.8186C53.6898 34.7679 53.4648 34.5654 53.5023 34.5317C55.5651 34.2279 58.0592 34.4979 57.7404 36.9114C57.6467 37.6371 56.784 38.7511 55.9026 38.7511H53.6898ZM54.6837 34.9705V38.2954C54.8525 38.481 55.2838 38.4473 55.5276 38.4135C57.3091 38.1772 56.9528 35.1224 55.3401 34.8692C53.7273 34.616 54.8337 34.7848 54.6837 34.9705Z" fill="var(--fill-0, #8D744A)"/>
<path id="Vector_43" d="M64.3415 35.4937C64.3227 35.9831 63.8352 35.9325 63.4413 35.8144C64.5665 37.0296 63.2351 38.3291 61.6973 37.9241C61.0972 38.6329 62.6912 38.4473 63.1225 38.4979C64.4165 38.6329 64.4915 39.6962 63.3851 40.1857C62.2787 40.6751 61.4535 40.5064 60.8722 40.1013C60.2908 39.6962 60.4971 39.3924 60.966 39.308C61.4348 39.2236 61.3598 39.5781 61.5285 39.8312C61.8473 40.3376 63.1788 40.1857 63.3476 39.5781C63.4226 38.8186 61.3035 39.4093 60.9472 38.7342C60.5909 38.0591 60.9847 37.9409 61.4348 37.9241C61.5098 37.7047 61.2848 37.7722 61.1535 37.654C60.1596 36.6582 61.1535 35.2236 62.5412 35.4262C63.9289 35.6287 63.01 35.6287 63.1225 35.6287C63.2351 35.6287 63.3476 35.4937 63.4788 35.4768C63.7601 35.4599 64.0414 35.4768 64.3227 35.4768L64.3415 35.4937ZM62.0536 35.7469C61.3223 36.0844 61.6411 37.8059 62.3912 37.7722C63.1413 37.7384 63.1038 35.4768 62.0536 35.7469Z" fill="var(--fill-0, #8D744A)"/>
<path id="Vector_44" d="M73.2686 38.5823C72.9498 38.9367 72.0309 38.9874 71.9184 38.4135H71.7871C71.2621 39.0718 69.7806 38.9705 69.7431 38.0422C69.7056 37.114 70.8683 36.9958 71.6746 37.0127L71.7871 36.9452C72.1247 36.1182 70.9808 35.0042 70.7182 36.2701C69.9306 36.6245 69.5931 35.9494 70.3432 35.5781C71.0933 35.2068 72.1622 35.308 72.5185 35.9325C72.9311 36.6583 72.0684 38.3123 73.2499 38.5654L73.2686 38.5823ZM71.7309 37.2827C70.0994 37.1308 70.2307 39.0043 71.7871 38.1772L71.7309 37.2827Z" fill="var(--fill-0, #8D744A)"/>
<path id="Vector_45" d="M74.9928 38.7511H73.9989C73.9239 37.5021 74.2427 36.135 74.0927 34.8861C73.9426 33.6371 73.8864 34.2954 73.6426 34.0422C75.4241 33.4684 74.9178 34.5485 74.899 35.5443C74.8803 36.6076 74.8615 37.7047 74.9928 38.7511Z" fill="var(--fill-0, #8D744A)"/>
<path id="Vector_46" d="M68.1296 37.9747C68.2046 38.2616 68.5796 38.3629 68.8797 38.3291C69.1797 38.2954 69.461 38.0422 69.4048 38.3123C69.2923 38.8524 68.2421 38.9367 67.7733 38.8017C66.5918 38.481 67.9796 36.0675 66.8731 35.6287C67.3607 35.4262 67.6232 34.903 68.2233 35.0211L68.1296 35.5106C68.4484 35.5106 68.7672 35.4937 69.086 35.5106C69.4048 35.5274 69.3485 35.4431 69.311 35.6287C69.2172 36.0338 68.4671 35.8988 68.1483 35.9156C68.2421 36.5064 68.0171 37.4346 68.1483 37.9916L68.1296 37.9747Z" fill="var(--fill-0, #8D744A)"/>
<path id="Vector_47" d="M58.8277 36.1856C58.7902 36.0337 58.6401 35.8987 58.5651 35.7806C58.4901 35.6624 58.4151 35.7299 58.5651 35.6287C58.8277 35.5274 59.409 35.4093 59.6153 35.5949C59.9716 35.9156 59.559 38.211 59.8403 38.7679H58.8464C58.7339 38.0084 58.9965 36.9283 58.8464 36.2025L58.8277 36.1856Z" fill="var(--fill-0, #8D744A)"/>
<path id="Vector_48" d="M65.9542 38.5485C65.9542 38.5823 66.0855 38.6667 66.048 38.7511H65.0541V36.1182C65.0541 36.0169 64.6603 35.7131 64.6978 35.6793C64.9416 35.5106 65.9542 35.4093 65.9542 35.7131C65.9542 36.5739 65.8417 37.7384 65.9542 38.5485Z" fill="var(--fill-0, #8D744A)"/>
<path id="Vector_49" d="M58.8476 34.903C58.3788 34.4642 59.1851 33.8734 59.5602 34.3123C59.9353 34.7511 59.2227 35.2405 58.8476 34.903Z" fill="var(--fill-0, #8D744A)"/>
<path id="Vector_50" d="M65.0728 34.2954C65.4479 33.9578 66.2168 34.4304 65.823 34.8355C65.4292 35.2405 64.6978 34.6498 65.0728 34.2954Z" fill="var(--fill-0, #8D744A)"/>
</g>
</g>
</svg>
