<svg width="68" height="61" viewBox="0 0 68 61" fill="none" xmlns="http://www.w3.org/2000/svg">
<path d="M31.7946 9.07033H35.7133C36.1586 9.07033 36.5149 8.74928 36.5149 8.34797C36.5149 7.94666 36.1586 7.62562 35.7133 7.62562H31.7946V9.07033ZM31.7946 12.4413H35.8024C36.3368 12.4413 36.693 12.1203 36.693 11.6387C36.693 11.1571 36.3368 10.8361 35.8024 10.8361H31.7946V12.4413ZM38.118 9.87294C38.6524 10.3545 39.0087 10.9966 39.0087 11.719C39.0087 13.1637 37.7618 14.2873 36.1586 14.2873H29.6571V5.85986H36.0696C37.5837 5.85986 38.8305 6.98352 38.8305 8.34797C38.7415 8.9098 38.4743 9.47163 38.118 9.87294ZM39.6321 24.32H37.2274L36.5149 22.8753H31.2602L30.5477 24.32H28.143L32.7743 15.8926H34.9118L39.6321 24.32ZM33.843 18.0596L32.2399 21.1096H35.4461L33.843 18.0596ZM37.0493 26.166H39.7212L35.0008 31.6238V34.5935H32.7743V31.6238L28.0539 26.166H30.7258L33.9321 30.0186L37.0493 26.166ZM49.429 26.166V28.0121H43.1946V29.4568H49.2509V31.3028H43.1946V32.908H49.429V34.754H40.968V26.166H49.429ZM56.2869 31.383H54.5947V34.5935H52.3681V26.166H58.0681C59.6713 26.166 60.9182 27.37 60.9182 28.8147C60.9182 30.0186 60.0275 30.9817 58.8697 31.3028L61.6307 34.5935H58.9588L56.2869 31.383ZM57.89 27.9318H54.6837V29.537H57.89C58.4244 29.537 58.7806 29.1357 58.7806 28.7344C58.7806 28.3331 58.3353 27.9318 57.89 27.9318ZM29.0336 34.5935H26.6289L25.9164 33.1488H20.6617L19.9492 34.5935H17.5445L22.2648 26.166H24.4023L29.0336 34.5935ZM23.2445 28.3331L21.6414 31.383H24.9367L23.2445 28.3331ZM9.08351 29.3765H13.0023C13.4476 29.3765 13.8038 29.0555 13.8038 28.6542C13.8038 28.2528 13.4476 27.9318 13.0023 27.9318H9.08351V29.3765ZM9.08351 32.7475H13.0913C13.6257 32.7475 13.982 32.4264 13.982 31.9449C13.982 31.4633 13.6257 31.1423 13.0913 31.1423H9.08351V32.7475ZM15.407 30.1791C15.9414 30.6607 16.2976 31.3028 16.2976 32.0251C16.2976 33.4698 15.0507 34.5935 13.4476 34.5935H6.85693V26.166H13.2695C14.7835 26.166 16.0304 27.2897 16.0304 28.6542C16.0304 29.216 15.7632 29.7778 15.407 30.1791ZM38.118 36.3593V38.2053H31.8836V39.65H37.9399V41.496H31.8836V43.1012H38.118V44.9473H29.6571V36.3593H38.118ZM36.5149 49.4419C36.5149 48.9603 36.1586 48.6393 35.6243 48.6393H31.7946V50.2445H35.6243C36.1586 50.2445 36.5149 49.9235 36.5149 49.4419ZM29.568 55.301V46.8735H35.8024C37.4055 46.8735 38.6524 48.0775 38.6524 49.5222C38.6524 50.6458 37.9399 51.5287 36.8712 51.93L39.7212 55.301H37.0493L34.3774 52.0905H31.7946V55.301H29.568Z" fill="#EAEAEA"/>
<path d="M67.5986 28.5731C66.5298 12.6813 51.8345 0 33.8437 0C15.853 0 1.15762 12.6813 0.0888672 28.5731C0.0888672 29.2152 0.17793 29.8573 0.266993 30.4994C0.979497 35.7967 3.20607 40.6926 6.59046 44.786C12.7358 52.3305 22.6218 57.2265 33.8437 57.2265C18.1687 57.2265 5.34358 46.2307 4.27483 32.4257C4.18576 31.7836 4.18576 31.1415 4.18576 30.4994C4.18576 29.8573 4.18576 29.2152 4.27483 28.5731C5.34358 14.7681 18.1687 3.77229 33.8437 3.77229C45.0657 3.77229 54.9517 8.66825 61.097 16.2128C64.4814 20.3062 66.708 25.2021 67.4205 30.4994C67.5095 31.1415 67.5986 31.7836 67.5986 32.3454C67.5986 31.7033 67.6877 31.0612 67.6877 30.4191C67.6877 29.8573 67.6877 29.2152 67.5986 28.5731Z" fill="#89D329"/>
<path d="M0.089063 32.4265C1.15782 48.3182 15.8532 60.9996 33.8439 60.9996C51.8346 60.9996 66.53 48.3182 67.5988 32.4265C67.5988 31.7844 67.5097 31.1423 67.4207 30.5002C66.7082 25.2029 64.4816 20.307 61.0972 16.2136C54.9519 8.66903 45.0659 3.77307 33.8439 3.77307C49.519 3.77307 62.3441 14.7689 63.4128 28.5739C63.5019 29.216 63.5019 29.8581 63.5019 30.5002C63.5019 31.1423 63.5019 31.7844 63.4128 32.4265C62.3441 46.3117 49.519 57.2273 33.8439 57.2273C22.622 57.2273 12.736 52.3313 6.59066 44.7867C3.20627 40.6934 0.979693 35.7974 0.267189 30.5002C0.178126 29.8581 0.089063 29.216 0.089063 28.6542C0.089063 29.2963 0 29.9383 0 30.5804C0 31.1423 6.63571e-09 31.7844 0.089063 32.4265Z" fill="#00BCFF"/>
</svg>
