<svg width="104" height="37" viewBox="0 0 104 37" fill="none" xmlns="http://www.w3.org/2000/svg">
<path d="M52 0C23.2697 0 0 8.26911 0 18.5004C0 28.7286 23.2713 37 52 37C80.7323 37 104 28.7282 104 18.5004C104 8.26872 80.7327 0 52 0Z" fill="#00095B"/>
<path d="M52.2633 35.3775C24.597 35.3775 2.16968 27.7382 2.16968 18.3139C2.16968 8.88851 24.5974 1.24963 52.2633 1.24963C79.9268 1.24963 102.353 8.88813 102.353 18.3139C102.353 27.7378 79.926 35.3775 52.2633 35.3775ZM52.2633 2.72806C25.5691 2.72806 3.93066 9.70486 3.93066 18.3139C3.93066 26.9234 25.5683 33.901 52.2633 33.901C78.957 33.901 100.592 26.923 100.592 18.3139C100.592 9.70486 78.9555 2.72806 52.2633 2.72806Z" fill="white"/>
<path d="M39.1964 5.49917C38.4855 5.50138 37.771 5.52872 37.0516 5.58691C32.2738 5.98051 27.7261 8.61341 27.7178 12.6108C27.7127 14.6379 29.1851 16.2804 31.4665 16.2081C34.1473 16.1191 36.348 14.017 37.5001 11.3667C37.9372 10.3612 37.1277 9.94349 36.7425 10.5224C36.0715 11.5338 35.137 12.3475 34.0373 12.8776C32.7759 13.4822 31.4276 13.3191 31.0188 12.3167C30.4442 10.9023 31.6387 8.78599 34.3647 7.79014C38.3021 6.36338 42.4219 7.30718 46.386 8.0361C46.4426 8.0361 46.6538 8.15072 46.4671 8.24592C45.7572 8.62475 45.0583 8.93282 43.9695 9.8498C43.1888 10.5041 42.1668 11.3752 41.3764 12.3241C40.5918 13.2593 40.0357 14.0935 39.2998 15.0182C39.1972 15.1519 39.071 15.1457 39.0725 15.1457C37.2789 15.4422 35.5231 15.6408 33.9154 16.7349C33.5829 16.9595 33.4385 17.3582 33.6402 17.6632C33.8214 17.9336 34.2358 17.9623 34.5235 17.7575C35.5224 17.0263 36.5507 16.6821 37.7299 16.6502C37.7814 16.6533 37.8061 16.6615 37.8207 16.6926C37.8297 16.7101 37.8242 16.7469 37.803 16.7741C36.0365 19.1726 35.5942 19.7147 34.2652 21.2016C33.5855 21.9659 32.917 22.611 32.1701 23.2824C29.1529 26.0259 25.9076 25.9785 24.7433 24.2584C24.0475 23.226 24.1392 22.1423 24.5952 21.2432C25.1565 20.142 26.2908 19.335 27.2342 18.8637C27.5844 18.6888 27.6852 18.2505 27.3345 17.8511C27.1117 17.5908 26.5711 17.5445 26.1686 17.6168C24.9328 17.8402 23.4725 18.7546 22.6097 19.855C21.6372 21.0898 21.1514 22.5888 21.3145 24.2712C21.6074 27.307 24.1612 29.0605 27.0605 29.0403C29.3676 29.0227 31.5407 28.3385 34.1555 25.7406C36.5929 23.3176 38.8136 19.6983 40.8929 16.342C40.9582 16.2348 41.0045 16.1773 41.3205 16.1388C42.6247 15.9791 44.5505 15.7973 45.7848 15.7274C46.0592 15.7126 46.1149 15.7156 46.225 15.8497C46.5465 16.2468 47.0295 16.5838 47.4163 16.789C47.605 16.8892 47.6947 16.9392 47.8429 16.9416C48.0256 16.9454 48.1679 16.8492 48.2599 16.7474C48.3908 16.6067 48.4269 16.4228 48.3562 16.3043C48.2823 16.1799 47.4215 15.713 47.396 15.5242C47.3771 15.4065 47.5087 15.378 47.5087 15.378C48.1416 15.1838 48.8 14.7839 49.1989 14.036C49.5908 13.2997 49.6541 12.317 48.9371 11.7707C48.3078 11.2909 47.357 11.3666 46.5983 12.0329C45.8562 12.6799 45.6106 13.6211 45.7109 14.446C45.7289 14.589 45.7214 14.6371 45.5222 14.6534C44.3815 14.7428 43.2824 14.7738 42.0599 14.8371C41.9781 14.8429 41.9522 14.7901 41.9998 14.7345C43.4074 12.3411 45.5091 10.6366 47.8337 8.95811C47.9878 8.84504 47.9408 8.63003 47.9345 8.45052C52.1317 9.34302 56.188 11.0041 60.5424 10.9688C62.3431 10.9544 64.067 10.6863 65.7148 9.80161C67.1641 9.02801 67.7522 8.31235 67.7954 7.56867C67.8292 7.05462 67.464 6.72968 66.9439 6.84042C62.5442 7.82966 58.347 7.81874 53.9697 7.30042C48.9702 6.70647 44.1728 5.48376 39.1964 5.49917ZM47.9788 12.4357C48.0816 12.4411 48.1778 12.4749 48.2556 12.5401C48.4875 12.734 48.3778 13.2178 48.1435 13.5527C47.8876 13.9222 47.4536 14.2412 47.0578 14.3189C46.9784 14.3333 46.9096 14.2999 46.877 14.1277C46.8125 13.672 46.964 13.0616 47.4616 12.6315C47.6174 12.4967 47.8074 12.4267 47.9788 12.4357ZM83.2979 12.5231C82.498 12.5231 81.449 12.5245 80.6153 12.5245C80.4168 12.5245 80.3141 12.5482 80.2202 12.7289C79.9128 13.3059 76.1635 18.8051 75.4654 19.8732C75.3483 20.0356 75.2045 20.013 75.188 19.8276C75.1172 19.1935 74.5578 18.4647 73.6761 18.1157C73.0039 17.8488 72.3467 17.8007 71.6639 17.8893C70.4309 18.0513 69.3324 18.6885 68.3662 19.4062C66.9107 20.4899 65.655 21.8928 64.0335 22.9302C63.1483 23.4948 61.9365 23.9872 61.1256 23.2529C60.3917 22.5869 60.4743 21.1073 61.5973 19.9634C61.7156 19.8433 61.8575 19.9435 61.8351 20.0511C61.729 20.5687 61.8595 21.0832 62.2609 21.4442C62.7506 21.8735 63.4518 21.9225 64.0516 21.6357C64.7599 21.2926 65.1759 20.6292 65.2978 19.8762C65.4853 18.7086 64.5666 17.6787 63.4181 17.5963C62.4845 17.5322 61.5896 17.85 60.7177 18.5549C60.2802 18.9096 60.0313 19.1722 59.6536 19.6983C59.5612 19.8281 59.4197 19.8413 59.4244 19.6497C59.4681 18.155 58.8359 17.3139 57.573 17.2863C56.5934 17.2638 55.546 17.7835 54.73 18.4207C53.8354 19.124 53.0532 20.0558 52.2147 20.9316C52.1106 21.0396 52.0194 21.0346 51.9903 20.8251C51.9647 19.8347 51.7103 18.8754 51.2418 18.1943C51.0763 17.9572 50.7276 17.8398 50.4343 17.9999C50.2991 18.0726 49.8279 18.2844 49.4855 18.5545C49.3153 18.6916 49.2496 18.8901 49.3243 19.1446C49.7763 20.6238 49.6768 22.3062 49.0636 23.7275C48.5004 25.0284 47.4057 26.2027 46.1196 26.5998C45.2721 26.8628 44.3908 26.7341 43.8456 25.9986C43.0968 24.9837 43.3995 23.219 44.5151 21.753C45.5005 20.463 46.9247 19.6431 48.3464 19.1151C48.5139 19.0521 48.548 18.9474 48.5008 18.8083C48.4233 18.579 48.3004 18.268 48.2497 18.1254C48.1196 17.7862 47.7544 17.7306 47.3091 17.7784C46.2764 17.8962 45.3453 18.2423 44.4251 18.7245C42.0155 19.9873 40.8079 22.4313 40.2781 23.7392C40.0234 24.3667 39.8053 24.7591 39.5235 25.1065C39.1438 25.5739 38.6669 25.999 37.7951 26.7485C37.7165 26.8173 37.6575 26.9606 37.7236 27.0935C37.8128 27.2742 38.266 27.9005 38.3941 27.9565C38.536 28.0248 38.7006 27.9294 38.7666 27.8828C39.3767 27.4783 40.1066 26.8368 40.4639 26.4016C40.5889 26.2528 40.718 26.3154 40.7845 26.5415C41.1178 27.7056 41.9907 28.6559 43.1978 29.0534C45.4069 29.7827 47.6985 28.7271 49.4281 26.8897C50.5271 25.7221 50.9238 24.9709 51.3451 24.4604C52.059 23.5943 53.4677 21.6571 55.145 20.4133C55.7602 19.9548 56.4886 19.6051 56.8549 19.8371C57.1485 20.0236 57.2433 20.4567 56.7716 21.296C55.0617 24.3527 52.5444 27.9441 52.0829 28.8156C51.9988 28.9668 52.0722 29.0853 52.2338 29.0853C53.1288 29.0814 54.0165 29.0833 54.8289 29.0833C54.9638 29.077 55.0248 29.0169 55.0924 28.9232C56.4049 26.9125 57.6403 24.9978 58.9642 23.0189C59.0388 22.9024 59.1068 22.9927 59.1096 23.0436C59.1371 23.5025 59.2522 24.1309 59.5305 24.5435C60.0313 25.3058 60.7405 25.6333 61.5274 25.6384C62.1532 25.6454 62.4696 25.5522 63.1445 25.3055C63.6167 25.132 64.0634 24.8973 64.4731 24.6075C64.6708 24.4735 64.7053 24.6983 64.7002 24.7328C64.3968 26.3294 64.7718 28.2207 66.3929 29.0052C68.3331 29.9416 70.4644 28.6256 71.6908 27.4378C71.8106 27.3232 71.94 27.3352 71.9522 27.5816C71.9781 28.0354 72.1873 28.5736 72.5709 28.9505C73.5984 29.96 75.6723 29.5601 77.7536 27.983C79.0901 26.9739 80.4882 25.5476 81.7511 24.0373C81.7979 23.979 81.8328 23.8845 81.7424 23.7897C81.5498 23.5927 81.2717 23.3673 81.081 23.1936C80.9942 23.1213 80.8663 23.142 80.7928 23.1968C79.4984 24.4017 78.3334 25.7761 76.6486 26.9126C76.0806 27.3003 75.1757 27.6135 74.7689 27.075C74.6105 26.866 74.6287 26.5764 74.7848 26.1968C75.2765 24.9977 83.051 13.412 83.4543 12.7297L83.4551 12.7288C83.5243 12.6099 83.4512 12.5231 83.2979 12.5231ZM72.4041 19.7662C72.6077 19.7645 72.7983 19.8028 72.9719 19.8845C73.9294 20.3317 73.6236 21.4169 73.1955 22.269C73.181 22.2957 73.1719 22.325 73.169 22.3551C73.166 22.3853 73.1692 22.4157 73.1782 22.4447C73.194 22.5333 73.3117 22.6191 73.4277 22.6599C73.4682 22.6747 73.4911 22.7034 73.4452 22.7967C73.1142 23.4902 72.8107 23.8901 72.396 24.4923C72.0155 25.0491 71.5862 25.4831 71.0658 25.9012C70.2816 26.5365 69.1928 27.2277 68.2927 26.763C67.8926 26.5594 67.7199 26.0119 67.7278 25.5685C67.7486 24.3213 68.3136 23.0414 69.3599 21.7833C70.3966 20.5344 71.522 19.7739 72.4041 19.7662Z" fill="white"/>
</svg>
