<svg width="104" height="26" viewBox="0 0 104 26" fill="none" xmlns="http://www.w3.org/2000/svg">
<path d="M2.30422 14.3069C3.60168 15.7185 5.20714 15.9739 6.18929 15.9739C10.146 15.9739 11.8274 13.0706 12.1283 12.3583C12.4289 11.6459 12.5797 10.9012 12.5797 10.124C12.5797 9.34689 12.4378 8.59915 12.1283 7.88976C10.9076 5.09118 8.09889 4.23278 6.18929 4.27425C5.22341 4.29518 3.9613 4.46951 2.61302 5.61282V0.000244141H0V15.7579H2.30422V14.3069ZM2.78026 8.64533C2.97845 8.17794 3.24364 7.77119 3.57618 7.42588C3.90881 7.08026 4.30079 6.80709 4.75194 6.60568C5.20345 6.4041 5.68239 6.30327 6.18937 6.30327C6.71201 6.30327 7.19922 6.40035 7.65029 6.59465C8.10188 6.78888 8.49386 7.05884 8.8264 7.40415C9.15876 7.74938 9.42026 8.15637 9.61036 8.62384C9.80028 9.09154 9.89542 9.59177 9.89542 10.1239C9.89542 10.6709 9.80019 11.1747 9.61036 11.635C9.42035 12.0957 9.15885 12.4985 8.8264 12.8438C8.49386 13.1891 8.10188 13.4591 7.65029 13.6533C7.19931 13.8476 6.7121 13.9447 6.18937 13.9447C5.66656 13.9447 5.17962 13.8476 4.72846 13.6533C4.27696 13.4591 3.88498 13.1929 3.55244 12.8546C3.21981 12.5166 2.95858 12.1173 2.76848 11.6566C2.57838 11.1962 2.48342 10.6926 2.48342 10.1454C2.48342 9.61326 2.58198 9.11335 2.78026 8.64533Z" fill="#EAEAEA"/>
<path d="M20.4479 13.7503C20.2181 13.8082 20.0164 13.8367 19.8421 13.8367C19.4147 13.8367 19.0821 13.718 18.8443 13.4807C18.6068 13.2431 18.488 12.916 18.488 12.4984V0H15.875V13.3618C15.875 14.182 16.1244 14.8156 16.6233 15.2615C17.1219 15.7077 17.8229 15.9306 18.7256 15.9306C19.1372 15.9306 19.6046 15.8837 20.1272 15.7904C20.65 15.6967 21.1013 15.5711 21.4812 15.4125L21.1012 13.556C20.8952 13.6284 20.6773 13.693 20.4479 13.7503Z" fill="#EAEAEA"/>
<path d="M48.5546 15.9738C50.0905 15.9738 51.3061 15.6608 52.2012 15.0349C53.096 14.4089 53.5435 13.5561 53.5435 12.4768C53.5435 12.0019 53.4484 11.5954 53.2585 11.2572C53.0684 10.9193 52.7753 10.624 52.3793 10.3722C51.9836 10.1207 51.4802 9.90112 50.8709 9.71385C50.261 9.52705 49.5365 9.3397 48.6973 9.15243C48.1902 9.03762 47.7666 8.93327 47.4264 8.83963C47.0855 8.746 46.8086 8.64181 46.5948 8.5266C46.381 8.41163 46.2266 8.27493 46.1315 8.11634C46.0366 7.95823 45.989 7.764 45.989 7.53358C45.989 6.98694 46.2145 6.58754 46.6661 6.33555C47.1174 6.08412 47.6758 5.95773 48.3409 5.95773C49.6395 5.95773 50.8668 6.3755 52.0231 7.20977L53.1395 5.78523C52.5058 5.29611 51.7857 4.92172 50.9777 4.66278C50.1699 4.40368 49.2989 4.27417 48.3645 4.27417C47.6834 4.27417 47.0498 4.35335 46.464 4.5117C45.878 4.67013 45.3673 4.90399 44.9319 5.2131C44.496 5.5227 44.1557 5.90052 43.9105 6.34634C43.6646 6.79271 43.5423 7.30348 43.5423 7.87921C43.5423 8.31089 43.6211 8.67785 43.7798 8.98001C43.9378 9.28225 44.1914 9.54855 44.54 9.77865C44.8882 10.0091 45.3394 10.2104 45.894 10.3831C46.4482 10.5558 47.1134 10.7359 47.8896 10.9227C48.9663 11.1816 49.758 11.4191 50.2652 11.635C50.7717 11.8509 51.0254 12.1963 51.0254 12.6712C51.0254 13.1752 50.7999 13.5635 50.3483 13.8368C49.897 14.1104 49.283 14.2469 48.5073 14.2469C47.7471 14.2469 47.0024 14.1211 46.2742 13.8691C45.5456 13.6176 44.8091 13.2468 44.065 12.7574L43.0195 14.2684C43.7323 14.8157 44.5835 15.2365 45.5733 15.5312C46.5628 15.8259 47.5569 15.9738 48.5546 15.9738Z" fill="#EAEAEA"/>
<path d="M65.2292 10.3722C64.8334 10.1208 64.3302 9.90113 63.7209 9.71393C63.1109 9.52722 62.3865 9.3397 61.547 9.15259C61.04 9.0377 60.6166 8.93336 60.2764 8.83972C59.9354 8.74624 59.6584 8.64198 59.4447 8.52677C59.2309 8.41172 59.0765 8.27502 58.9815 8.11651C58.8866 7.95839 58.8389 7.76425 58.8389 7.53375C58.8389 6.9871 59.0644 6.58771 59.516 6.33572C59.9672 6.08421 60.5257 5.95789 61.1909 5.95789C62.4893 5.95789 63.7167 6.37566 64.873 7.20985L65.9894 5.7854C65.3557 5.29612 64.6355 4.92181 63.8275 4.66295C63.0198 4.40376 62.1486 4.27441 61.2144 4.27441C60.5333 4.27441 59.8996 4.35343 59.314 4.51186C58.7278 4.6703 58.2171 4.90407 57.7816 5.21327C57.3459 5.52286 57.0056 5.90061 56.7603 6.34658C56.5144 6.79288 56.392 7.30373 56.392 7.8793C56.392 8.31105 56.4708 8.67793 56.6296 8.9801C56.7876 9.28242 57.0414 9.54879 57.3897 9.77873C57.7381 10.0092 58.1894 10.2105 58.7438 10.3832C59.298 10.556 59.9631 10.7359 60.7395 10.9228C61.816 11.1818 62.6081 11.4192 63.115 11.6351C63.6216 11.851 63.8753 12.1964 63.8753 12.6713C63.8753 13.1753 63.6496 13.5636 63.198 13.8369C62.7469 14.1106 62.1329 14.247 61.3571 14.247C60.5969 14.247 59.8521 14.1212 59.1239 13.8693C58.3953 13.6178 57.659 13.247 56.9148 12.7575L55.8691 14.2686C56.5821 14.8158 57.4334 15.2366 58.4232 15.5314C59.4126 15.8262 60.4069 15.9739 61.4046 15.9739C62.9404 15.9739 64.1561 15.661 65.0512 15.035C65.946 14.4089 66.3934 13.5562 66.3934 12.477C66.3934 12.002 66.2982 11.5956 66.1084 11.2573C65.9183 10.9195 65.6253 10.6242 65.2292 10.3722Z" fill="#EAEAEA"/>
<path d="M81.2654 12.3583C81.5659 11.646 81.7167 10.9011 81.7167 10.124C81.7167 9.34689 81.5659 8.60235 81.2654 7.88976C80.9642 7.17757 80.5329 6.55535 79.9705 6.02269C79.4082 5.4905 78.7352 5.06578 77.9513 4.74907C77.1675 4.43285 76.292 4.27441 75.3263 4.27441C74.36 4.27441 73.4852 4.43285 72.7013 4.74907C71.9173 5.06586 71.2442 5.49058 70.682 6.02269C70.1196 6.55535 69.6882 7.17757 69.3873 7.88976C69.0861 8.60235 68.9358 9.34697 68.9358 10.124C68.9358 10.9011 69.0861 11.646 69.3873 12.3583C69.6882 13.0706 70.1155 13.6932 70.6702 14.2256C71.2243 14.7582 71.8938 15.1828 72.6774 15.499C73.4616 15.8154 74.3441 15.9739 75.3263 15.9739C76.292 15.9739 77.1675 15.8154 77.9513 15.499C78.7352 15.1829 79.4082 14.7583 79.9705 14.2256C80.5329 13.6933 80.9642 13.0706 81.2654 12.3583ZM78.7471 11.6351C78.5571 12.0959 78.2959 12.4987 77.9634 12.844C77.6307 13.1892 77.2388 13.4593 76.7872 13.6534C76.3359 13.8478 75.849 13.9449 75.3263 13.9449C74.8038 13.9449 74.3167 13.8477 73.8654 13.6534C73.414 13.4592 73.022 13.1931 72.6893 12.8548C72.3569 12.5167 72.0954 12.1175 71.9055 11.6568C71.7154 11.1965 71.6205 10.6928 71.6205 10.1457C71.6205 9.61327 71.719 9.11344 71.9173 8.64541C72.1153 8.17818 72.3808 7.77128 72.7134 7.42605C73.046 7.0805 73.4378 6.80726 73.8891 6.60584C74.3405 6.40443 74.8193 6.3036 75.3264 6.3036C75.8491 6.3036 76.336 6.40051 76.7873 6.59498C77.2388 6.78912 77.6308 7.05909 77.9635 7.40432C78.296 7.74971 78.5572 8.15653 78.7472 8.624C78.9373 9.09179 79.0324 9.59209 79.0324 10.1241C79.0323 10.6712 78.9372 11.1748 78.7471 11.6351Z" fill="#EAEAEA"/>
<path d="M103.239 5.65564C102.954 5.23835 102.57 4.90383 102.087 4.652C101.604 4.40025 100.998 4.27417 100.27 4.27417C99.2558 4.27417 98.3531 4.49364 97.5614 4.93251C96.7693 5.37161 96.1123 6.00854 95.5895 6.84289C95.4468 6.10889 95.0785 5.49745 94.4847 5.00809C93.8911 4.51913 93.0791 4.27417 92.0499 4.27417C91.0205 4.27417 90.1058 4.48669 89.3058 4.91078C88.5062 5.3355 87.8605 5.94382 87.3698 6.73495V4.46832H84.9941V15.7578H87.6074V9.04465C87.8765 8.25352 88.3201 7.613 88.9377 7.12356C89.5554 6.63436 90.2364 6.38948 90.9806 6.38948C91.6932 6.38948 92.2399 6.63069 92.6199 7.11277C93 7.59494 93.1899 8.36857 93.1899 9.43326V15.7579H95.8032V9.06638C96.0726 8.27493 96.512 7.6309 97.1219 7.13443C97.7313 6.6378 98.4083 6.38956 99.1531 6.38956C99.8813 6.38956 100.436 6.63444 100.816 7.12364C101.196 7.61308 101.386 8.38311 101.386 9.43334V15.7579H103.999V8.87199C103.999 8.25368 103.943 7.66701 103.833 7.11285C103.722 6.55894 103.524 6.07333 103.239 5.65564Z" fill="#EAEAEA"/>
<path d="M40.6692 8.31956L41.0129 7.99687L40.5443 7.85481C38.6117 7.27006 36.5176 7.43017 34.7407 8.2443C34.5135 7.92073 34.274 7.59867 34.0358 7.27941C33.1753 6.1254 32.3622 5.03546 32.3622 4.13688L32.3449 3.85437H31.7231V4.13688C31.7231 5.0361 30.9135 6.12612 30.0567 7.28021C29.819 7.60027 29.58 7.92304 29.3532 8.2475C27.5745 7.43049 25.4776 7.26918 23.543 7.85473L23.0742 7.99679L23.418 8.31949C24.1843 9.03862 24.3086 10.0672 24.4398 11.1562C24.5832 12.3437 24.7313 13.5713 25.7072 14.5527C26.8238 15.6757 28.6432 16.309 30.596 16.309C31.0732 16.309 31.5585 16.2674 32.0436 16.1894C32.5287 16.2674 33.0138 16.309 33.491 16.309C35.4436 16.309 37.2634 15.6756 38.38 14.5527C39.3558 13.5713 39.5038 12.3437 39.6473 11.1562C39.7786 10.0672 39.903 9.0387 40.6692 8.31956Z" fill="#F69863"/>
<path d="M32.1425 16.0443H31.9576L31.8862 16.0073C29.8439 14.9541 28.0801 14.045 28.0548 11.3514C28.042 9.99226 29.0659 8.61342 30.0561 7.28021C30.913 6.12612 31.7224 5.0361 31.7224 4.13688V3.85437H32.3442L32.3616 4.13688C32.3616 5.03538 33.1745 6.1254 34.0353 7.27933C35.0298 8.61302 36.0585 9.99194 36.0455 11.3515C36.0203 14.0451 34.2564 14.9547 32.2139 16.0073L32.1425 16.0443ZM32.0427 5.33779C31.7123 6.05956 31.1523 6.8141 30.5715 7.59619C29.6343 8.85806 28.6653 10.1628 28.6765 11.3467C28.6973 13.5502 29.9683 14.3629 32.0501 15.4418C34.1319 14.3629 35.4029 13.5501 35.4237 11.3467C35.4347 10.1632 34.4617 8.8583 33.5205 7.59643C32.9371 6.8141 32.3743 6.05956 32.0427 5.33779Z" fill="#EAEAEA"/>
<path d="M30.596 16.3092C28.6432 16.3092 26.824 15.6757 25.7073 14.5528C24.7314 13.5714 24.5835 12.3439 24.44 11.1563C24.3087 10.0673 24.1844 9.03877 23.4181 8.31963L23.0742 7.99701L23.543 7.85488C26.0945 7.08245 28.93 7.60688 30.9427 9.2254C31.4711 9.65069 31.9301 10.1379 32.3067 10.6738L31.7825 10.9777C31.4371 10.4862 31.0157 10.0387 30.5307 9.64861C28.7988 8.25619 26.4025 7.7459 24.1807 8.27225C24.8158 9.08598 24.939 10.1051 25.0581 11.0946C25.1906 12.1927 25.3277 13.3283 26.1688 14.1741C27.4161 15.4283 29.7718 16.0104 32.0314 15.6211L32.1472 16.1762C31.6277 16.2659 31.1073 16.3092 30.596 16.3092Z" fill="#EAEAEA"/>
<path d="M33.4917 16.3091C32.9804 16.3091 32.4602 16.2658 31.9408 16.1761L32.0566 15.621C34.3167 16.0116 36.672 15.4282 37.9191 14.174C38.7602 13.3282 38.8973 12.1926 39.0298 11.0945C39.1491 10.105 39.2721 9.08581 39.9072 8.27216C37.6853 7.74581 35.2888 8.25554 33.5574 9.64852C33.0715 10.0392 32.6503 10.4864 32.3053 10.9777L31.7812 10.6737C32.1573 10.1383 32.616 9.65099 33.1453 9.22531C35.1574 7.60727 37.9927 7.08235 40.545 7.85478L41.0136 7.99692L40.6698 8.31953C39.9035 9.03867 39.7794 10.0672 39.648 11.1562C39.5046 12.3438 39.3565 13.5714 38.3807 14.5527C37.264 15.6756 35.4443 16.3091 33.4917 16.3091Z" fill="#EAEAEA"/>
<path d="M32.3618 10.6908H31.74V15.612H32.3618V10.6908Z" fill="#EAEAEA"/>
<path d="M6.77734 23.37C6.77734 23.1105 6.82896 22.8542 6.93218 22.6007C7.03532 22.3473 7.18594 22.1208 7.38351 21.9212C7.58117 21.7216 7.82271 21.56 8.1083 21.4363C8.39371 21.3126 8.71869 21.2507 9.08324 21.2507C9.51373 21.2507 9.88592 21.3367 10.2001 21.5082C10.514 21.6798 10.7479 21.9032 10.9017 22.1786L10.2033 22.6157C10.1418 22.496 10.0671 22.3952 9.97939 22.3134C9.89146 22.2317 9.79703 22.1667 9.69609 22.1188C9.59497 22.0709 9.48955 22.036 9.37981 22.0141C9.26991 21.9922 9.16237 21.9811 9.05703 21.9811C8.8286 21.9811 8.62979 22.0231 8.46071 22.1068C8.29163 22.1907 8.15103 22.2994 8.0391 22.4331C7.92708 22.5668 7.84249 22.7184 7.78543 22.8879C7.72828 23.0576 7.69979 23.2261 7.69979 23.3938C7.69979 23.5815 7.73276 23.7621 7.79862 23.9355C7.86456 24.1092 7.95786 24.2618 8.07867 24.3936C8.19948 24.5252 8.3443 24.6311 8.51347 24.7109C8.68246 24.7908 8.86817 24.8305 9.07022 24.8305C9.17556 24.8305 9.28538 24.8185 9.39969 24.7947C9.51382 24.7707 9.62258 24.7329 9.72581 24.681C9.82895 24.6292 9.92444 24.5622 10.0124 24.4804C10.1002 24.3987 10.1705 24.2999 10.2232 24.184L10.9677 24.5731C10.893 24.7328 10.7865 24.8735 10.6482 24.9952C10.5098 25.117 10.3539 25.2197 10.1804 25.3034C10.0068 25.3872 9.82139 25.4512 9.62372 25.495C9.42606 25.5389 9.23271 25.5608 9.04402 25.5608C8.71007 25.5608 8.40488 25.497 8.12817 25.3693C7.85155 25.2415 7.61318 25.0751 7.41341 24.8694C7.21355 24.664 7.05766 24.4305 6.94564 24.169C6.83335 23.9077 6.77734 23.6413 6.77734 23.37Z" fill="#EAEAEA"/>
<path d="M17.0231 21.2745V25.525H16.1205V23.7111H13.999V25.525H13.0898V21.2745H13.999V22.9928H16.1204V21.2745H17.0231Z" fill="#EAEAEA"/>
<path d="M19.5 25.5253V21.2749H20.4092V25.5253H19.5Z" fill="#EAEAEA"/>
<path d="M22.8926 25.5253V21.2749H23.8017V24.8011H26.1867V25.5253H22.8926Z" fill="#EAEAEA"/>
<path d="M28.2422 25.5253V21.2749H29.942C30.3241 21.2749 30.659 21.3309 30.9467 21.4426C31.2343 21.5544 31.4748 21.7061 31.6681 21.8975C31.8614 22.0891 32.0064 22.3136 32.103 22.571C32.1995 22.8285 32.2479 23.1029 32.2479 23.3942C32.2479 23.7175 32.1941 24.0099 32.0865 24.2713C31.9788 24.5327 31.824 24.7562 31.622 24.9418C31.42 25.1274 31.1773 25.2711 30.894 25.3729C30.6107 25.4746 30.2933 25.5254 29.942 25.5254H28.2422V25.5253ZM31.3321 23.3941C31.3321 23.1906 31.3014 23.003 31.24 22.8314C31.1783 22.6599 31.0884 22.5122 30.9698 22.3884C30.8512 22.2646 30.7051 22.1689 30.5317 22.1009C30.3581 22.0332 30.1616 21.9992 29.942 21.9992H29.1514V24.801H29.942C30.166 24.801 30.3647 24.7651 30.5382 24.6932C30.7117 24.6215 30.8566 24.5225 30.973 24.3968C31.0894 24.2711 31.1783 24.1225 31.24 23.9509C31.3014 23.7793 31.3321 23.5938 31.3321 23.3941Z" fill="#EAEAEA"/>
<path d="M34.4688 25.5253V21.2749H36.5374C36.7527 21.2749 36.9515 21.316 37.1337 21.3977C37.3158 21.4795 37.473 21.5873 37.6047 21.721C37.7365 21.8547 37.8396 22.0063 37.9144 22.1759C37.9891 22.3456 38.0264 22.5162 38.0264 22.6877C38.0264 22.9631 37.9506 23.2136 37.7992 23.439C37.6475 23.6645 37.4421 23.8271 37.1832 23.927L38.2504 25.5253H37.2292L36.274 24.1006H35.3779V25.5253H34.4688V25.5253ZM35.3779 23.3762H36.5177C36.6011 23.3762 36.6791 23.3583 36.7516 23.3223C36.8241 23.2864 36.8866 23.2375 36.9393 23.1756C36.9921 23.1138 37.0338 23.0408 37.0645 22.9571C37.0952 22.8733 37.1106 22.7835 37.1106 22.6877C37.1106 22.588 37.093 22.4962 37.0579 22.4124C37.0227 22.3286 36.9756 22.2559 36.9163 22.1939C36.857 22.1321 36.7888 22.0842 36.7121 22.0502C36.6352 22.0163 36.5572 21.9992 36.4782 21.9992H35.3779V23.3762Z" fill="#EAEAEA"/>
<path d="M43.5996 24.8007V25.525H40.3516V21.2745H43.5403V21.9989H41.2608V23.0226H43.2307V23.6931H41.2608V24.8006L43.5996 24.8007Z" fill="#EAEAEA"/>
<path d="M46.7218 22.8015V25.5253H45.8125V21.2749H46.5175L48.9553 24.0648V21.2809H49.8645V25.5253H49.1265L46.7218 22.8015Z" fill="#EAEAEA"/>
<path d="M52.3218 22.6576L52.4667 21.9271H52.2031V21.119H53.0926V21.9391L52.8554 22.6576H52.3218Z" fill="#EAEAEA"/>
<path d="M58.1979 22.3883C58.1672 22.3605 58.1113 22.3225 58.03 22.2746C57.9486 22.2267 57.8498 22.1798 57.7335 22.1338C57.6171 22.0881 57.4908 22.049 57.3546 22.0171C57.2184 21.9853 57.08 21.9692 56.9396 21.9692C56.6891 21.9692 56.5024 22.0111 56.3796 22.0949C56.2566 22.1787 56.1951 22.2965 56.1951 22.448C56.1951 22.536 56.2182 22.6089 56.2642 22.6665C56.3103 22.7245 56.3772 22.7753 56.4652 22.8194C56.5529 22.8632 56.6639 22.9032 56.7978 22.9389C56.9317 22.9749 57.0866 23.013 57.2622 23.0527C57.4908 23.1087 57.6981 23.1685 57.8849 23.2324C58.0715 23.2962 58.2297 23.376 58.3593 23.4718C58.4889 23.5675 58.5887 23.6824 58.659 23.8161C58.7294 23.9498 58.7644 24.1145 58.7644 24.31C58.7644 24.5375 58.7171 24.732 58.6229 24.8936C58.5284 25.0552 58.4009 25.186 58.2406 25.2857C58.0802 25.3855 57.8958 25.4584 57.6872 25.5043C57.4785 25.5501 57.26 25.573 57.0318 25.573C56.6803 25.573 56.3335 25.5251 55.9906 25.4293C55.6481 25.3337 55.3406 25.1979 55.0684 25.0223L55.4703 24.3099C55.5098 24.3457 55.5811 24.3927 55.6844 24.4505C55.7876 24.5085 55.9094 24.5664 56.0501 24.6242C56.1906 24.6821 56.3466 24.731 56.5178 24.7708C56.689 24.8108 56.8647 24.8307 57.0448 24.8307C57.5455 24.8307 57.7959 24.685 57.7959 24.3937C57.7959 24.302 57.7673 24.2242 57.7102 24.1602C57.6532 24.0965 57.572 24.0405 57.4664 23.9926C57.3611 23.9447 57.2337 23.9008 57.0844 23.861C56.935 23.8209 56.7681 23.7771 56.5836 23.7291C56.3597 23.6735 56.1652 23.6124 56.0006 23.5467C55.836 23.4808 55.6984 23.4029 55.5889 23.3131C55.4789 23.2234 55.3966 23.1196 55.3417 23.0018C55.2868 22.8842 55.2592 22.7435 55.2592 22.5799C55.2592 22.3643 55.3031 22.1728 55.3911 22.0052C55.4788 21.8375 55.6008 21.6979 55.7567 21.5862C55.9125 21.4744 56.0937 21.3896 56.3002 21.3317C56.5067 21.2739 56.7284 21.2449 56.9657 21.2449C57.295 21.2449 57.5981 21.2918 57.8748 21.3856C58.1516 21.4794 58.3931 21.5903 58.5995 21.7179L58.1979 22.3883Z" fill="#EAEAEA"/>
<path d="M63.7656 23.37C63.7656 23.1105 63.8172 22.8542 63.9205 22.6007C64.0236 22.3473 64.1741 22.1208 64.3718 21.9212C64.5695 21.7216 64.8108 21.56 65.0963 21.4363C65.3819 21.3126 65.7069 21.2507 66.0716 21.2507C66.5019 21.2507 66.8742 21.3367 67.1882 21.5082C67.5022 21.6798 67.736 21.9032 67.8899 22.1786L67.1914 22.6157C67.13 22.496 67.0553 22.3952 66.9674 22.3134C66.8795 22.2317 66.7851 22.1667 66.6842 22.1188C66.5832 22.0709 66.4776 22.036 66.3679 22.0141C66.2581 21.9922 66.1506 21.9811 66.045 21.9811C65.8166 21.9811 65.6179 22.0231 65.4488 22.1068C65.2797 22.1907 65.1392 22.2994 65.0272 22.4331C64.9152 22.5668 64.8307 22.7184 64.7735 22.8879C64.7164 23.0576 64.6878 23.2261 64.6878 23.3938C64.6878 23.5815 64.7209 23.7621 64.7866 23.9355C64.8525 24.1092 64.9458 24.2618 65.0668 24.3936C65.1874 24.5252 65.3323 24.6311 65.5014 24.7109C65.6705 24.7908 65.8561 24.8305 66.0582 24.8305C66.1637 24.8305 66.2733 24.8185 66.3877 24.7947C66.5017 24.7707 66.6104 24.7329 66.7137 24.681C66.8169 24.6292 66.9124 24.5622 67.0004 24.4804C67.0882 24.3987 67.1584 24.2999 67.2111 24.184L67.9555 24.5731C67.8809 24.7328 67.7744 24.8735 67.6361 24.9952C67.4977 25.117 67.3418 25.2197 67.1683 25.3034C66.9948 25.3872 66.8091 25.4512 66.6117 25.495C66.4141 25.5389 66.2206 25.5608 66.0318 25.5608C65.6981 25.5608 65.3927 25.497 65.116 25.3693C64.8394 25.2415 64.6011 25.0751 64.4013 24.8694C64.2014 24.664 64.0456 24.4305 63.9336 24.169C63.8216 23.9077 63.7656 23.6413 63.7656 23.37Z" fill="#EAEAEA"/>
<path d="M73.3261 24.8007V25.525H70.0781V21.2745H73.2669V21.9989H70.9872V23.0226H72.9572V23.6931H70.9872V24.8006L73.3261 24.8007Z" fill="#EAEAEA"/>
<path d="M76.4542 22.8015V25.5253H75.5449V21.2749H76.2499L78.6876 24.0648V21.2809H79.5969V25.5253H78.8589L76.4542 22.8015Z" fill="#EAEAEA"/>
<path d="M85.5792 21.9992H84.0839V25.5253H83.1813V21.9992H81.6855V21.2749H85.5791L85.5792 21.9992Z" fill="#EAEAEA"/>
<path d="M90.9162 24.8008V25.5251H87.6682V21.2747H90.8569V21.999H88.5775V23.0227H90.5473V23.6932H88.5775V24.8008L90.9162 24.8008Z" fill="#EAEAEA"/>
<path d="M93.1289 25.5253V21.2749H95.1977C95.4127 21.2749 95.6116 21.316 95.7939 21.3977C95.9762 21.4795 96.133 21.5873 96.2648 21.721C96.3967 21.8547 96.4999 22.0063 96.5745 22.1759C96.6491 22.3456 96.6864 22.5162 96.6864 22.6877C96.6864 22.9631 96.6106 23.2136 96.4592 23.439C96.3076 23.6645 96.1023 23.8271 95.8431 23.927L96.9105 25.5253H95.8892L94.934 24.1006H94.0381V25.5253H93.1289V25.5253ZM94.0382 23.3762H95.178C95.2612 23.3762 95.3394 23.3583 95.4117 23.3223C95.4841 23.2864 95.5467 23.2375 95.5996 23.1756C95.6523 23.1138 95.6938 23.0408 95.7248 22.9571C95.7556 22.8733 95.7708 22.7835 95.7708 22.6877C95.7708 22.588 95.7533 22.4962 95.7182 22.4124C95.683 22.3286 95.6357 22.2559 95.5765 22.1939C95.5172 22.1321 95.4491 22.0842 95.3722 22.0502C95.2955 22.0163 95.2174 21.9992 95.1385 21.9992H94.0382V23.3762Z" fill="#EAEAEA"/>
</svg>
