<svg width="104" height="22" viewBox="0 0 104 22" fill="none" xmlns="http://www.w3.org/2000/svg">
<g clip-path="url(#clip0_1053_37839)">
<path d="M24.4711 21.5187L24.8603 21.0574C25.1303 21.2781 25.4125 21.4169 25.7541 21.4169C26.0241 21.4169 26.1861 21.311 26.1861 21.1386V21.1303C26.1861 20.9659 26.0842 20.8814 25.5833 20.7542C24.9798 20.6031 24.591 20.4381 24.591 19.8513V19.8436C24.591 19.3078 25.0277 18.9534 25.639 18.9534C26.0754 18.9534 26.4474 19.0878 26.7515 19.3281L26.4082 19.8174C26.1433 19.6363 25.8824 19.5271 25.6296 19.5271C25.3778 19.5271 25.2448 19.641 25.2448 19.7841V19.7924C25.2448 19.9871 25.373 20.05 25.8901 20.1808C26.4987 20.3372 26.8403 20.5519 26.8403 21.0671V21.0747C26.8403 21.6618 26.387 21.99 25.7406 21.99C25.273 21.9916 24.821 21.8239 24.4705 21.5187" fill="white"/>
<path d="M29.4903 18.9738H30.0979L31.3826 21.9491H30.694L30.4192 21.2868H29.1528L28.8794 21.9491H28.207L29.4903 18.9738ZM30.184 20.7124L29.7857 19.7552L29.3874 20.7124H30.184Z" fill="white"/>
<path d="M34.839 18.9954V19.5944H33.9276V21.9488H33.2688V19.5944H32.3574V18.9954H34.839Z" fill="white"/>
<path d="M37.1108 19.5735V20.1726H38.5238V20.7507H37.1108V21.3707H38.7371V21.9485H36.457V18.9948H38.7151V19.5728L37.1108 19.5735Z" fill="white"/>
<path d="M42.5893 21.358V21.9487H40.4375V18.995H41.0957V21.358H42.5893Z" fill="white"/>
<path d="M47.9883 18.9954H48.6471V21.9488H47.9883V18.9954Z" fill="white"/>
<path d="M77.9413 18.9445C77.0164 18.9445 76.3454 19.6334 76.3454 20.4734V20.4807C76.3454 21.3204 77.009 21.999 77.9335 21.999C78.8577 21.999 79.53 21.3114 79.53 20.4727V20.4638C79.53 19.6244 78.8651 18.9448 77.9416 18.9448L77.9413 18.9445ZM77.9345 19.5435C78.4655 19.5435 78.8408 19.9662 78.8408 20.4764C78.8408 20.9869 78.4722 21.401 77.9419 21.401C77.4107 21.401 77.036 20.9789 77.036 20.4677C77.036 19.9565 77.4032 19.5435 77.9338 19.5435H77.9345ZM60.7712 18.9944V21.9481H61.4311V21.0029H61.9469L62.5899 21.9481H63.3595L62.6287 20.8931C63.0091 20.7533 63.2693 20.4551 63.2693 20.0734C63.2693 19.6913 63.1802 19.4593 63.0128 19.2946C62.817 19.1005 62.5207 18.9944 62.1396 18.9944H60.7712ZM61.4294 19.5828H62.0842C62.4056 19.5828 62.602 19.7249 62.602 19.9932C62.602 20.2611 62.4164 20.4305 62.0967 20.4305H61.4284L61.4294 19.5828ZM69.4685 18.995V21.9488H70.6364C71.5781 21.9488 72.2288 21.3024 72.2288 20.4671C72.2288 19.6317 71.5774 18.9947 70.6367 18.9947L69.4685 18.995ZM70.1287 19.5828H70.6367C71.1761 19.5828 71.5393 19.9489 71.5393 20.4761C71.5393 21.0036 71.1761 21.3614 70.6367 21.3614H70.1287V19.5828Z" fill="white"/>
<path d="M9.53763 14.2844C9.69547 14.4778 9.92471 14.6017 10.175 14.6287C10.4254 14.6557 10.6764 14.5837 10.8729 14.4285C10.9701 14.3512 11.0509 14.2559 11.1107 14.1478C11.1705 14.0398 11.2082 13.9212 11.2215 13.7988C11.2348 13.6764 11.2236 13.5526 11.1884 13.4346C11.1532 13.3165 11.0947 13.2064 11.0164 13.1105C10.2232 12.1433 9.79278 10.9358 9.79787 9.69187C9.79787 8.45946 10.2029 7.29661 10.9725 6.32878C11.1269 6.13294 11.1964 5.88479 11.1658 5.63857C11.1351 5.39236 11.0069 5.1681 10.8091 5.01483C10.711 4.93878 10.5986 4.88259 10.4784 4.8495C10.3582 4.81641 10.2325 4.80706 10.1086 4.822C9.98472 4.83693 9.86504 4.87586 9.75645 4.93654C9.64787 4.99722 9.55251 5.07846 9.47586 5.17558C8.44301 6.47489 7.8989 8.03678 7.8989 9.69187C7.8989 11.3583 8.48115 12.9894 9.53797 14.2847L9.53763 14.2844ZM7.53133 2.73339C7.33047 2.58386 7.07766 2.51898 6.82835 2.55298C6.57904 2.58698 6.35359 2.7171 6.20144 2.91478C4.67714 4.89236 3.87043 7.25467 3.87043 9.74678C3.87043 12.2169 4.66364 14.5633 6.16431 16.5322C6.31569 16.7304 6.54058 16.8613 6.78968 16.8962C7.03878 16.9311 7.29177 16.8673 7.49319 16.7186C7.69423 16.5693 7.82696 16.3475 7.86221 16.1018C7.89747 15.8561 7.83236 15.6067 7.68119 15.4083C6.43096 13.7662 5.76906 11.8086 5.76906 9.74712C5.76906 7.66769 6.44075 5.69677 7.71157 4.04601C7.8638 3.84818 7.93025 3.59889 7.89633 3.35282C7.86241 3.10675 7.73091 2.88399 7.53065 2.73339H7.53133ZM1.90328 9.71483C1.90328 6.75212 2.79572 3.89924 4.48677 1.46504C4.6291 1.26013 4.68306 1.00785 4.63675 0.763717C4.59045 0.519582 4.44768 0.303583 4.23986 0.163237C4.03204 0.0228917 3.77619 -0.0303043 3.52859 0.0153521C3.281 0.0610085 3.06193 0.201777 2.9196 0.406691C1.01118 3.1544 0.00195312 6.37238 0.00195312 9.7155C0.00195312 13.0663 1.01557 16.2912 2.93445 19.0429C3.005 19.1443 3.09514 19.2309 3.19969 19.2979C3.30425 19.3648 3.42117 19.4108 3.54377 19.4331C3.66636 19.4554 3.79222 19.4537 3.91413 19.4279C4.03604 19.4022 4.1516 19.3531 4.25421 19.2832C4.35705 19.2137 4.44499 19.1249 4.513 19.0219C4.58101 18.9189 4.62774 18.8036 4.65053 18.6827C4.67332 18.5619 4.67172 18.4378 4.64582 18.3175C4.61992 18.1973 4.57023 18.0832 4.4996 17.9819C2.79944 15.5447 1.90396 12.6855 1.90396 9.71483H1.90328ZM93.134 14.4285C93.3307 14.5838 93.5818 14.6559 93.8322 14.6289C94.0827 14.6019 94.3121 14.478 94.47 14.2844C95.5289 12.9812 96.1066 11.3614 96.108 9.69153C96.108 8.03645 95.5633 6.47456 94.5324 5.17525C94.4557 5.07819 94.3602 4.99701 94.2516 4.93637C94.143 4.87572 94.0233 4.83681 93.8994 4.82184C93.7755 4.80688 93.6498 4.81617 93.5295 4.84917C93.4092 4.88217 93.2968 4.93824 93.1985 5.01417C93.1002 5.0899 93.018 5.18401 92.9566 5.29112C92.8952 5.39822 92.8559 5.51621 92.8409 5.63833C92.8258 5.76045 92.8353 5.88429 92.8689 6.00277C92.9025 6.12125 92.9594 6.23204 93.0365 6.32878C93.8016 7.28694 94.2155 8.47206 94.2111 9.69153C94.2111 10.9496 93.7882 12.1334 92.9909 13.1109C92.9125 13.2067 92.854 13.3168 92.8188 13.4349C92.7836 13.553 92.7723 13.6768 92.7856 13.7992C92.799 13.9215 92.8366 14.0402 92.8965 14.1482C92.9563 14.2562 93.0371 14.3516 93.1344 14.4288M96.5131 16.7186C96.7147 16.8672 96.9678 16.9311 97.2171 16.8961C97.4663 16.8612 97.6913 16.7304 97.843 16.5322C99.3436 14.5636 100.136 12.2156 100.136 9.74612C100.136 7.25434 99.3312 4.89136 97.8072 2.91444C97.655 2.71676 97.4296 2.58665 97.1803 2.55265C96.931 2.51865 96.6782 2.58353 96.4773 2.73306C96.3779 2.8074 96.2943 2.90033 96.2313 3.00653C96.1683 3.11273 96.1271 3.23012 96.1101 3.35201C96.0931 3.4739 96.1007 3.59789 96.1323 3.71691C96.1639 3.83593 96.219 3.94765 96.2944 4.04568C97.5662 5.69644 98.2379 7.66736 98.2379 9.74678C98.2379 11.8069 97.5783 13.7655 96.3257 15.4079C96.2507 15.5061 96.196 15.6179 96.1648 15.7369C96.1336 15.856 96.1266 15.9799 96.144 16.1016C96.1614 16.2234 96.203 16.3405 96.2664 16.4464C96.3298 16.5522 96.4134 16.6447 96.5131 16.7186ZM99.5208 1.4657C101.211 3.89957 102.104 6.75279 102.104 9.7145C102.104 12.6852 101.205 15.5454 99.5084 17.9816C99.4377 18.0829 99.3879 18.1969 99.362 18.3171C99.336 18.4373 99.3344 18.5614 99.3571 18.6823C99.3798 18.8031 99.4265 18.9184 99.4945 19.0215C99.5624 19.1245 99.6503 19.2134 99.7531 19.2829C99.8556 19.3528 99.9712 19.402 100.093 19.4278C100.215 19.4536 100.341 19.4554 100.463 19.4332C100.586 19.4109 100.703 19.365 100.808 19.2981C100.912 19.2312 101.002 19.1446 101.073 19.0433C102.988 16.2909 104.001 13.0659 104.001 9.7145C104.001 6.37305 102.993 3.15374 101.086 0.406358C100.942 0.204131 100.724 0.0659447 100.477 0.0218742C100.231 -0.0221962 99.9772 0.0314158 99.7708 0.171043C99.5644 0.310669 99.4224 0.525009 99.3755 0.767415C99.3286 1.00982 99.3807 1.26067 99.5205 1.46537" fill="white"/>
<path d="M18.4425 4.00539C16.1607 4.00539 13.2505 4.8108 13.2505 7.57782C13.2505 11.7679 19.9715 10.3854 19.9715 12.1201C19.9715 12.8845 19.2593 13.0899 18.5896 13.0899C18.1711 13.0899 17.7937 12.9667 17.521 12.7597C17.2284 12.5334 17.0609 12.2023 17.0609 11.7679H12.916C13.1455 14.6791 15.9089 15.4429 18.4212 15.4429C22.4422 15.4429 24.3264 13.9163 24.3264 11.6654C24.3264 7.61776 17.3968 8.63018 17.3968 7.12319C17.3968 6.58637 17.8774 6.35939 18.6311 6.35939C18.9653 6.35939 19.2792 6.44126 19.5104 6.62697C19.7406 6.81268 19.8871 7.06062 19.9296 7.41241H23.8872C23.6354 4.54189 20.8302 4.00439 18.4428 4.00439L18.4425 4.00539ZM80.1707 4.00706C78.6005 4.00706 77.6102 5.10002 77.0654 5.92573V4.31558H73.0656V15.134H77.4208V9.78571C77.4208 8.48607 77.4512 7.36282 78.6477 7.39277C79.8082 7.42273 79.9034 8.03178 79.9034 9.62163V15.134H84.2576V9.7867C84.2576 8.4864 84.2474 7.39876 85.4727 7.39477C86.6244 7.39144 86.73 8.03111 86.73 9.6213V15.1337H91.0842V8.73368C91.0842 5.78162 89.7256 4.00772 86.9646 4.00772C85.3765 4.00772 84.5512 4.68666 83.6085 5.98697C83.0846 4.83077 81.9866 4.00672 80.1707 4.00672V4.00706Z" fill="white"/>
<path d="M25.0605 4.02307V5.68914H28.5979V4.02307H25.0605ZM25.0605 6.40535V15.1923H28.5979V6.40535H25.0605Z" fill="white"/>
<path d="M35.5207 6.15234C34.1429 6.15234 33.2754 6.80799 32.7833 8.18184H32.7479V6.40462H29.5332V15.1916H33.0722V12.1563C33.0716 10.2616 33.8037 9.59098 35.2487 9.59098C35.4863 9.59098 35.7421 9.65754 35.9798 9.69082V6.2036C35.8272 6.18829 35.6733 6.15301 35.5207 6.15301V6.15234ZM55.6972 6.15367C53.8434 6.15367 51.4787 6.80765 51.4787 9.05481C51.4787 12.4595 56.9389 11.3363 56.9389 12.7444C56.9389 13.3648 56.3597 13.5322 55.816 13.5322C55.4757 13.5322 55.1699 13.4317 54.9485 13.2636C54.7109 13.0792 54.5749 12.8103 54.5749 12.4595H51.2073C51.3936 14.8245 53.6395 15.4438 55.6796 15.4438C58.9459 15.4438 60.476 14.2034 60.476 12.3753C60.476 9.0881 54.8466 9.91015 54.8466 8.68639C54.8466 8.2504 55.2371 8.06602 55.8507 8.06602C56.1214 8.06602 56.3766 8.13359 56.5629 8.28335C56.7513 8.43445 56.8701 8.63547 56.9049 8.92002H60.1192C59.914 6.58966 57.6363 6.15334 55.6965 6.15334L55.6972 6.15367ZM41.1393 6.40462V11.7543C41.1393 14.2703 42.3966 15.4432 44.3358 15.4432C45.7986 15.4432 46.6654 15.1077 47.5501 13.9003V15.1916H50.8319V6.40462H47.2946V10.63C47.2946 11.9879 46.9712 12.7434 45.9512 12.7434C45.1006 12.7434 44.6753 12.358 44.6753 11.1512V6.40462H41.1393Z" fill="white"/>
<path d="M65.1296 4.31531L66.5122 7.02042L67.9781 4.31531H72.7518L69.0035 9.45628L72.794 15.1341H67.9359L66.3859 12.0366L64.7951 15.1341H59.9785L63.9155 9.47625L60.2928 4.31531H65.1296Z" fill="white"/>
<path d="M90.4753 3.13513V3.3275H90.0959V4.31596H89.884V3.3275H89.5039V3.13513H90.4753ZM91.6513 3.13513H91.8751V4.31596H91.6651V3.46894L91.2871 4.02541H91.2803L90.9057 3.47227V4.31596H90.6984V3.13513H90.9222L91.2868 3.69293L91.6513 3.13513Z" fill="white"/>
<path d="M36.7324 4.02307V5.68914H40.2698V4.02307H36.7324ZM36.7324 6.40535V15.1923H40.2698V6.40535H36.7324Z" fill="white"/>
<path d="M46.349 21.358V21.9487H44.1973V18.995H44.8555V21.358H46.349Z" fill="white"/>
<path d="M52.7765 18.9954V19.5944H51.8651V21.9488H51.2063V19.5944H50.2949V18.9954H52.7765Z" fill="white"/>
<path d="M55.0481 19.5735V20.1726H56.461V20.7507H55.0481V21.3707H56.6743V21.9485H54.3943V18.9948H56.6524V19.5728L55.0481 19.5735Z" fill="white"/>
<path d="M66.0021 18.9738H66.6096L67.8943 21.9491H67.2057L66.9309 21.2868H65.6645L65.3911 21.9491H64.7188L66.0021 18.9738ZM66.6957 20.7124L66.2974 19.7552L65.8991 20.7124H66.6957Z" fill="white"/>
<path d="M73.957 18.9954H74.6159V21.9488H73.957V18.9954Z" fill="white"/>
</g>
<defs>
<clipPath id="clip0_1053_37839">
<rect width="104" height="22" fill="white"/>
</clipPath>
</defs>
</svg>
