<svg width="50" height="61" viewBox="0 0 50 61" fill="none" xmlns="http://www.w3.org/2000/svg">
<g clip-path="url(#clip0_1173_23168)">
<path d="M27.3152 32.6919C29.5607 32.7096 31.8062 32.7139 34.0517 32.7047C40.2532 32.7184 45.0971 35.574 44.9184 42.3187C44.8423 45.1864 44.2172 46.8666 42.1484 48.9136C41.8032 49.3149 41.2796 49.646 40.8294 49.9312C39.4694 50.792 37.9637 51.2803 36.3783 51.5234C35.2432 51.6978 34.0542 51.6191 32.908 51.6357C31.0202 51.646 29.1267 51.5981 27.2407 51.6665C27.3282 45.4492 27.2088 39.2045 27.2425 32.9849C27.2431 32.8715 27.2446 32.7854 27.3152 32.6919ZM31.7492 47.6643C34.2541 47.4652 36.4421 48.092 38.5788 46.0796C39.0634 45.5694 39.4748 45.0766 39.715 44.4236C40.4559 42.4103 40.2115 39.6137 38.5628 38.0993C36.743 36.4277 33.964 36.6344 31.7236 36.6165C31.809 37.1352 31.7831 38.1178 31.7823 38.6713L31.7767 41.9211L31.7781 45.5817C31.7783 46.1602 31.8047 47.1156 31.7492 47.6643Z" fill="white"/>
<path d="M9.52754 32.6787C10.0137 32.7346 10.9448 32.7075 11.4677 32.7072L14.9808 32.7063L19.4259 32.71C20.2459 32.7104 21.4227 32.746 22.2124 32.6416C22.2479 33.9424 22.1802 35.3006 22.2485 36.6014C21.6116 36.6315 20.4403 36.5811 19.7476 36.5799L13.9172 36.5786C13.9862 37.4284 14.0205 39.3312 13.9178 40.152C14.3994 40.1181 15.131 40.1451 15.6343 40.1458L19.1533 40.1472C20.0149 40.1467 20.9217 40.1637 21.7764 40.0803C21.7594 41.3425 21.7602 42.6048 21.7784 43.8669C20.0033 43.7244 18.1039 43.8667 16.3183 43.815C15.5225 43.7919 14.705 43.8633 13.9106 43.8164C13.9358 44.016 13.9383 44.2087 13.9441 44.4092C13.9444 45.4276 13.9772 46.7119 13.9267 47.7068C15.1152 47.659 16.5133 47.6951 17.7275 47.6952L22.734 47.679C22.7371 48.8921 22.6232 50.4825 22.7552 51.6666C18.3695 51.5176 13.7843 51.6944 9.3833 51.6495C9.42393 47.3826 9.43306 43.1155 9.4106 38.8485L9.40762 34.9437C9.40723 34.2994 9.40522 33.6481 9.40952 33.0034C9.41074 32.8208 9.42744 32.7986 9.52754 32.6787Z" fill="white"/>
<path d="M40.1701 9.49663C40.3321 9.48759 40.2741 9.4708 40.4003 9.5455C40.4963 9.93911 40.4259 12.8726 40.4169 13.4492C37.8166 13.4595 35.203 13.3628 32.6001 13.4422C32.4221 13.4477 32.2422 13.445 32.0641 13.4417C32.1319 14.4084 32.0819 15.9816 32.0811 16.9948L37.0154 17.0022C37.757 17.0028 39.2718 17.0447 39.9447 16.9008C39.9403 17.6074 39.8824 20.1387 40.0001 20.7187C39.4327 20.6308 37.8763 20.662 37.2362 20.6615C35.5048 20.6508 33.7732 20.6602 32.0419 20.6897C32.0983 21.1582 32.082 21.933 32.0814 22.4182C32.0806 23.0982 32.102 23.8749 32.065 24.5484C32.5105 24.5037 33.5238 24.5477 34.0265 24.5495L38.2656 24.555C38.8189 24.5536 39.879 24.5627 40.406 24.4629C40.4344 24.5981 40.426 24.7066 40.4272 24.8428C40.4381 26.065 40.389 27.301 40.4433 28.5215C40.0149 28.4559 39.1397 28.4748 38.6751 28.4746L35.678 28.4747L30.6666 28.4754C29.6885 28.4757 28.5847 28.4517 27.6226 28.5002C27.702 26.2488 27.6418 23.6283 27.6421 21.3525L27.6345 9.55805C28.4168 9.47548 30.2801 9.52705 31.1525 9.52768L36.571 9.53134C37.7431 9.53188 39.0062 9.5518 40.1701 9.49663Z" fill="white"/>
<path d="M16.2354 9.09404C18.7829 8.92685 21.2214 9.67661 23.177 11.3289C22.6542 12.258 21.4827 13.2413 20.7518 14.0438C20.7041 14.0961 20.3646 14.3937 20.3125 14.3728C20.0229 14.2121 19.6983 13.9813 19.4357 13.7539C18.0353 12.5415 14.4872 12.3066 14.3296 14.7612C14.2399 16.1598 16.0874 16.5516 17.1396 16.9214C18.6558 17.4544 20.499 17.974 21.6559 19.1566C22.7592 20.2546 23.1152 21.3925 23.081 22.9203C22.9831 27.2899 19.3438 29.0539 15.3667 29.0022C13.0892 28.8681 10.2599 27.9787 8.71094 26.2379C9.5502 25.2963 10.7487 24.0499 11.6964 23.2198C11.9754 23.3989 12.3943 23.8362 12.7322 24.065C14.0106 24.9308 15.111 25.3591 16.6568 25.104C17.2666 25.0049 17.8106 24.6644 18.1661 24.1592C18.4238 23.7914 18.5016 23.2754 18.4162 22.8436C18.0291 21.2715 15.5018 20.8353 14.2172 20.3716C12.0748 19.5982 10.1309 18.5356 9.7417 16.079C9.45156 14.2475 9.90796 12.1319 11.3758 10.8811C12.2323 10.1511 13.423 9.6039 14.5203 9.34985C15.0597 9.23257 15.6811 9.18569 16.2354 9.09404Z" fill="white"/>
<path d="M0 0H50V28.4291C49.6504 28.527 46.6897 28.4725 46.0533 28.4938L46.0655 12.1773L46.0659 6.67378C46.0662 5.97588 46.0244 4.5573 46.0825 3.9179C44.2634 3.85669 42.2217 3.90136 40.3842 3.9013L29.9208 3.90118L3.95761 3.91039C4.02764 4.43023 3.99654 5.73701 3.99628 6.30571L3.99514 10.7838L3.99406 26.0938L3.99413 47.1734L3.99589 53.8101C3.99647 54.6938 4.04945 56.3525 3.98079 57.1943C6.87339 57.1206 10.0546 57.186 12.9745 57.1865L30.3371 57.187H43.5414L47.7738 57.1836C48.4091 57.1821 49.0493 57.1738 49.6846 57.1719C49.813 57.1714 49.9082 57.252 50 57.3335V60.9375H0V0Z" fill="white"/>
</g>
<defs>
<clipPath id="clip0_1173_23168">
<rect width="50" height="60.9375" fill="white"/>
</clipPath>
</defs>
</svg>
