<svg width="131" height="20" viewBox="0 0 131 20" fill="none" xmlns="http://www.w3.org/2000/svg">
<path d="M29.6118 11.5005H32.319V19.979H33.8091V11.5005H36.5163V10.1574H30.9549L29.6118 11.5005ZM15.8027 14.5645V19.979L35.6559 0L15.8027 14.5645ZM44.4911 14.7324C44.8479 14.2707 45.0368 13.7251 45.0368 13.0535C45.0368 12.2141 44.7639 11.5215 44.1973 10.9969C43.6517 10.4722 42.8962 10.1994 41.9937 10.1994H38.1952V20H39.6852V15.8657H41.553L43.6097 20H45.3516L43.085 15.6558C43.6517 15.4879 44.1134 15.1731 44.4911 14.7324ZM39.6643 14.5855V11.5215H41.8678C42.3715 11.5215 42.7702 11.6684 43.064 11.9412C43.3788 12.2141 43.5257 12.5918 43.5257 13.0745C43.5257 13.5572 43.3788 13.9349 43.064 14.2078C42.7492 14.4806 42.3505 14.6065 41.8468 14.6065H39.6643V14.5855ZM0 19.979L14.1028 5.79224L0 14.5645V19.979ZM59.6013 19.979H65.8762V18.6359H61.0913V15.6978H65.1627V14.3757H61.0913V11.5215H65.8762V10.1784H59.6013V19.979ZM76.7052 10.1784V11.5215H79.3915V20H80.8815V11.5215H83.5677V10.1784H76.7052ZM73.5153 17.0619L71.7734 14.4176L68.9822 10.1784H67.6181V19.979H69.1081V13.0745L70.6611 15.425L73.6412 19.979H75.0053V10.1784H73.5153V17.0619ZM56.957 11.1018C56.3484 10.4932 55.488 10.1784 54.4177 10.1784H50.9759V19.979H54.4177C55.488 19.979 56.3274 19.6642 56.957 19.0556C57.3768 18.6359 57.6496 18.1112 57.7755 17.5026C57.9014 16.894 57.9644 16.0546 57.9644 15.0052C57.9644 13.9769 57.9014 13.1584 57.7965 12.5918C57.6496 12.0252 57.3768 11.5215 56.957 11.1018ZM56.3694 16.936C56.3064 17.3767 56.1595 17.7335 55.9287 17.9853C55.53 18.426 54.9633 18.6359 54.2708 18.6359H52.4659V11.5005H54.2708C54.9843 11.5005 55.53 11.7314 55.9287 12.1511C56.1595 12.4029 56.3064 12.7387 56.3694 13.1584C56.4324 13.5572 56.4534 14.1868 56.4534 15.0052C56.4534 15.8447 56.4324 16.4743 56.3694 16.936ZM47.1984 19.979H48.6884V10.1784H47.1984V19.979Z" fill="#067262"/>
<path d="M115.761 16.5792C115.761 17.2298 115.572 17.7335 115.215 18.1112C114.858 18.489 114.355 18.6779 113.767 18.6779C113.159 18.6779 112.676 18.489 112.319 18.1112C111.962 17.7335 111.773 17.2298 111.773 16.5792V10.1784H110.304V16.6632C110.304 17.1459 110.388 17.6076 110.556 18.0063C110.724 18.426 110.976 18.7618 111.291 19.0766C111.606 19.3704 111.983 19.6013 112.403 19.7691C112.823 19.937 113.284 20 113.767 20C114.25 20 114.712 19.916 115.131 19.7691C115.551 19.6222 115.929 19.3914 116.244 19.0766C116.558 18.7828 116.789 18.426 116.978 18.0063C117.146 17.5866 117.251 17.1459 117.251 16.6632V10.1784H115.782V16.5792M87.9959 15.9286H90.6612V16.4743C90.6612 17.1039 90.4933 17.6075 90.1785 17.9853C89.7797 18.447 89.2551 18.6569 88.6045 18.6569C88.3317 18.6569 88.0588 18.5939 87.807 18.489C87.5552 18.384 87.3453 18.2371 87.1774 18.0693C87.0515 17.9433 86.9466 17.7964 86.8836 17.6495C86.8207 17.5026 86.7577 17.3347 86.7157 17.1039C86.6737 16.894 86.6318 16.6212 86.6318 16.3064C86.6108 15.9916 86.6108 15.5719 86.6108 15.0682C86.6108 14.5645 86.6108 14.1448 86.6318 13.83C86.6528 13.5152 86.6737 13.2424 86.7157 13.0325C86.7577 12.8227 86.8207 12.6338 86.8836 12.4869C86.9676 12.34 87.0515 12.1931 87.1774 12.0672C87.3453 11.8783 87.5552 11.7314 87.807 11.6264C88.0588 11.5215 88.3107 11.4795 88.6045 11.4795C89.1291 11.4795 89.5699 11.6264 89.9266 11.9202C90.2834 12.2141 90.5143 12.6338 90.6402 13.1584H92.1092C91.9623 12.277 91.5846 11.5635 90.976 10.9968C90.3673 10.4302 89.5699 10.1574 88.6045 10.1574C87.5971 10.1574 86.7577 10.4932 86.0651 11.1857C85.8343 11.4166 85.6664 11.6474 85.5405 11.8993C85.4146 12.1511 85.3096 12.4239 85.2677 12.7177C85.2047 13.0115 85.1837 13.3263 85.1627 13.6621C85.1417 13.9979 85.1417 14.4596 85.1417 15.0682C85.1417 15.6768 85.1417 16.1385 85.1627 16.4743C85.1837 16.8101 85.2047 17.1249 85.2677 17.4187C85.3306 17.7125 85.4146 17.9853 85.5405 18.2371C85.6664 18.489 85.8553 18.7198 86.0651 18.9507C86.7577 19.6432 87.5971 19.979 88.6045 19.979C89.1291 19.979 89.6118 19.8951 90.0525 19.7062C90.4933 19.5383 90.892 19.2445 91.2488 18.8667C91.5636 18.531 91.7944 18.1532 91.9203 17.7335C92.0463 17.3137 92.1092 16.7891 92.1092 16.1595V14.6904H89.2131L87.9959 15.9286ZM7.91187 19.979L24.9318 2.87512L7.91187 14.5645V19.979ZM125.352 11.9412C125.205 11.5845 124.995 11.2697 124.722 10.9968C124.155 10.4512 123.4 10.1784 122.476 10.1784H118.825V19.979H120.294V16.0336H122.497C123.421 16.0336 124.176 15.7608 124.743 15.1941C125.016 14.9423 125.226 14.6275 125.373 14.2707C125.52 13.914 125.582 13.5362 125.582 13.1165C125.561 12.6758 125.478 12.298 125.352 11.9412ZM123.631 14.2707C123.316 14.5645 122.896 14.6904 122.393 14.6904H120.273V11.4795H122.393C122.896 11.4795 123.316 11.6264 123.631 11.9202C123.946 12.2141 124.092 12.6128 124.092 13.0955C124.092 13.5992 123.946 13.9769 123.631 14.2707ZM108.584 12.7177C108.521 12.4239 108.437 12.1511 108.311 11.8993C108.185 11.6474 108.017 11.4166 107.807 11.2067C107.114 10.5142 106.275 10.1784 105.268 10.1784C104.26 10.1784 103.421 10.5142 102.728 11.2067C102.497 11.4376 102.33 11.6684 102.204 11.9202C102.078 12.1721 101.994 12.4449 101.931 12.7387C101.868 13.0325 101.826 13.3473 101.826 13.6831C101.805 14.0189 101.805 14.4806 101.805 15.0892C101.805 15.6978 101.805 16.1595 101.826 16.4953C101.847 16.8311 101.868 17.1459 101.931 17.4397C101.994 17.7335 102.078 18.0063 102.204 18.2581C102.33 18.51 102.518 18.7408 102.749 18.9717C103.442 19.6642 104.281 20 105.289 20C106.296 20 107.156 19.6642 107.828 18.9717C108.038 18.7618 108.206 18.531 108.332 18.2791C108.458 18.0483 108.542 17.7754 108.605 17.4606C108.667 17.1668 108.688 16.852 108.709 16.4953C108.73 16.1595 108.73 15.6768 108.73 15.0892C108.73 14.5016 108.73 14.0189 108.709 13.6831C108.688 13.3263 108.646 13.0115 108.584 12.7177ZM107.24 16.3064C107.219 16.6422 107.198 16.894 107.156 17.1039C107.114 17.3137 107.052 17.5026 106.968 17.6495C106.884 17.7964 106.8 17.9433 106.674 18.0693C106.506 18.2581 106.296 18.384 106.044 18.51C105.792 18.6149 105.52 18.6779 105.247 18.6779C104.974 18.6779 104.701 18.6149 104.449 18.51C104.197 18.405 103.988 18.2581 103.82 18.0693C103.694 17.9433 103.589 17.7964 103.526 17.6495C103.463 17.5026 103.4 17.3137 103.358 17.1039C103.316 16.894 103.295 16.6212 103.274 16.3064C103.253 15.9916 103.253 15.5719 103.253 15.0682C103.253 14.5645 103.253 14.1658 103.274 13.83C103.295 13.4942 103.316 13.2424 103.358 13.0325C103.4 12.8227 103.442 12.6338 103.526 12.4869C103.61 12.34 103.694 12.1931 103.82 12.0672C103.988 11.8783 104.197 11.7314 104.449 11.6264C104.701 11.5215 104.974 11.4795 105.247 11.4795C105.52 11.4795 105.792 11.5425 106.044 11.6264C106.296 11.7314 106.506 11.8783 106.674 12.0672C106.8 12.1931 106.905 12.34 106.968 12.4869C107.031 12.6338 107.093 12.8017 107.135 13.0325C107.177 13.2424 107.198 13.5152 107.219 13.83C107.24 14.1448 107.24 14.5645 107.24 15.0472C107.261 15.5719 107.24 15.9916 107.24 16.3064ZM99.8532 14.6485C100.21 14.2078 100.399 13.6411 100.399 12.9906C100.399 12.1511 100.126 11.4795 99.5804 10.9549C99.0347 10.4302 98.3002 10.1784 97.3978 10.1784H93.6622V19.979H95.1313V15.7608H96.9571L99.0767 19.979H100.777L98.4681 15.5509C99.0347 15.404 99.4964 15.0892 99.8532 14.6485ZM95.1103 14.5016V11.4795H97.2719C97.7546 11.4795 98.1533 11.6264 98.4471 11.8783C98.7409 12.1511 98.9088 12.5289 98.9088 12.9906C98.9088 13.4523 98.7619 13.83 98.4681 14.0818C98.1743 14.3547 97.7755 14.4806 97.2719 14.4806H95.1103V14.5016Z" fill="#FCB717"/>
<path d="M125.688 8.24773H126.506V10.7871H126.947V8.24773H127.765V7.84899H125.688V8.24773ZM130.43 7.828L129.591 9.65382L128.731 7.828H128.29V10.7661H128.731V8.79338L129.423 10.2204H129.759L130.43 8.79338V10.7661H130.871V7.828H130.43Z" fill="#231815"/>
</svg>
