<svg width="104" height="21" viewBox="0 0 104 21" fill="none" xmlns="http://www.w3.org/2000/svg">
<path d="M34.8617 0H7.41021L4.13944 3.815H6.0629L0 21H27.4515L30.1195 13.44H21.6456L20.3249 17.185H9.81232L11.133 13.44L7.59635 11.4537H20.3426L21.6899 7.63875H13.1717L13.8188 5.80125L10.2821 3.815H25.0228L24.3225 5.80125H32.7964L34.8617 0Z" fill="#EAEAEA"/>
<path d="M101.952 5.80125L104 0H76.5485L73.2778 3.815H75.2012L69.1383 21H96.5898L99.2578 13.44H90.7839L89.4632 17.185H78.9507L82.966 5.80125L79.4293 3.815H94.17L93.4697 5.80125H101.952Z" fill="#EAEAEA"/>
<path d="M64.7773 0L59.4058 15.2162L62.9159 17.1938H53.9988L60.0706 0H51.5967L46.1897 15.2075L49.7087 17.185H40.7916L46.8811 0H38.4072L35.1365 3.815H37.0599L30.997 21H40.4548L49.7619 17.185L57.3582 21H65.575L73.003 0H64.7773Z" fill="#EAEAEA"/>
</svg>
